<svg id="eS5U3aFYpZ81" xmlns="http://www.w3.org/2000/svg" xmlns:xlink="http://www.w3.org/1999/xlink" viewBox="0 0 621 592" shape-rendering="geometricPrecision" text-rendering="geometricPrecision" project-id="b4f63d4589da4da0a2f2681465b254a0" export-id="54bb19cd1dc6449f9835bfe3b4a7f542" cached="true"><defs><filter id="eS5U3aFYpZ82-filter" x="-150%" y="-150%" width="400%" height="400%"><feGaussianBlur id="eS5U3aFYpZ82-filter-drop-shadow-0-blur" in="SourceAlpha" stdDeviation="10,10"/><feOffset id="eS5U3aFYpZ82-filter-drop-shadow-0-offset" dx="0" dy="0" result="tmp"/><feFlood id="eS5U3aFYpZ82-filter-drop-shadow-0-flood" flood-color="rgba(0,0,0,0)"/><feComposite id="eS5U3aFYpZ82-filter-drop-shadow-0-composite" operator="in" in2="tmp"/><feMerge id="eS5U3aFYpZ82-filter-drop-shadow-0-merge" result="result"><feMergeNode id="eS5U3aFYpZ82-filter-drop-shadow-0-merge-node-1"/><feMergeNode id="eS5U3aFYpZ82-filter-drop-shadow-0-merge-node-2" in="SourceGraphic"/></feMerge></filter><filter id="eS5U3aFYpZ88-filter" x="-150%" y="-150%" width="400%" height="400%"><feGaussianBlur id="eS5U3aFYpZ88-filter-drop-shadow-0-blur" in="SourceAlpha" stdDeviation="10,10"/><feOffset id="eS5U3aFYpZ88-filter-drop-shadow-0-offset" dx="0" dy="0" result="tmp"/><feFlood id="eS5U3aFYpZ88-filter-drop-shadow-0-flood" flood-color="rgba(0,0,0,0)"/><feComposite id="eS5U3aFYpZ88-filter-drop-shadow-0-composite" operator="in" in2="tmp"/><feMerge id="eS5U3aFYpZ88-filter-drop-shadow-0-merge" result="result"><feMergeNode id="eS5U3aFYpZ88-filter-drop-shadow-0-merge-node-1"/><feMergeNode id="eS5U3aFYpZ88-filter-drop-shadow-0-merge-node-2" in="SourceGraphic"/></feMerge></filter><filter id="eS5U3aFYpZ814-filter" x="-150%" y="-150%" width="400%" height="400%"><feGaussianBlur id="eS5U3aFYpZ814-filter-drop-shadow-0-blur" in="SourceAlpha" stdDeviation="10,10"/><feOffset id="eS5U3aFYpZ814-filter-drop-shadow-0-offset" dx="0" dy="0" result="tmp"/><feFlood id="eS5U3aFYpZ814-filter-drop-shadow-0-flood" flood-color="rgba(0,0,0,0)"/><feComposite id="eS5U3aFYpZ814-filter-drop-shadow-0-composite" operator="in" in2="tmp"/><feMerge id="eS5U3aFYpZ814-filter-drop-shadow-0-merge" result="result"><feMergeNode id="eS5U3aFYpZ814-filter-drop-shadow-0-merge-node-1"/><feMergeNode id="eS5U3aFYpZ814-filter-drop-shadow-0-merge-node-2" in="SourceGraphic"/></feMerge></filter><filter id="eS5U3aFYpZ820-filter" x="-150%" y="-150%" width="400%" height="400%"><feGaussianBlur id="eS5U3aFYpZ820-filter-drop-shadow-0-blur" in="SourceAlpha" stdDeviation="10,10"/><feOffset id="eS5U3aFYpZ820-filter-drop-shadow-0-offset" dx="0" dy="0" result="tmp"/><feFlood id="eS5U3aFYpZ820-filter-drop-shadow-0-flood" flood-color="rgba(0,0,0,0)"/><feComposite id="eS5U3aFYpZ820-filter-drop-shadow-0-composite" operator="in" in2="tmp"/><feMerge id="eS5U3aFYpZ820-filter-drop-shadow-0-merge" result="result"><feMergeNode id="eS5U3aFYpZ820-filter-drop-shadow-0-merge-node-1"/><feMergeNode id="eS5U3aFYpZ820-filter-drop-shadow-0-merge-node-2" in="SourceGraphic"/></feMerge></filter><filter id="eS5U3aFYpZ828-filter" x="-150%" y="-150%" width="400%" height="400%"><feGaussianBlur id="eS5U3aFYpZ828-filter-drop-shadow-0-blur" in="SourceAlpha" stdDeviation="10,10"/><feOffset id="eS5U3aFYpZ828-filter-drop-shadow-0-offset" dx="0" dy="0" result="tmp"/><feFlood id="eS5U3aFYpZ828-filter-drop-shadow-0-flood" flood-color="rgba(0,0,0,0)"/><feComposite id="eS5U3aFYpZ828-filter-drop-shadow-0-composite" operator="in" in2="tmp"/><feMerge id="eS5U3aFYpZ828-filter-drop-shadow-0-merge" result="result"><feMergeNode id="eS5U3aFYpZ828-filter-drop-shadow-0-merge-node-1"/><feMergeNode id="eS5U3aFYpZ828-filter-drop-shadow-0-merge-node-2" in="SourceGraphic"/></feMerge></filter><filter id="eS5U3aFYpZ834-filter" x="-150%" y="-150%" width="400%" height="400%"><feGaussianBlur id="eS5U3aFYpZ834-filter-drop-shadow-0-blur" in="SourceAlpha" stdDeviation="10,10"/><feOffset id="eS5U3aFYpZ834-filter-drop-shadow-0-offset" dx="0" dy="0" result="tmp"/><feFlood id="eS5U3aFYpZ834-filter-drop-shadow-0-flood" flood-color="rgba(0,0,0,0)"/><feComposite id="eS5U3aFYpZ834-filter-drop-shadow-0-composite" operator="in" in2="tmp"/><feMerge id="eS5U3aFYpZ834-filter-drop-shadow-0-merge" result="result"><feMergeNode id="eS5U3aFYpZ834-filter-drop-shadow-0-merge-node-1"/><feMergeNode id="eS5U3aFYpZ834-filter-drop-shadow-0-merge-node-2" in="SourceGraphic"/></feMerge></filter><filter id="eS5U3aFYpZ840-filter" x="-150%" y="-150%" width="400%" height="400%"><feGaussianBlur id="eS5U3aFYpZ840-filter-drop-shadow-0-blur" in="SourceAlpha" stdDeviation="10,10"/><feOffset id="eS5U3aFYpZ840-filter-drop-shadow-0-offset" dx="0" dy="0" result="tmp"/><feFlood id="eS5U3aFYpZ840-filter-drop-shadow-0-flood" flood-color="rgba(0,0,0,0)"/><feComposite id="eS5U3aFYpZ840-filter-drop-shadow-0-composite" operator="in" in2="tmp"/><feMerge id="eS5U3aFYpZ840-filter-drop-shadow-0-merge" result="result"><feMergeNode id="eS5U3aFYpZ840-filter-drop-shadow-0-merge-node-1"/><feMergeNode id="eS5U3aFYpZ840-filter-drop-shadow-0-merge-node-2" in="SourceGraphic"/></feMerge></filter><linearGradient id="eS5U3aFYpZ846-stroke" x1="447.089" y1="454.14" x2="336.474" y2="454.14" spreadMethod="pad" gradientUnits="userSpaceOnUse" gradientTransform="translate(0 0)"><stop id="eS5U3aFYpZ846-stroke-0" offset="0%" stop-color="#13ebe2"/><stop id="eS5U3aFYpZ846-stroke-1" offset="100%" stop-color="#9b66ff"/></linearGradient><linearGradient id="eS5U3aFYpZ847-stroke" x1="286.745" y1="267.01" x2="355.125" y2="267.01" spreadMethod="pad" gradientUnits="userSpaceOnUse" gradientTransform="translate(0 0)"><stop id="eS5U3aFYpZ847-stroke-0" offset="0%" stop-color="#13ebe2"/><stop id="eS5U3aFYpZ847-stroke-1" offset="100%" stop-color="#9b66ff"/></linearGradient><linearGradient id="eS5U3aFYpZ848-stroke" x1="286.745" y1="267.01" x2="355.125" y2="267.01" spreadMethod="pad" gradientUnits="userSpaceOnUse" gradientTransform="translate(0 0)"><stop id="eS5U3aFYpZ848-stroke-0" offset="0%" stop-color="#13ebe2"/><stop id="eS5U3aFYpZ848-stroke-1" offset="100%" stop-color="#9b66ff"/></linearGradient><linearGradient id="eS5U3aFYpZ849-stroke" x1="286.745" y1="267.01" x2="355.125" y2="267.01" spreadMethod="pad" gradientUnits="userSpaceOnUse" gradientTransform="translate(0 0)"><stop id="eS5U3aFYpZ849-stroke-0" offset="0%" stop-color="#13ebe2"/><stop id="eS5U3aFYpZ849-stroke-1" offset="100%" stop-color="#9b66ff"/></linearGradient><linearGradient id="eS5U3aFYpZ850-stroke" x1="450.125" y1="138.937" x2="542.64" y2="138.937" spreadMethod="pad" gradientUnits="userSpaceOnUse" gradientTransform="translate(0 0)"><stop id="eS5U3aFYpZ850-stroke-0" offset="0%" stop-color="#13ebe2"/><stop id="eS5U3aFYpZ850-stroke-1" offset="100%" stop-color="#9b66ff"/></linearGradient><linearGradient id="eS5U3aFYpZ851-stroke" x1="165.263" y1="195.416" x2="86.8267" y2="195.416" spreadMethod="pad" gradientUnits="userSpaceOnUse" gradientTransform="translate(0 0)"><stop id="eS5U3aFYpZ851-stroke-0" offset="0%" stop-color="#13ebe2"/><stop id="eS5U3aFYpZ851-stroke-1" offset="100%" stop-color="#9b66ff"/></linearGradient></defs><g id="eS5U3aFYpZ82" filter="url(#eS5U3aFYpZ82-filter)"><rect id="eS5U3aFYpZ83" width="100" height="100" rx="13.1818" ry="13.1818" transform="translate(458 449)" fill="none" stroke="#ccc"/><g id="eS5U3aFYpZ84" transform="translate(0 19.5)"><path id="eS5U3aFYpZ85" d="M508,463l6,12h14l-12,8l4,12-12-8-12,8l4-12-12-8h14l6-12Z" fill="rgba(33,240,230,0)" stroke="#ccc"/><path id="eS5U3aFYpZ86" d="M508,471l4.857,9.818h12.143l-9.714,7.364L517.714,498L508,490.636L498.286,498l2.428-9.818L491,480.818h12.143L508,471Z" opacity="0.8" fill="rgba(131,108,249,0)" stroke="#ccc"/></g><path id="eS5U3aFYpZ87" d="M476.984,515.455v-8.728h5.471v1.134h-4.155v2.659h3.87v1.129h-3.87v2.672h4.206v1.134h-5.522Zm8.134-6.546l1.444,2.548l1.458-2.548h1.393l-2.041,3.273l2.058,3.273h-1.393l-1.475-2.446-1.47,2.446h-1.398l2.037-3.273-2.011-3.273h1.398Zm5.603,9v-9h1.245v1.061h.106c.074-.136.18-.294.32-.473.139-.179.332-.335.579-.469.247-.136.574-.204.98-.204.529,0,1,.133,1.415.4.415.268.74.652.976,1.155.239.503.358,1.108.358,1.816c0,.707-.118,1.314-.354,1.819-.236.503-.559.891-.971,1.164-.412.269-.882.404-1.411.404-.398,0-.723-.066-.976-.2-.25-.133-.446-.29-.588-.469s-.251-.338-.328-.477h-.077v3.473h-1.274Zm1.249-5.727c0,.46.067.863.2,1.21.134.347.327.618.58.814.252.193.562.29.929.29.38,0,.698-.101.954-.303.256-.204.449-.481.58-.831.133-.349.2-.743.2-1.18c0-.432-.065-.82-.196-1.163-.128-.344-.321-.616-.58-.814-.255-.199-.575-.299-.958-.299-.37,0-.682.095-.938.286-.253.19-.444.456-.575.797s-.196.738-.196,1.193Zm8.979,3.405c-.645,0-1.201-.138-1.667-.414-.463-.278-.821-.669-1.074-1.172-.25-.505-.375-1.098-.375-1.777c0-.67.125-1.261.375-1.772.253-.512.606-.911,1.057-1.198.455-.287.986-.43,1.594-.43.369,0,.727.061,1.074.183.346.122.658.314.933.575.276.262.493.601.652,1.019.159.415.239.919.239,1.513v.451h-5.203v-.954h3.954c0-.335-.068-.632-.204-.891-.137-.261-.329-.467-.576-.618-.244-.15-.531-.226-.86-.226-.358,0-.671.089-.938.265-.264.173-.469.4-.614.681-.142.279-.213.581-.213.908v.746c0,.437.077.81.23,1.116.157.307.374.542.652.703.279.16.604.239.976.239.242,0,.462-.034.661-.102.199-.071.371-.176.515-.315.145-.14.256-.312.333-.516l1.206.217c-.097.355-.27.666-.52.933-.247.265-.558.471-.933.618-.373.145-.797.218-1.274.218Zm4.221-.132v-6.546h1.232v1.04h.068c.119-.352.33-.629.631-.831.304-.205.648-.307,1.031-.307.08,0,.173.003.281.009.111.005.198.012.26.021v1.219c-.051-.015-.142-.03-.272-.047-.131-.02-.262-.03-.392-.03-.302,0-.57.064-.806.192-.233.125-.417.299-.554.524-.136.221-.204.474-.204.758v3.998h-1.275Zm4.606,0v-6.546h1.274v6.546h-1.274Zm.643-7.556c-.221,0-.412-.074-.571-.221-.156-.151-.234-.33-.234-.537c0-.211.078-.39.234-.537.159-.151.35-.226.571-.226.222,0,.411.075.567.226.159.147.239.326.239.537c0,.207-.08.386-.239.537-.156.147-.345.221-.567.221Zm5.166,7.688c-.645,0-1.2-.138-1.666-.414-.463-.278-.821-.669-1.074-1.172-.25-.505-.375-1.098-.375-1.777c0-.67.125-1.261.375-1.772.253-.512.605-.911,1.057-1.198.455-.287.986-.43,1.594-.43.369,0,.727.061,1.074.183.346.122.657.314.933.575.275.262.493.601.652,1.019.159.415.238.919.238,1.513v.451h-5.203v-.954h3.955c0-.335-.068-.632-.205-.891-.136-.261-.328-.467-.575-.618-.244-.15-.531-.226-.861-.226-.358,0-.67.089-.937.265-.264.173-.469.4-.614.681-.142.279-.213.581-.213.908v.746c0,.437.077.81.23,1.116.156.307.374.542.652.703.279.16.604.239.976.239.241,0,.462-.034.661-.102.198-.071.37-.176.515-.315.145-.14.256-.312.333-.516l1.205.217c-.096.355-.269.666-.519.933-.248.265-.559.471-.934.618-.372.145-.797.218-1.274.218Zm5.496-4.019v3.887h-1.274v-6.546h1.223v1.065h.081c.151-.346.387-.625.708-.835.323-.21.731-.315,1.223-.315.446,0,.836.094,1.171.281.336.185.596.46.78.827.185.366.277.819.277,1.359v4.164h-1.274v-4.01c0-.475-.123-.846-.371-1.113-.247-.269-.586-.404-1.018-.404-.296,0-.558.064-.788.191-.228.128-.408.316-.542.563-.13.244-.196.54-.196.886Zm8.655,4.019c-.633,0-1.179-.144-1.636-.431-.455-.289-.804-.689-1.049-1.197-.244-.509-.366-1.091-.366-1.747c0-.665.125-1.252.375-1.76.25-.512.602-.911,1.057-1.198.454-.287.99-.43,1.606-.43.498,0,.941.092,1.33.277.389.182.703.437.942.767.241.329.385.714.43,1.155h-1.24c-.068-.307-.224-.571-.469-.793-.241-.221-.565-.332-.971-.332-.355,0-.667.094-.934.281-.264.185-.47.449-.617.793-.148.341-.222.744-.222,1.21c0,.477.072.889.217,1.236.145.346.35.615.614.805.267.19.581.286.942.286.241,0,.46-.044.656-.133.199-.09.365-.22.499-.387.136-.168.231-.37.285-.605h1.24c-.045.423-.183.801-.413,1.133s-.539.594-.925.784c-.384.191-.834.286-1.351.286Zm6.873,0c-.645,0-1.201-.138-1.667-.414-.463-.278-.821-.669-1.073-1.172-.25-.505-.375-1.098-.375-1.777c0-.67.125-1.261.375-1.772.252-.512.605-.911,1.056-1.198.455-.287.986-.43,1.594-.43.369,0,.727.061,1.074.183s.658.314.933.575c.276.262.493.601.652,1.019.159.415.239.919.239,1.513v.451h-5.203v-.954h3.954c0-.335-.068-.632-.204-.891-.137-.261-.328-.467-.576-.618-.244-.15-.531-.226-.86-.226-.358,0-.671.089-.938.265-.264.173-.469.4-.613.681-.142.279-.214.581-.214.908v.746c0,.437.077.81.231,1.116.156.307.373.542.652.703.278.16.603.239.975.239.242,0,.462-.034.661-.102.199-.071.371-.176.516-.315.144-.14.255-.312.332-.516l1.206.217c-.097.355-.27.666-.52.933-.247.265-.558.471-.933.618-.372.145-.797.218-1.274.218Zm-50.501,17.868h-2.826v-8.728h2.915c.855,0,1.59.175,2.203.524.614.347,1.084.846,1.411,1.496.329.648.494,1.425.494,2.331c0,.909-.166,1.691-.498,2.344-.33.653-.807,1.156-1.432,1.508-.625.35-1.381.525-2.267.525Zm-1.509-1.151h1.436c.665,0,1.218-.125,1.658-.375.44-.253.77-.618.989-1.095.218-.48.328-1.065.328-1.756c0-.684-.11-1.265-.328-1.743-.216-.477-.539-.839-.968-1.086-.429-.248-.961-.371-1.598-.371h-1.517v6.426Zm10.062,1.283c-.644,0-1.2-.138-1.666-.414-.463-.278-.821-.669-1.074-1.172-.25-.505-.375-1.098-.375-1.777c0-.67.125-1.261.375-1.772.253-.512.605-.911,1.057-1.198.455-.287.986-.43,1.594-.43.369,0,.727.061,1.074.183.346.122.657.314.933.575.276.262.493.601.652,1.019.159.415.239.919.239,1.513v.451h-5.203v-.954h3.954c0-.335-.068-.632-.204-.891-.137-.261-.329-.467-.576-.618-.244-.15-.531-.226-.861-.226-.358,0-.67.089-.937.265-.264.173-.469.4-.614.681-.142.279-.213.581-.213.908v.746c0,.437.077.81.23,1.116.157.307.374.542.652.703.279.16.604.239.976.239.242,0,.462-.034.661-.102.199-.071.37-.176.515-.315.145-.14.256-.312.333-.516l1.206.217c-.097.355-.27.666-.52.933-.247.265-.558.471-.933.618-.373.145-.797.218-1.275.218Zm9.127-5.08l-1.155.205c-.048-.148-.125-.289-.23-.422-.102-.134-.241-.243-.417-.328-.177-.086-.397-.128-.661-.128-.361,0-.662.081-.903.243-.242.159-.363.365-.363.618c0,.218.081.395.243.528.162.134.424.243.784.328l1.04.239c.603.139,1.051.354,1.347.643.295.29.443.666.443,1.13c0,.392-.114.741-.341,1.048-.224.304-.538.542-.942.716-.4.173-.865.26-1.393.26-.733,0-1.331-.157-1.794-.469-.463-.315-.747-.763-.852-1.342l1.231-.188c.077.321.234.564.473.729.239.162.55.243.933.243.418,0,.752-.087,1.002-.26.25-.176.375-.391.375-.644c0-.204-.077-.376-.23-.515-.151-.14-.382-.245-.695-.316l-1.108-.243c-.611-.139-1.062-.36-1.355-.664-.29-.304-.435-.689-.435-1.155c0-.387.108-.725.324-1.014.216-.29.514-.516.895-.678.381-.165.817-.247,1.308-.247.708,0,1.265.153,1.671.46.406.304.674.712.805,1.223Zm1.529,4.948v-6.546h1.274v6.546h-1.274Zm.643-7.556c-.221,0-.412-.074-.571-.221-.156-.151-.234-.33-.234-.537c0-.211.078-.39.234-.537.159-.151.35-.226.571-.226.222,0,.411.075.567.226.159.147.239.326.239.537c0,.207-.08.386-.239.537-.156.147-.345.221-.567.221Zm5.09,10.146c-.52,0-.968-.068-1.343-.204-.372-.136-.676-.317-.912-.541-.236-.225-.412-.47-.528-.737l1.095-.452c.077.125.179.257.307.396.131.142.307.263.528.362.225.1.513.15.865.15.483,0,.882-.118,1.198-.354.315-.233.473-.605.473-1.117v-1.287h-.081c-.077.14-.188.294-.333.465-.142.17-.338.318-.588.443s-.575.188-.975.188c-.518,0-.983-.121-1.398-.363-.412-.244-.739-.603-.98-1.078-.239-.477-.358-1.064-.358-1.76s.118-1.292.353-1.789c.239-.498.566-.878.981-1.143.414-.267.884-.4,1.41-.4.406,0,.734.068.984.204.25.134.445.29.584.469.142.179.252.337.328.473h.094v-1.061h1.249v6.69c0,.563-.131,1.025-.392,1.385-.262.361-.615.628-1.061.802-.444.173-.944.259-1.5.259Zm-.013-3.745c.366,0,.676-.085.929-.256.255-.173.449-.42.579-.741.134-.324.201-.712.201-1.164c0-.44-.066-.828-.196-1.163-.131-.335-.323-.597-.576-.784-.253-.191-.565-.286-.937-.286-.384,0-.703.1-.959.299-.256.196-.449.463-.58.801-.127.338-.191.716-.191,1.133c0,.429.065.806.196,1.13.13.323.324.576.579.758.259.182.577.273.955.273Zm5.949-2.732v3.887h-1.275v-6.546h1.223v1.065h.081c.151-.346.387-.625.708-.835.324-.21.731-.315,1.223-.315.446,0,.836.094,1.172.281.335.185.595.46.78.827.184.366.277.819.277,1.359v4.164h-1.275v-4.01c0-.475-.123-.846-.37-1.113-.248-.269-.587-.404-1.019-.404-.295,0-.558.064-.788.191-.227.128-.408.316-.541.563-.131.244-.196.54-.196.886Zm8.718,4.019c-.645,0-1.2-.138-1.666-.414-.463-.278-.821-.669-1.074-1.172-.25-.505-.375-1.098-.375-1.777c0-.67.125-1.261.375-1.772.253-.512.605-.911,1.057-1.198.455-.287.986-.43,1.594-.43.369,0,.727.061,1.074.183.346.122.657.314.933.575.276.262.493.601.652,1.019.159.415.239.919.239,1.513v.451h-5.204v-.954h3.955c0-.335-.068-.632-.205-.891-.136-.261-.328-.467-.575-.618-.244-.15-.531-.226-.861-.226-.358,0-.67.089-.937.265-.264.173-.469.4-.614.681-.142.279-.213.581-.213.908v.746c0,.437.077.81.23,1.116.157.307.374.542.652.703.279.16.604.239.976.239.242,0,.462-.034.661-.102.199-.071.37-.176.515-.315.145-.14.256-.312.333-.516l1.206.217c-.097.355-.27.666-.52.933-.247.265-.558.471-.933.618-.373.145-.797.218-1.275.218Zm4.222-.132v-6.546h1.232v1.04h.068c.119-.352.33-.629.631-.831.304-.205.647-.307,1.031-.307.08,0,.173.003.281.009.111.005.198.012.26.021v1.219c-.051-.015-.142-.03-.273-.047-.13-.02-.261-.03-.392-.03-.301,0-.569.064-.805.192-.233.125-.418.299-.554.524-.136.221-.205.474-.205.758v3.998h-1.274Z" fill="rgba(17,26,83,0)"/></g><g id="eS5U3aFYpZ88" filter="url(#eS5U3aFYpZ88-filter)"><rect id="eS5U3aFYpZ89" width="100" height="100" rx="13.1818" ry="13.1818" transform="translate(86 404)" fill="none" stroke="#ccc"/><g id="eS5U3aFYpZ810" transform="translate(0 19)"><path id="eS5U3aFYpZ811" d="M120,448h12v-24h-12v24Z" fill="rgba(33,240,230,0)" stroke="#ccc"/><path id="eS5U3aFYpZ812" d="M136,448h12v-16h-12v16Z" fill="rgba(131,108,249,0)" stroke="#ccc"/></g><path id="eS5U3aFYpZ813" d="M118.816,461.727v8.728h-1.317v-8.728h1.317Zm3.09,4.841v3.887h-1.275v-6.546h1.223v1.065h.081c.151-.346.387-.625.708-.835.324-.21.731-.315,1.223-.315.446,0,.836.094,1.172.281.335.185.595.46.779.827.185.366.277.819.277,1.359v4.164h-1.274v-4.01c0-.475-.123-.846-.37-1.113-.248-.269-.587-.404-1.019-.404-.295,0-.558.064-.788.191-.228.128-.408.316-.541.563-.131.244-.196.54-.196.886Zm10.802-1.061l-1.155.205c-.048-.148-.125-.289-.23-.422-.102-.134-.241-.243-.417-.328-.177-.086-.397-.128-.661-.128-.361,0-.662.081-.903.243-.242.159-.363.365-.363.618c0,.218.081.395.243.528.162.134.424.243.784.328l1.04.239c.602.139,1.051.354,1.347.643.295.29.443.666.443,1.13c0,.392-.114.741-.341,1.048-.224.304-.538.542-.942.716-.4.173-.865.26-1.393.26-.733,0-1.331-.157-1.794-.469-.463-.315-.747-.763-.853-1.342l1.232-.188c.077.321.234.564.473.729.239.162.55.243.933.243.418,0,.752-.087,1.002-.26.25-.176.375-.391.375-.644c0-.204-.077-.376-.23-.515-.151-.14-.383-.245-.695-.316l-1.108-.243c-.611-.139-1.062-.36-1.355-.664-.29-.304-.435-.689-.435-1.155c0-.387.108-.725.324-1.014.216-.29.514-.516.895-.678.381-.165.817-.247,1.308-.247.708,0,1.264.153,1.671.46.406.304.674.712.805,1.223Zm1.529,4.948v-6.546h1.274v6.546h-1.274Zm.643-7.556c-.221,0-.412-.074-.571-.221-.156-.151-.234-.33-.234-.537c0-.211.078-.39.234-.537.159-.151.35-.226.571-.226.222,0,.411.075.567.226.159.147.239.326.239.537c0,.207-.08.386-.239.537-.156.147-.345.221-.567.221Zm5.089,10.146c-.519,0-.967-.068-1.342-.204-.372-.136-.676-.317-.912-.541-.236-.225-.412-.47-.528-.737l1.095-.452c.077.125.179.257.307.396.13.142.307.263.528.362.225.1.513.15.865.15.483,0,.882-.118,1.198-.354.315-.233.473-.605.473-1.117v-1.287h-.081c-.077.14-.188.294-.333.465-.142.17-.338.318-.588.443s-.575.188-.976.188c-.517,0-.983-.121-1.397-.363-.412-.244-.739-.603-.98-1.078-.239-.477-.358-1.064-.358-1.76s.118-1.292.353-1.789c.239-.498.566-.878.98-1.143.415-.267.885-.4,1.411-.4.406,0,.734.068.984.204.25.134.445.29.584.469.142.179.252.337.328.473h.094v-1.061h1.249v6.69c0,.563-.131,1.025-.392,1.385-.262.361-.616.628-1.062.802-.443.173-.943.259-1.5.259Zm-.012-3.745c.366,0,.676-.085.929-.256.255-.173.449-.42.579-.741.134-.324.2-.712.2-1.164c0-.44-.065-.828-.196-1.163-.13-.335-.322-.597-.575-.784-.253-.191-.565-.286-.937-.286-.384,0-.703.1-.959.299-.256.196-.449.463-.58.801-.128.338-.191.716-.191,1.133c0,.429.065.806.196,1.13.13.323.323.576.579.758.259.182.577.273.955.273Zm5.949-2.732v3.887h-1.275v-8.728h1.257v3.247h.081c.154-.352.388-.632.704-.839.315-.207.727-.311,1.235-.311.449,0,.841.092,1.177.277.338.185.599.46.784.827.187.363.281.818.281,1.363v4.164h-1.274v-4.01c0-.48-.124-.853-.371-1.117-.247-.267-.591-.4-1.031-.4-.301,0-.571.064-.81.191-.236.128-.422.316-.558.563-.134.244-.2.54-.2.886Zm9-2.659v1.023h-3.576v-1.023h3.576Zm-2.617-1.568h1.274v6.192c0,.247.037.433.111.558.074.122.169.206.286.251.119.043.248.064.387.064.103,0,.192-.007.269-.021.076-.014.136-.026.179-.034l.23,1.052c-.074.029-.179.057-.315.086-.137.031-.307.048-.512.051-.335.005-.648-.054-.937-.179-.29-.125-.524-.318-.703-.58-.179-.261-.269-.589-.269-.984v-6.456Zm-34.837,26.114v-8.728h5.472v1.134h-4.155v2.659h3.869v1.129h-3.869v2.672h4.206v1.134h-5.523Zm8.403-3.887v3.887h-1.274v-6.546h1.223v1.065h.081c.15-.346.386-.625.707-.835.324-.21.732-.315,1.223-.315.446,0,.837.094,1.172.281.335.185.595.46.78.827.184.366.277.819.277,1.359v4.164h-1.274v-4.01c0-.475-.124-.846-.371-1.113-.247-.269-.587-.404-1.019-.404-.295,0-.558.064-.788.191-.227.128-.408.316-.541.563-.131.244-.196.54-.196.886Zm8.642,6.477c-.52,0-.968-.068-1.343-.204-.372-.136-.676-.317-.911-.541-.236-.225-.412-.47-.529-.737l1.095-.452c.077.125.179.257.307.396.131.142.307.263.529.362.224.1.512.15.865.15.483,0,.882-.118,1.197-.354.315-.233.473-.605.473-1.117v-1.287h-.081c-.077.14-.187.294-.332.465-.142.17-.338.318-.588.443s-.576.188-.976.188c-.517,0-.983-.121-1.398-.363-.412-.244-.739-.603-.98-1.078-.239-.477-.358-1.064-.358-1.76s.118-1.292.354-1.789c.238-.498.565-.878.98-1.143.415-.267.885-.4,1.41-.4.407,0,.735.068.985.204.25.134.444.29.583.469.143.179.252.337.329.473h.093v-1.061h1.249v6.69c0,.563-.131,1.025-.392,1.385-.261.361-.615.628-1.061.802-.443.173-.943.259-1.5.259Zm-.013-3.745c.366,0,.676-.085.929-.256.256-.173.449-.42.58-.741.133-.324.2-.712.2-1.164c0-.44-.066-.828-.196-1.163-.131-.335-.323-.597-.575-.784-.253-.191-.566-.286-.938-.286-.384,0-.703.1-.959.299-.255.196-.449.463-.579.801-.128.338-.192.716-.192,1.133c0,.429.065.806.196,1.13.131.323.324.576.579.758.259.182.577.273.955.273Zm4.675,1.155v-6.546h1.274v6.546h-1.274Zm.643-7.556c-.221,0-.412-.074-.571-.221-.156-.151-.234-.33-.234-.537c0-.211.078-.39.234-.537.159-.151.35-.226.571-.226.222,0,.411.075.567.226.159.147.239.326.239.537c0,.207-.08.386-.239.537-.156.147-.345.221-.567.221Zm3.619,3.669v3.887h-1.274v-6.546h1.223v1.065h.081c.151-.346.386-.625.707-.835.324-.21.732-.315,1.223-.315.446,0,.837.094,1.172.281.335.185.595.46.78.827.185.366.277.819.277,1.359v4.164h-1.274v-4.01c0-.475-.124-.846-.371-1.113-.247-.269-.586-.404-1.018-.404-.296,0-.559.064-.789.191-.227.128-.407.316-.541.563-.13.244-.196.54-.196.886Zm8.719,4.019c-.645,0-1.2-.138-1.666-.414-.463-.278-.821-.669-1.074-1.172-.25-.505-.375-1.098-.375-1.777c0-.67.125-1.261.375-1.772.253-.512.605-.911,1.057-1.198.454-.287.985-.43,1.593-.43.37,0,.728.061,1.074.183.347.122.658.314.934.575.275.262.492.601.652,1.019.159.415.238.919.238,1.513v.451h-5.203v-.954h3.955c0-.335-.069-.632-.205-.891-.136-.261-.328-.467-.575-.618-.245-.15-.532-.226-.861-.226-.358,0-.671.089-.938.265-.264.173-.468.4-.613.681-.142.279-.213.581-.213.908v.746c0,.437.076.81.23,1.116.156.307.373.542.652.703.278.16.604.239.976.239.241,0,.461-.034.66-.102.199-.071.371-.176.516-.315.145-.14.256-.312.332-.516l1.206.217c-.096.355-.27.666-.52.933-.247.265-.558.471-.933.618-.372.145-.797.218-1.274.218Z" fill="rgba(17,26,83,0)"/></g><g id="eS5U3aFYpZ814" filter="url(#eS5U3aFYpZ814-filter)"><rect id="eS5U3aFYpZ815" width="100" height="100" rx="13.1818" ry="13.1818" transform="translate(290 309)" fill="none" stroke="#ccc"/><g id="eS5U3aFYpZ816" transform="translate(0 21)"><path id="eS5U3aFYpZ817" d="M333,341l6-9h12l6,9-6,9h-12l-6-9Z" fill="rgba(33,240,230,0)" stroke="#ccc"/><path id="eS5U3aFYpZ818" d="M324,341l6-9h12l6,9-6,9h-12l-6-9Z" opacity="0.8" fill="rgba(131,108,249,0)" stroke="#ccc"/></g><path id="eS5U3aFYpZ819" d="M311.474,375.455v-8.728h3.111c.679,0,1.241.124,1.687.371s.78.585,1.002,1.014c.221.426.332.907.332,1.441c0,.537-.112,1.019-.337,1.448-.221.427-.556.765-1.005,1.015-.446.247-1.007.37-1.684.37h-2.139v-1.116h2.02c.429,0,.777-.074,1.044-.222.267-.15.463-.355.588-.613.125-.259.188-.553.188-.882c0-.33-.063-.623-.188-.878-.125-.256-.322-.456-.592-.601-.267-.145-.619-.217-1.057-.217h-1.653v7.598h-1.317Zm7.573,0v-6.546h1.232v1.04h.068c.119-.352.33-.629.631-.831.304-.205.648-.307,1.031-.307.08,0,.173.003.281.009.111.005.198.012.26.021v1.219c-.051-.015-.142-.03-.272-.047-.131-.02-.262-.03-.393-.03-.301,0-.569.064-.805.192-.233.125-.418.299-.554.524-.136.221-.204.474-.204.758v3.998h-1.275Zm7.129.132c-.614,0-1.15-.141-1.607-.422s-.812-.675-1.065-1.181c-.253-.505-.38-1.096-.38-1.772c0-.679.127-1.273.38-1.782.253-.508.608-.903,1.065-1.184s.993-.422,1.607-.422c.613,0,1.149.141,1.606.422.458.281.813.676,1.065,1.184.253.509.38,1.103.38,1.782c0,.676-.127,1.267-.38,1.772-.252.506-.607.9-1.065,1.181-.457.281-.993.422-1.606.422Zm.004-1.07c.398,0,.727-.105.989-.315.261-.21.454-.49.579-.84.128-.349.192-.734.192-1.155c0-.417-.064-.801-.192-1.15-.125-.352-.318-.635-.579-.848-.262-.213-.591-.32-.989-.32-.401,0-.733.107-.997.32-.262.213-.456.496-.584.848-.125.349-.188.733-.188,1.15c0,.421.063.806.188,1.155.128.35.322.63.584.84.264.21.596.315.997.315Zm4.469.938v-6.546h1.223v1.065h.081c.136-.36.359-.642.669-.843.31-.205.68-.307,1.112-.307.438,0,.804.102,1.1.307.298.204.518.486.66.843h.068c.157-.349.405-.627.746-.835.341-.21.747-.315,1.219-.315.594,0,1.078.186,1.453.558.378.372.567.933.567,1.683v4.39h-1.274v-4.27c0-.443-.121-.765-.363-.963-.241-.199-.529-.299-.865-.299-.414,0-.737.128-.967.384-.23.253-.345.578-.345.976v4.172h-1.27v-4.351c0-.355-.111-.641-.332-.857-.222-.216-.51-.324-.866-.324-.241,0-.464.064-.669.192-.201.125-.365.3-.49.524-.122.225-.183.485-.183.78v4.036h-1.274Zm13.363.132c-.614,0-1.15-.141-1.607-.422s-.812-.675-1.065-1.181c-.253-.505-.38-1.096-.38-1.772c0-.679.127-1.273.38-1.782.253-.508.608-.903,1.065-1.184s.993-.422,1.607-.422c.613,0,1.149.141,1.606.422s.813.676,1.065,1.184c.253.509.38,1.103.38,1.782c0,.676-.127,1.267-.38,1.772-.252.506-.608.9-1.065,1.181s-.993.422-1.606.422Zm.004-1.07c.398,0,.727-.105.988-.315.262-.21.455-.49.58-.84.128-.349.192-.734.192-1.155c0-.417-.064-.801-.192-1.15-.125-.352-.318-.635-.58-.848-.261-.213-.59-.32-.988-.32-.401,0-.733.107-.997.32-.262.213-.456.496-.584.848-.125.349-.188.733-.188,1.15c0,.421.063.806.188,1.155.128.35.322.63.584.84.264.21.596.315.997.315Zm7.524-5.608v1.023h-3.575v-1.023h3.575Zm-2.616-1.568h1.274v6.192c0,.247.037.433.111.558.074.122.169.206.285.251.12.043.249.064.388.064.102,0,.192-.007.269-.021.076-.014.136-.026.179-.034l.23,1.052c-.074.029-.179.057-.316.086-.136.031-.307.048-.511.051-.335.005-.648-.054-.938-.179-.289-.125-.524-.318-.703-.58-.179-.261-.268-.589-.268-.984v-6.456Zm4.026,8.114v-6.546h1.274v6.546h-1.274Zm.643-7.556c-.221,0-.412-.074-.571-.221-.156-.151-.234-.33-.234-.537c0-.211.078-.39.234-.537.159-.151.35-.226.571-.226.222,0,.411.075.567.226.159.147.239.326.239.537c0,.207-.08.386-.239.537-.156.147-.345.221-.567.221Zm5.102,7.688c-.614,0-1.149-.141-1.606-.422-.458-.281-.813-.675-1.066-1.181-.253-.505-.379-1.096-.379-1.772c0-.679.126-1.273.379-1.782.253-.508.608-.903,1.066-1.184.457-.281.992-.422,1.606-.422s1.149.141,1.607.422c.457.281.812.676,1.065,1.184.253.509.379,1.103.379,1.782c0,.676-.126,1.267-.379,1.772-.253.506-.608.9-1.065,1.181-.458.281-.993.422-1.607.422Zm.004-1.07c.398,0,.728-.105.989-.315s.455-.49.58-.84c.127-.349.191-.734.191-1.155c0-.417-.064-.801-.191-1.15-.125-.352-.319-.635-.58-.848s-.591-.32-.989-.32c-.4,0-.733.107-.997.32-.261.213-.456.496-.584.848-.125.349-.187.733-.187,1.15c0,.421.062.806.187,1.155.128.35.323.63.584.84.264.21.597.315.997.315Zm5.744-2.949v3.887h-1.274v-6.546h1.223v1.065h.08c.151-.346.387-.625.708-.835.324-.21.731-.315,1.223-.315.446,0,.837.094,1.172.281.335.185.595.46.78.827.184.366.277.819.277,1.359v4.164h-1.275v-4.01c0-.475-.123-.846-.37-1.113-.247-.269-.587-.404-1.019-.404-.295,0-.558.064-.788.191-.227.128-.408.316-.541.563-.131.244-.196.54-.196.886Zm-45.229,21.887v-8.728h3.111c.679,0,1.241.124,1.687.371s.78.585,1.002,1.014c.221.426.332.907.332,1.441c0,.537-.112,1.019-.336,1.448-.222.427-.557.765-1.006,1.015-.446.247-1.007.37-1.683.37h-2.14v-1.116h2.02c.429,0,.777-.074,1.044-.222.267-.15.463-.355.588-.613.125-.259.188-.553.188-.882c0-.33-.063-.623-.188-.878-.125-.256-.322-.456-.592-.601-.267-.145-.619-.217-1.057-.217h-1.653v7.598h-1.317Zm8.848-8.728v8.728h-1.274v-8.728h1.274Zm3.619,8.872c-.415,0-.79-.076-1.125-.23-.335-.156-.601-.382-.797-.677-.193-.296-.29-.658-.29-1.087c0-.369.071-.673.213-.912.142-.238.334-.427.575-.567.242-.139.512-.244.81-.315s.602-.125.912-.162c.392-.045.71-.082.955-.111.244-.031.421-.081.532-.149s.166-.179.166-.332v-.03c0-.372-.105-.66-.315-.865-.207-.205-.517-.307-.929-.307-.429,0-.767.095-1.014.286-.244.187-.413.396-.507.626l-1.198-.273c.142-.397.35-.718.623-.963.275-.247.592-.426.95-.537.358-.113.734-.17,1.129-.17.261,0,.538.031.831.094.296.059.571.17.827.332.258.162.47.394.635.695.164.298.247.686.247,1.163v4.347h-1.244v-.895h-.052c-.082.164-.206.326-.37.485-.165.16-.377.292-.635.397-.259.105-.568.157-.929.157Zm.277-1.022c.352,0,.653-.07.903-.209.253-.139.445-.321.575-.546.134-.227.201-.47.201-.728v-.844c-.046.045-.134.088-.264.128-.128.037-.275.069-.439.098-.165.025-.326.05-.482.072-.156.02-.287.037-.392.051-.247.032-.473.084-.678.158-.201.074-.363.181-.485.32-.12.136-.179.318-.179.545c0,.316.116.554.349.716.233.159.53.239.891.239Zm5.924-3.009v3.887h-1.274v-6.546h1.223v1.065h.081c.15-.346.386-.625.707-.835.324-.21.732-.315,1.223-.315.446,0,.837.094,1.172.281.335.185.595.46.78.827.185.366.277.819.277,1.359v4.164h-1.274v-4.01c0-.475-.124-.846-.371-1.113-.247-.269-.587-.404-1.018-.404-.296,0-.559.064-.789.191-.227.128-.407.316-.541.563-.131.244-.196.54-.196.886Zm7.172,0v3.887h-1.274v-6.546h1.223v1.065h.081c.15-.346.386-.625.707-.835.324-.21.732-.315,1.223-.315.446,0,.837.094,1.172.281.335.185.595.46.78.827.185.366.277.819.277,1.359v4.164h-1.274v-4.01c0-.475-.124-.846-.371-1.113-.247-.269-.587-.404-1.018-.404-.296,0-.559.064-.789.191-.227.128-.407.316-.541.563-.131.244-.196.54-.196.886Zm8.719,4.019c-.645,0-1.201-.138-1.666-.414-.464-.278-.821-.669-1.074-1.172-.25-.505-.375-1.098-.375-1.777c0-.67.125-1.261.375-1.772.253-.512.605-.911,1.056-1.198.455-.287.986-.43,1.594-.43.37,0,.728.061,1.074.183.347.122.658.314.933.575.276.262.493.601.652,1.019.159.415.239.919.239,1.513v.451h-5.203v-.954h3.954c0-.335-.068-.632-.204-.891-.137-.261-.328-.467-.575-.618-.245-.15-.532-.226-.861-.226-.358,0-.671.089-.938.265-.264.173-.468.4-.613.681-.142.279-.213.581-.213.908v.746c0,.437.076.81.23,1.116.156.307.373.542.652.703.278.16.603.239.976.239.241,0,.461-.034.66-.102.199-.071.371-.176.516-.315.145-.14.255-.312.332-.516l1.206.217c-.097.355-.27.666-.52.933-.247.265-.558.471-.933.618-.372.145-.797.218-1.274.218Zm4.222-.132v-6.546h1.231v1.04h.068c.12-.352.33-.629.631-.831.304-.205.648-.307,1.031-.307.08,0,.174.003.282.009.11.005.197.012.26.021v1.219c-.052-.015-.143-.03-.273-.047-.131-.02-.262-.03-.392-.03-.301,0-.57.064-.806.192-.233.125-.417.299-.554.524-.136.221-.204.474-.204.758v3.998h-1.274Z" fill="rgba(17,26,83,0)"/></g><g id="eS5U3aFYpZ820" filter="url(#eS5U3aFYpZ820-filter)"><rect id="eS5U3aFYpZ821" width="100" height="100" rx="13.1818" ry="13.1818" transform="translate(488 189)" fill="none" stroke="#ccc"/><g id="eS5U3aFYpZ822" transform="translate(0 22.5)"><path id="eS5U3aFYpZ823" d="M542.41,209c-.852,0-1.542.69-1.542,1.543c0,.852.69,1.542,1.542,1.542h3.995l-5.846,5.846-5.985-2.99-10.008,6.675c-.713.472-.903,1.431-.427,2.143.298.449.786.69,1.285.69.292,0,.595-.084.853-.258l8.521-5.682l6.373,3.186l7.416-7.422v3.994c0,.853.69,1.543,1.542,1.543.853,0,1.543-.69,1.543-1.543v-9.267h-9.262Z" fill="rgba(131,108,249,0)" stroke="#ccc"/><path id="eS5U3aFYpZ824" d="M544.633,232h6.732v-10.098h-6.732v10.098Z" fill="none" stroke="#ccc"/><path id="eS5U3aFYpZ825" d="M535.656,232h6.732v-6.732h-6.732v6.732Z" fill="none" stroke="#ccc"/><path id="eS5U3aFYpZ826" d="M526.682,232h6.731v-3.366h-6.731v3.366Z" fill="none" stroke="#ccc"/></g><path id="eS5U3aFYpZ827" d="M528.208,249.02c-.045-.403-.233-.716-.562-.938-.33-.224-.744-.336-1.244-.336-.358,0-.668.057-.929.17-.262.111-.465.264-.61.46-.142.194-.213.414-.213.661c0,.207.049.386.145.537.1.15.229.277.388.379.162.1.335.183.52.252.184.065.362.119.532.162l.853.221c.278.068.564.161.856.277.293.117.564.27.814.46.25.191.452.426.605.708.157.281.235.618.235,1.01c0,.494-.128.933-.384,1.316-.253.384-.621.686-1.104.908-.48.222-1.061.332-1.742.332-.654,0-1.219-.103-1.696-.311-.478-.207-.851-.501-1.121-.882-.27-.383-.419-.838-.448-1.363h1.321c.026.315.128.578.307.788.182.207.414.362.695.464.284.1.595.15.933.15.372,0,.703-.059.993-.175.293-.119.523-.284.69-.494.168-.213.252-.462.252-.746c0-.259-.074-.47-.222-.635-.145-.165-.342-.301-.592-.409-.247-.108-.527-.203-.84-.286l-1.031-.281c-.699-.19-1.253-.47-1.662-.839-.406-.37-.609-.858-.609-1.466c0-.503.136-.942.409-1.317s.642-.666,1.108-.874c.466-.21.991-.315,1.576-.315.591,0,1.113.104,1.564.311.455.207.813.493,1.074.857.262.36.398.775.409,1.244h-1.27Zm4.766,6.579c-.415,0-.79-.076-1.125-.23-.336-.156-.601-.382-.797-.677-.193-.296-.29-.658-.29-1.087c0-.369.071-.673.213-.912.142-.238.334-.427.575-.567.242-.139.512-.244.81-.315s.602-.125.912-.162c.392-.045.71-.082.955-.111.244-.031.421-.081.532-.149s.166-.179.166-.332v-.03c0-.372-.105-.66-.315-.865-.207-.205-.517-.307-.929-.307-.429,0-.767.095-1.014.286-.244.187-.413.396-.507.626l-1.198-.273c.142-.397.35-.718.623-.963.275-.247.592-.426.95-.537.358-.113.734-.17,1.129-.17.261,0,.538.031.831.094.295.059.571.17.827.332.258.162.47.394.635.695.164.298.247.686.247,1.163v4.347h-1.244v-.895h-.052c-.082.164-.206.326-.37.485-.165.16-.377.292-.635.397-.259.105-.568.157-.929.157Zm.277-1.022c.352,0,.653-.07.903-.209.253-.139.445-.321.575-.546.134-.227.201-.47.201-.728v-.844c-.046.045-.134.088-.265.128-.127.037-.274.069-.438.098-.165.025-.326.05-.482.072-.156.02-.287.037-.392.051-.247.032-.473.084-.678.158-.201.074-.363.181-.485.32-.12.136-.179.318-.179.545c0,.316.116.554.349.716.233.159.53.239.891.239Zm5.924-7.85v8.728h-1.274v-8.728h1.274Zm4.535,8.86c-.645,0-1.2-.138-1.666-.414-.463-.278-.821-.669-1.074-1.172-.25-.505-.375-1.098-.375-1.777c0-.67.125-1.261.375-1.772.253-.512.605-.911,1.057-1.198.455-.287.986-.43,1.594-.43.369,0,.727.061,1.074.183.346.122.657.314.933.575.275.262.493.601.652,1.019.159.415.238.919.238,1.513v.451h-5.203v-.954h3.955c0-.335-.068-.632-.205-.891-.136-.261-.328-.467-.575-.618-.244-.15-.531-.226-.861-.226-.358,0-.67.089-.937.265-.264.173-.469.4-.614.681-.142.279-.213.581-.213.908v.746c0,.437.077.81.23,1.116.156.307.374.542.652.703.279.16.604.239.976.239.241,0,.462-.034.661-.102.198-.071.37-.176.515-.315.145-.14.256-.312.333-.516l1.205.217c-.096.355-.269.666-.519.933-.248.265-.559.471-.934.618-.372.145-.797.218-1.274.218Zm9.127-5.08l-1.155.205c-.048-.148-.125-.289-.23-.422-.102-.134-.241-.243-.418-.328-.176-.086-.396-.128-.66-.128-.361,0-.662.081-.903.243-.242.159-.363.365-.363.618c0,.218.081.395.243.528.162.134.424.243.784.328l1.04.239c.602.139,1.051.354,1.347.643.295.29.443.666.443,1.13c0,.392-.114.741-.341,1.048-.224.304-.538.542-.942.716-.4.173-.865.26-1.393.26-.733,0-1.331-.157-1.794-.469-.463-.315-.747-.763-.853-1.342l1.232-.188c.077.321.234.564.473.729.239.162.55.243.933.243.418,0,.752-.087,1.002-.26.25-.176.375-.391.375-.644c0-.204-.077-.376-.231-.515-.15-.14-.382-.245-.694-.316l-1.108-.243c-.611-.139-1.063-.36-1.355-.664-.29-.304-.435-.689-.435-1.155c0-.387.108-.725.324-1.014.216-.29.514-.516.895-.678.381-.165.817-.247,1.308-.247.708,0,1.264.153,1.671.46.406.304.674.712.805,1.223Zm-36.273,22.948v-8.728h3.196c.619,0,1.132.103,1.538.307.406.202.71.476.912.823.202.343.303.731.303,1.163c0,.364-.067.67-.201.92-.133.248-.312.446-.537.597-.221.148-.466.256-.733.324v.085c.29.014.573.108.848.281.279.171.509.414.691.729s.273.699.273,1.151c0,.446-.106.846-.316,1.201-.207.353-.528.632-.963.84-.435.204-.99.307-1.666.307h-3.345Zm1.317-1.13h1.9c.631,0,1.082-.122,1.355-.366s.409-.55.409-.916c0-.276-.069-.529-.209-.759-.139-.23-.338-.413-.596-.55-.256-.136-.56-.204-.912-.204h-1.947v2.795Zm0-3.822h1.764c.295,0,.561-.057.797-.171.238-.113.427-.272.566-.477.142-.207.213-.452.213-.733c0-.361-.126-.663-.379-.907-.253-.245-.64-.367-1.163-.367h-1.798v2.655Zm9.189,5.084c-.614,0-1.149-.141-1.606-.422-.458-.281-.813-.675-1.066-1.181-.253-.505-.379-1.096-.379-1.772c0-.679.126-1.273.379-1.782.253-.508.608-.903,1.066-1.184.457-.281.992-.422,1.606-.422s1.149.141,1.607.422c.457.281.812.676,1.065,1.184.253.509.379,1.103.379,1.782c0,.676-.126,1.267-.379,1.772-.253.506-.608.9-1.065,1.181-.458.281-.993.422-1.607.422Zm.004-1.07c.398,0,.728-.105.989-.315s.455-.49.58-.84c.127-.349.191-.734.191-1.155c0-.417-.064-.801-.191-1.15-.125-.352-.319-.635-.58-.848s-.591-.32-.989-.32c-.4,0-.733.107-.997.32-.261.213-.456.496-.584.848-.125.349-.187.733-.187,1.15c0,.421.062.806.187,1.155.128.35.323.63.584.84.264.21.597.315.997.315Zm7.227,1.07c-.614,0-1.15-.141-1.607-.422s-.812-.675-1.065-1.181c-.253-.505-.38-1.096-.38-1.772c0-.679.127-1.273.38-1.782.253-.508.608-.903,1.065-1.184s.993-.422,1.607-.422c.613,0,1.149.141,1.606.422.458.281.813.676,1.065,1.184.253.509.38,1.103.38,1.782c0,.676-.127,1.267-.38,1.772-.252.506-.607.9-1.065,1.181-.457.281-.993.422-1.606.422Zm.004-1.07c.398,0,.727-.105.989-.315.261-.21.454-.49.579-.84.128-.349.192-.734.192-1.155c0-.417-.064-.801-.192-1.15-.125-.352-.318-.635-.579-.848-.262-.213-.591-.32-.989-.32-.401,0-.733.107-.997.32-.262.213-.456.496-.584.848-.125.349-.188.733-.188,1.15c0,.421.063.806.188,1.155.128.35.322.63.584.84.264.21.596.315.997.315Zm9.374-4.01l-1.155.205c-.048-.148-.125-.289-.23-.422-.102-.134-.242-.243-.418-.328-.176-.086-.396-.128-.66-.128-.361,0-.662.081-.904.243-.241.159-.362.365-.362.618c0,.218.081.395.243.528.162.134.423.243.784.328l1.04.239c.602.139,1.051.354,1.346.643.296.29.444.666.444,1.13c0,.392-.114.741-.341,1.048-.225.304-.539.542-.942.716-.401.173-.865.26-1.393.26-.733,0-1.331-.157-1.795-.469-.463-.315-.747-.763-.852-1.342l1.232-.188c.076.321.234.564.473.729.238.162.549.243.933.243.418,0,.751-.087,1.001-.26.25-.176.375-.391.375-.644c0-.204-.076-.376-.23-.515-.15-.14-.382-.245-.694-.316l-1.108-.243c-.611-.139-1.063-.36-1.355-.664-.29-.304-.435-.689-.435-1.155c0-.387.108-.725.324-1.014.216-.29.514-.516.895-.678.38-.165.816-.247,1.308-.247.707,0,1.264.153,1.67.46.407.304.675.712.806,1.223Zm4.584-1.598v1.023h-3.575v-1.023h3.575Zm-2.617-1.568h1.275v6.192c0,.247.037.433.11.558.074.122.169.206.286.251.119.043.249.064.388.064.102,0,.191-.007.268-.021s.137-.026.179-.034l.23,1.052c-.074.029-.179.057-.315.086-.136.031-.307.048-.511.051-.336.005-.648-.054-.938-.179s-.524-.318-.703-.58c-.179-.261-.269-.589-.269-.984v-6.456Zm6.777,8.246c-.645,0-1.2-.138-1.666-.414-.463-.278-.821-.669-1.074-1.172-.25-.505-.375-1.098-.375-1.777c0-.67.125-1.261.375-1.772.253-.512.605-.911,1.057-1.198.454-.287.986-.43,1.594-.43.369,0,.727.061,1.073.183.347.122.658.314.934.575.275.262.493.601.652,1.019.159.415.238.919.238,1.513v.451h-5.203v-.954h3.955c0-.335-.068-.632-.205-.891-.136-.261-.328-.467-.575-.618-.244-.15-.531-.226-.861-.226-.358,0-.67.089-.937.265-.265.173-.469.4-.614.681-.142.279-.213.581-.213.908v.746c0,.437.077.81.23,1.116.156.307.374.542.652.703.278.16.604.239.976.239.241,0,.462-.034.66-.102.199-.071.371-.176.516-.315.145-.14.256-.312.332-.516l1.206.217c-.096.355-.269.666-.519.933-.248.265-.559.471-.934.618-.372.145-.797.218-1.274.218Zm4.222-.132v-6.546h1.232v1.04h.068c.119-.352.329-.629.63-.831.304-.205.648-.307,1.032-.307.079,0,.173.003.281.009.111.005.197.012.26.021v1.219c-.051-.015-.142-.03-.273-.047-.131-.02-.261-.03-.392-.03-.301,0-.569.064-.805.192-.233.125-.418.299-.554.524-.137.221-.205.474-.205.758v3.998h-1.274Z" fill="rgba(17,26,83,0)"/></g><g id="eS5U3aFYpZ828" filter="url(#eS5U3aFYpZ828-filter)"><rect id="eS5U3aFYpZ829" width="100" height="100" rx="13.1818" ry="13.1818" transform="translate(350 43)" fill="none" stroke="#ccc"/><g id="eS5U3aFYpZ830" transform="translate(0-5.5)"><path id="eS5U3aFYpZ831" d="M384,96l16-28l16,28h-32Z" fill="rgba(33,240,230,0)" stroke="#ccc"/><path id="eS5U3aFYpZ832" d="M389,103l11-19l11,19h-22Z" opacity="0.8" fill="rgba(131,108,249,0)" stroke="#ccc"/></g><path id="eS5U3aFYpZ833" d="M368.438,129h-1.398l3.141-8.727h1.521L374.843,129h-1.398l-2.467-7.142h-.068L368.438,129Zm.235-3.418h4.534v1.108h-4.534v-1.108Zm8.747-5.309v8.727h-1.317v-8.727h1.317Zm5.093,0h1.599l2.778,6.784h.102l2.779-6.784h1.598v8.727h-1.253v-6.315h-.081l-2.574,6.302h-1.04l-2.574-6.307h-.081v6.32h-1.253v-8.727Zm12.573,8.872c-.415,0-.79-.077-1.125-.23-.336-.156-.601-.382-.797-.678-.193-.295-.29-.657-.29-1.086c0-.37.071-.674.213-.912.142-.239.334-.428.575-.567.242-.139.512-.244.81-.315s.602-.125.912-.162c.392-.046.71-.083.954-.111.245-.031.422-.081.533-.149.111-.069.166-.179.166-.333v-.03c0-.372-.105-.66-.315-.865-.207-.204-.517-.306-.929-.306-.429,0-.767.095-1.014.285-.245.188-.414.396-.507.626l-1.198-.272c.142-.398.35-.719.622-.963.276-.247.593-.426.951-.537.358-.114.734-.171,1.129-.171.261,0,.538.032.831.094.295.06.571.171.827.332.258.162.47.394.635.695.164.298.247.686.247,1.163v4.347h-1.245v-.895h-.051c-.082.165-.206.327-.37.486-.165.159-.377.291-.635.396-.259.105-.569.158-.929.158Zm.277-1.023c.352,0,.653-.069.903-.209.253-.139.445-.321.575-.545.134-.227.201-.47.201-.729v-.844c-.046.046-.134.089-.265.128-.127.037-.274.07-.439.098-.164.026-.325.05-.481.073-.156.02-.287.037-.392.051-.247.031-.473.084-.678.158-.201.073-.363.18-.486.319-.119.137-.178.318-.178.546c0,.315.116.554.349.716.233.159.53.238.891.238Zm4.65.878v-6.545h1.231v1.039h.068c.12-.352.33-.629.631-.831.304-.204.648-.306,1.031-.306.08,0,.174.002.282.008.11.006.197.013.26.021v1.219c-.052-.014-.142-.03-.273-.047-.131-.02-.261-.03-.392-.03-.301,0-.57.064-.806.192-.232.125-.417.3-.554.524-.136.222-.204.475-.204.759v3.997h-1.274Zm5.777-2.22l-.008-1.556h.221l2.608-2.769h1.526l-2.975,3.153h-.2l-1.172,1.172ZM404.618,129v-8.727h1.274v8.727h-1.274Zm4.134,0l-2.344-3.111.878-.89l3.03,4.001h-1.564Zm5.097.132c-.644,0-1.2-.138-1.666-.413-.463-.279-.821-.669-1.074-1.172-.25-.506-.375-1.098-.375-1.777c0-.671.125-1.261.375-1.773.253-.511.605-.91,1.057-1.197.455-.287.986-.431,1.594-.431.369,0,.727.061,1.074.184.346.122.657.313.933.575.276.261.493.601.652,1.018.159.415.239.919.239,1.513v.452h-5.203v-.955h3.954c0-.335-.068-.632-.204-.89-.137-.262-.329-.468-.576-.618-.244-.151-.531-.226-.861-.226-.357,0-.67.088-.937.264-.264.173-.469.401-.614.682-.142.278-.213.581-.213.908v.745c0,.438.077.81.23,1.117.157.307.374.541.652.703.279.159.604.239.976.239.242,0,.462-.035.661-.103.199-.071.37-.176.515-.315s.256-.311.333-.516l1.206.218c-.097.355-.27.666-.52.933-.247.264-.558.47-.933.618-.373.145-.797.217-1.275.217Zm7.278-6.677v1.022h-3.576v-1.022h3.576Zm-2.617-1.569h1.274v6.192c0,.247.037.433.111.558.074.123.169.206.286.252.119.042.248.064.388.064.102,0,.191-.007.268-.022.077-.014.136-.025.179-.034l.23,1.053c-.074.028-.179.057-.315.085-.137.031-.307.048-.512.051-.335.006-.647-.054-.937-.179s-.524-.318-.703-.579c-.179-.262-.269-.59-.269-.985v-6.456Zm6.777,8.246c-.645,0-1.2-.138-1.666-.413-.463-.279-.821-.669-1.074-1.172-.25-.506-.375-1.098-.375-1.777c0-.671.125-1.261.375-1.773.253-.511.605-.91,1.057-1.197.454-.287.985-.431,1.593-.431.37,0,.728.061,1.074.184.347.122.658.313.934.575.275.261.492.601.652,1.018.159.415.238.919.238,1.513v.452h-5.203v-.955h3.955c0-.335-.069-.632-.205-.89-.136-.262-.328-.468-.575-.618-.245-.151-.531-.226-.861-.226-.358,0-.67.088-.938.264-.264.173-.468.401-.613.682-.142.278-.213.581-.213.908v.745c0,.438.076.81.23,1.117.156.307.373.541.652.703.278.159.604.239.976.239.241,0,.461-.035.66-.103.199-.071.371-.176.516-.315s.256-.311.332-.516l1.206.218c-.096.355-.27.666-.52.933-.247.264-.558.47-.933.618-.372.145-.797.217-1.274.217Zm4.222-.132v-6.545h1.231v1.039h.069c.119-.352.329-.629.63-.831.304-.204.648-.306,1.032-.306.079,0,.173.002.281.008.111.006.197.013.26.021v1.219c-.051-.014-.142-.03-.273-.047-.131-.02-.261-.03-.392-.03-.301,0-.57.064-.805.192-.233.125-.418.3-.554.524-.137.222-.205.475-.205.759v3.997h-1.274Z" fill="rgba(17,26,83,0)"/></g><g id="eS5U3aFYpZ834" filter="url(#eS5U3aFYpZ834-filter)"><rect id="eS5U3aFYpZ835" width="100" height="100" rx="13.1818" ry="13.1818" transform="translate(180 170)" fill="none" stroke="#ccc"/><g id="eS5U3aFYpZ836" transform="translate(0 18.5)"><path id="eS5U3aFYpZ837" d="M221,188h24v16h-12-6-6v-16Z" fill="rgba(33,240,230,0)" stroke="#ccc"/><path id="eS5U3aFYpZ838" d="M216,193h24v16h-12l-6,6v-6h-6v-16Z" opacity="0.8" fill="rgba(131,108,249,0)" stroke="#ccc"/></g><path id="eS5U3aFYpZ839" d="M196.137,227.727l2.429,7.108h.098l2.429-7.108h1.423l-3.14,8.728h-1.522l-3.14-8.728h1.423Zm7.537,8.728v-6.546h1.275v6.546h-1.275Zm.644-7.556c-.222,0-.412-.074-.571-.221-.156-.151-.235-.33-.235-.537c0-.211.079-.39.235-.537.159-.151.349-.226.571-.226.221,0,.41.075.567.226.159.147.238.326.238.537c0,.207-.079.386-.238.537-.157.147-.346.221-.567.221Zm2.345,7.556v-6.546h1.231v1.04h.068c.12-.352.33-.629.631-.831.304-.205.648-.307,1.031-.307.08,0,.174.003.282.009.11.005.197.012.259.021v1.219c-.051-.015-.142-.03-.272-.047-.131-.02-.262-.03-.392-.03-.301,0-.57.064-.806.192-.233.125-.417.299-.554.524-.136.221-.204.474-.204.758v3.998h-1.274Zm8.047-6.546v1.023h-3.575v-1.023h3.575Zm-2.616-1.568h1.274v6.192c0,.247.037.433.111.558.074.122.169.206.285.251.12.043.249.064.388.064.102,0,.192-.007.268-.021.077-.014.137-.026.179-.034l.231,1.052c-.074.029-.179.057-.316.086-.136.031-.307.048-.511.051-.335.005-.648-.054-.938-.179-.289-.125-.524-.318-.703-.58-.179-.261-.268-.589-.268-.984v-6.456Zm8.172,5.399v-3.831h1.278v6.546h-1.252v-1.134h-.069c-.15.349-.392.641-.724.874-.33.23-.74.345-1.232.345-.42,0-.792-.093-1.116-.277-.321-.188-.574-.465-.759-.831-.181-.367-.272-.82-.272-1.36v-4.163h1.274v4.01c0,.446.123.801.371,1.065.247.265.568.397.963.397.238,0,.475-.06.711-.179.239-.12.436-.3.593-.541.159-.242.237-.549.234-.921Zm4.895,2.859c-.415,0-.79-.076-1.125-.23-.335-.156-.601-.382-.797-.677-.193-.296-.289-.658-.289-1.087c0-.369.071-.673.213-.912.142-.238.333-.427.575-.567.241-.139.511-.244.81-.315.298-.071.602-.125.912-.162.392-.045.71-.082.954-.111.244-.031.422-.081.533-.149s.166-.179.166-.332v-.03c0-.372-.105-.66-.315-.865-.208-.205-.517-.307-.929-.307-.429,0-.767.095-1.015.286-.244.187-.413.396-.507.626l-1.197-.273c.142-.397.349-.718.622-.963.276-.247.592-.426.95-.537.358-.113.735-.17,1.13-.17.261,0,.538.031.831.094.295.059.571.17.826.332.259.162.47.394.635.695.165.298.247.686.247,1.163v4.347h-1.244v-.895h-.051c-.083.164-.206.326-.371.485-.165.16-.376.292-.635.397-.258.105-.568.157-.929.157Zm.277-1.022c.352,0,.654-.07.904-.209.252-.139.444-.321.575-.546.133-.227.2-.47.2-.728v-.844c-.045.045-.133.088-.264.128-.128.037-.274.069-.439.098-.165.025-.325.05-.481.072-.157.02-.287.037-.393.051-.247.032-.473.084-.677.158-.202.074-.364.181-.486.32-.119.136-.179.318-.179.545c0,.316.117.554.35.716.233.159.529.239.89.239Zm5.925-7.85v8.728h-1.275v-8.728h1.275Zm4.992,8.728v-8.728h5.412v1.134h-4.095v2.659h3.707v1.129h-3.707v3.806h-1.317Zm6.847,0v-6.546h1.231v1.04h.068c.12-.352.33-.629.631-.831.304-.205.648-.307,1.031-.307.08,0,.174.003.282.009.11.005.197.012.26.021v1.219c-.052-.015-.143-.03-.273-.047-.131-.02-.262-.03-.392-.03-.301,0-.57.064-.806.192-.233.125-.417.299-.554.524-.136.221-.204.474-.204.758v3.998h-1.274Zm7.128.132c-.614,0-1.149-.141-1.607-.422-.457-.281-.812-.675-1.065-1.181-.253-.505-.379-1.096-.379-1.772c0-.679.126-1.273.379-1.782.253-.508.608-.903,1.065-1.184.458-.281.993-.422,1.607-.422s1.149.141,1.606.422c.458.281.813.676,1.066,1.184.253.509.379,1.103.379,1.782c0,.676-.126,1.267-.379,1.772-.253.506-.608.9-1.066,1.181-.457.281-.992.422-1.606.422Zm.004-1.07c.398,0,.727-.105.989-.315.261-.21.454-.49.579-.84.128-.349.192-.734.192-1.155c0-.417-.064-.801-.192-1.15-.125-.352-.318-.635-.579-.848-.262-.213-.591-.32-.989-.32-.4,0-.733.107-.997.32-.261.213-.456.496-.584.848-.125.349-.187.733-.187,1.15c0,.421.062.806.187,1.155.128.35.323.63.584.84.264.21.597.315.997.315Zm5.743-2.949v3.887h-1.274v-6.546h1.223v1.065h.081c.151-.346.387-.625.708-.835.323-.21.731-.315,1.223-.315.446,0,.836.094,1.172.281.335.185.595.46.779.827.185.366.277.819.277,1.359v4.164h-1.274v-4.01c0-.475-.123-.846-.371-1.113-.247-.269-.586-.404-1.018-.404-.295,0-.558.064-.788.191-.228.128-.408.316-.542.563-.13.244-.196.54-.196.886Zm8.954-2.659v1.023h-3.576v-1.023h3.576Zm-2.617-1.568h1.274v6.192c0,.247.037.433.111.558.074.122.169.206.286.251.119.043.248.064.387.064.103,0,.192-.007.269-.021.076-.014.136-.026.179-.034l.23,1.052c-.074.029-.179.057-.315.086-.137.031-.307.048-.512.051-.335.005-.648-.054-.937-.179-.29-.125-.524-.318-.703-.58-.179-.261-.269-.589-.269-.984v-6.456Zm-43.039,26.114h-2.825v-8.728h2.915c.855,0,1.589.175,2.203.524.614.347,1.084.846,1.41,1.496.33.648.495,1.425.495,2.331c0,.909-.166,1.691-.499,2.344-.329.653-.807,1.156-1.432,1.508-.625.35-1.38.525-2.267.525Zm-1.508-1.151h1.436c.665,0,1.217-.125,1.658-.375.44-.253.769-.618.988-1.095.219-.48.328-1.065.328-1.756c0-.684-.109-1.265-.328-1.743-.216-.477-.538-.839-.967-1.086-.429-.248-.962-.371-1.598-.371h-1.517v6.426Zm10.062,1.283c-.645,0-1.2-.138-1.666-.414-.463-.278-.821-.669-1.074-1.172-.25-.505-.375-1.098-.375-1.777c0-.67.125-1.261.375-1.772.253-.512.605-.911,1.057-1.198.454-.287.986-.43,1.593-.43.37,0,.728.061,1.074.183.347.122.658.314.934.575.275.262.492.601.652,1.019.159.415.238.919.238,1.513v.451h-5.203v-.954h3.955c0-.335-.069-.632-.205-.891-.136-.261-.328-.467-.575-.618-.245-.15-.531-.226-.861-.226-.358,0-.67.089-.937.265-.265.173-.469.4-.614.681-.142.279-.213.581-.213.908v.746c0,.437.077.81.23,1.116.156.307.373.542.652.703.278.16.604.239.976.239.241,0,.461-.034.66-.102.199-.071.371-.176.516-.315.145-.14.256-.312.332-.516l1.206.217c-.096.355-.27.666-.52.933-.247.265-.558.471-.933.618-.372.145-.797.218-1.274.218Zm9.127-5.08l-1.155.205c-.048-.148-.125-.289-.23-.422-.102-.134-.242-.243-.418-.328-.176-.086-.396-.128-.66-.128-.361,0-.662.081-.904.243-.241.159-.362.365-.362.618c0,.218.081.395.243.528.162.134.423.243.784.328l1.04.239c.602.139,1.051.354,1.346.643.296.29.444.666.444,1.13c0,.392-.114.741-.341,1.048-.225.304-.539.542-.942.716-.401.173-.865.26-1.394.26-.732,0-1.331-.157-1.794-.469-.463-.315-.747-.763-.852-1.342l1.232-.188c.076.321.234.564.473.729.238.162.549.243.933.243.418,0,.751-.087,1.001-.26.25-.176.375-.391.375-.644c0-.204-.076-.376-.23-.515-.15-.14-.382-.245-.694-.316l-1.108-.243c-.611-.139-1.063-.36-1.355-.664-.29-.304-.435-.689-.435-1.155c0-.387.108-.725.324-1.014.216-.29.514-.516.895-.678.38-.165.816-.247,1.308-.247.707,0,1.264.153,1.67.46.407.304.675.712.806,1.223Zm2.7,2.727l-.008-1.555h.221l2.608-2.77h1.526l-2.974,3.154h-.201l-1.172,1.171Zm-1.171,2.221v-8.728h1.274v8.728h-1.274Zm4.133,0l-2.344-3.111.878-.891l3.03,4.002h-1.564Z" fill="rgba(17,26,83,0)"/></g><g id="eS5U3aFYpZ840" filter="url(#eS5U3aFYpZ840-filter)"><rect id="eS5U3aFYpZ841" width="100" height="100" rx="13.1818" ry="13.1818" transform="translate(44 50)" fill="none" stroke="#ccc"/><g id="eS5U3aFYpZ842" transform="translate(0 18.454597)"><path id="eS5U3aFYpZ843" d="M102,65.5454h-24v24h24v-24Z" fill="rgba(33,240,230,0)" stroke="#ccc"/><path id="eS5U3aFYpZ844" d="M110,73.5454h-24v24h24v-24Z" opacity="0.8" fill="rgba(131,108,249,0)" stroke="#ccc"/></g><path id="eS5U3aFYpZ845" d="M82.4096,110.02c-.0454-.403-.2329-.716-.5625-.938-.3295-.224-.7443-.336-1.2443-.336-.358,0-.6676.057-.929.17-.2613.111-.4645.264-.6093.46-.1421.194-.2131.414-.2131.661c0,.207.0483.386.1449.537.0994.15.2287.277.3878.379.1619.1.3352.183.5198.252.1847.065.3623.119.5327.162l.8523.221c.2784.068.5639.161.8565.277.2926.117.5639.27.8139.46.25.191.4517.426.6052.708.1562.281.2343.618.2343,1.01c0,.494-.1278.933-.3835,1.316-.2528.384-.6207.686-1.1037.908-.4801.222-1.0611.332-1.7429.332-.6534,0-1.2187-.103-1.696-.311-.4773-.207-.8509-.501-1.1207-.882-.2699-.383-.4191-.838-.4475-1.363h1.321c.0256.315.1279.578.3068.788.1819.207.4134.362.6947.464.284.1.5951.15.9332.15.3721,0,.7031-.059.9929-.175.2926-.119.5227-.284.6903-.494.1676-.213.2514-.462.2514-.746c0-.259-.0738-.47-.2215-.635-.1449-.165-.3424-.301-.5924-.409-.2471-.108-.527-.203-.8395-.286l-1.0312-.281c-.6989-.19-1.2529-.47-1.6619-.839-.4063-.37-.6094-.858-.6094-1.466c0-.503.1363-.942.4091-1.317s.642-.666,1.1079-.874c.4659-.21.9915-.315,1.5767-.315.5909,0,1.1122.104,1.564.311.4545.207.8125.493,1.0738.857.2614.36.3977.775.4091,1.244h-1.2699Zm2.8605,6.435v-6.546h1.223v1.065h.0809c.1364-.36.3594-.642.6691-.843.3096-.205.6804-.307,1.1122-.307.4375,0,.804.102,1.0994.307.2983.204.5185.486.6605.843h.0682c.1563-.349.4048-.627.7458-.835.3409-.21.7471-.315,1.2187-.315.5938,0,1.0781.186,1.4531.558.3779.372.5668.933.5668,1.683v4.39h-1.2742v-4.27c0-.443-.1207-.765-.3622-.963-.2415-.199-.5298-.299-.865-.299-.4148,0-.7372.128-.9674.384-.2301.253-.3451.578-.3451.976v4.172h-1.2699v-4.351c0-.355-.1108-.641-.3324-.857s-.5099-.324-.8651-.324c-.2414,0-.4644.064-.669.192-.2017.125-.3651.3-.4901.524-.1221.225-.1832.485-.1832.78v4.036h-1.2741Zm12.5103.144c-.4148,0-.7898-.076-1.125-.23-.3353-.156-.6009-.382-.7969-.677-.1932-.296-.2898-.658-.2898-1.087c0-.369.071-.673.2131-.912.142-.238.3338-.427.5753-.567.2414-.139.5113-.244.8096-.315s.6023-.125.912-.162c.392-.045.7102-.082.9545-.111.2443-.031.4219-.081.5327-.149s.1662-.179.1662-.332v-.03c0-.372-.1051-.66-.3154-.865-.2074-.205-.517-.307-.929-.307-.4289,0-.767.095-1.0142.286-.2443.187-.4133.396-.5071.626l-1.1974-.273c.142-.397.3494-.718.6222-.963.2755-.247.5923-.426.9502-.537.358-.113.7344-.17,1.1293-.17.2614,0,.5384.031.831.094.2954.059.571.17.8263.332.259.162.471.394.635.695.165.298.247.686.247,1.163v4.347h-1.2438v-.895h-.0512c-.0824.164-.2059.326-.3707.485-.1648.16-.3764.292-.635.397-.2585.105-.5681.157-.9289.157Zm.2769-1.022c.3523,0,.6535-.07.9035-.209.2528-.139.4446-.321.5752-.546.1336-.227.2003-.47.2003-.728v-.844c-.0454.045-.1335.088-.2642.128-.1278.037-.2741.069-.4389.098-.1648.025-.3253.05-.4815.072-.1563.02-.287.037-.3921.051-.2471.032-.473.084-.6775.158-.2017.074-.3637.181-.4858.32-.1193.136-.179.318-.179.545c0,.316.1165.554.3494.716.233.159.5299.239.8906.239Zm4.6507.878v-6.546h1.231v1.04h.068c.12-.352.33-.629.631-.831.304-.205.648-.307,1.031-.307.08,0,.174.003.281.009.111.005.198.012.26.021v1.219c-.051-.015-.142-.03-.272-.047-.131-.02-.262-.03-.392-.03-.302,0-.57.064-.806.192-.233.125-.417.299-.554.524-.136.221-.204.474-.204.758v3.998h-1.274Zm8.047-6.546v1.023h-3.575v-1.023h3.575Zm-2.616-1.568h1.274v6.192c0,.247.037.433.111.558.073.122.169.206.285.251.119.043.249.064.388.064.102,0,.192-.007.268-.021.077-.014.137-.026.179-.034l.23,1.052c-.073.029-.179.057-.315.086-.136.031-.307.048-.511.051-.335.005-.648-.054-.938-.179s-.524-.318-.703-.58c-.179-.261-.268-.589-.268-.984v-6.456ZM70.6792,128.02c-.0455-.403-.233-.716-.5625-.938-.3296-.224-.7444-.336-1.2444-.336-.3579,0-.6676.057-.9289.17-.2614.111-.4645.264-.6094.46-.1421.194-.2131.414-.2131.661c0,.207.0483.386.1449.537.0994.15.2287.277.3878.379.1619.1.3352.183.5199.252.1846.065.3622.119.5326.162l.8523.221c.2784.068.5639.161.8565.277.2927.117.564.27.814.46.25.191.4517.426.6051.708.1562.281.2344.618.2344,1.01c0,.494-.1279.933-.3836,1.316-.2528.384-.6207.686-1.1037.908-.4801.222-1.061.332-1.7429.332-.6534,0-1.2187-.103-1.696-.311-.4773-.207-.8508-.501-1.1207-.882-.2699-.383-.4191-.838-.4475-1.363h1.3211c.0255.315.1278.578.3068.788.1818.207.4133.362.6946.464.2841.1.5952.15.9332.15.3722,0,.7031-.059.9929-.175.2926-.119.5227-.284.6904-.494.1676-.213.2514-.462.2514-.746c0-.259-.0739-.47-.2216-.635-.1449-.165-.3423-.301-.5923-.409-.2472-.108-.527-.203-.8395-.286l-1.0313-.281c-.6988-.19-1.2528-.47-1.6619-.839-.4063-.37-.6094-.858-.6094-1.466c0-.503.1364-.942.4091-1.317s.6421-.666,1.108-.874c.4659-.21.9914-.315,1.5767-.315.5909,0,1.1122.104,1.5639.311.4545.207.8125.493,1.0738.857.2614.36.3978.775.4091,1.244h-1.2698Zm5.6175,6.567c-.6335,0-1.179-.144-1.6364-.431-.4545-.289-.8039-.689-1.0483-1.197-.2443-.509-.3664-1.091-.3664-1.747c0-.665.125-1.252.375-1.76.25-.512.6022-.911,1.0568-1.198.4545-.287.99-.43,1.6065-.43.4972,0,.9404.092,1.3296.277.3892.182.7031.437.9417.767.2415.329.385.714.4304,1.155h-1.24c-.0682-.307-.2245-.571-.4688-.793-.2415-.221-.5653-.332-.9716-.332-.3551,0-.6662.094-.9332.281-.2642.185-.4702.449-.6179.793-.1477.341-.2216.744-.2216,1.21c0,.477.0724.889.2173,1.236.1449.346.3495.615.6137.805.267.19.5809.286.9417.286.2415,0,.4602-.044.6563-.133.1988-.09.365-.22.4985-.387.1364-.168.2316-.37.2856-.605h1.24c-.0454.423-.1832.801-.4133,1.133s-.5384.594-.9248.784c-.3835.191-.8338.286-1.3508.286Zm5.3256-4.019v3.887h-1.2741v-8.728h1.2571v3.247h.081c.1534-.352.3877-.632.7031-.839s.7273-.311,1.2358-.311c.4488,0,.8409.092,1.1761.277.3381.185.5994.46.7841.827.1875.363.2813.818.2813,1.363v4.164h-1.2742v-4.01c0-.48-.1236-.853-.3707-1.117-.2472-.267-.5909-.4-1.0313-.4-.3011,0-.571.064-.8096.191-.2358.128-.4219.316-.5583.563-.1335.244-.2003.54-.2003.886Zm8.7657,4.019c-.6449,0-1.2003-.138-1.6662-.414-.4631-.278-.8211-.669-1.0739-1.172-.25-.505-.375-1.098-.375-1.777c0-.67.125-1.261.375-1.772.2528-.512.6051-.911,1.0568-1.198.4546-.287.9858-.43,1.5938-.43.3693,0,.7272.061,1.0738.183s.6577.314.9333.575c.2755.262.4929.601.652,1.019.1591.415.2386.919.2386,1.513v.451h-5.2031v-.954h3.9545c0-.335-.0682-.632-.2045-.891-.1364-.261-.3282-.467-.5753-.618-.2443-.15-.5313-.226-.8608-.226-.358,0-.6705.089-.9375.265-.2642.173-.4688.4-.6136.681-.1421.279-.2131.581-.2131.908v.746c0,.437.0767.81.2301,1.116.1563.307.3736.542.652.703.2784.16.6037.239.9758.239.2415,0,.4617-.034.6606-.102.1988-.071.3707-.176.5156-.315.1449-.14.2557-.312.3324-.516l1.2059.217c-.0966.355-.2699.666-.5199.933-.2471.265-.5582.471-.9332.618-.3722.145-.7969.218-1.2741.218Zm6.6722-.005c-.5284,0-1-.135-1.4148-.404-.4119-.273-.7358-.661-.9716-1.164-.2329-.505-.3494-1.112-.3494-1.819c0-.708.1179-1.313.3537-1.816.2386-.503.5653-.887.9801-1.155.4148-.267.8849-.4,1.4105-.4.4063,0,.733.068.9801.204.25.134.4432.29.5796.469.1392.179.2471.337.3238.473h.0767v-3.243h1.2741v8.728h-1.2442v-1.019h-.1066c-.0767.139-.1875.298-.3324.477-.142.179-.338.336-.588.469-.25.134-.5739.2-.9716.2Zm.2812-1.086c.3665,0,.6762-.097.929-.29.2557-.196.4489-.467.5796-.814.1335-.347.2002-.75.2002-1.21c0-.455-.0653-.852-.196-1.193s-.3224-.607-.5753-.797c-.2528-.191-.5653-.286-.9375-.286-.3835,0-.7031.1-.9588.299-.2556.198-.4488.47-.5795.814-.1279.343-.1918.731-.1918,1.163c0,.437.0654.831.196,1.18.1307.35.3239.627.5796.831.2585.202.5767.303.9545.303Zm8.9266-1.756v-3.831h1.278v6.546h-1.252v-1.134h-.069c-.15.349-.392.641-.724.874-.33.23-.74.345-1.232.345-.42,0-.792-.093-1.116-.277-.321-.188-.574-.465-.759-.831-.181-.367-.272-.82-.272-1.36v-4.163h1.274v4.01c0,.446.123.801.371,1.065.247.265.568.397.963.397.238,0,.475-.06.711-.179.239-.12.436-.3.593-.541.159-.242.237-.549.234-.921Zm4.264-6.013v8.728h-1.274v-8.728h1.274Zm4.536,8.86c-.645,0-1.201-.138-1.667-.414-.463-.278-.821-.669-1.073-1.172-.25-.505-.375-1.098-.375-1.777c0-.67.125-1.261.375-1.772.252-.512.605-.911,1.056-1.198.455-.287.986-.43,1.594-.43.369,0,.727.061,1.074.183s.658.314.933.575c.276.262.493.601.652,1.019.159.415.239.919.239,1.513v.451h-5.203v-.954h3.954c0-.335-.068-.632-.204-.891-.137-.261-.328-.467-.576-.618-.244-.15-.531-.226-.86-.226-.358,0-.671.089-.938.265-.264.173-.469.4-.613.681-.142.279-.214.581-.214.908v.746c0,.437.077.81.231,1.116.156.307.373.542.652.703.278.16.603.239.975.239.242,0,.462-.034.661-.102.199-.071.371-.176.516-.315.144-.14.255-.312.332-.516l1.206.217c-.097.355-.27.666-.52.933-.247.265-.558.471-.933.618-.372.145-.797.218-1.274.218Zm4.222-.132v-6.546h1.231v1.04h.068c.12-.352.33-.629.631-.831.304-.205.648-.307,1.031-.307.08,0,.174.003.281.009.111.005.198.012.26.021v1.219c-.051-.015-.142-.03-.272-.047-.131-.02-.262-.03-.392-.03-.301,0-.57.064-.806.192-.233.125-.417.299-.554.524-.136.221-.204.474-.204.758v3.998h-1.274Z" fill="rgba(17,26,83,0.01)"/></g><path id="eS5U3aFYpZ846" d="M458,495h-90c-11.046,0-20-8.954-20-20v-66" transform="matrix(0-.872727-1.395349 0 1028.697748 810.708981)" fill="none" stroke="url(#eS5U3aFYpZ846-stroke)" stroke-width="2.5" stroke-dashoffset="187.43" stroke-dasharray="187.43"/><path id="eS5U3aFYpZ847" d="M280,229h48c11.046,0,20,8.119434,20,18.13588v54.407641" transform="matrix(-2.262393 0 0 0.811298 923.551264 159.358344)" fill="none" stroke="url(#eS5U3aFYpZ847-stroke)" stroke-width="2" stroke-dashoffset="139.43" stroke-dasharray="139.43"/><path id="eS5U3aFYpZ848" d="M280,229h48c11.046,0,20,8.119434,20,18.13588v54.407641" transform="matrix(-2.149372 0 0 0.964938 1088.034456 17.529178)" fill="none" stroke="url(#eS5U3aFYpZ848-stroke)" stroke-width="2" stroke-dashoffset="139.43" stroke-dasharray="139.43"/><path id="eS5U3aFYpZ849" d="M280,229h50.880008c11.708762,0,21.200003,8.511343,21.200003,19.011264v57.033792" transform="matrix(.704903 0 0 1.176057 83.817762-50.250385)" fill="none" stroke="url(#eS5U3aFYpZ849-stroke)" stroke-width="2.5" stroke-dashoffset="139.43" stroke-dasharray="139.43"/><path id="eS5U3aFYpZ850" d="M441,90h72c11.046,0,20,8.9543,20,20v83" transform="matrix(.956522 0 0 0.946602 28.173786 6.555817)" fill="none" stroke="url(#eS5U3aFYpZ850-stroke)" stroke-width="2.5" stroke-dashoffset="186.43" stroke-dasharray="186.43"/><path id="eS5U3aFYpZ851" d="M173,232h-58c-11.046,0-20-8.954-20-20v-57" transform="matrix(0-1-1 0 327.5 327.5)" fill="none" stroke="url(#eS5U3aFYpZ851-stroke)" stroke-width="2.5" stroke-dashoffset="146.43" stroke-dasharray="146.43"/>
<script><![CDATA[
(function(s,i,u,o,c,w,d,t,n,x,e,p,a,b){(a=Array.from(d.querySelectorAll('svg#' + i.root)).filter(n=> !n.svgatorPlayer)[0]||{}).svgatorPlayer={ready:(function(a){b=[];return function(c){return c?(b.push(c),a.svgatorPlayer):b}})(a)};w[o]=w[o]||{};w[o][s]=w[o][s]||[];w[o][s].push(i);e=d.createElementNS(n,t);e.async=true;e.setAttributeNS(x,'href',[u,s,'.','j','s','?','v','=',c].join(''));e.setAttributeNS(null,'src',[u,s,'.','j','s','?','v','=',c].join(''));p=d.getElementsByTagName(t)[0];p.parentNode.insertBefore(e,p);})('91c80d77',{"root":"eS5U3aFYpZ81","version":"2025-04-07","animations":[{"elements":{"eS5U3aFYpZ82":{"#filter":{"keys":[{"t":9500,"v":[{"type":"drop-shadow","value":{"blur":{"x":10,"y":10},"offset":{"x":0,"y":0},"color":{"r":0,"g":0,"b":0,"a":0}}}]},{"t":10500,"v":[{"type":"drop-shadow","value":{"blur":{"x":10,"y":10},"offset":{"x":0,"y":0},"color":{"r":0,"g":0,"b":0,"a":1}}}]},{"t":11500,"v":[{"type":"drop-shadow","value":{"blur":{"x":10,"y":10},"offset":{"x":0,"y":0},"color":{"r":0,"g":0,"b":0,"a":1}}}]},{"t":12500,"v":[{"type":"drop-shadow","value":{"blur":{"x":10,"y":10},"offset":{"x":0,"y":0},"color":{"r":0,"g":0,"b":0,"a":0}}}]}],"data":{"items":[["drop-shadow","eS5U3aFYpZ82-filter-drop-shadow-0"]]}}},"eS5U3aFYpZ83":{"fill":[{"t":9500,"v":null},{"t":10500,"v":{"t":"c","v":{"r":255,"g":255,"b":255,"a":1}}},{"t":11500,"v":{"t":"c","v":{"r":255,"g":255,"b":255,"a":1}}},{"t":12500,"v":null}],"stroke":[{"t":9500,"v":{"t":"c","v":{"r":204,"g":204,"b":204,"a":1}}},{"t":10500,"v":null},{"t":11500,"v":null},{"t":12500,"v":{"t":"c","v":{"r":204,"g":204,"b":204,"a":1}}}]},"eS5U3aFYpZ84":{"transform":{"data":{"t":{"x":-508,"y":-480.5}},"keys":{"o":[{"t":9500,"v":{"x":508,"y":500,"type":"corner"}},{"t":10500,"v":{"x":508,"y":480.5,"type":"corner"}},{"t":11500,"v":{"x":508,"y":480.5,"type":"corner"}},{"t":12500,"v":{"x":508,"y":500,"type":"corner"}}]}}},"eS5U3aFYpZ85":{"fill":[{"t":9500,"v":{"t":"c","v":{"r":33,"g":240,"b":230,"a":0}}},{"t":10500,"v":{"t":"c","v":{"r":33,"g":240,"b":230,"a":1}}},{"t":11500,"v":{"t":"c","v":{"r":33,"g":240,"b":230,"a":1}}},{"t":12500,"v":{"t":"c","v":{"r":33,"g":240,"b":230,"a":0}}}],"stroke":[{"t":9500,"v":{"t":"c","v":{"r":204,"g":204,"b":204,"a":1}}},{"t":10500,"v":null},{"t":11500,"v":null},{"t":12500,"v":{"t":"c","v":{"r":204,"g":204,"b":204,"a":1}}}]},"eS5U3aFYpZ86":{"fill":[{"t":9500,"v":{"t":"c","v":{"r":131,"g":108,"b":249,"a":0}}},{"t":10500,"v":{"t":"c","v":{"r":131,"g":108,"b":249,"a":1}}},{"t":11500,"v":{"t":"c","v":{"r":131,"g":108,"b":249,"a":1}}},{"t":12500,"v":{"t":"c","v":{"r":131,"g":108,"b":249,"a":0}}}],"stroke":[{"t":9500,"v":{"t":"c","v":{"r":204,"g":204,"b":204,"a":1}}},{"t":10500,"v":null},{"t":11500,"v":null},{"t":12500,"v":{"t":"c","v":{"r":204,"g":204,"b":204,"a":1}}}]},"eS5U3aFYpZ87":{"fill":[{"t":9500,"v":{"t":"c","v":{"r":17,"g":26,"b":83,"a":0}}},{"t":10500,"v":{"t":"c","v":{"r":17,"g":26,"b":83,"a":1}}},{"t":11500,"v":{"t":"c","v":{"r":17,"g":26,"b":83,"a":1}}},{"t":12500,"v":{"t":"c","v":{"r":17,"g":26,"b":83,"a":0}}}]},"eS5U3aFYpZ88":{"#filter":{"keys":[{"t":9500,"v":[{"type":"drop-shadow","value":{"blur":{"x":10,"y":10},"offset":{"x":0,"y":0},"color":{"r":0,"g":0,"b":0,"a":0}}}]},{"t":10500,"v":[{"type":"drop-shadow","value":{"blur":{"x":10,"y":10},"offset":{"x":0,"y":0},"color":{"r":0,"g":0,"b":0,"a":1}}}]},{"t":11500,"v":[{"type":"drop-shadow","value":{"blur":{"x":10,"y":10},"offset":{"x":0,"y":0},"color":{"r":0,"g":0,"b":0,"a":1}}}]},{"t":12500,"v":[{"type":"drop-shadow","value":{"blur":{"x":10,"y":10},"offset":{"x":0,"y":0},"color":{"r":0,"g":0,"b":0,"a":0}}}]}],"data":{"items":[["drop-shadow","eS5U3aFYpZ88-filter-drop-shadow-0"]]}}},"eS5U3aFYpZ89":{"fill":[{"t":9500,"v":null},{"t":10500,"v":{"t":"c","v":{"r":255,"g":255,"b":255,"a":1}}},{"t":11500,"v":{"t":"c","v":{"r":255,"g":255,"b":255,"a":1}}},{"t":12500,"v":null}],"stroke":[{"t":9500,"v":{"t":"c","v":{"r":204,"g":204,"b":204,"a":1}}},{"t":10500,"v":null},{"t":11500,"v":null},{"t":12500,"v":{"t":"c","v":{"r":204,"g":204,"b":204,"a":1}}}]},"eS5U3aFYpZ810":{"transform":{"data":{"t":{"x":-134,"y":-436}},"keys":{"o":[{"t":9500,"v":{"x":134,"y":455,"type":"corner"}},{"t":10500,"v":{"x":134,"y":436,"type":"corner"}},{"t":11500,"v":{"x":134,"y":436,"type":"corner"}},{"t":12500,"v":{"x":134,"y":455,"type":"corner"}}]}}},"eS5U3aFYpZ811":{"fill":[{"t":9500,"v":{"t":"c","v":{"r":33,"g":240,"b":230,"a":0}}},{"t":10500,"v":{"t":"c","v":{"r":33,"g":240,"b":230,"a":1}}},{"t":11500,"v":{"t":"c","v":{"r":33,"g":240,"b":230,"a":1}}},{"t":12500,"v":{"t":"c","v":{"r":33,"g":240,"b":230,"a":0}}}],"stroke":[{"t":9500,"v":{"t":"c","v":{"r":204,"g":204,"b":204,"a":1}}},{"t":10500,"v":null},{"t":11500,"v":null},{"t":12500,"v":{"t":"c","v":{"r":204,"g":204,"b":204,"a":1}}}]},"eS5U3aFYpZ812":{"fill":[{"t":9500,"v":{"t":"c","v":{"r":131,"g":108,"b":249,"a":0}}},{"t":10500,"v":{"t":"c","v":{"r":131,"g":108,"b":249,"a":1}}},{"t":11500,"v":{"t":"c","v":{"r":131,"g":108,"b":249,"a":1}}},{"t":12500,"v":{"t":"c","v":{"r":131,"g":108,"b":249,"a":0}}}],"stroke":[{"t":9500,"v":{"t":"c","v":{"r":204,"g":204,"b":204,"a":1}}},{"t":10500,"v":null},{"t":11500,"v":null},{"t":12500,"v":{"t":"c","v":{"r":204,"g":204,"b":204,"a":1}}}]},"eS5U3aFYpZ813":{"fill":[{"t":9500,"v":{"t":"c","v":{"r":17,"g":26,"b":83,"a":0}}},{"t":10500,"v":{"t":"c","v":{"r":17,"g":26,"b":83,"a":1}}},{"t":11500,"v":{"t":"c","v":{"r":17,"g":26,"b":83,"a":1}}},{"t":12500,"v":{"t":"c","v":{"r":17,"g":26,"b":83,"a":0}}}]},"eS5U3aFYpZ814":{"#filter":{"keys":[{"t":7000,"v":[{"type":"drop-shadow","value":{"blur":{"x":10,"y":10},"offset":{"x":0,"y":0},"color":{"r":0,"g":0,"b":0,"a":0}}}]},{"t":8000,"v":[{"type":"drop-shadow","value":{"blur":{"x":10,"y":10},"offset":{"x":0,"y":0},"color":{"r":0,"g":0,"b":0,"a":1}}}]},{"t":10500,"v":[{"type":"drop-shadow","value":{"blur":{"x":10,"y":10},"offset":{"x":0,"y":0},"color":{"r":0,"g":0,"b":0,"a":1}}}]},{"t":11500,"v":[{"type":"drop-shadow","value":{"blur":{"x":10,"y":10},"offset":{"x":0,"y":0},"color":{"r":0,"g":0,"b":0,"a":0}}}]}],"data":{"items":[["drop-shadow","eS5U3aFYpZ814-filter-drop-shadow-0"]]}}},"eS5U3aFYpZ815":{"fill":[{"t":7000,"v":null},{"t":8000,"v":{"t":"c","v":{"r":255,"g":255,"b":255,"a":1}}},{"t":10500,"v":{"t":"c","v":{"r":255,"g":255,"b":255,"a":1}}},{"t":11500,"v":null}],"stroke":[{"t":7000,"v":{"t":"c","v":{"r":204,"g":204,"b":204,"a":1}}},{"t":8000,"v":null},{"t":10500,"v":null},{"t":11500,"v":{"t":"c","v":{"r":204,"g":204,"b":204,"a":1}}}]},"eS5U3aFYpZ816":{"transform":{"data":{"t":{"x":-340.5,"y":-341}},"keys":{"o":[{"t":7000,"v":{"x":340.5,"y":362,"type":"corner"}},{"t":8000,"v":{"x":340.5,"y":341,"type":"corner"}},{"t":10500,"v":{"x":340.5,"y":341,"type":"corner"}},{"t":11500,"v":{"x":340.5,"y":362,"type":"corner"}}]}}},"eS5U3aFYpZ817":{"fill":[{"t":7000,"v":{"t":"c","v":{"r":33,"g":240,"b":230,"a":0}}},{"t":8000,"v":{"t":"c","v":{"r":33,"g":240,"b":230,"a":1}}},{"t":10500,"v":{"t":"c","v":{"r":33,"g":240,"b":230,"a":1}}},{"t":11500,"v":{"t":"c","v":{"r":33,"g":240,"b":230,"a":0}}}],"stroke":[{"t":7000,"v":{"t":"c","v":{"r":204,"g":204,"b":204,"a":1}}},{"t":8000,"v":null},{"t":10500,"v":null},{"t":11500,"v":{"t":"c","v":{"r":204,"g":204,"b":204,"a":1}}}]},"eS5U3aFYpZ818":{"fill":[{"t":7000,"v":{"t":"c","v":{"r":131,"g":108,"b":249,"a":0}}},{"t":8000,"v":{"t":"c","v":{"r":131,"g":108,"b":249,"a":1}}},{"t":10500,"v":{"t":"c","v":{"r":131,"g":108,"b":249,"a":1}}},{"t":11500,"v":{"t":"c","v":{"r":131,"g":108,"b":249,"a":0}}}],"stroke":[{"t":7000,"v":{"t":"c","v":{"r":204,"g":204,"b":204,"a":1}}},{"t":8000,"v":null},{"t":10500,"v":null},{"t":11500,"v":{"t":"c","v":{"r":204,"g":204,"b":204,"a":1}}}]},"eS5U3aFYpZ819":{"fill":[{"t":7000,"v":{"t":"c","v":{"r":17,"g":26,"b":83,"a":0}}},{"t":8000,"v":{"t":"c","v":{"r":17,"g":26,"b":83,"a":1}}},{"t":10500,"v":{"t":"c","v":{"r":17,"g":26,"b":83,"a":1}}},{"t":11500,"v":{"t":"c","v":{"r":17,"g":26,"b":83,"a":0}}}]},"eS5U3aFYpZ820":{"#filter":{"keys":[{"t":5000,"v":[{"type":"drop-shadow","value":{"blur":{"x":10,"y":10},"offset":{"x":0,"y":0},"color":{"r":0,"g":0,"b":0,"a":0}}}]},{"t":6000,"v":[{"type":"drop-shadow","value":{"blur":{"x":10,"y":10},"offset":{"x":0,"y":0},"color":{"r":0,"g":0,"b":0,"a":1}}}]},{"t":7500,"v":[{"type":"drop-shadow","value":{"blur":{"x":10,"y":10},"offset":{"x":0,"y":0},"color":{"r":0,"g":0,"b":0,"a":1}}}]},{"t":8500,"v":[{"type":"drop-shadow","value":{"blur":{"x":10,"y":10},"offset":{"x":0,"y":0},"color":{"r":0,"g":0,"b":0,"a":0}}}]}],"data":{"items":[["drop-shadow","eS5U3aFYpZ820-filter-drop-shadow-0"]]}}},"eS5U3aFYpZ821":{"fill":[{"t":5000,"v":null},{"t":6000,"v":{"t":"c","v":{"r":255,"g":255,"b":255,"a":1}}},{"t":7500,"v":{"t":"c","v":{"r":255,"g":255,"b":255,"a":1}}},{"t":8500,"v":null}],"stroke":[{"t":5000,"v":{"t":"c","v":{"r":204,"g":204,"b":204,"a":1}}},{"t":6000,"v":null},{"t":7500,"v":null},{"t":8500,"v":{"t":"c","v":{"r":204,"g":204,"b":204,"a":1}}}]},"eS5U3aFYpZ822":{"transform":{"data":{"t":{"x":-537.774475,"y":-220.5}},"keys":{"o":[{"t":5000,"v":{"x":537.774475,"y":243,"type":"corner"}},{"t":6000,"v":{"x":537.774475,"y":220.5,"type":"corner"}},{"t":7500,"v":{"x":537.774475,"y":220.5,"type":"corner"}},{"t":8500,"v":{"x":537.774475,"y":243,"type":"corner"}}]}}},"eS5U3aFYpZ823":{"fill":[{"t":5000,"v":{"t":"c","v":{"r":131,"g":108,"b":249,"a":0}}},{"t":6000,"v":{"t":"c","v":{"r":131,"g":108,"b":249,"a":1}}},{"t":7500,"v":{"t":"c","v":{"r":131,"g":108,"b":249,"a":1}}},{"t":8500,"v":{"t":"c","v":{"r":131,"g":108,"b":249,"a":0}}}],"stroke":[{"t":5000,"v":{"t":"c","v":{"r":204,"g":204,"b":204,"a":1}}},{"t":6000,"v":null},{"t":7500,"v":null},{"t":8500,"v":{"t":"c","v":{"r":204,"g":204,"b":204,"a":1}}}]},"eS5U3aFYpZ824":{"fill":[{"t":5000,"v":null},{"t":6000,"v":{"t":"c","v":{"r":33,"g":240,"b":230,"a":1}}},{"t":7500,"v":{"t":"c","v":{"r":33,"g":240,"b":230,"a":1}}},{"t":8500,"v":{"t":"c","v":{"r":33,"g":240,"b":230,"a":0}}}],"stroke":[{"t":5000,"v":{"t":"c","v":{"r":204,"g":204,"b":204,"a":1}}},{"t":6000,"v":null},{"t":7500,"v":null},{"t":8500,"v":{"t":"c","v":{"r":204,"g":204,"b":204,"a":1}}}]},"eS5U3aFYpZ825":{"fill":[{"t":5000,"v":null},{"t":6000,"v":{"t":"c","v":{"r":33,"g":240,"b":230,"a":1}}},{"t":7500,"v":{"t":"c","v":{"r":33,"g":240,"b":230,"a":1}}},{"t":8500,"v":{"t":"c","v":{"r":33,"g":240,"b":230,"a":0}}}],"stroke":[{"t":5000,"v":{"t":"c","v":{"r":204,"g":204,"b":204,"a":1}}},{"t":6000,"v":null},{"t":7500,"v":null},{"t":8500,"v":{"t":"c","v":{"r":204,"g":204,"b":204,"a":1}}}]},"eS5U3aFYpZ826":{"fill":[{"t":5000,"v":null},{"t":6000,"v":{"t":"c","v":{"r":33,"g":240,"b":230,"a":1}}},{"t":7500,"v":{"t":"c","v":{"r":33,"g":240,"b":230,"a":1}}},{"t":8500,"v":{"t":"c","v":{"r":33,"g":240,"b":230,"a":0}}}],"stroke":[{"t":5000,"v":{"t":"c","v":{"r":204,"g":204,"b":204,"a":1}}},{"t":6000,"v":null},{"t":7500,"v":null},{"t":8500,"v":{"t":"c","v":{"r":204,"g":204,"b":204,"a":1}}}]},"eS5U3aFYpZ827":{"fill":[{"t":5000,"v":{"t":"c","v":{"r":17,"g":26,"b":83,"a":0}}},{"t":6000,"v":{"t":"c","v":{"r":17,"g":26,"b":83,"a":1}}},{"t":7500,"v":{"t":"c","v":{"r":17,"g":26,"b":83,"a":1}}},{"t":8500,"v":{"t":"c","v":{"r":17,"g":26,"b":83,"a":0}}}]},"eS5U3aFYpZ828":{"#filter":{"keys":[{"t":3500,"v":[{"type":"drop-shadow","value":{"blur":{"x":10,"y":10},"offset":{"x":0,"y":0},"color":{"r":0,"g":0,"b":0,"a":0}}}]},{"t":4500,"v":[{"type":"drop-shadow","value":{"blur":{"x":10,"y":10},"offset":{"x":0,"y":0},"color":{"r":0,"g":0,"b":0,"a":1}}}]},{"t":5500,"v":[{"type":"drop-shadow","value":{"blur":{"x":10,"y":10},"offset":{"x":0,"y":0},"color":{"r":0,"g":0,"b":0,"a":1}}}]},{"t":6500,"v":[{"type":"drop-shadow","value":{"blur":{"x":10,"y":10},"offset":{"x":0,"y":0},"color":{"r":0,"g":0,"b":0,"a":0}}}]}],"data":{"items":[["drop-shadow","eS5U3aFYpZ828-filter-drop-shadow-0"]]}}},"eS5U3aFYpZ829":{"fill":[{"t":3500,"v":null},{"t":4500,"v":{"t":"c","v":{"r":255,"g":255,"b":255,"a":1}}},{"t":5500,"v":{"t":"c","v":{"r":255,"g":255,"b":255,"a":1}}},{"t":6500,"v":null}],"stroke":[{"t":3500,"v":{"t":"c","v":{"r":204,"g":204,"b":204,"a":1}}},{"t":4500,"v":null},{"t":5500,"v":null},{"t":6500,"v":{"t":"c","v":{"r":204,"g":204,"b":204,"a":1}}}]},"eS5U3aFYpZ830":{"transform":{"data":{"t":{"x":-400,"y":-85.5}},"keys":{"o":[{"t":3500,"v":{"x":400,"y":80,"type":"corner"}},{"t":4500,"v":{"x":400,"y":85.5,"type":"corner"}},{"t":5500,"v":{"x":400,"y":85.5,"type":"corner"}},{"t":6500,"v":{"x":400,"y":80,"type":"corner"}}]}}},"eS5U3aFYpZ831":{"fill":[{"t":3500,"v":{"t":"c","v":{"r":33,"g":240,"b":230,"a":0}}},{"t":4500,"v":{"t":"c","v":{"r":33,"g":240,"b":230,"a":1}}},{"t":5500,"v":{"t":"c","v":{"r":33,"g":240,"b":230,"a":1}}},{"t":6500,"v":{"t":"c","v":{"r":33,"g":240,"b":230,"a":0}}}],"stroke":[{"t":3500,"v":{"t":"c","v":{"r":204,"g":204,"b":204,"a":1}}},{"t":4500,"v":null},{"t":5500,"v":null},{"t":6500,"v":{"t":"c","v":{"r":204,"g":204,"b":204,"a":1}}}]},"eS5U3aFYpZ832":{"fill":[{"t":3500,"v":{"t":"c","v":{"r":131,"g":108,"b":249,"a":0}}},{"t":4500,"v":{"t":"c","v":{"r":131,"g":108,"b":249,"a":0.99}}},{"t":5500,"v":{"t":"c","v":{"r":131,"g":108,"b":249,"a":0.99}}},{"t":6500,"v":{"t":"c","v":{"r":131,"g":108,"b":249,"a":0}}}],"stroke":[{"t":3500,"v":{"t":"c","v":{"r":204,"g":204,"b":204,"a":1}}},{"t":4500,"v":null},{"t":5500,"v":null},{"t":6500,"v":{"t":"c","v":{"r":204,"g":204,"b":204,"a":1}}}]},"eS5U3aFYpZ833":{"fill":[{"t":3500,"v":{"t":"c","v":{"r":17,"g":26,"b":83,"a":0}}},{"t":4500,"v":{"t":"c","v":{"r":17,"g":26,"b":83,"a":1}}},{"t":5500,"v":{"t":"c","v":{"r":17,"g":26,"b":83,"a":1}}},{"t":6500,"v":{"t":"c","v":{"r":17,"g":26,"b":83,"a":0}}}]},"eS5U3aFYpZ834":{"#filter":{"keys":[{"t":1500,"v":[{"type":"drop-shadow","value":{"blur":{"x":10,"y":10},"offset":{"x":0,"y":0},"color":{"r":0,"g":0,"b":0,"a":0}}}]},{"t":2500,"v":[{"type":"drop-shadow","value":{"blur":{"x":10,"y":10},"offset":{"x":0,"y":0},"color":{"r":0,"g":0,"b":0,"a":1}}}]},{"t":8000,"v":[{"type":"drop-shadow","value":{"blur":{"x":10,"y":10},"offset":{"x":0,"y":0},"color":{"r":0,"g":0,"b":0,"a":1}}}]},{"t":9000,"v":[{"type":"drop-shadow","value":{"blur":{"x":10,"y":10},"offset":{"x":0,"y":0},"color":{"r":0,"g":0,"b":0,"a":0}}}]}],"data":{"items":[["drop-shadow","eS5U3aFYpZ834-filter-drop-shadow-0"]]}}},"eS5U3aFYpZ835":{"fill":[{"t":1500,"v":null},{"t":2500,"v":{"t":"c","v":{"r":255,"g":255,"b":255,"a":1}}},{"t":8000,"v":{"t":"c","v":{"r":255,"g":255,"b":255,"a":1}}},{"t":9000,"v":null}],"stroke":[{"t":1500,"v":{"t":"c","v":{"r":204,"g":204,"b":204,"a":1}}},{"t":2500,"v":null},{"t":8000,"v":null},{"t":9000,"v":{"t":"c","v":{"r":204,"g":204,"b":204,"a":1}}}]},"eS5U3aFYpZ836":{"transform":{"data":{"t":{"x":-230.5,"y":-201.5}},"keys":{"o":[{"t":1500,"v":{"x":230.5,"y":220,"type":"corner"}},{"t":2500,"v":{"x":230.5,"y":201.5,"type":"corner"}},{"t":8000,"v":{"x":230.5,"y":201.5,"type":"corner"}},{"t":9000,"v":{"x":230.5,"y":220,"type":"corner"}}]}}},"eS5U3aFYpZ837":{"fill":[{"t":1500,"v":{"t":"c","v":{"r":33,"g":240,"b":230,"a":0}}},{"t":2500,"v":{"t":"c","v":{"r":33,"g":240,"b":230,"a":1}}},{"t":8000,"v":{"t":"c","v":{"r":33,"g":240,"b":230,"a":1}}},{"t":9000,"v":{"t":"c","v":{"r":33,"g":240,"b":230,"a":0}}}],"stroke":[{"t":1500,"v":{"t":"c","v":{"r":204,"g":204,"b":204,"a":1}}},{"t":2500,"v":null},{"t":8000,"v":null},{"t":9000,"v":{"t":"c","v":{"r":204,"g":204,"b":204,"a":1}}}]},"eS5U3aFYpZ838":{"fill":[{"t":1500,"v":{"t":"c","v":{"r":131,"g":108,"b":249,"a":0}}},{"t":2500,"v":{"t":"c","v":{"r":131,"g":108,"b":249,"a":1}}},{"t":8000,"v":{"t":"c","v":{"r":131,"g":108,"b":249,"a":1}}},{"t":9000,"v":{"t":"c","v":{"r":131,"g":108,"b":249,"a":0}}}],"stroke":[{"t":1500,"v":{"t":"c","v":{"r":204,"g":204,"b":204,"a":1}}},{"t":2500,"v":null},{"t":8000,"v":null},{"t":9000,"v":{"t":"c","v":{"r":204,"g":204,"b":204,"a":1}}}]},"eS5U3aFYpZ839":{"fill":[{"t":1500,"v":{"t":"c","v":{"r":17,"g":26,"b":83,"a":0}}},{"t":2500,"v":{"t":"c","v":{"r":17,"g":26,"b":83,"a":1}}},{"t":8000,"v":{"t":"c","v":{"r":17,"g":26,"b":83,"a":1}}},{"t":9000,"v":{"t":"c","v":{"r":17,"g":26,"b":83,"a":0}}}]},"eS5U3aFYpZ840":{"#filter":{"keys":[{"t":0,"v":[{"type":"drop-shadow","value":{"blur":{"x":10,"y":10},"offset":{"x":0,"y":0},"color":{"r":0,"g":0,"b":0,"a":0}}}],"e":[0.47,0,0.745,0.715]},{"t":1000,"v":[{"type":"drop-shadow","value":{"blur":{"x":10,"y":10},"offset":{"x":0,"y":0},"color":{"r":0,"g":0,"b":0,"a":1}}}]},{"t":2000,"v":[{"type":"drop-shadow","value":{"blur":{"x":10,"y":10},"offset":{"x":0,"y":0},"color":{"r":0,"g":0,"b":0,"a":1}}}]},{"t":3000,"v":[{"type":"drop-shadow","value":{"blur":{"x":10,"y":10},"offset":{"x":0,"y":0},"color":{"r":0,"g":0,"b":0,"a":0}}}]}],"data":{"items":[["drop-shadow","eS5U3aFYpZ840-filter-drop-shadow-0"]]}}},"eS5U3aFYpZ841":{"fill":[{"t":0,"v":null,"e":[0.47,0,0.745,0.715]},{"t":1000,"v":{"t":"c","v":{"r":255,"g":255,"b":255,"a":1}}},{"t":2000,"v":{"t":"c","v":{"r":255,"g":255,"b":255,"a":1}}},{"t":3000,"v":null}],"stroke":[{"t":0,"v":{"t":"c","v":{"r":204,"g":204,"b":204,"a":1}},"e":[0.47,0,0.745,0.715]},{"t":1000,"v":null},{"t":2000,"v":null},{"t":3000,"v":{"t":"c","v":{"r":204,"g":204,"b":204,"a":1}}}]},"eS5U3aFYpZ842":{"transform":{"data":{"t":{"x":-94,"y":-81.545403}},"keys":{"o":[{"t":0,"v":{"x":94,"y":100,"type":"corner"}},{"t":1000,"v":{"x":94,"y":81.55,"type":"corner"}},{"t":2000,"v":{"x":94,"y":81.55,"type":"corner"}},{"t":3000,"v":{"x":94,"y":100,"type":"corner"}}]}}},"eS5U3aFYpZ843":{"fill":[{"t":0,"v":{"t":"c","v":{"r":33,"g":240,"b":230,"a":0}}},{"t":1000,"v":{"t":"c","v":{"r":33,"g":240,"b":230,"a":1}}},{"t":2000,"v":{"t":"c","v":{"r":33,"g":240,"b":230,"a":1}}},{"t":3000,"v":{"t":"c","v":{"r":33,"g":240,"b":230,"a":0}}}],"stroke":[{"t":0,"v":{"t":"c","v":{"r":204,"g":204,"b":204,"a":1}}},{"t":1000,"v":null},{"t":2000,"v":null},{"t":3000,"v":{"t":"c","v":{"r":204,"g":204,"b":204,"a":1}}}]},"eS5U3aFYpZ844":{"fill":[{"t":0,"v":{"t":"c","v":{"r":131,"g":108,"b":249,"a":0}}},{"t":1000,"v":{"t":"c","v":{"r":131,"g":108,"b":249,"a":1}}},{"t":2000,"v":{"t":"c","v":{"r":131,"g":108,"b":249,"a":1}}},{"t":3000,"v":{"t":"c","v":{"r":131,"g":108,"b":249,"a":0}}}],"stroke":[{"t":0,"v":{"t":"c","v":{"r":204,"g":204,"b":204,"a":1}}},{"t":1000,"v":null},{"t":2000,"v":null},{"t":3000,"v":{"t":"c","v":{"r":204,"g":204,"b":204,"a":1}}}]},"eS5U3aFYpZ845":{"fill":[{"t":0,"v":{"t":"c","v":{"r":17,"g":26,"b":83,"a":0.01}}},{"t":1000,"v":{"t":"c","v":{"r":17,"g":26,"b":83,"a":1}}},{"t":2000,"v":{"t":"c","v":{"r":17,"g":26,"b":83,"a":1}}},{"t":3000,"v":{"t":"c","v":{"r":17,"g":26,"b":83,"a":0}}}]},"eS5U3aFYpZ846":{"stroke-dashoffset":[{"t":8500,"v":187.43},{"t":9500,"v":0},{"t":10000,"v":0},{"t":11000,"v":-187.43}]},"eS5U3aFYpZ847":{"stroke-dashoffset":[{"t":8500,"v":139.43},{"t":9500,"v":0},{"t":10000,"v":0},{"t":11000,"v":-139.43}],"stroke-dasharray":[{"t":8500,"v":[139.43]},{"t":9500,"v":[139.43]}]},"eS5U3aFYpZ848":{"stroke-dashoffset":[{"t":6500,"v":139.43},{"t":7500,"v":0},{"t":8000,"v":0},{"t":9000,"v":-139.43}],"stroke-dasharray":[{"t":6500,"v":[139.43]},{"t":7500,"v":[139.43]}]},"eS5U3aFYpZ849":{"stroke-dashoffset":[{"t":3000,"v":139.43},{"t":7500,"v":0},{"t":8000,"v":0},{"t":9000,"v":-139.43}],"stroke-dasharray":[{"t":3000,"v":[139.43]},{"t":7500,"v":[139.43]},{"t":8000,"v":[139.43]}]},"eS5U3aFYpZ850":{"stroke-dashoffset":[{"t":4500,"v":186.43},{"t":5500,"v":0},{"t":6000,"v":0},{"t":7000,"v":-186.43}]},"eS5U3aFYpZ851":{"stroke-dashoffset":[{"t":1000,"v":146.43},{"t":2000,"v":0},{"t":2500,"v":0},{"t":3500,"v":-146.43}]}},"s":"MDCA1ZTkwMzc3OUThhODc3Njg5VTTdlODRSODMPzNzRmNDY0ODRQ1NDU0NTQxMSzc3OTdlODc3IYTc4ODk3ZTgO0ODMzN0o0ZjBQ2NDEzNzdlOWDk3YTg3NzY4POTdlODQ4MzgL4MzdRNGY0NUQg0MTM3VDdiNX2U4MTgxRzM3INGY0NjQxVzMP3NzY4MTg5N2JE4NzgzNzY4OETdhMzdXNGY3QYjc2ODE4ODdMhNDEzN1M4ODBg1N2E3YTc5UHDM3NGY0NjQxUMzc3Yjg1ODgMzNzRmNDY0NTRQ1OTI/"}],"options":"MDUAxOE85MjM5OIGFBOGJPNzg4LOUc4YjM5NTEOzOTg3SDg5ODNZTN2U4OTc4OPDQ4NDc4OGI4KMDdhMzk5NA|W"},'https://cdn.svgator.com/ply/','__SVGATOR_PLAYER__','2025-04-07',window,document,'script','http://www.w3.org/2000/svg','http://www.w3.org/1999/xlink')
]]></script>
</svg>
