<svg width="40" height="40" viewBox="0 0 40 40" fill="none" xmlns="http://www.w3.org/2000/svg">
<rect width="40" height="40" rx="8" fill="#2883DF" fill-opacity="0.03"/>
<path d="M15.5001 11.5C13.9441 11.547 13.0171 11.72 12.3751 12.362C11.4961 13.242 11.4961 14.657 11.4961 17.488V23.994C11.4961 26.826 11.4961 28.241 12.3751 29.121C13.2531 30 14.6681 30 17.4961 30H22.4961C25.3251 30 26.7391 30 27.6171 29.12C28.4971 28.241 28.4971 26.826 28.4971 23.994V17.488C28.4971 14.658 28.4971 13.242 27.6171 12.362C26.9761 11.72 26.0481 11.547 24.4921 11.5" stroke="#2883DF" stroke-width="1.8" stroke-linecap="round" stroke-linejoin="round"/>
<path d="M21.5 19H25M15 20C15 20 15.5 20 16 21C16 21 17.588 18.5 19 18M21.5 25H25M16 25H17M15.496 11.75C15.496 10.784 16.28 10 17.246 10H22.746C23.2101 10 23.6552 10.1844 23.9834 10.5126C24.3116 10.8408 24.496 11.2859 24.496 11.75C24.496 12.2141 24.3116 12.6592 23.9834 12.9874C23.6552 13.3156 23.2101 13.5 22.746 13.5H17.246C16.7819 13.5 16.3368 13.3156 16.0086 12.9874C15.6804 12.6592 15.496 12.2141 15.496 11.75Z" stroke="#2883DF" stroke-width="1.8" stroke-linecap="round" stroke-linejoin="round"/>
</svg>
