<svg width="516" height="527" viewBox="0 0 516 527" fill="none" xmlns="http://www.w3.org/2000/svg">

  <style>
    /* --- Animation Definitions --- */

    @keyframes spin {
      from { transform: rotate(0deg); }
      to { transform: rotate(360deg); }
    }

    @keyframes spin-reverse {
      from { transform: rotate(0deg); }
      to { transform: rotate(-360deg); }
    }

    /* Animation for the dashed lines (spilling effect) */
    @keyframes dash-flow {
      to {
        stroke-dashoffset: -114; /* Approx. combined length (e.g., 87.56 + 26.27) */
      }
    }

    /* --- Applying Animations --- */

    /* Rotate the blurred circles around the center */
    #rotator1, #rotator2 {
      /* Define the center of rotation (approx center of viewBox) */
      transform-origin: 258px 263.5px;
    }

    #rotator1 {
       animation: spin 10s linear infinite;
    }
     /* Rotate the second circle slightly faster and in the opposite direction for visual interest */
    #rotator2 {
       animation: spin-reverse 8s linear infinite;
    }

    /* Animate the dashed lines within the 'spill-effect' group */
    #spill-effect path {
      animation: dash-flow 3s linear infinite;
    }

  </style>

  <g opacity="0.5">
    <!-- Added wrapper group for rotation animation -->
    <g id="rotator1">
      <g filter="url(#filter0_f_463_18290)">
        <circle cx="123.738" cy="123.738" r="123.738" transform="matrix(-0.965926 0.258819 0.258819 0.965926 339.184 97.5243)" fill="url(#paint0_linear_463_18290)"/>
      </g>
    </g>
     <!-- Added wrapper group for rotation animation -->
    <g id="rotator2">
      <g filter="url(#filter1_f_463_18290)">
        <circle cx="292.774" cy="290.083" r="123.738" transform="rotate(-15 292.774 290.083)" fill="url(#paint1_linear_463_18290)"/>
      </g>
    </g>
    <circle cx="172.793" cy="172.793" r="172.793" transform="matrix(-0.707107 0.707107 0.707107 0.707107 270.365 22.1348)" stroke="url(#paint2_linear_463_18290)" stroke-width="2"/>
    <path d="M384.826 472.313C354.82 489 321.528 498.925 287.282 501.392C253.037 503.858 218.666 498.806 186.578 486.591C154.49 474.375 125.461 455.291 101.526 430.675C77.5899 406.059 59.3262 376.507 48.0141 344.09C36.7019 311.673 32.615 277.174 36.0396 243.011C39.4642 208.847 50.3176 175.846 67.8392 146.319C85.3608 116.792 109.127 91.4534 137.472 72.0785C165.818 52.7035 198.057 39.7609 231.931 34.1574" stroke="url(#paint3_linear_463_18290)" stroke-width="2"/>

    <!-- Added ID to the group containing the spilling paths -->
    <g id="spill-effect" style="mix-blend-mode:overlay">
      <g opacity="0.25">
        <path opacity="0.25" d="M90.1738 195.92C92.9371 184.41 101.592 172.349 109.37 163.71C111.219 160.957 113.529 158.87 114.709 156.459C116.585 152.623 120.998 149.652 123.193 145.87C125.519 141.86 129.154 138.561 131.599 134.511C133.52 131.33 134.109 126.496 134.793 122.874C136.505 113.81 134.565 103.526 141.186 96.1719C149.732 86.6813 162.481 89.0655 173.616 91.5805C185.766 94.3249 197.523 94.7451 209.032 89.1173C213.136 87.1106 216.199 82.9649 219.697 80.0724C224.879 75.7883 229.475 72.9048 235.256 69.4043C245.051 63.4739 263.335 50.1206 274.838 59.1249C285.928 67.805 295.009 80.8595 308.767 85.5384C315.87 87.9538 325.066 86.4487 332.5 86.7167C340.749 87.0141 348.855 84.6352 357.094 84.6047C366.481 84.57 374.803 84.7064 382.069 91.2483C387.871 96.4724 392.675 101.48 396.525 108.33C400.888 116.094 403.773 124.675 409.033 131.931C414.586 139.592 420.272 147.206 426.705 154.153C435.865 164.045 453.414 177.499 452.377 192.692C451.613 203.904 448.065 214.973 446.293 226.052C445.158 233.151 447.43 236.557 452.184 241.522C462.535 252.331 465.58 263.649 462.434 278.443C460.684 286.675 456.486 294.598 453.392 302.41C450.344 310.103 447.833 317.981 444.829 325.687C436.359 347.421 417.367 362.157 402.801 379.754C397.631 386 399.592 389.96 399.542 397.22C399.506 402.415 397.861 406.962 395.53 411.554C391.839 418.825 384.834 424.834 379.423 430.843L363.422 448.614C351.67 461.665 342.781 474.704 324.052 476.47C308.067 477.978 293.072 464.885 278.105 460.759C262.279 456.396 246.577 462.668 230.777 462.451C215.135 462.236 202.493 455.988 191.934 445.073C181.32 434.102 169.907 422.829 156.676 415.08C151.674 412.151 145.675 409.728 140.93 406.51C134.98 402.476 131.373 395.89 127.038 390.357C118.258 379.15 110.178 369.805 105.752 356.048C100.692 340.321 95.6504 324.411 92.8275 308.095C90.9132 297.031 84.0865 285.478 84.286 274.255C84.479 263.399 86.2623 252.053 85.8922 241.279C85.6209 233.383 83.464 225.576 83.664 217.54C83.8572 209.781 88.424 203.209 90.1738 195.92Z" stroke="#03417F" stroke-width="0.875556" stroke-linecap="round" stroke-dasharray="87.56 26.27"/>
        <path opacity="0.5" d="M161.315 105.912C170.117 98.3924 183.897 93.8247 195.015 91.4614C198.06 90.3459 201.088 90.0225 203.407 88.7929C207.095 86.8369 212.294 87.023 216.205 85.2919C220.35 83.4564 225.121 82.936 229.384 81.1371C232.732 79.7246 235.976 76.2379 238.599 73.7652C245.163 67.5768 249.539 58.3232 259.004 56.3112C271.22 53.7147 279.936 62.9324 287.3 71.3251C295.336 80.4833 304.396 87.5761 316.736 89.7403C321.136 90.512 325.942 88.9926 330.373 88.7155C336.935 88.3051 342.228 88.6657 348.814 89.22C359.972 90.1591 382.112 90.1056 386.038 103.846C389.823 117.091 389.505 132.643 397.701 144.256C401.932 150.252 410.073 154.349 415.8 158.835C422.155 163.814 429.936 166.592 436.472 171.306C443.919 176.675 450.425 181.569 452.413 190.923C454.001 198.393 454.924 205.119 454.032 212.753C453.022 221.405 450.373 229.855 450.364 238.621C450.354 247.876 450.477 257.171 451.574 266.367C453.136 279.462 459.287 300.199 449.735 311.625C442.686 320.058 433.517 326.777 425.748 334.525C420.77 339.49 420.609 343.492 421.517 350.155C423.494 364.659 419.399 375.367 408.407 385.265C402.29 390.773 394.416 394.628 387.478 399.03C380.645 403.366 374.131 408.156 367.325 412.527C348.132 424.855 324.637 425.595 302.999 431.145C295.319 433.114 294.594 437.375 290.382 443.092C287.368 447.182 283.453 449.834 278.969 452.128C271.871 455.759 262.875 456.486 255.14 458.13L232.267 462.992C215.468 466.562 200.942 471.769 185.108 462.397C171.594 454.399 167.256 435.416 157.786 423.545C147.773 410.992 131.745 406.927 119.369 397.67C107.117 388.506 100.706 376.292 98.6254 361.584C96.5337 346.799 93.9836 331.316 87.9691 317.576C85.6954 312.382 82.3415 307.016 80.4363 301.74C78.0479 295.128 78.9796 287.841 78.7299 280.971C78.2243 267.053 77.2028 255.013 81.6078 241.581C86.6435 226.227 91.7984 210.738 98.9425 196.204C103.787 186.348 105.026 173.281 111.634 164.514C118.027 156.034 125.958 148.082 131.858 139.343C136.182 132.939 138.962 125.521 143.739 119.277C148.351 113.248 155.742 110.673 161.315 105.912Z" stroke="#03417F" stroke-width="0.875556" stroke-linecap="round" stroke-dasharray="87.56 26.27"/>
        <path opacity="0.75" d="M269.364 75.6893C280.644 74.7986 294.164 79.1028 304.314 83.6217C307.362 84.4884 309.942 85.9725 312.482 86.3322C316.523 86.9043 320.527 90.0387 324.613 90.9159C328.945 91.8459 333.017 94.1755 337.421 95.2019C340.88 96.0078 345.449 95.1139 348.943 94.665C357.69 93.5415 366.467 88.7358 375.107 92.5828C386.258 97.5474 387.853 109.847 388.853 120.716C389.945 132.577 393.033 143.393 401.546 152.195C404.582 155.334 409.255 156.893 412.918 159.219C418.342 162.665 422.32 165.991 427.209 170.214C435.492 177.367 453.028 190.046 448.238 203.17C443.62 215.822 434.431 227.94 434.239 241.835C434.139 249.009 438.222 256.927 440.172 263.766C442.337 271.356 446.892 278.023 449.352 285.507C452.154 294.033 454.487 301.642 450.684 310.184C447.647 317.005 444.512 322.855 439.42 328.381C433.649 334.645 426.7 339.806 421.655 346.735C416.33 354.051 411.086 361.473 406.669 369.378C400.379 380.633 393.327 400.57 379.209 404.12C368.79 406.741 357.679 406.787 347.083 408.452C340.295 409.519 337.868 412.593 334.758 418.385C327.986 430.994 318.595 437.11 304.216 438.624C296.215 439.467 287.774 437.992 279.758 437.488C271.864 436.992 263.961 437.038 256.068 436.585C233.808 435.309 214.806 422.396 194.509 414.353C187.304 411.498 184.282 414.452 177.667 416.554C172.933 418.058 168.314 417.906 163.451 417.144C155.751 415.938 148.221 411.344 141.16 408.201L120.281 398.905C104.947 392.078 90.4689 387.85 83.3342 371.339C77.2451 357.249 84.7228 339.74 84.0565 324.91C83.3518 309.227 73.0148 296.803 68.5483 282.37C64.1266 268.082 66.0759 254.737 72.8821 241.908C79.724 229.011 86.6044 215.299 89.7439 200.975C90.9307 195.56 91.3626 189.388 92.8873 184.121C94.7986 177.518 99.7221 172.29 103.473 166.712C111.07 155.412 117.181 145.301 128.382 137.208C141.187 127.956 154.162 118.666 168.163 111.274C177.657 106.262 186.145 96.6373 196.408 93.4999C206.335 90.4649 217.176 88.7317 226.862 85.2091C233.961 82.6273 240.421 78.3572 247.786 76.1628C254.898 74.0438 262.221 76.2534 269.364 75.6893Z" stroke="#03417F" stroke-width="0.875555" stroke-linecap="round" stroke-dasharray="87.56 26.27"/>
        <path d="M372.133 113.961C381.56 119.733 389.775 130.898 395.201 140.297C397.112 142.732 398.299 145.386 400.1 147.129C402.965 149.901 404.33 154.677 407.056 157.716C409.946 160.939 411.826 165.118 414.718 168.458C416.988 171.08 421.113 172.997 424.133 174.648C431.692 178.782 441.39 180.022 446.009 188.023C451.971 198.35 446.167 208.987 440.713 218.153C434.762 228.156 430.99 238.478 432.663 250.323C433.26 254.547 436.058 258.462 437.616 262.404C439.924 268.242 441.158 273.155 442.597 279.299C445.034 289.709 451.612 309.799 440.287 317.422C429.369 324.771 415.145 329.075 407.01 339.948C402.811 345.561 401.49 354.164 399.103 360.69C396.454 367.931 396.224 375.817 393.869 383.145C391.186 391.493 388.659 398.847 380.746 403.415C374.427 407.063 368.589 409.888 361.39 411.333C353.231 412.971 344.773 413.06 336.805 415.641C328.394 418.366 319.985 421.223 311.953 424.935C300.516 430.221 283.49 441.931 270.291 436.632C260.551 432.721 251.741 426.38 242.41 421.612C236.431 418.558 232.748 419.595 226.962 422.387C214.367 428.466 203.43 427.91 191.196 420.851C184.387 416.923 178.562 410.911 172.516 405.911C166.561 400.987 160.289 396.485 154.31 391.597C137.448 377.808 129.847 356.691 118.423 338.681C114.368 332.288 110.283 332.888 103.848 330.752C99.2421 329.223 95.6778 326.451 92.2716 323.056C86.8789 317.683 83.5654 309.728 79.7906 303.19L68.6273 283.854C60.4289 269.654 51.4141 258 55.259 240.854C58.5403 226.22 74.5084 216.674 82.5009 204.569C90.9529 191.767 89.9193 176.012 94.6799 162.04C99.3927 148.207 108.599 138.778 121.349 132.544C134.165 126.278 147.48 119.39 158.19 109.87C162.239 106.271 166.125 101.64 170.356 98.3524C175.66 94.2305 182.555 92.9245 188.724 90.6686C201.22 86.0989 211.858 81.6151 225.36 81.6485C240.796 81.6866 256.389 81.7933 271.701 83.9882C282.085 85.4766 294.322 82.7422 304.236 86.1541C313.826 89.4544 323.391 94.3084 333.07 97.0848C340.165 99.1198 347.724 99.4537 354.806 101.947C361.644 104.355 366.163 110.306 372.133 113.961Z" stroke="#03417F" stroke-width="0.875556" stroke-linecap="round" stroke-dasharray="87.56 26.27"/>
      </g>
      <g opacity="0.5">
         <!-- ... (rest of the path elements inside this group) ... -->
         <path opacity="0.25" d="M415.198 371.45C408.664 381.321 396.406 389.695 386.142 395.152C383.464 397.107 380.578 398.278 378.645 400.14C375.57 403.103 370.408 404.385 367.052 407.189C363.494 410.162 358.951 412.018 355.267 414.988C352.375 417.32 350.168 421.661 348.286 424.83C343.577 432.762 341.883 443.09 333.146 447.736C321.87 453.731 310.704 447.13 301.101 440.959C290.622 434.224 279.718 429.808 266.979 431.16C262.436 431.642 258.14 434.49 253.863 436.012C247.528 438.265 242.224 439.403 235.594 440.715C224.361 442.938 202.613 449.233 194.883 436.837C187.431 424.887 183.363 409.514 172.034 400.412C166.186 395.713 157.029 393.982 150.136 391.188C142.486 388.087 134.055 387.55 126.302 384.761C117.47 381.583 109.696 378.608 105.106 369.976C101.441 363.082 98.6389 356.733 97.3644 348.98C95.92 340.191 96.1436 331.141 93.6827 322.524C91.0846 313.426 88.3456 304.326 84.6765 295.598C79.452 283.17 67.5634 264.525 73.7333 250.603C78.2865 240.329 85.4064 231.141 90.8608 221.336C94.3554 215.054 93.3855 211.076 90.6157 204.783C84.5861 191.087 85.5952 179.409 93.6115 166.583C98.0722 159.446 104.726 153.438 110.306 147.155C115.801 140.968 120.855 134.424 126.313 128.21C141.707 110.683 164.593 103.332 184.298 91.7784C191.293 87.6772 190.805 83.2856 193.335 76.4806C195.146 71.6108 198.247 67.9007 202.008 64.3827C207.963 58.8129 216.601 55.5624 223.74 51.7663L244.855 40.5396C260.361 32.2947 273.174 23.0826 291.378 27.8282C306.915 31.8784 316.527 49.3108 329.18 58.3067C342.56 67.8198 359.46 67.2961 374.233 72.904C388.858 78.4557 398.601 88.6513 404.79 102.519C411.011 116.459 417.88 130.955 427.663 142.762C431.361 147.226 436.17 151.554 439.529 156.201C443.739 162.026 444.876 169.449 447.057 176.131C451.475 189.666 455.872 201.21 455.326 215.652C454.701 232.161 453.998 248.835 451.07 265.132C449.085 276.184 451.548 289.375 447.522 299.853C443.628 309.989 438.072 320.04 434.735 330.291C432.289 337.804 431.646 345.878 428.709 353.36C425.874 360.586 419.335 365.2 415.198 371.45Z" stroke="#03417F" stroke-width="0.875556" stroke-linecap="round" stroke-dasharray="1.75 7"/>
         <path opacity="0.5" d="M317.561 431.698C306.718 435.753 292.207 435.333 280.951 433.751C277.708 433.758 274.752 433.026 272.153 433.388C268.017 433.965 263.195 432.011 258.929 432.301C254.406 432.608 249.744 431.465 245.123 431.697C241.495 431.88 237.253 434.047 233.943 435.473C225.658 439.043 218.381 446.242 208.799 444.895C196.432 443.157 191.393 431.514 187.344 421.109C182.925 409.755 176.837 399.991 165.982 393.737C162.111 391.507 157.075 391.291 152.817 390.036C146.51 388.177 141.66 386.028 135.661 383.255C125.497 378.556 104.674 371.034 105.683 356.78C106.657 343.038 112.275 328.534 108.545 314.817C106.62 307.736 100.371 301.102 96.524 294.927C92.2547 288.075 85.8938 282.803 81.3638 276.139C76.203 268.546 71.7629 261.722 73.0939 252.252C74.1567 244.689 75.5896 238.054 79.0385 231.185C82.9474 223.4 88.3265 216.366 91.3332 208.132C94.5075 199.438 97.5714 190.662 99.6859 181.645C102.697 168.806 104.009 147.216 116.893 139.745C126.401 134.232 137.315 131.054 147.266 126.43C153.642 123.468 155.161 119.762 156.587 113.19C159.69 98.884 167.2 90.223 180.915 84.6814C188.546 81.5978 197.264 80.6682 205.29 78.9041C213.194 77.1667 220.953 74.8941 228.843 73.1141C251.096 68.094 273.427 75.4341 295.657 77.62C303.548 78.3959 305.687 74.6398 311.6 70.7089C315.831 67.8959 320.417 66.7428 325.415 66.121C333.327 65.1367 342.029 67.5306 349.86 68.6311L373.017 71.8855C390.023 74.2757 405.455 74.3516 417.128 88.5734C427.091 100.711 424.675 120.033 429.514 134.427C434.63 149.648 448.301 158.949 456.764 171.881C465.143 184.683 466.99 198.353 463.915 212.886C460.824 227.494 457.924 242.916 458.877 257.884C459.237 263.543 460.553 269.733 460.539 275.341C460.522 282.372 457.154 288.9 455.039 295.442C450.754 308.693 447.596 320.357 438.863 331.472C428.879 344.178 418.738 356.969 407.054 368.183C399.13 375.788 393.497 387.644 384.289 393.621C375.382 399.404 365.209 404.164 356.676 410.357C350.422 414.897 345.273 420.916 338.648 425.15C332.252 429.238 324.427 429.13 317.561 431.698Z" stroke="#03417F" stroke-width="0.875556" stroke-linecap="round" stroke-dasharray="1.75 7"/>
         <path opacity="0.75" d="M205.693 423.144C194.788 420.123 183.555 411.454 175.564 403.736C172.996 401.879 171.079 399.602 168.815 398.395C165.214 396.476 162.523 392.161 158.983 389.939C155.23 387.583 152.201 384.002 148.413 381.531C145.439 379.591 140.84 378.868 137.402 378.095C128.799 376.159 118.908 377.673 112.104 371.103C103.324 362.624 106.032 350.521 108.809 339.964C111.841 328.445 112.638 317.226 107.648 306.043C105.869 302.055 102.011 298.992 99.3652 295.553C95.4464 290.46 92.846 285.973 89.696 280.334C84.3595 270.779 72.2165 252.867 81.207 242.173C89.8739 231.863 102.653 223.619 107.586 210.627C110.133 203.92 109.005 195.083 109.511 187.989C110.073 180.117 108.073 172.294 108.321 164.42C108.604 155.449 109.015 147.502 115.51 140.776C120.696 135.405 125.643 130.98 132.318 127.528C139.883 123.616 148.179 121.143 155.289 116.357C162.795 111.304 170.261 106.123 177.115 100.206C186.875 91.7804 200.321 75.4577 214.802 76.9502C225.489 78.0516 235.946 81.8077 246.472 83.8671C253.216 85.1866 256.547 83.1283 261.451 78.7493C272.127 69.2167 283.043 66.6809 297.073 70.1762C304.879 72.1212 312.308 76.394 319.667 79.609C326.916 82.7752 334.358 85.4354 341.62 88.5599C362.101 97.3724 375.541 116.006 391.863 130.506C397.658 135.653 401.507 133.91 408.442 134.198C413.405 134.404 417.694 136.126 422.003 138.505C428.825 142.272 434.331 149.165 439.89 154.533L456.331 170.41C468.405 182.07 480.564 190.995 481.622 208.949C482.524 224.273 469.509 238.168 465.063 252.332C460.361 267.31 465.826 282.52 465.086 297.61C464.355 312.549 457.959 324.422 447.175 334.15C436.335 343.929 425.18 354.461 417.33 366.847C414.363 371.53 411.846 377.182 408.612 381.61C404.558 387.161 398.143 390.39 392.711 394.349C381.707 402.368 372.506 409.779 359.213 413.554C344.016 417.868 328.646 422.16 312.961 424.317C302.325 425.781 291.057 431.922 280.341 431.36C269.974 430.816 259.194 428.737 248.888 428.735C241.334 428.733 233.802 430.536 226.131 430.079C218.723 429.638 212.598 425.057 205.693 423.144Z" stroke="#03417F" stroke-width="0.875555" stroke-linecap="round" stroke-dasharray="1.75 7"/>
         <path d="M122.212 352.031C115.327 343.382 111.426 330.082 109.542 319.394C108.579 316.452 108.371 313.551 107.275 311.298C105.53 307.713 105.882 302.758 104.36 298.97C102.746 294.953 102.409 290.383 100.834 286.256C99.5973 283.015 96.3767 279.803 94.1036 277.218C88.4145 270.749 79.7256 266.266 78.1212 257.168C76.0508 245.425 85.1433 237.414 93.4028 230.666C102.416 223.302 109.491 214.893 111.97 203.19C112.854 199.017 111.564 194.38 111.448 190.144C111.275 183.868 111.797 178.83 112.546 172.564C113.816 161.948 114.506 140.82 127.756 137.53C140.529 134.358 155.367 135.179 166.729 127.744C172.595 123.905 176.779 116.273 181.254 110.957C186.22 105.059 189.133 97.7267 193.853 91.6463C199.229 84.7192 204.119 78.6734 213.117 77.0868C220.302 75.8199 226.754 75.1626 234.013 76.2669C242.241 77.5185 250.22 80.3269 258.589 80.6266C267.425 80.943 276.304 81.1349 285.121 80.3936C297.676 79.3381 317.681 74.1574 328.272 83.6513C336.087 90.6573 342.196 99.6297 349.334 107.301C353.907 112.216 357.723 112.502 364.115 111.856C378.03 110.452 388.117 114.715 397.2 125.533C402.254 131.552 405.671 139.194 409.643 145.96C413.554 152.624 417.909 159 421.855 165.638C432.984 184.362 432.905 206.806 437.479 227.637C439.103 235.031 443.147 235.864 448.464 240.073C452.269 243.085 454.67 246.909 456.71 251.264C459.939 258.158 460.332 266.766 461.643 274.201L465.52 296.188C468.368 312.336 472.853 326.37 463.375 341.168C455.287 353.797 437.017 357.306 425.366 365.947C413.046 375.086 408.628 390.244 399.376 401.746C390.216 413.133 378.34 418.844 364.227 420.341C350.041 421.846 335.173 423.765 321.853 429.048C316.818 431.045 311.581 434.067 306.481 435.71C300.087 437.769 293.162 436.638 286.593 436.648C273.288 436.668 261.758 437.243 249.081 432.594C234.589 427.279 219.974 421.845 206.335 414.546C197.087 409.596 184.652 407.98 176.503 401.383C168.62 395.001 161.292 387.169 153.146 381.249C147.176 376.911 140.187 374.012 134.385 369.246C128.782 364.644 126.571 357.507 122.212 352.031Z" stroke="#03417F" stroke-width="0.875556" stroke-linecap="round" stroke-dasharray="1.75 7"/>
      </g>
       <!-- ... (rest of the path elements inside this group) ... -->
    </g>
  </g>
  <defs>
     <!-- ... (rest of the defs content: filters and gradients) ... -->
    <filter id="filter0_f_463_18290" x="101.92" y="99.303" width="299.537" height="299.537" filterUnits="userSpaceOnUse" color-interpolation-filters="sRGB">
      <feFlood flood-opacity="0" result="BackgroundImageFix"/>
      <feBlend mode="normal" in="SourceGraphic" in2="BackgroundImageFix" result="shape"/>
      <feGaussianBlur stdDeviation="13" result="effect1_foregroundBlur_463_18290"/>
    </filter>
    <filter id="filter1_f_463_18290" x="143.006" y="140.315" width="299.537" height="299.537" filterUnits="userSpaceOnUse" color-interpolation-filters="sRGB">
      <feFlood flood-opacity="0" result="BackgroundImageFix"/>
      <feBlend mode="normal" in="SourceGraphic" in2="BackgroundImageFix" result="shape"/>
      <feGaussianBlur stdDeviation="13" result="effect1_foregroundBlur_463_18290"/>
    </filter>
    <filter id="filter2_f_463_18290" x="25.4752" y="0.274654" width="490.067" height="502.583" filterUnits="userSpaceOnUse" color-interpolation-filters="sRGB">
      <feFlood flood-opacity="0" result="BackgroundImageFix"/>
      <feBlend mode="normal" in="SourceGraphic" in2="BackgroundImageFix" result="shape"/>
      <feGaussianBlur stdDeviation="8.75556" result="effect1_foregroundBlur_463_18290"/>
    </filter>
    <filter id="filter3_f_463_18290" x="56.1487" y="53.31" width="446.261" height="411.651" filterUnits="userSpaceOnUse" color-interpolation-filters="sRGB">
      <feFlood flood-opacity="0" result="BackgroundImageFix"/>
      <feBlend mode="normal" in="SourceGraphic" in2="BackgroundImageFix" result="shape"/>
      <feGaussianBlur stdDeviation="4.37778" result="effect1_foregroundBlur_463_18290"/>
    </filter>
    <linearGradient id="paint0_linear_463_18290" x1="184.322" y1="114.166" x2="43.9402" y2="108.556" gradientUnits="userSpaceOnUse">
      <stop stop-color="#8F03A0"/>
      <stop offset="0.995" stop-color="#8F03A0" stop-opacity="0"/>
    </linearGradient>
    <linearGradient id="paint1_linear_463_18290" x1="353.358" y1="280.512" x2="224.011" y2="280.512" gradientUnits="userSpaceOnUse">
      <stop stop-color="#6EF1BB"/>
      <stop offset="0.995" stop-color="#6EF1BB" stop-opacity="0"/>
    </linearGradient>
    <linearGradient id="paint2_linear_463_18290" x1="172.793" y1="0" x2="172.793" y2="345.585" gradientUnits="userSpaceOnUse">
      <stop stop-color="#BD05DD"/>
      <stop offset="1" stop-color="#6EF1BB"/>
    </linearGradient>
    <linearGradient id="paint3_linear_463_18290" x1="270.365" y1="31" x2="270.365" y2="502" gradientUnits="userSpaceOnUse">
      <stop stop-color="#BD05DD"/>
      <stop offset="1" stop-color="#6EF1BB"/>
    </linearGradient>
  </defs>
</svg>