<svg width="611" height="574" viewBox="0 0 611 574" fill="none" xmlns="http://www.w3.org/2000/svg">
<g filter="url(#filter0_d_669_602)">
<rect x="33" y="36" width="100" height="100" rx="13.1818" fill="white" shape-rendering="crispEdges"/>
<path d="M91 51.5454H67V75.5454H91V51.5454Z" fill="#21F0E6"/>
<path opacity="0.8" d="M99 59.5454H75V83.5454H99V59.5454Z" fill="#836CF9"/>
<path d="M71.4096 96.0199C71.3642 95.6165 71.1767 95.304 70.8471 95.0824C70.5176 94.858 70.1028 94.7458 69.6028 94.7458C69.2448 94.7458 68.9352 94.8026 68.6738 94.9162C68.4125 95.027 68.2093 95.1804 68.0645 95.3765C67.9224 95.5696 67.8514 95.7898 67.8514 96.037C67.8514 96.2444 67.8997 96.4233 67.9963 96.5739C68.0957 96.7245 68.225 96.8509 68.3841 96.9532C68.546 97.0526 68.7193 97.1364 68.9039 97.2046C69.0886 97.2699 69.2662 97.3239 69.4366 97.3665L70.2889 97.5881C70.5673 97.6563 70.8528 97.7486 71.1454 97.8651C71.438 97.9816 71.7093 98.135 71.9593 98.3253C72.2093 98.5157 72.411 98.7515 72.5645 99.0327C72.7207 99.314 72.7988 99.6506 72.7988 100.043C72.7988 100.537 72.671 100.976 72.4153 101.359C72.1625 101.743 71.7946 102.045 71.3116 102.267C70.8315 102.489 70.2505 102.599 69.5687 102.599C68.9153 102.599 68.35 102.496 67.8727 102.288C67.3954 102.081 67.0218 101.787 66.752 101.406C66.4821 101.023 66.3329 100.568 66.3045 100.043H67.6255C67.6511 100.358 67.7534 100.621 67.9323 100.831C68.1142 101.038 68.3457 101.193 68.627 101.295C68.911 101.395 69.2221 101.445 69.5602 101.445C69.9323 101.445 70.2633 101.386 70.5531 101.27C70.8457 101.151 71.0758 100.986 71.2434 100.776C71.411 100.563 71.4948 100.314 71.4948 100.03C71.4948 99.7714 71.421 99.5597 71.2733 99.3949C71.1284 99.2302 70.9309 99.0938 70.6809 98.9858C70.4338 98.8779 70.1539 98.7827 69.8414 98.7003L68.8102 98.4191C68.1113 98.2287 67.5573 97.9489 67.1483 97.5796C66.742 97.2103 66.5389 96.7216 66.5389 96.1137C66.5389 95.6108 66.6752 95.1719 66.948 94.7969C67.2207 94.4219 67.59 94.1307 68.0559 93.9233C68.5218 93.7131 69.0474 93.608 69.6326 93.608C70.2235 93.608 70.7448 93.7117 71.1966 93.9191C71.6511 94.1265 72.0091 94.412 72.2704 94.7756C72.5318 95.1364 72.6681 95.5512 72.6795 96.0199H71.4096ZM74.2701 102.455V95.9091H75.4931V96.9745H75.574C75.7104 96.6137 75.9334 96.3324 76.2431 96.1307C76.5527 95.9262 76.9235 95.8239 77.3553 95.8239C77.7928 95.8239 78.1593 95.9262 78.4547 96.1307C78.753 96.3353 78.9732 96.6165 79.1152 96.9745H79.1834C79.3397 96.625 79.5882 96.3466 79.9292 96.1392C80.2701 95.929 80.6763 95.8239 81.1479 95.8239C81.7417 95.8239 82.226 96.01 82.601 96.3821C82.9789 96.7543 83.1678 97.3154 83.1678 98.0654V102.455H81.8936V98.1847C81.8936 97.7415 81.7729 97.4205 81.5314 97.2216C81.2899 97.0228 81.0016 96.9233 80.6664 96.9233C80.2516 96.9233 79.9292 97.0512 79.699 97.3069C79.4689 97.5597 79.3539 97.885 79.3539 98.2827V102.455H78.084V98.1037C78.084 97.7486 77.9732 97.4631 77.7516 97.2472C77.53 97.0313 77.2417 96.9233 76.8865 96.9233C76.6451 96.9233 76.4221 96.9873 76.2175 97.1151C76.0158 97.2401 75.8524 97.4148 75.7274 97.6392C75.6053 97.8637 75.5442 98.1236 75.5442 98.4191V102.455H74.2701ZM86.7804 102.599C86.3656 102.599 85.9906 102.523 85.6554 102.369C85.3201 102.213 85.0545 101.987 84.8585 101.692C84.6653 101.396 84.5687 101.034 84.5687 100.605C84.5687 100.236 84.6397 99.9319 84.7818 99.6932C84.9238 99.4546 85.1156 99.2657 85.3571 99.1265C85.5985 98.9873 85.8684 98.8821 86.1667 98.8111C86.465 98.7401 86.769 98.6861 87.0787 98.6492C87.4707 98.6037 87.7889 98.5668 88.0332 98.5384C88.2775 98.5071 88.4551 98.4574 88.5659 98.3892C88.6767 98.3211 88.7321 98.2103 88.7321 98.0569V98.027C88.7321 97.6549 88.627 97.3665 88.4167 97.162C88.2093 96.9574 87.8997 96.8552 87.4877 96.8552C87.0588 96.8552 86.7207 96.9503 86.4735 97.1407C86.2292 97.3282 86.0602 97.537 85.9664 97.7671L84.769 97.4944C84.911 97.0966 85.1184 96.7756 85.3912 96.5313C85.6667 96.2841 85.9835 96.1052 86.3414 95.9944C86.6994 95.8807 87.0758 95.8239 87.4707 95.8239C87.7321 95.8239 88.0091 95.8552 88.3017 95.9177C88.5971 95.9773 88.8727 96.0881 89.1284 96.25C89.3869 96.412 89.5985 96.6435 89.7633 96.9446C89.9281 97.2429 90.0105 97.6307 90.0105 98.108V102.455H88.7662V101.56H88.715C88.6326 101.724 88.5091 101.886 88.3443 102.045C88.1795 102.205 87.9679 102.337 87.7093 102.442C87.4508 102.547 87.1412 102.599 86.7804 102.599ZM87.0573 101.577C87.4096 101.577 87.7108 101.507 87.9608 101.368C88.2136 101.229 88.4054 101.047 88.536 100.822C88.6696 100.595 88.7363 100.352 88.7363 100.094V99.25C88.6909 99.2955 88.6028 99.3381 88.4721 99.3779C88.3443 99.4148 88.198 99.4475 88.0332 99.4759C87.8684 99.5015 87.7079 99.5256 87.5517 99.5483C87.3954 99.5682 87.2647 99.5853 87.1596 99.5995C86.9125 99.6307 86.6866 99.6833 86.4821 99.7571C86.2804 99.831 86.1184 99.9375 85.9963 100.077C85.877 100.213 85.8173 100.395 85.8173 100.622C85.8173 100.938 85.9338 101.176 86.1667 101.338C86.3997 101.497 86.6966 101.577 87.0573 101.577ZM91.7076 102.455V95.9091H92.9391V96.9489H93.0073C93.1266 96.5966 93.3368 96.3196 93.638 96.1179C93.9419 95.9134 94.2857 95.8111 94.6692 95.8111C94.7488 95.8111 94.8425 95.814 94.9505 95.8196C95.0613 95.8253 95.1479 95.8324 95.2104 95.841V97.0597C95.1593 97.0455 95.0684 97.0299 94.9377 97.0128C94.807 96.9929 94.6763 96.983 94.5456 96.983C94.2445 96.983 93.976 97.0469 93.7402 97.1748C93.5073 97.2998 93.3226 97.4745 93.1863 97.6989C93.0499 97.9205 92.9817 98.1733 92.9817 98.4574V102.455H91.7076ZM99.7551 95.9091V96.9319H96.1799V95.9091H99.7551ZM97.1387 94.341H98.4128V100.533C98.4128 100.78 98.4498 100.966 98.5236 101.091C98.5975 101.213 98.6926 101.297 98.8091 101.342C98.9284 101.385 99.0577 101.406 99.1969 101.406C99.2992 101.406 99.3887 101.399 99.4654 101.385C99.5421 101.371 99.6017 101.359 99.6444 101.351L99.8745 102.403C99.8006 102.432 99.6955 102.46 99.5591 102.489C99.4228 102.52 99.2523 102.537 99.0478 102.54C98.7125 102.545 98.4 102.486 98.1103 102.361C97.8205 102.236 97.5861 102.043 97.4071 101.781C97.2282 101.52 97.1387 101.192 97.1387 100.797V94.341ZM59.6792 114.02C59.6337 113.617 59.4462 113.304 59.1167 113.082C58.7871 112.858 58.3723 112.746 57.8723 112.746C57.5144 112.746 57.2047 112.803 56.9434 112.916C56.682 113.027 56.4789 113.18 56.334 113.376C56.1919 113.57 56.1209 113.79 56.1209 114.037C56.1209 114.244 56.1692 114.423 56.2658 114.574C56.3652 114.724 56.4945 114.851 56.6536 114.953C56.8155 115.053 56.9888 115.136 57.1735 115.205C57.3581 115.27 57.5357 115.324 57.7061 115.367L58.5584 115.588C58.8368 115.656 59.1223 115.749 59.4149 115.865C59.7076 115.982 59.9789 116.135 60.2289 116.325C60.4789 116.516 60.6806 116.751 60.834 117.033C60.9902 117.314 61.0684 117.651 61.0684 118.043C61.0684 118.537 60.9405 118.976 60.6848 119.359C60.432 119.743 60.0641 120.045 59.5811 120.267C59.101 120.489 58.5201 120.599 57.8382 120.599C57.1848 120.599 56.6195 120.496 56.1422 120.288C55.6649 120.081 55.2914 119.787 55.0215 119.406C54.7516 119.023 54.6024 118.568 54.574 118.043H55.8951C55.9206 118.358 56.0229 118.621 56.2019 118.831C56.3837 119.038 56.6152 119.193 56.8965 119.295C57.1806 119.395 57.4917 119.445 57.8297 119.445C58.2019 119.445 58.5328 119.386 58.8226 119.27C59.1152 119.151 59.3453 118.986 59.513 118.776C59.6806 118.563 59.7644 118.314 59.7644 118.03C59.7644 117.771 59.6905 117.56 59.5428 117.395C59.3979 117.23 59.2005 117.094 58.9505 116.986C58.7033 116.878 58.4235 116.783 58.111 116.7L57.0797 116.419C56.3809 116.229 55.8269 115.949 55.4178 115.58C55.0115 115.21 54.8084 114.722 54.8084 114.114C54.8084 113.611 54.9448 113.172 55.2175 112.797C55.4902 112.422 55.8596 112.131 56.3255 111.923C56.7914 111.713 57.3169 111.608 57.9022 111.608C58.4931 111.608 59.0144 111.712 59.4661 111.919C59.9206 112.126 60.2786 112.412 60.5399 112.776C60.8013 113.136 60.9377 113.551 60.949 114.02H59.6792ZM65.2967 120.587C64.6632 120.587 64.1177 120.443 63.6603 120.156C63.2058 119.867 62.8564 119.467 62.612 118.959C62.3677 118.45 62.2456 117.868 62.2456 117.212C62.2456 116.547 62.3706 115.96 62.6206 115.452C62.8706 114.94 63.2228 114.541 63.6774 114.254C64.1319 113.967 64.6674 113.824 65.2839 113.824C65.7811 113.824 66.2243 113.916 66.6135 114.101C67.0027 114.283 67.3166 114.538 67.5552 114.868C67.7967 115.197 67.9402 115.582 67.9856 116.023H66.7456C66.6774 115.716 66.5211 115.452 66.2768 115.23C66.0353 115.009 65.7115 114.898 65.3052 114.898C64.9501 114.898 64.639 114.992 64.372 115.179C64.1078 115.364 63.9018 115.628 63.7541 115.972C63.6064 116.313 63.5325 116.716 63.5325 117.182C63.5325 117.659 63.6049 118.071 63.7498 118.418C63.8947 118.764 64.0993 119.033 64.3635 119.223C64.6305 119.413 64.9444 119.509 65.3052 119.509C65.5467 119.509 65.7654 119.465 65.9615 119.376C66.1603 119.286 66.3265 119.156 66.46 118.989C66.5964 118.821 66.6916 118.619 66.7456 118.384H67.9856C67.9402 118.807 67.8024 119.185 67.5723 119.517C67.3422 119.849 67.0339 120.111 66.6475 120.301C66.264 120.492 65.8137 120.587 65.2967 120.587ZM70.6223 116.568V120.455H69.3482V111.727H70.6053V114.974H70.6863C70.8397 114.622 71.074 114.342 71.3894 114.135C71.7047 113.928 72.1167 113.824 72.6252 113.824C73.074 113.824 73.4661 113.916 73.8013 114.101C74.1394 114.286 74.4007 114.561 74.5854 114.928C74.7729 115.291 74.8667 115.746 74.8667 116.291V120.455H73.5925V116.445C73.5925 115.965 73.4689 115.592 73.2218 115.328C72.9746 115.061 72.6309 114.928 72.1905 114.928C71.8894 114.928 71.6195 114.992 71.3809 115.119C71.1451 115.247 70.959 115.435 70.8226 115.682C70.6891 115.926 70.6223 116.222 70.6223 116.568ZM79.388 120.587C78.7431 120.587 78.1877 120.449 77.7218 120.173C77.2587 119.895 76.9007 119.504 76.6479 119.001C76.3979 118.496 76.2729 117.903 76.2729 117.224C76.2729 116.554 76.3979 115.963 76.6479 115.452C76.9007 114.94 77.253 114.541 77.7047 114.254C78.1593 113.967 78.6905 113.824 79.2985 113.824C79.6678 113.824 80.0257 113.885 80.3723 114.007C80.7189 114.129 81.03 114.321 81.3056 114.582C81.5811 114.844 81.7985 115.183 81.9576 115.601C82.1167 116.016 82.1962 116.52 82.1962 117.114V117.565H76.9931V116.611H80.9476C80.9476 116.276 80.8794 115.979 80.7431 115.72C80.6067 115.459 80.4149 115.253 80.1678 115.102C79.9235 114.952 79.6365 114.876 79.307 114.876C78.949 114.876 78.6365 114.965 78.3695 115.141C78.1053 115.314 77.9007 115.541 77.7559 115.822C77.6138 116.101 77.5428 116.403 77.5428 116.73V117.476C77.5428 117.913 77.6195 118.286 77.7729 118.592C77.9292 118.899 78.1465 119.134 78.4249 119.295C78.7033 119.455 79.0286 119.534 79.4007 119.534C79.6422 119.534 79.8624 119.5 80.0613 119.432C80.2601 119.361 80.432 119.256 80.5769 119.117C80.7218 118.977 80.8326 118.805 80.9093 118.601L82.1152 118.818C82.0186 119.173 81.8453 119.484 81.5953 119.751C81.3482 120.016 81.0371 120.222 80.6621 120.369C80.2899 120.514 79.8652 120.587 79.388 120.587ZM86.0602 120.582C85.5318 120.582 85.0602 120.447 84.6454 120.178C84.2335 119.905 83.9096 119.517 83.6738 119.014C83.4409 118.509 83.3244 117.902 83.3244 117.195C83.3244 116.487 83.4423 115.882 83.6781 115.379C83.9167 114.876 84.2434 114.492 84.6582 114.224C85.073 113.957 85.5431 113.824 86.0687 113.824C86.475 113.824 86.8017 113.892 87.0488 114.028C87.2988 114.162 87.492 114.318 87.6284 114.497C87.7676 114.676 87.8755 114.834 87.9522 114.97H88.0289V111.727H89.3031V120.455H88.0588V119.436H87.9522C87.8755 119.575 87.7647 119.734 87.6198 119.913C87.4778 120.092 87.2818 120.249 87.0318 120.382C86.7818 120.516 86.4579 120.582 86.0602 120.582ZM86.3414 119.496C86.7079 119.496 87.0176 119.399 87.2704 119.206C87.5261 119.01 87.7193 118.739 87.85 118.392C87.9835 118.045 88.0502 117.642 88.0502 117.182C88.0502 116.727 87.9849 116.33 87.8542 115.989C87.7235 115.648 87.5318 115.382 87.2789 115.192C87.0261 115.001 86.7136 114.906 86.3414 114.906C85.9579 114.906 85.6383 115.006 85.3826 115.205C85.127 115.403 84.9338 115.675 84.8031 116.019C84.6752 116.362 84.6113 116.75 84.6113 117.182C84.6113 117.619 84.6767 118.013 84.8073 118.362C84.938 118.712 85.1312 118.989 85.3869 119.193C85.6454 119.395 85.9636 119.496 86.3414 119.496ZM95.2679 117.74V113.909H96.5463V120.455H95.2935V119.321H95.2253C95.0748 119.67 94.8333 119.962 94.5009 120.195C94.1713 120.425 93.7608 120.54 93.2694 120.54C92.8489 120.54 92.4767 120.447 92.1529 120.263C91.8319 120.075 91.579 119.798 91.3944 119.432C91.2125 119.065 91.1216 118.612 91.1216 118.072V113.909H92.3958V117.919C92.3958 118.365 92.5194 118.72 92.7665 118.984C93.0137 119.249 93.3347 119.381 93.7296 119.381C93.9682 119.381 94.2054 119.321 94.4412 119.202C94.6799 119.082 94.8773 118.902 95.0336 118.661C95.1926 118.419 95.2708 118.112 95.2679 117.74ZM99.5325 111.727V120.455H98.2583V111.727H99.5325ZM104.068 120.587C103.423 120.587 102.867 120.449 102.401 120.173C101.938 119.895 101.58 119.504 101.328 119.001C101.078 118.496 100.953 117.903 100.953 117.224C100.953 116.554 101.078 115.963 101.328 115.452C101.58 114.94 101.933 114.541 102.384 114.254C102.839 113.967 103.37 113.824 103.978 113.824C104.347 113.824 104.705 113.885 105.052 114.007C105.399 114.129 105.71 114.321 105.985 114.582C106.261 114.844 106.478 115.183 106.637 115.601C106.796 116.016 106.876 116.52 106.876 117.114V117.565H101.673V116.611H105.627C105.627 116.276 105.559 115.979 105.423 115.72C105.286 115.459 105.095 115.253 104.847 115.102C104.603 114.952 104.316 114.876 103.987 114.876C103.629 114.876 103.316 114.965 103.049 115.141C102.785 115.314 102.58 115.541 102.436 115.822C102.294 116.101 102.222 116.403 102.222 116.73V117.476C102.222 117.913 102.299 118.286 102.453 118.592C102.609 118.899 102.826 119.134 103.105 119.295C103.383 119.455 103.708 119.534 104.08 119.534C104.322 119.534 104.542 119.5 104.741 119.432C104.94 119.361 105.112 119.256 105.257 119.117C105.401 118.977 105.512 118.805 105.589 118.601L106.795 118.818C106.698 119.173 106.525 119.484 106.275 119.751C106.028 120.016 105.717 120.222 105.342 120.369C104.97 120.514 104.545 120.587 104.068 120.587ZM108.29 120.455V113.909H109.521V114.949H109.589C109.709 114.597 109.919 114.32 110.22 114.118C110.524 113.913 110.868 113.811 111.251 113.811C111.331 113.811 111.425 113.814 111.532 113.82C111.643 113.825 111.73 113.832 111.792 113.841V115.06C111.741 115.045 111.65 115.03 111.52 115.013C111.389 114.993 111.258 114.983 111.128 114.983C110.827 114.983 110.558 115.047 110.322 115.175C110.089 115.3 109.905 115.474 109.768 115.699C109.632 115.92 109.564 116.173 109.564 116.457V120.455H108.29Z" fill="#111A53"/>
</g>
<g filter="url(#filter1_d_669_602)">
<rect x="169" y="156" width="100" height="100" rx="13.1818" fill="white" shape-rendering="crispEdges"/>
<path d="M210 174H234V190H222H216H210V174Z" fill="#21F0E6"/>
<path opacity="0.8" d="M205 179H229V195H217L211 201V195H205V179Z" fill="#836CF9"/>
<path d="M185.137 213.727L187.566 220.835H187.664L190.093 213.727H191.516L188.376 222.455H186.854L183.714 213.727H185.137ZM192.674 222.455V215.909H193.949V222.455H192.674ZM193.318 214.899C193.096 214.899 192.906 214.825 192.747 214.678C192.591 214.527 192.512 214.348 192.512 214.141C192.512 213.93 192.591 213.751 192.747 213.604C192.906 213.453 193.096 213.378 193.318 213.378C193.539 213.378 193.728 213.453 193.885 213.604C194.044 213.751 194.123 213.93 194.123 214.141C194.123 214.348 194.044 214.527 193.885 214.678C193.728 214.825 193.539 214.899 193.318 214.899ZM195.663 222.455V215.909H196.894V216.949H196.962C197.082 216.597 197.292 216.32 197.593 216.118C197.897 215.913 198.241 215.811 198.624 215.811C198.704 215.811 198.798 215.814 198.906 215.82C199.016 215.825 199.103 215.832 199.165 215.841V217.06C199.114 217.045 199.023 217.03 198.893 217.013C198.762 216.993 198.631 216.983 198.501 216.983C198.2 216.983 197.931 217.047 197.695 217.175C197.462 217.3 197.278 217.474 197.141 217.699C197.005 217.92 196.937 218.173 196.937 218.457V222.455H195.663ZM203.71 215.909V216.932H200.135V215.909H203.71ZM201.094 214.341H202.368V220.533C202.368 220.78 202.405 220.966 202.479 221.091C202.553 221.213 202.648 221.297 202.764 221.342C202.884 221.385 203.013 221.406 203.152 221.406C203.254 221.406 203.344 221.399 203.42 221.385C203.497 221.371 203.557 221.359 203.599 221.351L203.83 222.403C203.756 222.432 203.651 222.46 203.514 222.489C203.378 222.52 203.207 222.537 203.003 222.54C202.668 222.545 202.355 222.486 202.065 222.361C201.776 222.236 201.541 222.043 201.362 221.781C201.183 221.52 201.094 221.192 201.094 220.797V214.341ZM209.266 219.74V215.909H210.544V222.455H209.292V221.321H209.223C209.073 221.67 208.831 221.962 208.499 222.195C208.169 222.425 207.759 222.54 207.267 222.54C206.847 222.54 206.475 222.447 206.151 222.263C205.83 222.075 205.577 221.798 205.392 221.432C205.211 221.065 205.12 220.612 205.12 220.072V215.909H206.394V219.919C206.394 220.365 206.517 220.72 206.765 220.984C207.012 221.249 207.333 221.381 207.728 221.381C207.966 221.381 208.203 221.321 208.439 221.202C208.678 221.082 208.875 220.902 209.032 220.661C209.191 220.419 209.269 220.112 209.266 219.74ZM214.161 222.599C213.746 222.599 213.371 222.523 213.036 222.369C212.701 222.213 212.435 221.987 212.239 221.692C212.046 221.396 211.95 221.034 211.95 220.605C211.95 220.236 212.021 219.932 212.163 219.693C212.305 219.455 212.496 219.266 212.738 219.126C212.979 218.987 213.249 218.882 213.548 218.811C213.846 218.74 214.15 218.686 214.46 218.649C214.852 218.604 215.17 218.567 215.414 218.538C215.658 218.507 215.836 218.457 215.947 218.389C216.058 218.321 216.113 218.21 216.113 218.057V218.027C216.113 217.655 216.008 217.367 215.798 217.162C215.59 216.957 215.281 216.855 214.869 216.855C214.44 216.855 214.102 216.95 213.854 217.141C213.61 217.328 213.441 217.537 213.347 217.767L212.15 217.494C212.292 217.097 212.499 216.776 212.772 216.531C213.048 216.284 213.364 216.105 213.722 215.994C214.08 215.881 214.457 215.824 214.852 215.824C215.113 215.824 215.39 215.855 215.683 215.918C215.978 215.977 216.254 216.088 216.509 216.25C216.768 216.412 216.979 216.644 217.144 216.945C217.309 217.243 217.391 217.631 217.391 218.108V222.455H216.147V221.56H216.096C216.013 221.724 215.89 221.886 215.725 222.045C215.56 222.205 215.349 222.337 215.09 222.442C214.832 222.547 214.522 222.599 214.161 222.599ZM214.438 221.577C214.79 221.577 215.092 221.507 215.342 221.368C215.594 221.229 215.786 221.047 215.917 220.822C216.05 220.595 216.117 220.352 216.117 220.094V219.25C216.072 219.295 215.984 219.338 215.853 219.378C215.725 219.415 215.579 219.447 215.414 219.476C215.249 219.501 215.089 219.526 214.933 219.548C214.776 219.568 214.646 219.585 214.54 219.599C214.293 219.631 214.067 219.683 213.863 219.757C213.661 219.831 213.499 219.938 213.377 220.077C213.258 220.213 213.198 220.395 213.198 220.622C213.198 220.938 213.315 221.176 213.548 221.338C213.781 221.497 214.077 221.577 214.438 221.577ZM220.363 213.727V222.455H219.088V213.727H220.363ZM225.355 222.455V213.727H230.767V214.861H226.672V217.52H230.379V218.649H226.672V222.455H225.355ZM232.202 222.455V215.909H233.433V216.949H233.501C233.621 216.597 233.831 216.32 234.132 216.118C234.436 215.913 234.78 215.811 235.163 215.811C235.243 215.811 235.337 215.814 235.445 215.82C235.555 215.825 235.642 215.832 235.705 215.841V217.06C235.653 217.045 235.562 217.03 235.432 217.013C235.301 216.993 235.17 216.983 235.04 216.983C234.739 216.983 234.47 217.047 234.234 217.175C234.001 217.3 233.817 217.474 233.68 217.699C233.544 217.92 233.476 218.173 233.476 218.457V222.455H232.202ZM239.33 222.587C238.716 222.587 238.181 222.446 237.723 222.165C237.266 221.884 236.911 221.49 236.658 220.984C236.405 220.479 236.279 219.888 236.279 219.212C236.279 218.533 236.405 217.939 236.658 217.43C236.911 216.922 237.266 216.527 237.723 216.246C238.181 215.965 238.716 215.824 239.33 215.824C239.944 215.824 240.479 215.965 240.936 216.246C241.394 216.527 241.749 216.922 242.002 217.43C242.255 217.939 242.381 218.533 242.381 219.212C242.381 219.888 242.255 220.479 242.002 220.984C241.749 221.49 241.394 221.884 240.936 222.165C240.479 222.446 239.944 222.587 239.33 222.587ZM239.334 221.517C239.732 221.517 240.061 221.412 240.323 221.202C240.584 220.992 240.777 220.712 240.902 220.362C241.03 220.013 241.094 219.628 241.094 219.207C241.094 218.79 241.03 218.406 240.902 218.057C240.777 217.705 240.584 217.422 240.323 217.209C240.061 216.996 239.732 216.889 239.334 216.889C238.934 216.889 238.601 216.996 238.337 217.209C238.076 217.422 237.881 217.705 237.753 218.057C237.628 218.406 237.566 218.79 237.566 219.207C237.566 219.628 237.628 220.013 237.753 220.362C237.881 220.712 238.076 220.992 238.337 221.202C238.601 221.412 238.934 221.517 239.334 221.517ZM245.077 218.568V222.455H243.803V215.909H245.026V216.974H245.107C245.258 216.628 245.494 216.349 245.815 216.139C246.138 215.929 246.546 215.824 247.038 215.824C247.484 215.824 247.874 215.918 248.21 216.105C248.545 216.29 248.805 216.565 248.989 216.932C249.174 217.298 249.266 217.751 249.266 218.291V222.455H247.992V218.445C247.992 217.97 247.869 217.599 247.621 217.332C247.374 217.063 247.035 216.928 246.603 216.928C246.308 216.928 246.045 216.992 245.815 217.119C245.587 217.247 245.407 217.435 245.273 217.682C245.143 217.926 245.077 218.222 245.077 218.568ZM254.031 215.909V216.932H250.455V215.909H254.031ZM251.414 214.341H252.688V220.533C252.688 220.78 252.725 220.966 252.799 221.091C252.873 221.213 252.968 221.297 253.085 221.342C253.204 221.385 253.333 221.406 253.472 221.406C253.575 221.406 253.664 221.399 253.741 221.385C253.817 221.371 253.877 221.359 253.92 221.351L254.15 222.403C254.076 222.432 253.971 222.46 253.835 222.489C253.698 222.52 253.528 222.537 253.323 222.54C252.988 222.545 252.675 222.486 252.386 222.361C252.096 222.236 251.862 222.043 251.683 221.781C251.504 221.52 251.414 221.192 251.414 220.797V214.341ZM208.375 240.455H205.55V231.727H208.465C209.32 231.727 210.054 231.902 210.668 232.251C211.282 232.598 211.752 233.097 212.078 233.747C212.408 234.395 212.573 235.172 212.573 236.078C212.573 236.987 212.407 237.769 212.074 238.422C211.745 239.075 211.267 239.578 210.642 239.93C210.017 240.28 209.262 240.455 208.375 240.455ZM206.867 239.304H208.303C208.968 239.304 209.52 239.179 209.961 238.929C210.401 238.676 210.73 238.311 210.949 237.834C211.168 237.354 211.277 236.769 211.277 236.078C211.277 235.394 211.168 234.813 210.949 234.335C210.733 233.858 210.411 233.496 209.982 233.249C209.553 233.001 209.02 232.878 208.384 232.878H206.867V239.304ZM216.929 240.587C216.284 240.587 215.729 240.449 215.263 240.173C214.8 239.895 214.442 239.504 214.189 239.001C213.939 238.496 213.814 237.903 213.814 237.224C213.814 236.554 213.939 235.963 214.189 235.452C214.442 234.94 214.794 234.541 215.246 234.254C215.7 233.967 216.232 233.824 216.839 233.824C217.209 233.824 217.567 233.885 217.913 234.007C218.26 234.129 218.571 234.321 218.847 234.582C219.122 234.844 219.339 235.183 219.499 235.601C219.658 236.016 219.737 236.52 219.737 237.114V237.565H214.534V236.611H218.489C218.489 236.276 218.42 235.979 218.284 235.72C218.148 235.459 217.956 235.253 217.709 235.102C217.464 234.952 217.178 234.876 216.848 234.876C216.49 234.876 216.178 234.965 215.911 235.141C215.646 235.314 215.442 235.541 215.297 235.822C215.155 236.101 215.084 236.403 215.084 236.73V237.476C215.084 237.913 215.161 238.286 215.314 238.592C215.47 238.899 215.687 239.134 215.966 239.295C216.244 239.455 216.57 239.534 216.942 239.534C217.183 239.534 217.403 239.5 217.602 239.432C217.801 239.361 217.973 239.256 218.118 239.117C218.263 238.977 218.374 238.805 218.45 238.601L219.656 238.818C219.56 239.173 219.386 239.484 219.136 239.751C218.889 240.016 218.578 240.222 218.203 240.369C217.831 240.514 217.406 240.587 216.929 240.587ZM226.056 235.507L224.901 235.712C224.853 235.564 224.776 235.423 224.671 235.29C224.569 235.156 224.429 235.047 224.253 234.962C224.077 234.876 223.857 234.834 223.593 234.834C223.232 234.834 222.931 234.915 222.689 235.077C222.448 235.236 222.327 235.442 222.327 235.695C222.327 235.913 222.408 236.09 222.57 236.223C222.732 236.357 222.993 236.466 223.354 236.551L224.394 236.79C224.996 236.929 225.445 237.144 225.74 237.433C226.036 237.723 226.184 238.099 226.184 238.563C226.184 238.955 226.07 239.304 225.843 239.611C225.618 239.915 225.304 240.153 224.901 240.327C224.5 240.5 224.036 240.587 223.507 240.587C222.775 240.587 222.176 240.43 221.713 240.118C221.25 239.803 220.966 239.355 220.861 238.776L222.093 238.588C222.169 238.909 222.327 239.152 222.566 239.317C222.804 239.479 223.115 239.56 223.499 239.56C223.917 239.56 224.25 239.473 224.5 239.3C224.75 239.124 224.875 238.909 224.875 238.656C224.875 238.452 224.799 238.28 224.645 238.141C224.495 238.001 224.263 237.896 223.951 237.825L222.843 237.582C222.232 237.443 221.78 237.222 221.488 236.918C221.198 236.614 221.053 236.229 221.053 235.763C221.053 235.376 221.161 235.038 221.377 234.749C221.593 234.459 221.891 234.233 222.272 234.071C222.652 233.906 223.088 233.824 223.58 233.824C224.287 233.824 224.844 233.977 225.25 234.284C225.657 234.588 225.925 234.996 226.056 235.507ZM228.756 238.234L228.748 236.679H228.969L231.577 233.909H233.103L230.129 237.063H229.928L228.756 238.234ZM227.585 240.455V231.727H228.859V240.455H227.585ZM231.718 240.455L229.374 237.344L230.252 236.453L233.282 240.455H231.718Z" fill="#111A53"/>
</g>
<g filter="url(#filter2_d_669_602)">
<rect x="477" y="175" width="100" height="100" rx="13.1818" stroke="#C5C5C5" shape-rendering="crispEdges"/>
<path d="M535.04 206C533.52 206 532.29 207.23 532.29 208.75C532.29 210.27 533.52 211.5 535.04 211.5H542.16L531.74 221.92L521.07 216.59L503.23 228.49C501.96 229.33 501.62 231.04 502.47 232.31C503 233.11 503.87 233.54 504.76 233.54C505.28 233.54 505.82 233.39 506.28 233.08L521.47 222.95L532.83 228.63L546.05 215.4V222.52C546.05 224.04 547.28 225.27 548.8 225.27C550.32 225.27 551.55 224.04 551.55 222.52V206H535.04Z" stroke="#C5C5C5"/>
<path d="M539 247H551V229H539V247Z" stroke="#C5C5C5"/>
<path d="M523 247H535V235H523V247Z" stroke="#C5C5C5"/>
<path d="M507 247H519V241H507V247Z" stroke="#C5C5C5"/>
</g>
<g filter="url(#filter3_d_669_602)">
<rect x="279" y="295" width="100" height="100" rx="13.1818" stroke="#C5C5C5" shape-rendering="crispEdges"/>
<path d="M318.334 345L327.477 331.286H345.763L354.905 345L345.763 358.714H327.477L318.334 345Z" stroke="#C5C5C5"/>
<path opacity="0.8" d="M304.619 345L313.762 331.286H332.048L341.191 345L332.048 358.714H313.762L304.619 345Z" stroke="#C5C5C5"/>
</g>
<g filter="url(#filter4_d_669_602)">
<rect x="447" y="435" width="100" height="100" rx="13.1818" stroke="#C5C5C5" shape-rendering="crispEdges"/>
<path d="M497 459.382L505.695 476.773L505.833 477.05H506.142H525.824L508.913 488.324L508.595 488.536L508.716 488.898L514.35 505.802L497.277 494.42L497 494.235L496.722 494.42L479.649 505.802L485.283 488.898L485.404 488.536L485.087 488.324L468.175 477.05H487.857H488.166L488.304 476.773L497 459.382Z" stroke="#C5C5C5"/>
<path opacity="0.8" d="M497 471.582L503.954 485.637L504.091 485.916H504.402H521.418L507.8 496.238L507.538 496.437L507.617 496.756L510.978 510.345L497.303 499.978L497 499.749L496.698 499.978L483.023 510.345L486.384 496.756L486.463 496.437L486.2 496.238L472.583 485.916H489.599H489.91L490.047 485.637L497 471.582Z" stroke="#C5C5C5"/>
</g>
<g filter="url(#filter5_d_669_602)">
<rect x="75" y="390" width="100" height="100" rx="13.1818" stroke="#C5C5C5" shape-rendering="crispEdges"/>
<path d="M104 458.978H122.286V422.407H104V458.978Z" stroke="#C5C5C5"/>
<path d="M128.381 458.978H146.667V434.597H128.381V458.978Z" stroke="#C5C5C5"/>
</g>
<g filter="url(#filter6_d_669_602)">
<rect x="339" y="29" width="100" height="100" rx="13.1818" stroke="#C5C5C5" shape-rendering="crispEdges"/>
<path d="M407.538 91.1H370.862L389.2 59.0078L407.538 91.1Z" stroke="#A1A1A1"/>
<path opacity="0.8" d="M401.533 99.5H376.867L389.2 78.1979L401.533 99.5Z" stroke="#A1A1A1"/>
</g>
<path d="M169 217H103C91.9543 217 83 208.046 83 197V140" stroke="url(#paint0_linear_669_602)" stroke-width="2.5"/>
<defs>
<filter id="filter0_d_669_602" x="0.0454521" y="8.31818" width="165.909" height="165.909" filterUnits="userSpaceOnUse" color-interpolation-filters="sRGB">
<feFlood flood-opacity="0" result="BackgroundImageFix"/>
<feColorMatrix in="SourceAlpha" type="matrix" values="0 0 0 0 0 0 0 0 0 0 0 0 0 0 0 0 0 0 127 0" result="hardAlpha"/>
<feOffset dy="5.27273"/>
<feGaussianBlur stdDeviation="16.4773"/>
<feComposite in2="hardAlpha" operator="out"/>
<feColorMatrix type="matrix" values="0 0 0 0 0 0 0 0 0 0 0 0 0 0 0 0 0 0 0.08 0"/>
<feBlend mode="normal" in2="BackgroundImageFix" result="effect1_dropShadow_669_602"/>
<feBlend mode="normal" in="SourceGraphic" in2="effect1_dropShadow_669_602" result="shape"/>
</filter>
<filter id="filter1_d_669_602" x="136.045" y="128.318" width="165.909" height="165.909" filterUnits="userSpaceOnUse" color-interpolation-filters="sRGB">
<feFlood flood-opacity="0" result="BackgroundImageFix"/>
<feColorMatrix in="SourceAlpha" type="matrix" values="0 0 0 0 0 0 0 0 0 0 0 0 0 0 0 0 0 0 127 0" result="hardAlpha"/>
<feOffset dy="5.27273"/>
<feGaussianBlur stdDeviation="16.4773"/>
<feComposite in2="hardAlpha" operator="out"/>
<feColorMatrix type="matrix" values="0 0 0 0 0 0 0 0 0 0 0 0 0 0 0 0 0 0 0.08 0"/>
<feBlend mode="normal" in2="BackgroundImageFix" result="effect1_dropShadow_669_602"/>
<feBlend mode="normal" in="SourceGraphic" in2="effect1_dropShadow_669_602" result="shape"/>
</filter>
<filter id="filter2_d_669_602" x="443.545" y="146.818" width="166.909" height="166.909" filterUnits="userSpaceOnUse" color-interpolation-filters="sRGB">
<feFlood flood-opacity="0" result="BackgroundImageFix"/>
<feColorMatrix in="SourceAlpha" type="matrix" values="0 0 0 0 0 0 0 0 0 0 0 0 0 0 0 0 0 0 127 0" result="hardAlpha"/>
<feOffset dy="5.27273"/>
<feGaussianBlur stdDeviation="16.4773"/>
<feComposite in2="hardAlpha" operator="out"/>
<feColorMatrix type="matrix" values="0 0 0 0 0 0 0 0 0 0 0 0 0 0 0 0 0 0 0.08 0"/>
<feBlend mode="normal" in2="BackgroundImageFix" result="effect1_dropShadow_669_602"/>
<feBlend mode="normal" in="SourceGraphic" in2="effect1_dropShadow_669_602" result="shape"/>
</filter>
<filter id="filter3_d_669_602" x="245.545" y="266.818" width="166.909" height="166.909" filterUnits="userSpaceOnUse" color-interpolation-filters="sRGB">
<feFlood flood-opacity="0" result="BackgroundImageFix"/>
<feColorMatrix in="SourceAlpha" type="matrix" values="0 0 0 0 0 0 0 0 0 0 0 0 0 0 0 0 0 0 127 0" result="hardAlpha"/>
<feOffset dy="5.27273"/>
<feGaussianBlur stdDeviation="16.4773"/>
<feComposite in2="hardAlpha" operator="out"/>
<feColorMatrix type="matrix" values="0 0 0 0 0 0 0 0 0 0 0 0 0 0 0 0 0 0 0.08 0"/>
<feBlend mode="normal" in2="BackgroundImageFix" result="effect1_dropShadow_669_602"/>
<feBlend mode="normal" in="SourceGraphic" in2="effect1_dropShadow_669_602" result="shape"/>
</filter>
<filter id="filter4_d_669_602" x="413.545" y="406.818" width="166.909" height="166.909" filterUnits="userSpaceOnUse" color-interpolation-filters="sRGB">
<feFlood flood-opacity="0" result="BackgroundImageFix"/>
<feColorMatrix in="SourceAlpha" type="matrix" values="0 0 0 0 0 0 0 0 0 0 0 0 0 0 0 0 0 0 127 0" result="hardAlpha"/>
<feOffset dy="5.27273"/>
<feGaussianBlur stdDeviation="16.4773"/>
<feComposite in2="hardAlpha" operator="out"/>
<feColorMatrix type="matrix" values="0 0 0 0 0 0 0 0 0 0 0 0 0 0 0 0 0 0 0.08 0"/>
<feBlend mode="normal" in2="BackgroundImageFix" result="effect1_dropShadow_669_602"/>
<feBlend mode="normal" in="SourceGraphic" in2="effect1_dropShadow_669_602" result="shape"/>
</filter>
<filter id="filter5_d_669_602" x="41.5455" y="361.818" width="166.909" height="166.909" filterUnits="userSpaceOnUse" color-interpolation-filters="sRGB">
<feFlood flood-opacity="0" result="BackgroundImageFix"/>
<feColorMatrix in="SourceAlpha" type="matrix" values="0 0 0 0 0 0 0 0 0 0 0 0 0 0 0 0 0 0 127 0" result="hardAlpha"/>
<feOffset dy="5.27273"/>
<feGaussianBlur stdDeviation="16.4773"/>
<feComposite in2="hardAlpha" operator="out"/>
<feColorMatrix type="matrix" values="0 0 0 0 0 0 0 0 0 0 0 0 0 0 0 0 0 0 0.08 0"/>
<feBlend mode="normal" in2="BackgroundImageFix" result="effect1_dropShadow_669_602"/>
<feBlend mode="normal" in="SourceGraphic" in2="effect1_dropShadow_669_602" result="shape"/>
</filter>
<filter id="filter6_d_669_602" x="305.545" y="0.81818" width="166.909" height="166.909" filterUnits="userSpaceOnUse" color-interpolation-filters="sRGB">
<feFlood flood-opacity="0" result="BackgroundImageFix"/>
<feColorMatrix in="SourceAlpha" type="matrix" values="0 0 0 0 0 0 0 0 0 0 0 0 0 0 0 0 0 0 127 0" result="hardAlpha"/>
<feOffset dy="5.27273"/>
<feGaussianBlur stdDeviation="16.4773"/>
<feComposite in2="hardAlpha" operator="out"/>
<feColorMatrix type="matrix" values="0 0 0 0 0 0 0 0 0 0 0 0 0 0 0 0 0 0 0.08 0"/>
<feBlend mode="normal" in2="BackgroundImageFix" result="effect1_dropShadow_669_602"/>
<feBlend mode="normal" in="SourceGraphic" in2="effect1_dropShadow_669_602" result="shape"/>
</filter>
<linearGradient id="paint0_linear_669_602" x1="160.47" y1="180.416" x2="73.9884" y2="180.416" gradientUnits="userSpaceOnUse">
<stop stop-color="#13EBE2"/>
<stop offset="1" stop-color="#9B66FF"/>
</linearGradient>
</defs>
</svg>
