<svg width="40" height="40" viewBox="0 0 40 40" fill="none" xmlns="http://www.w3.org/2000/svg">
<rect width="40" height="40" rx="8" fill="#2883DF" fill-opacity="0.03"/>
<path fill-rule="evenodd" clip-rule="evenodd" d="M27.6163 12.1428C27.7339 12.2127 27.837 12.3056 27.9196 12.4164C28.0022 12.5272 28.0628 12.6536 28.0979 12.7885C28.1329 12.9233 28.1418 13.064 28.124 13.2023C28.1062 13.3407 28.062 13.4741 27.994 13.595L23.2083 22.1052C23.8341 22.9144 24.1516 23.9303 24.1012 24.9628C24.0508 25.9952 23.636 26.9734 22.9345 27.7142C22.233 28.455 21.2929 28.9076 20.2901 28.9873C19.2873 29.0671 18.2907 28.7684 17.4867 28.1473C16.6827 27.5261 16.1265 26.6251 15.9223 25.6129C15.7181 24.6007 15.8798 23.5467 16.3771 22.6482C16.8745 21.7497 17.6734 21.0683 18.6243 20.7315C19.5752 20.3948 20.6129 20.4258 21.5432 20.8188L23.9678 16.5091C23.0393 16.0335 22.0375 15.7272 21.007 15.6039V16.2513C21.007 16.5331 20.8981 16.8034 20.7042 17.0026C20.5104 17.2019 20.2474 17.3138 19.9732 17.3138C19.6991 17.3138 19.4361 17.2019 19.2422 17.0026C19.0484 16.8034 18.9395 16.5331 18.9395 16.2513V15.6039C18.0706 15.7075 17.2213 15.9414 16.4184 16.2981L16.7341 16.8591C16.8019 16.98 16.846 17.1135 16.8637 17.2519C16.8814 17.3903 16.8723 17.531 16.8371 17.6658C16.8019 17.8007 16.7412 17.9271 16.6585 18.0378C16.5758 18.1485 16.4727 18.2414 16.355 18.3112C16.2374 18.381 16.1075 18.4262 15.9728 18.4444C15.8381 18.4626 15.7013 18.4533 15.5701 18.4171C15.4389 18.381 15.3159 18.3186 15.2082 18.2336C15.1004 18.1485 15.0101 18.0425 14.9422 17.9216L14.6279 17.3606C13.9258 17.8974 13.304 18.5369 12.7823 19.259L13.3281 19.5806C13.5657 19.7215 13.7392 19.9536 13.8102 20.226C13.8813 20.4983 13.8442 20.7885 13.7072 21.0327C13.6393 21.1536 13.5489 21.2596 13.4412 21.3447C13.3334 21.4297 13.2104 21.4921 13.0792 21.5283C12.8143 21.6013 12.5319 21.5632 12.2943 21.4223L11.7485 21.0979C11.3877 21.9564 11.1562 22.8665 11.0621 23.7967C11.0337 24.077 10.8982 24.3343 10.6854 24.5119C10.4725 24.6895 10.1997 24.7729 9.92698 24.7438C9.65427 24.7147 9.40398 24.5754 9.23117 24.3566C9.05837 24.1378 8.97721 23.8574 9.00554 23.5771C9.19101 21.7448 9.80823 19.9866 10.8037 18.4548C11.7993 16.9229 13.1431 15.6635 14.7188 14.7857C16.2946 13.9079 18.0548 13.4381 19.847 13.417C21.6392 13.3959 23.4094 13.8241 25.0043 14.6646L26.2035 12.531C26.2714 12.4101 26.3619 12.3042 26.4696 12.2193C26.5774 12.1344 26.7004 12.0721 26.8316 12.036C26.9628 12 27.0997 11.9909 27.2343 12.0092C27.3689 12.0275 27.4987 12.0729 27.6163 12.1428ZM27.4688 17.8763C27.6911 17.7113 27.968 17.6439 28.2386 17.6888C28.5093 17.7337 28.7515 17.8873 28.912 18.1157C30.3463 20.1567 31.0786 22.6306 30.9933 25.1468C30.9901 25.2874 30.9599 25.4258 30.9042 25.5542C30.8486 25.6827 30.7688 25.7985 30.6693 25.8949C30.5699 25.9914 30.4528 26.0666 30.3248 26.1163C30.1969 26.1659 30.0606 26.1889 29.924 26.1841C29.7873 26.1792 29.6529 26.1465 29.5286 26.0879C29.4043 26.0292 29.2926 25.9459 29.1999 25.8425C29.1072 25.7392 29.0353 25.618 28.9885 25.4859C28.9417 25.3539 28.9208 25.2136 28.9271 25.0732C28.9966 23.0284 28.4015 21.0181 27.2359 19.3596C27.1565 19.2464 27.0996 19.1182 27.0684 18.9824C27.0372 18.8466 27.0324 18.7058 27.0541 18.568C27.0759 18.4303 27.1238 18.2983 27.1952 18.1796C27.2666 18.0609 27.36 17.9578 27.4702 17.8763H27.4688ZM22.0408 24.7516C22.0408 25.3152 21.823 25.8557 21.4352 26.2542C21.0475 26.6528 20.5216 26.8766 19.9732 26.8766C19.4249 26.8766 18.899 26.6528 18.5112 26.2542C18.1235 25.8557 17.9057 25.3152 17.9057 24.7516C17.9057 24.188 18.1235 23.6475 18.5112 23.2489C18.899 22.8504 19.4249 22.6265 19.9732 22.6265C20.5216 22.6265 21.0475 22.8504 21.4352 23.2489C21.823 23.6475 22.0408 24.188 22.0408 24.7516Z" fill="#2883DF"/>
</svg>
