<svg width="40" height="40" viewBox="0 0 40 40" fill="none" xmlns="http://www.w3.org/2000/svg">
<rect width="40" height="40" rx="8" fill="#2883DF" fill-opacity="0.03"/>
<path d="M25 29L26.8 30.77C27.3 31.27 28 30.87 28 30.28V26L30.8 22.6C30.9114 22.4514 30.9793 22.2748 30.996 22.0898C31.0126 21.9048 30.9775 21.7189 30.8944 21.5528C30.8114 21.3867 30.6837 21.247 30.5257 21.1493C30.3678 21.0517 30.1857 21 30 21H23C22.2 21 21.7 22 22.2 22.6L25 26V29ZM23 28H10V25C10 22.3 15.3 21 18 21C18.6 21 19.3 21.1 20.1 21.2C19.9 21.8 20 22.5 20.2 23.1C19.5 23 18.7 22.9 18 22.9C15 22.9 11.9 24.4 11.9 25V26.1H22.5L23 26.7V28ZM18 12C15.8 12 14 13.8 14 16C14 18.2 15.8 20 18 20C20.2 20 22 18.2 22 16C22 13.8 20.2 12 18 12ZM18 18C16.9 18 16 17.1 16 16C16 14.9 16.9 14 18 14C19.1 14 20 14.9 20 16C20 17.1 19.1 18 18 18Z" fill="#2883DF"/>
</svg>
