<svg width="40" height="40" viewBox="0 0 40 40" fill="none" xmlns="http://www.w3.org/2000/svg">
<rect width="40" height="40" rx="8" fill="#2883DF" fill-opacity="0.03"/>
<path d="M20 22.0001C20.1978 22.0001 20.3911 21.9415 20.5556 21.8316C20.72 21.7217 20.8482 21.5655 20.9239 21.3828C20.9996 21.2001 21.0194 20.999 20.9808 20.805C20.9422 20.611 20.847 20.4329 20.7071 20.293C20.5673 20.1532 20.3891 20.0579 20.1951 20.0193C20.0011 19.9807 19.8 20.0005 19.6173 20.0762C19.4346 20.1519 19.2784 20.2801 19.1685 20.4445C19.0586 20.609 19 20.8023 19 21.0001C19 21.2653 19.1054 21.5197 19.2929 21.7072C19.4804 21.8948 19.7348 22.0001 20 22.0001ZM25 22.0001C25.1978 22.0001 25.3911 21.9415 25.5556 21.8316C25.72 21.7217 25.8482 21.5655 25.9239 21.3828C25.9996 21.2001 26.0194 20.999 25.9808 20.805C25.9422 20.611 25.847 20.4329 25.7071 20.293C25.5673 20.1532 25.3891 20.0579 25.1951 20.0193C25.0011 19.9807 24.8 20.0005 24.6173 20.0762C24.4346 20.1519 24.2784 20.2801 24.1685 20.4445C24.0586 20.609 24 20.8023 24 21.0001C24 21.2653 24.1054 21.5197 24.2929 21.7072C24.4804 21.8948 24.7348 22.0001 25 22.0001ZM20 26.0001C20.1978 26.0001 20.3911 25.9415 20.5556 25.8316C20.72 25.7217 20.8482 25.5655 20.9239 25.3828C20.9996 25.2001 21.0194 24.999 20.9808 24.805C20.9422 24.611 20.847 24.4329 20.7071 24.293C20.5673 24.1532 20.3891 24.0579 20.1951 24.0193C20.0011 23.9807 19.8 24.0005 19.6173 24.0762C19.4346 24.1519 19.2784 24.2801 19.1685 24.4445C19.0586 24.609 19 24.8023 19 25.0001C19 25.2653 19.1054 25.5197 19.2929 25.7072C19.4804 25.8948 19.7348 26.0001 20 26.0001ZM25 26.0001C25.1978 26.0001 25.3911 25.9415 25.5556 25.8316C25.72 25.7217 25.8482 25.5655 25.9239 25.3828C25.9996 25.2001 26.0194 24.999 25.9808 24.805C25.9422 24.611 25.847 24.4329 25.7071 24.293C25.5673 24.1532 25.3891 24.0579 25.1951 24.0193C25.0011 23.9807 24.8 24.0005 24.6173 24.0762C24.4346 24.1519 24.2784 24.2801 24.1685 24.4445C24.0586 24.609 24 24.8023 24 25.0001C24 25.2653 24.1054 25.5197 24.2929 25.7072C24.4804 25.8948 24.7348 26.0001 25 26.0001ZM15 22.0001C15.1978 22.0001 15.3911 21.9415 15.5556 21.8316C15.72 21.7217 15.8482 21.5655 15.9239 21.3828C15.9996 21.2001 16.0194 20.999 15.9808 20.805C15.9422 20.611 15.847 20.4329 15.7071 20.293C15.5673 20.1532 15.3891 20.0579 15.1951 20.0193C15.0011 19.9807 14.8 20.0005 14.6173 20.0762C14.4346 20.1519 14.2784 20.2801 14.1685 20.4445C14.0586 20.609 14 20.8023 14 21.0001C14 21.2653 14.1054 21.5197 14.2929 21.7072C14.4804 21.8948 14.7348 22.0001 15 22.0001ZM27 12.0001H26V11.0001C26 10.7349 25.8946 10.4805 25.7071 10.293C25.5196 10.1055 25.2652 10.0001 25 10.0001C24.7348 10.0001 24.4804 10.1055 24.2929 10.293C24.1054 10.4805 24 10.7349 24 11.0001V12.0001H16V11.0001C16 10.7349 15.8946 10.4805 15.7071 10.293C15.5196 10.1055 15.2652 10.0001 15 10.0001C14.7348 10.0001 14.4804 10.1055 14.2929 10.293C14.1054 10.4805 14 10.7349 14 11.0001V12.0001H13C12.2044 12.0001 11.4413 12.3162 10.8787 12.8788C10.3161 13.4414 10 14.2045 10 15.0001V27.0001C10 27.7958 10.3161 28.5588 10.8787 29.1214C11.4413 29.684 12.2044 30.0001 13 30.0001H27C27.7956 30.0001 28.5587 29.684 29.1213 29.1214C29.6839 28.5588 30 27.7958 30 27.0001V15.0001C30 14.2045 29.6839 13.4414 29.1213 12.8788C28.5587 12.3162 27.7956 12.0001 27 12.0001ZM28 27.0001C28 27.2653 27.8946 27.5197 27.7071 27.7072C27.5196 27.8948 27.2652 28.0001 27 28.0001H13C12.7348 28.0001 12.4804 27.8948 12.2929 27.7072C12.1054 27.5197 12 27.2653 12 27.0001V18.0001H28V27.0001ZM28 16.0001H12V15.0001C12 14.7349 12.1054 14.4805 12.2929 14.293C12.4804 14.1055 12.7348 14.0001 13 14.0001H27C27.2652 14.0001 27.5196 14.1055 27.7071 14.293C27.8946 14.4805 28 14.7349 28 15.0001V16.0001ZM15 26.0001C15.1978 26.0001 15.3911 25.9415 15.5556 25.8316C15.72 25.7217 15.8482 25.5655 15.9239 25.3828C15.9996 25.2001 16.0194 24.999 15.9808 24.805C15.9422 24.611 15.847 24.4329 15.7071 24.293C15.5673 24.1532 15.3891 24.0579 15.1951 24.0193C15.0011 23.9807 14.8 24.0005 14.6173 24.0762C14.4346 24.1519 14.2784 24.2801 14.1685 24.4445C14.0586 24.609 14 24.8023 14 25.0001C14 25.2653 14.1054 25.5197 14.2929 25.7072C14.4804 25.8948 14.7348 26.0001 15 26.0001Z" fill="#2883DF"/>
</svg>
