<svg width="40" height="40" viewBox="0 0 40 40" fill="none" xmlns="http://www.w3.org/2000/svg">
<rect width="40" height="40" rx="8" fill="#2883DF" fill-opacity="0.03"/>
<path d="M10 12.5H16.757C17.1511 12.5 17.5414 12.5776 17.9055 12.7284C18.2696 12.8792 18.6004 13.1003 18.879 13.379L22 16.5M13 21.5H10M16.5 15.5L18.5 17.5C18.6313 17.6313 18.7355 17.7872 18.8066 17.9588C18.8776 18.1304 18.9142 18.3143 18.9142 18.5C18.9142 18.6857 18.8776 18.8696 18.8066 19.0412C18.7355 19.2128 18.6313 19.3687 18.5 19.5C18.3687 19.6313 18.2128 19.7355 18.0412 19.8066C17.8696 19.8776 17.6857 19.9142 17.5 19.9142C17.3143 19.9142 17.1304 19.8776 16.9588 19.8066C16.7872 19.7355 16.6313 19.6313 16.5 19.5L15 18C14.14 18.86 12.777 18.957 11.803 18.227L11.5 18" stroke="#2883DF" stroke-width="2" stroke-linecap="round" stroke-linejoin="round"/>
<path d="M13 19V23.5C13 25.386 13 26.328 13.586 26.914C14.172 27.5 15.114 27.5 17 27.5H26C27.886 27.5 28.828 27.5 29.414 26.914C30 26.328 30 25.386 30 23.5V20.5C30 18.614 30 17.672 29.414 17.086C28.828 16.5 27.886 16.5 26 16.5H17.5" stroke="#2883DF" stroke-width="2" stroke-linecap="round" stroke-linejoin="round"/>
<path d="M23.25 22C23.25 22.4641 23.0656 22.9092 22.7374 23.2374C22.4092 23.5656 21.9641 23.75 21.5 23.75C21.0359 23.75 20.5908 23.5656 20.2626 23.2374C19.9344 22.9092 19.75 22.4641 19.75 22C19.75 21.5359 19.9344 21.0908 20.2626 20.7626C20.5908 20.4344 21.0359 20.25 21.5 20.25C21.9641 20.25 22.4092 20.4344 22.7374 20.7626C23.0656 21.0908 23.25 21.5359 23.25 22Z" stroke="#2883DF" stroke-width="2" stroke-linecap="round" stroke-linejoin="round"/>
</svg>
