<svg width="40" height="40" viewBox="0 0 40 40" fill="none" xmlns="http://www.w3.org/2000/svg">
<rect width="40" height="40" rx="8" fill="#2883DF" fill-opacity="0.03"/>
<path d="M28 30V27C28 24.172 28 22.757 27.121 21.879C26.243 21 24.828 21 22 21L20 23L18 21C15.172 21 13.757 21 12.879 21.879C12 22.757 12 24.172 12 27V30M24 21V26.5" stroke="#2883DF" stroke-width="1.8" stroke-linecap="round" stroke-linejoin="round"/>
<path d="M16.5 21V25M16.5 25C17.0304 25 17.5391 25.2107 17.9142 25.5858C18.2893 25.9609 18.5 26.4696 18.5 27V28M16.5 25C15.9696 25 15.4609 25.2107 15.0858 25.5858C14.7107 25.9609 14.5 26.4696 14.5 27V28M23.5 14.5V13.5C23.5 13.0404 23.4095 12.5852 23.2336 12.1606C23.0577 11.736 22.7999 11.3501 22.4749 11.0251C22.1499 10.7001 21.764 10.4423 21.3394 10.2664C20.9148 10.0905 20.4596 10 20 10C19.5404 10 19.0852 10.0905 18.6606 10.2664C18.236 10.4423 17.8501 10.7001 17.5251 11.0251C17.2001 11.3501 16.9423 11.736 16.7664 12.1606C16.5905 12.5852 16.5 13.0404 16.5 13.5V14.5C16.5 14.9596 16.5905 15.4148 16.7664 15.8394C16.9423 16.264 17.2001 16.6499 17.5251 16.9749C17.8501 17.2999 18.236 17.5577 18.6606 17.7336C19.0852 17.9095 19.5404 18 20 18C20.4596 18 20.9148 17.9095 21.3394 17.7336C21.764 17.5577 22.1499 17.2999 22.4749 16.9749C22.7999 16.6499 23.0577 16.264 23.2336 15.8394C23.4095 15.4148 23.5 14.9596 23.5 14.5ZM24.75 27.25C24.75 27.4489 24.671 27.6397 24.5303 27.7803C24.3897 27.921 24.1989 28 24 28C23.8011 28 23.6103 27.921 23.4697 27.7803C23.329 27.6397 23.25 27.4489 23.25 27.25C23.25 27.0511 23.329 26.8603 23.4697 26.7197C23.6103 26.579 23.8011 26.5 24 26.5C24.1989 26.5 24.3897 26.579 24.5303 26.7197C24.671 26.8603 24.75 27.0511 24.75 27.25Z" stroke="#2883DF" stroke-width="1.8" stroke-linecap="round" stroke-linejoin="round"/>
</svg>
