<svg width="40" height="40" viewBox="0 0 40 40" fill="none" xmlns="http://www.w3.org/2000/svg">
<rect width="40" height="40" rx="8" fill="#2883DF" fill-opacity="0.03"/>
<path d="M24.95 28.65L26.1 27.5L24.5 25.9L23.35 27.05C23.1167 27.2833 23 27.55 23 27.85C23 28.15 23.1167 28.4167 23.35 28.65C23.5833 28.8833 23.85 29 24.15 29C24.45 29 24.7167 28.8833 24.95 28.65ZM27.5 26.1L28.65 24.95C28.8833 24.7167 29 24.45 29 24.15C29 23.85 28.8833 23.5833 28.65 23.35C28.4167 23.1167 28.15 23 27.85 23C27.55 23 27.2833 23.1167 27.05 23.35L25.9 24.5L27.5 26.1ZM26.375 30.075C25.7583 30.6917 25.0167 31 24.15 31C23.2833 31 22.5417 30.6917 21.925 30.075C21.3083 29.4583 21 28.7167 21 27.85C21 26.9833 21.3083 26.2417 21.925 25.625L25.625 21.925C26.2417 21.3083 26.9833 21 27.85 21C28.7167 21 29.4583 21.3083 30.075 21.925C30.6917 22.5417 31 23.2833 31 24.15C31 25.0167 30.6917 25.7583 30.075 26.375L26.375 30.075ZM13 29C12.45 29 11.9793 28.8043 11.588 28.413C11.1967 28.0217 11.0007 27.5507 11 27V13C11 12.45 11.196 11.9793 11.588 11.588C11.98 11.1967 12.4507 11.0007 13 11H17.2C17.4167 10.4 17.7793 9.91667 18.288 9.55C18.7967 9.18333 19.3673 9 20 9C20.6327 9 21.2037 9.18333 21.713 9.55C22.2223 9.91667 22.5847 10.4 22.8 11H27C27.55 11 28.021 11.196 28.413 11.588C28.805 11.98 29.0007 12.4507 29 13V19.125C28.6667 19.0417 28.3333 19 28 19C27.6667 19 27.3333 19.025 27 19.075V13H13V27H19.075C19.025 27.3333 19 27.6667 19 28C19 28.3333 19.0417 28.6667 19.125 29H13ZM20 12.25C20.2167 12.25 20.396 12.179 20.538 12.037C20.68 11.895 20.7507 11.716 20.75 11.5C20.7493 11.284 20.6783 11.105 20.537 10.963C20.3957 10.821 20.2167 10.75 20 10.75C19.7833 10.75 19.6043 10.821 19.463 10.963C19.3217 11.105 19.2507 11.284 19.25 11.5C19.2493 11.716 19.3203 11.8953 19.463 12.038C19.6057 12.1807 19.7847 12.2513 20 12.25ZM15 17V15H25V17H15ZM15 21V19H25V19.85C24.8667 19.9333 24.7377 20.0293 24.613 20.138C24.4883 20.2467 24.359 20.3673 24.225 20.5L23.725 21H15ZM15 25V23H21.725L20.5 24.225C20.3667 24.3583 20.246 24.4877 20.138 24.613C20.03 24.7383 19.934 24.8673 19.85 25H15Z" fill="#2883DF"/>
</svg>
