<svg width="40" height="40" viewBox="0 0 40 40" fill="none" xmlns="http://www.w3.org/2000/svg">
<rect width="40" height="40" rx="8" fill="#2883DF" fill-opacity="0.03"/>
<path d="M12.575 11C11.6269 11 10.7175 11.3881 10.0471 12.0788C9.37665 12.7696 9 13.7065 9 14.6833V24.3167C9 25.2935 9.37665 26.2304 10.0471 26.9212C10.7175 27.6119 11.6269 28 12.575 28H27.425C27.8945 28 28.3594 27.9047 28.7931 27.7196C29.2268 27.5345 29.6209 27.2632 29.9529 26.9212C30.2849 26.5791 30.5482 26.1731 30.7279 25.7262C30.9075 25.2793 31 24.8004 31 24.3167V14.6833C31 14.1996 30.9075 13.7207 30.7279 13.2738C30.5482 12.8269 30.2849 12.4209 29.9529 12.0788C29.6209 11.7368 29.2268 11.4655 28.7931 11.2804C28.3594 11.0953 27.8945 11 27.425 11H12.575ZM10.65 14.6833C10.65 13.5885 11.5124 12.7 12.575 12.7H15.6V14.0691C15.0933 13.8409 14.5316 13.7754 13.9883 13.8811C13.4449 13.9869 12.9451 14.2589 12.5541 14.6618C12.1631 15.0646 11.899 15.5796 11.7964 16.1394C11.6938 16.6993 11.7573 17.278 11.9788 17.8H10.65V14.6833ZM17.25 16.6667C17.25 16.4425 17.3145 16.2234 17.4354 16.037C17.5563 15.8506 17.728 15.7054 17.929 15.6196C18.13 15.5338 18.3512 15.5114 18.5646 15.5551C18.778 15.5988 18.974 15.7068 19.1278 15.8653C19.2817 16.0238 19.3864 16.2257 19.4289 16.4456C19.4713 16.6654 19.4495 16.8933 19.3663 17.1004C19.283 17.3075 19.142 17.4845 18.9611 17.609C18.7802 17.7335 18.5676 17.8 18.35 17.8H17.25V16.6667ZM15.6 17.8H14.5C14.2824 17.8 14.0698 17.7335 13.8889 17.609C13.708 17.4845 13.567 17.3075 13.4837 17.1004C13.4005 16.8933 13.3787 16.6654 13.4211 16.4456C13.4636 16.2257 13.5683 16.0238 13.7222 15.8653C13.876 15.7068 14.072 15.5988 14.2854 15.5551C14.4988 15.5114 14.72 15.5338 14.921 15.6196C15.122 15.7054 15.2937 15.8506 15.4146 16.037C15.5355 16.2234 15.6 16.4425 15.6 16.6667V17.8ZM15.6 20.7013V26.3H12.575C12.0645 26.3 11.5748 26.091 11.2138 25.7191C10.8528 25.3471 10.65 24.8427 10.65 24.3167V19.5H14.434L12.542 21.4493C12.4609 21.5272 12.3959 21.621 12.3508 21.7253C12.3057 21.8295 12.2815 21.9421 12.2795 22.0562C12.2776 22.1703 12.298 22.2837 12.3395 22.3895C12.381 22.4954 12.4427 22.5915 12.5211 22.6722C12.5994 22.753 12.6927 22.8166 12.7954 22.8593C12.8982 22.9021 13.0082 22.9231 13.119 22.9211C13.2297 22.9191 13.339 22.8941 13.4402 22.8476C13.5414 22.8012 13.6325 22.7342 13.708 22.6507L15.6 20.7013ZM17.25 26.3V20.7013L19.142 22.6507C19.2175 22.7342 19.3086 22.8012 19.4098 22.8476C19.511 22.8941 19.6203 22.9191 19.731 22.9211C19.8418 22.9231 19.9518 22.9021 20.0546 22.8593C20.1573 22.8166 20.2506 22.753 20.3289 22.6722C20.4073 22.5915 20.469 22.4954 20.5105 22.3895C20.552 22.2837 20.5724 22.1703 20.5705 22.0562C20.5685 21.9421 20.5443 21.8295 20.4992 21.7253C20.4541 21.621 20.3891 21.5272 20.308 21.4493L18.416 19.5H29.35V24.3167C29.35 24.5771 29.3002 24.835 29.2035 25.0757C29.1067 25.3163 28.9649 25.5349 28.7862 25.7191C28.6074 25.9033 28.3952 26.0494 28.1617 26.149C27.9281 26.2487 27.6778 26.3 27.425 26.3H17.25ZM17.25 14.0691V12.7H27.425C28.4876 12.7 29.35 13.5885 29.35 14.6833V17.8H20.8712C21.0927 17.278 21.1562 16.6993 21.0536 16.1394C20.951 15.5796 20.6869 15.0646 20.2959 14.6618C19.9049 14.2589 19.4051 13.9869 18.8617 13.8811C18.3184 13.7754 17.7567 13.8409 17.25 14.0691Z" fill="#2883DF"/>
</svg>
