<svg width="40" height="40" viewBox="0 0 40 40" fill="none" xmlns="http://www.w3.org/2000/svg">
<rect width="40" height="40" rx="8" fill="#2883DF" fill-opacity="0.03"/>
<path fill-rule="evenodd" clip-rule="evenodd" d="M21.2316 9.35982C21.8636 8.60182 23.0946 9.11982 22.9946 10.1018L22.2886 16.9998H27.9996C28.1896 16.9999 28.3757 17.0541 28.536 17.1561C28.6963 17.2581 28.8243 17.4036 28.9049 17.5757C28.9855 17.7478 29.0153 17.9393 28.991 18.1277C28.9667 18.3162 28.8892 18.4938 28.7676 18.6398L18.7676 30.6398C18.1356 31.3978 16.9046 30.8798 17.0046 29.8978L17.7106 22.9998H11.9996C11.8096 22.9997 11.6236 22.9455 11.4632 22.8435C11.3029 22.7415 11.175 22.596 11.0944 22.4239C11.0138 22.2518 10.9839 22.0604 11.0082 21.8719C11.0325 21.6834 11.11 21.5058 11.2316 21.3598L21.2316 9.35982ZM14.1346 20.9998H19.4826C19.5385 20.9998 19.5938 21.0115 19.6449 21.0342C19.696 21.0569 19.7418 21.09 19.7793 21.1315C19.8168 21.1729 19.8452 21.2218 19.8626 21.2749C19.8801 21.328 19.8862 21.3842 19.8806 21.4398L19.3276 26.8448L25.8646 18.9998H20.5166C20.4607 18.9998 20.4054 18.9881 20.3543 18.9654C20.3033 18.9427 20.2575 18.9096 20.22 18.8681C20.1825 18.8267 20.1541 18.7778 20.1366 18.7247C20.1192 18.6716 20.113 18.6154 20.1186 18.5598L20.6716 13.1558L14.1346 20.9998Z" fill="#2883DF"/>
</svg>
