<svg width="40" height="40" viewBox="0 0 40 40" fill="none" xmlns="http://www.w3.org/2000/svg">
<rect width="40" height="40" rx="8" fill="#2883DF" fill-opacity="0.03"/>
<path d="M20 15C19.4696 15 18.9609 14.7893 18.5858 14.4142C18.2107 14.0391 18 13.5304 18 13C18 12.4696 18.2107 11.9609 18.5858 11.5858C18.9609 11.2107 19.4696 11 20 11C20.5304 11 21.0391 11.2107 21.4142 11.5858C21.7893 11.9609 22 12.4696 22 13C22 13.5304 21.7893 14.0391 21.4142 14.4142C21.0391 14.7893 20.5304 15 20 15ZM20 15V19M20 19C20.7956 19 21.5587 19.3161 22.1213 19.8787C22.6839 20.4413 23 21.2044 23 22C23 22.7956 22.6839 23.5587 22.1213 24.1213C21.5587 24.6839 20.7956 25 20 25C19.2044 25 18.4413 24.6839 17.8787 24.1213C17.3161 23.5587 17 22.7956 17 22C17 21.2044 17.3161 20.4413 17.8787 19.8787C18.4413 19.3161 19.2044 19 20 19ZM14.7 25.8L17.5 23.8M25.3 25.8L22.5 23.8M11 27C11 27.5304 11.2107 28.0391 11.5858 28.4142C11.9609 28.7893 12.4696 29 13 29C13.5304 29 14.0391 28.7893 14.4142 28.4142C14.7893 28.0391 15 27.5304 15 27C15 26.4696 14.7893 25.9609 14.4142 25.5858C14.0391 25.2107 13.5304 25 13 25C12.4696 25 11.9609 25.2107 11.5858 25.5858C11.2107 25.9609 11 26.4696 11 27ZM25 27C25 27.5304 25.2107 28.0391 25.5858 28.4142C25.9609 28.7893 26.4696 29 27 29C27.5304 29 28.0391 28.7893 28.4142 28.4142C28.7893 28.0391 29 27.5304 29 27C29 26.4696 28.7893 25.9609 28.4142 25.5858C28.0391 25.2107 27.5304 25 27 25C26.4696 25 25.9609 25.2107 25.5858 25.5858C25.2107 25.9609 25 26.4696 25 27Z" stroke="#2883DF" stroke-width="2" stroke-linecap="round" stroke-linejoin="round"/>
</svg>
