<svg width="40" height="40" viewBox="0 0 40 40" fill="none" xmlns="http://www.w3.org/2000/svg">
<rect width="40" height="40" rx="8" fill="#2883DF" fill-opacity="0.03"/>
<path d="M25 28C25 26.343 22.761 25 20 25C17.239 25 15 26.343 15 28M29 25C29 23.77 27.766 22.713 26 22.25M11 25C11 23.77 12.234 22.713 14 22.25M26 18.236C26.2963 17.9741 26.5378 17.6562 26.7108 17.3006C26.8838 16.945 26.9847 16.5587 27.0079 16.164C27.031 15.7692 26.9759 15.3738 26.8456 15.0004C26.7154 14.627 26.5127 14.2831 26.249 13.9884C25.9854 13.6936 25.6661 13.4539 25.3095 13.283C24.9529 13.1121 24.5661 13.0134 24.1712 12.9926C23.7763 12.9717 23.3812 13.0292 23.0086 13.1615C22.636 13.2939 22.2932 13.4987 22 13.764M14 18.236C13.4123 17.7042 13.059 16.9614 13.0172 16.1698C12.9754 15.3783 13.2485 14.6024 13.777 14.0116C14.3054 13.4208 15.0461 13.0632 15.8374 13.0168C16.6287 12.9704 17.4062 13.239 18 13.764M20 22C19.606 22 19.2159 21.9224 18.8519 21.7717C18.488 21.6209 18.1573 21.3999 17.8787 21.1213C17.6001 20.8428 17.3791 20.5121 17.2284 20.1481C17.0776 19.7841 17 19.394 17 19C17 18.6061 17.0776 18.216 17.2284 17.852C17.3791 17.488 17.6001 17.1573 17.8787 16.8787C18.1573 16.6001 18.488 16.3792 18.8519 16.2284C19.2159 16.0776 19.606 16 20 16C20.7956 16 21.5587 16.3161 22.1213 16.8787C22.6839 17.4413 23 18.2044 23 19C23 19.7957 22.6839 20.5587 22.1213 21.1213C21.5587 21.684 20.7956 22 20 22Z" stroke="#2883DF" stroke-width="2" stroke-linecap="round" stroke-linejoin="round"/>
</svg>
