<svg width="40" height="40" viewBox="0 0 40 40" fill="none" xmlns="http://www.w3.org/2000/svg">
<rect width="40" height="40" rx="8" fill="#2883DF" fill-opacity="0.03"/>
<path fill-rule="evenodd" clip-rule="evenodd" d="M19.2912 15.3725C19.4065 15.4408 19.5374 15.4813 19.6727 15.4906C19.8007 15.4986 19.9289 15.4789 20.0479 15.4329C20.1668 15.3869 20.2732 15.3158 20.3593 15.225C20.4454 15.1341 20.5088 15.0259 20.5449 14.9083C20.581 14.7908 20.5887 14.667 20.5676 14.5462L22.9065 13.5657C22.9841 13.6613 23.083 13.7391 23.1961 13.7935C23.3092 13.8478 23.4336 13.8773 23.5602 13.8798C23.6868 13.8823 23.8124 13.8577 23.9278 13.8079C24.0431 13.758 24.1454 13.6842 24.2269 13.5917L27.2743 15.7347C27.262 15.863 27.2823 15.9922 27.3335 16.1114C27.3847 16.2305 27.4653 16.3361 27.5684 16.4192C27.6715 16.5023 27.794 16.5604 27.9257 16.5886C28.0573 16.6168 28.1942 16.6142 28.3245 16.5811C28.4549 16.548 28.575 16.4854 28.6746 16.3985C28.7742 16.3116 28.8504 16.2031 28.8967 16.0821C28.9429 15.9611 28.9579 15.8312 28.9404 15.7035C28.9228 15.5758 28.8733 15.454 28.7959 15.3485L29.9863 13.5737C30.0954 13.5974 30.2083 13.6001 30.3184 13.5816C30.4286 13.563 30.5337 13.5236 30.6277 13.4657C30.77 13.3748 30.8798 13.2444 30.9423 13.0921C31.0047 12.9399 31.0168 12.773 30.977 12.6139C30.9371 12.4549 30.8471 12.3114 30.7192 12.2026C30.5913 12.0938 30.4315 12.0251 30.2615 12.0056C30.0914 11.9862 29.9192 12.0169 29.768 12.0937C29.6167 12.1705 29.4938 12.2897 29.4156 12.4352C29.3375 12.5807 29.3079 12.7456 29.3309 12.9076C29.3539 13.0697 29.4283 13.2211 29.5441 13.3416L28.3851 15.0664C28.2285 15.0145 28.0593 15.0081 27.8989 15.048C27.7385 15.0879 27.5941 15.1723 27.4839 15.2905L24.426 13.1335C24.4273 13.0275 24.4066 12.9222 24.3653 12.8238C24.3239 12.7254 24.2627 12.6358 24.185 12.56C24.0282 12.4069 23.8141 12.3195 23.5898 12.3171C23.3655 12.3147 23.1494 12.3975 22.9891 12.5472C22.8287 12.6969 22.7372 12.9014 22.7347 13.1155L20.3433 14.116C20.1998 13.9742 20.0065 13.888 19.8005 13.8738C19.6545 13.8637 19.5083 13.8898 19.376 13.9496C19.2438 14.0094 19.1299 14.1008 19.0456 14.215C18.9612 14.3291 18.9092 14.4622 18.8946 14.6012C18.88 14.7402 18.9032 14.8805 18.9622 15.0084L17.2855 16.4891C17.1562 16.4112 17.007 16.3686 16.8541 16.3659C16.7013 16.3631 16.5505 16.4003 16.4182 16.4735C16.2859 16.5466 16.1771 16.6529 16.1035 16.7809C16.0299 16.9088 15.9944 17.0536 16.0007 17.1994C16.0024 17.3064 16.0261 17.4121 16.0707 17.5103C16.1152 17.6086 16.1797 17.6974 16.2603 17.7718C16.3409 17.8462 16.4362 17.9046 16.5405 17.9437C16.6449 17.9828 16.7563 18.0019 16.8684 17.9998C17.0089 17.9958 17.1462 17.9585 17.2679 17.8914C17.3897 17.8242 17.492 17.7292 17.5658 17.6149C17.6395 17.5007 17.6824 17.3707 17.6906 17.2367C17.6987 17.1027 17.6719 16.9689 17.6124 16.8472L19.2891 15.3725H19.2912ZM16.9231 16.8676C16.9932 16.8841 17.0561 16.921 17.1031 16.9733V16.9773C17.1545 17.0327 17.1841 17.1034 17.187 17.1774C17.1893 17.2635 17.1565 17.3471 17.0955 17.4106C17.0345 17.474 16.9501 17.5124 16.86 17.5176C16.8146 17.52 16.7691 17.5138 16.7262 17.4994C16.6832 17.4851 16.6437 17.4627 16.6098 17.4337C16.576 17.4047 16.5484 17.3696 16.5288 17.3305C16.5091 17.2913 16.4978 17.2488 16.4953 17.2054C16.4916 17.1366 16.5105 17.0684 16.5494 17.0103C16.5883 16.9523 16.6453 16.9073 16.7123 16.8817C16.7793 16.8562 16.853 16.8512 16.9231 16.8676ZM19.4694 14.8923C19.5204 14.952 19.5918 14.9927 19.671 15.0075C19.7502 15.0222 19.8324 15.0101 19.9032 14.9731C19.974 14.9361 20.029 14.8766 20.0587 14.8049C20.0884 14.7333 20.0909 14.6539 20.0658 14.5807C20.0407 14.5075 19.9895 14.4449 19.9212 14.4039C19.8528 14.3629 19.7716 14.346 19.6916 14.3562C19.6116 14.3663 19.5378 14.4029 19.483 14.4595C19.4283 14.5161 19.396 14.5893 19.3918 14.6662C19.388 14.7082 19.3928 14.7505 19.4061 14.7906C19.4194 14.8308 19.4409 14.8681 19.4694 14.9003V14.8923ZM23.3898 12.7955C23.4566 12.7527 23.537 12.7336 23.617 12.7413C23.7044 12.7507 23.785 12.7906 23.8434 12.8534C23.8961 12.9114 23.926 12.9851 23.928 13.0619C23.9299 13.1387 23.9037 13.2137 23.8539 13.2741C23.8041 13.3344 23.7339 13.3763 23.6552 13.3925C23.5766 13.4087 23.4945 13.3982 23.4231 13.3629C23.3516 13.3275 23.2954 13.2695 23.2639 13.1988C23.2325 13.1281 23.2279 13.0491 23.2508 12.9755C23.2738 12.9019 23.3229 12.8382 23.3898 12.7955ZM28.3243 15.5726C28.2654 15.5293 28.1935 15.5052 28.1191 15.504C28.0448 15.5028 27.972 15.5245 27.9116 15.5658C27.8512 15.6072 27.8064 15.6661 27.7837 15.7337C27.7611 15.8013 27.7619 15.8741 27.7861 15.9412C27.8102 16.0084 27.8563 16.0663 27.9177 16.1064C27.979 16.1466 28.0522 16.1668 28.1265 16.164C28.2008 16.1613 28.2722 16.1357 28.3301 16.0912C28.388 16.0467 28.4294 15.9855 28.448 15.9168C28.4647 15.854 28.4617 15.7879 28.4394 15.7267C28.417 15.6655 28.3763 15.6119 28.3222 15.5726H28.3243ZM29.8436 12.9067C29.8181 12.8467 29.8116 12.7808 29.8249 12.7173C29.8341 12.6738 29.8523 12.6326 29.8786 12.596C29.9048 12.5594 29.9384 12.5282 29.9776 12.5043C30.0167 12.4804 30.0605 12.4642 30.1062 12.4568C30.152 12.4494 30.1989 12.4509 30.2441 12.4612C30.3101 12.4762 30.3701 12.5094 30.4165 12.5567C30.4628 12.604 30.4936 12.6633 30.5049 12.7272C30.5163 12.7911 30.5077 12.8568 30.4802 12.916C30.4527 12.9753 30.4076 13.0255 30.3504 13.0604C30.2932 13.0954 30.2266 13.1135 30.1587 13.1125C30.0908 13.1115 30.0248 13.0914 29.9687 13.0549C29.9127 13.0183 29.8692 12.9668 29.8436 12.9067Z" fill="#2883DF" stroke="#2883DF" stroke-width="0.4"/>
<path fill-rule="evenodd" clip-rule="evenodd" d="M21.6323 16.9999C21.5747 16.9999 21.5176 17.0105 21.4644 17.031C21.4111 17.0515 21.3628 17.0815 21.322 17.1194C21.2813 17.1573 21.2489 17.2023 21.2269 17.2518C21.2048 17.3013 21.1935 17.3543 21.1935 17.4079L21.1937 29.3942C21.1937 29.4478 21.2051 29.5008 21.2271 29.5503C21.2492 29.5998 21.2815 29.6448 21.3222 29.6827C21.363 29.7205 21.4114 29.7506 21.4646 29.7711C21.5179 29.7916 21.5749 29.8021 21.6326 29.8021H24.0609C24.1773 29.8021 24.2889 29.7592 24.3712 29.6827C24.4535 29.6062 24.4998 29.5024 24.4998 29.3942L24.4995 17.4079C24.4995 17.2997 24.4533 17.1959 24.371 17.1194C24.2887 17.0429 24.1771 16.9999 24.0607 16.9999H21.6323ZM22.0712 17.8158H23.6218L23.622 28.9863H22.0714L22.0712 17.8158Z" fill="#2883DF"/>
<path fill-rule="evenodd" clip-rule="evenodd" d="M15.9386 20.2929C15.8222 20.2929 15.7106 20.3359 15.6283 20.4124C15.546 20.4889 15.4998 20.5927 15.4998 20.7009L15.5 29.4078C15.5 29.516 15.5462 29.6198 15.6285 29.6963C15.7108 29.7728 15.8225 29.8157 15.9389 29.8157H18.3672C18.4836 29.8157 18.5952 29.7728 18.6775 29.6963C18.7598 29.6198 18.8061 29.516 18.8061 29.4078L18.8058 20.7009C18.8058 20.5927 18.7596 20.4889 18.6773 20.4124C18.595 20.3359 18.4834 20.2929 18.367 20.2929H15.9386ZM16.3775 21.1088H17.9281L17.9283 28.9999H16.3777L16.3775 21.1088Z" fill="#2883DF"/>
<path fill-rule="evenodd" clip-rule="evenodd" d="M10.4389 22C10.3225 22 10.2108 22.043 10.1285 22.1195C10.0462 22.196 10 22.2997 10 22.4079L10 29.3976C10 29.5058 10.0462 29.6096 10.1285 29.6861C10.2108 29.7626 10.3225 29.8055 10.4389 29.8055H12.8672C12.9836 29.8055 13.0952 29.7626 13.1775 29.6861C13.2598 29.6096 13.3061 29.5058 13.3061 29.3976V22.4079C13.3061 22.3544 13.2947 22.3013 13.2727 22.2518C13.2506 22.2023 13.2183 22.1574 13.1775 22.1195C13.1368 22.0816 13.0884 22.0515 13.0351 22.031C12.9819 22.0105 12.9248 22 12.8672 22H10.4389ZM10.8777 22.8159H12.432V28.9897H10.8777V22.8159Z" fill="#2883DF"/>
<path fill-rule="evenodd" clip-rule="evenodd" d="M27.1323 23.9999C27.0159 23.9999 26.9043 24.0429 26.822 24.1194C26.7397 24.1959 26.6935 24.2997 26.6935 24.4079L26.6937 29.3976C26.6937 29.5058 26.7399 29.6095 26.8222 29.686C26.9045 29.7625 27.0162 29.8055 27.1326 29.8055H29.5609C29.6773 29.8055 29.7889 29.7625 29.8712 29.686C29.9535 29.6095 29.9998 29.5058 29.9998 29.3976L29.9995 24.4079C29.9995 24.3543 29.9882 24.3013 29.9661 24.2518C29.9441 24.2023 29.9117 24.1573 29.871 24.1194C29.8302 24.0815 29.7819 24.0515 29.7286 24.031C29.6754 24.0105 29.6183 23.9999 29.5607 23.9999H27.1323ZM27.5712 24.8158H29.1255L29.1257 28.9897H27.5714L27.5712 24.8158Z" fill="#2883DF"/>
<path fill-rule="evenodd" clip-rule="evenodd" d="M21.6323 16.9999C21.5747 16.9999 21.5176 17.0105 21.4644 17.031C21.4111 17.0515 21.3628 17.0815 21.322 17.1194C21.2813 17.1573 21.2489 17.2023 21.2269 17.2518C21.2048 17.3013 21.1935 17.3543 21.1935 17.4079L21.1937 29.3942C21.1937 29.4478 21.2051 29.5008 21.2271 29.5503C21.2492 29.5998 21.2815 29.6448 21.3222 29.6827C21.363 29.7205 21.4114 29.7506 21.4646 29.7711C21.5179 29.7916 21.5749 29.8021 21.6326 29.8021H24.0609C24.1773 29.8021 24.2889 29.7592 24.3712 29.6827C24.4535 29.6062 24.4998 29.5024 24.4998 29.3942L24.4995 17.4079C24.4995 17.2997 24.4533 17.1959 24.371 17.1194C24.2887 17.0429 24.1771 16.9999 24.0607 16.9999H21.6323ZM22.0712 17.8158H23.6218L23.622 28.9863H22.0714L22.0712 17.8158Z" stroke="#2883DF" stroke-width="0.5"/>
<path fill-rule="evenodd" clip-rule="evenodd" d="M15.9386 20.2929C15.8222 20.2929 15.7106 20.3359 15.6283 20.4124C15.546 20.4889 15.4998 20.5927 15.4998 20.7009L15.5 29.4078C15.5 29.516 15.5462 29.6198 15.6285 29.6963C15.7108 29.7728 15.8225 29.8157 15.9389 29.8157H18.3672C18.4836 29.8157 18.5952 29.7728 18.6775 29.6963C18.7598 29.6198 18.8061 29.516 18.8061 29.4078L18.8058 20.7009C18.8058 20.5927 18.7596 20.4889 18.6773 20.4124C18.595 20.3359 18.4834 20.2929 18.367 20.2929H15.9386ZM16.3775 21.1088H17.9281L17.9283 28.9999H16.3777L16.3775 21.1088Z" stroke="#2883DF" stroke-width="0.5"/>
<path fill-rule="evenodd" clip-rule="evenodd" d="M10.4389 22C10.3225 22 10.2108 22.043 10.1285 22.1195C10.0462 22.196 10 22.2997 10 22.4079L10 29.3976C10 29.5058 10.0462 29.6096 10.1285 29.6861C10.2108 29.7626 10.3225 29.8055 10.4389 29.8055H12.8672C12.9836 29.8055 13.0952 29.7626 13.1775 29.6861C13.2598 29.6096 13.3061 29.5058 13.3061 29.3976V22.4079C13.3061 22.3544 13.2947 22.3013 13.2727 22.2518C13.2506 22.2023 13.2183 22.1574 13.1775 22.1195C13.1368 22.0816 13.0884 22.0515 13.0351 22.031C12.9819 22.0105 12.9248 22 12.8672 22H10.4389ZM10.8777 22.8159H12.432V28.9897H10.8777V22.8159Z" stroke="#2883DF" stroke-width="0.5"/>
<path fill-rule="evenodd" clip-rule="evenodd" d="M27.1323 23.9999C27.0159 23.9999 26.9043 24.0429 26.822 24.1194C26.7397 24.1959 26.6935 24.2997 26.6935 24.4079L26.6937 29.3976C26.6937 29.5058 26.7399 29.6095 26.8222 29.686C26.9045 29.7625 27.0162 29.8055 27.1326 29.8055H29.5609C29.6773 29.8055 29.7889 29.7625 29.8712 29.686C29.9535 29.6095 29.9998 29.5058 29.9998 29.3976L29.9995 24.4079C29.9995 24.3543 29.9882 24.3013 29.9661 24.2518C29.9441 24.2023 29.9117 24.1573 29.871 24.1194C29.8302 24.0815 29.7819 24.0515 29.7286 24.031C29.6754 24.0105 29.6183 23.9999 29.5607 23.9999H27.1323ZM27.5712 24.8158H29.1255L29.1257 28.9897H27.5714L27.5712 24.8158Z" stroke="#2883DF" stroke-width="0.5"/>
<path d="M8 13C8 10.7908 9.79083 9 12 9C14.2092 9 16 10.7908 16 13C16 15.2092 14.2092 17 12 17C9.79083 17 8 15.2092 8 13ZM12.0955 13.2907C12.5912 13.4127 12.7397 13.5743 12.7397 13.8473C12.7397 14.131 12.5488 14.3457 12.0955 14.3802V13.2907ZM11.796 12.6785C11.372 12.5723 11.2128 12.3948 11.2128 12.1535C11.2128 11.9122 11.4143 11.6923 11.7962 11.6447L11.796 12.6785ZM12.0955 12.75V11.6447C12.4348 11.687 12.6733 11.8805 12.7078 12.2147H13.2592C13.238 11.613 12.7582 11.2153 12.0955 11.1622V10.7143H11.796V11.1622C11.128 11.2127 10.651 11.6048 10.651 12.1987C10.651 12.7367 11.0142 13.039 11.6873 13.1953L11.796 13.2218V14.3775C11.3693 14.3325 11.1678 14.1045 11.1202 13.7943H10.5715C10.5898 14.4305 11.1228 14.8095 11.796 14.86V15.3052H12.0955V14.86C12.7715 14.8122 13.3017 14.4438 13.3017 13.7943C13.3017 13.2298 12.92 12.9435 12.2228 12.7818L12.0955 12.75Z" fill="#2883DF"/>
</svg>
