<svg preserveAspectRatio="none" width="100%" height="100%" overflow="visible" style="display: block;" viewBox="0 0 25 25" fill="none" xmlns="http://www.w3.org/2000/svg">
<g id="octicon:sparkles-fill-16" clip-path="url(#clip0_0_409)">
<path id="Vector" d="M14.9999 3.56051C15.0468 3.43247 15.1319 3.32193 15.2437 3.24384C15.3554 3.16574 15.4885 3.12386 15.6249 3.12386C15.7612 3.12386 15.8943 3.16574 16.0061 3.24384C16.1179 3.32193 16.203 3.43247 16.2499 3.56051L16.8858 5.29801C17.3849 6.66039 18.1749 7.89762 19.2009 8.92357C20.2268 9.94952 21.464 10.7395 22.8264 11.2386L24.5639 11.8746C24.692 11.9215 24.8025 12.0066 24.8806 12.1184C24.9587 12.2301 25.0006 12.3632 25.0006 12.4996C25.0006 12.6359 24.9587 12.769 24.8806 12.8808C24.8025 12.9926 24.692 13.0777 24.5639 13.1246L22.8264 13.7605C21.464 14.2596 20.2268 15.0496 19.2009 16.0756C18.1749 17.1015 17.3849 18.3388 16.8858 19.7011L16.2499 21.4386C16.203 21.5667 16.1179 21.6772 16.0061 21.7553C15.8943 21.8334 15.7612 21.8753 15.6249 21.8753C15.4885 21.8753 15.3554 21.8334 15.2437 21.7553C15.1319 21.6772 15.0468 21.5667 14.9999 21.4386L14.3639 19.7011C13.8648 18.3388 13.0748 17.1015 12.0489 16.0756C11.0229 15.0496 9.78568 14.2596 8.4233 13.7605L6.6858 13.1246C6.55776 13.0777 6.44722 12.9926 6.36913 12.8808C6.29103 12.769 6.24915 12.6359 6.24915 12.4996C6.24915 12.3632 6.29103 12.2301 6.36913 12.1184C6.44722 12.0066 6.55776 11.9215 6.6858 11.8746L8.4233 11.2386C9.78568 10.7395 11.0229 9.94952 12.0489 8.92357C13.0748 7.89762 13.8648 6.66039 14.3639 5.29801L14.9999 3.56051ZM8.33268 17.3683C8.35236 17.315 8.38792 17.2689 8.43458 17.2364C8.48124 17.2039 8.53674 17.1865 8.59361 17.1865C8.65048 17.1865 8.70599 17.2039 8.75264 17.2364C8.7993 17.2689 8.83487 17.315 8.85455 17.3683L9.11861 18.0933C9.32634 18.661 9.65541 19.1766 10.0829 19.6041C10.5103 20.0315 11.0259 20.3606 11.5936 20.5683L12.3186 20.8324C12.372 20.8521 12.418 20.8876 12.4505 20.9343C12.483 20.9809 12.5005 21.0365 12.5005 21.0933C12.5005 21.1502 12.483 21.2057 12.4505 21.2524C12.418 21.299 12.372 21.3346 12.3186 21.3543L11.5936 21.6183C11.0259 21.826 10.5103 22.1551 10.0829 22.5826C9.65541 23.01 9.32634 23.5256 9.11861 24.0933L8.85455 24.8183C8.83487 24.8717 8.7993 24.9177 8.75264 24.9502C8.70599 24.9828 8.65048 25.0002 8.59361 25.0002C8.53674 25.0002 8.48124 24.9828 8.43458 24.9502C8.38792 24.9177 8.35236 24.8717 8.33268 24.8183L8.06861 24.0933C7.86089 23.5256 7.53182 23.01 7.10435 22.5826C6.67689 22.1551 6.16133 21.826 5.59361 21.6183L4.86861 21.3543C4.81526 21.3346 4.76922 21.299 4.7367 21.2524C4.70418 21.2057 4.68674 21.1502 4.68674 21.0933C4.68674 21.0365 4.70418 20.9809 4.7367 20.9343C4.76922 20.8876 4.81526 20.8521 4.86861 20.8324L5.59361 20.5683C6.16133 20.3606 6.67689 20.0315 7.10435 19.6041C7.53182 19.1766 7.86089 18.661 8.06861 18.0933L8.33268 17.3683ZM4.37486 0.218323C4.39832 0.154304 4.44087 0.0990339 4.49676 0.0599867C4.55265 0.0209396 4.61918 0 4.68736 0C4.75554 0 4.82208 0.0209396 4.87797 0.0599867C4.93386 0.0990339 4.97641 0.154304 4.99986 0.218323L5.31705 1.08707C5.56706 1.768 5.96223 2.38637 6.47515 2.89929C6.98806 3.4122 7.60644 3.80738 8.28736 4.05739L9.15611 4.37457C9.22013 4.39803 9.2754 4.44058 9.31445 4.49647C9.3535 4.55236 9.37444 4.61889 9.37444 4.68707C9.37444 4.75525 9.3535 4.82179 9.31445 4.87768C9.2754 4.93357 9.22013 4.97612 9.15611 4.99957L8.28736 5.31676C7.60644 5.56677 6.98806 5.96194 6.47515 6.47486C5.96223 6.98777 5.56706 7.60615 5.31705 8.28707L4.99986 9.15582C4.97641 9.21984 4.93386 9.27511 4.87797 9.31416C4.82208 9.35321 4.75554 9.37415 4.68736 9.37415C4.61918 9.37415 4.55265 9.35321 4.49676 9.31416C4.44087 9.27511 4.39832 9.21984 4.37486 9.15582L4.05767 8.28707C3.80767 7.60615 3.41249 6.98777 2.89958 6.47486C2.38666 5.96194 1.76829 5.56677 1.08736 5.31676L0.218613 4.99957C0.154594 4.97612 0.0993238 4.93357 0.0602767 4.87768C0.0212296 4.82179 0.000289917 4.75525 0.000289917 4.68707C0.000289917 4.61889 0.0212296 4.55236 0.0602767 4.49647C0.0993238 4.44058 0.154594 4.39803 0.218613 4.37457L1.08736 4.05739C1.76829 3.80738 2.38666 3.4122 2.89958 2.89929C3.41249 2.38637 3.80767 1.768 4.05767 1.08707L4.37486 0.218323Z" fill="url(#paint0_linear_0_409)" stroke="url(#paint1_linear_0_409)" stroke-opacity="0.05"/>
</g>
<defs>
<linearGradient id="paint0_linear_0_409" x1="0.000289917" y1="12.5001" x2="25.0006" y2="12.5001" gradientUnits="userSpaceOnUse">
<stop stop-color="#8F03A0"/>
<stop offset="1" stop-color="#4D28DF"/>
</linearGradient>
<linearGradient id="paint1_linear_0_409" x1="0.00029001" y1="12.5001" x2="25.0006" y2="12.5001" gradientUnits="userSpaceOnUse">
<stop stop-color="#8F03A0"/>
<stop offset="1" stop-color="#4D28DF"/>
</linearGradient>
<clipPath id="clip0_0_409">
<rect width="25" height="25" fill="white"/>
</clipPath>
</defs>
</svg>
