<svg preserveAspectRatio="none" width="100%" height="100%" overflow="visible" style="display: block;" viewBox="0 0 48 48" fill="none" xmlns="http://www.w3.org/2000/svg">
<g id="iconamoon:search">
<path id="Vector" d="M41.9994 42.0004L33.3134 33.3144M33.3134 33.3144C34.7992 31.8286 35.9778 30.0648 36.7819 28.1235C37.586 26.1822 37.9998 24.1016 37.9998 22.0004C37.9998 19.8992 37.586 17.8186 36.7819 15.8773C35.9778 13.9361 34.7992 12.1722 33.3134 10.6864C31.8277 9.20064 30.0638 8.02205 28.1225 7.21796C26.1813 6.41386 24.1006 6 21.9994 6C19.8982 6 17.8176 6.41386 15.8763 7.21796C13.9351 8.02205 12.1712 9.20064 10.6854 10.6864C7.68478 13.6871 5.99902 17.7568 5.99902 22.0004C5.99902 26.244 7.68478 30.3138 10.6854 33.3144C13.6861 36.3151 17.7559 38.0008 21.9994 38.0008C26.243 38.0008 30.3128 36.3151 33.3134 33.3144Z" stroke="url(#paint0_linear_0_639)" stroke-width="3"/>
</g>
<defs>
<linearGradient id="paint0_linear_0_639" x1="5.99902" y1="24.0002" x2="41.9994" y2="24.0002" gradientUnits="userSpaceOnUse">
<stop stop-color="#8F03A0"/>
<stop offset="1" stop-color="#4D28DF"/>
</linearGradient>
</defs>
</svg>
