<svg preserveAspectRatio="none" width="100%" height="100%" overflow="visible" style="display: block;" viewBox="0 0 27 27" fill="none" xmlns="http://www.w3.org/2000/svg">
<g id="uil:search">
<path id="Vector" d="M24.4237 22.8265L20.2499 18.6865C21.8701 16.6665 22.6546 14.1025 22.4424 11.5217C22.2301 8.94098 21.0371 6.53965 19.1087 4.81149C17.1802 3.08333 14.663 2.15971 12.0745 2.23054C9.48599 2.30137 7.02301 3.36127 5.19198 5.1923C3.36095 7.02333 2.30106 9.48631 2.23022 12.0748C2.15939 14.6633 3.08301 17.1806 4.81117 19.109C6.53933 21.0374 8.94066 22.2304 11.5214 22.4427C14.1022 22.655 16.6662 21.8704 18.6862 20.2503L22.8262 24.3903C22.9308 24.4957 23.0552 24.5794 23.1923 24.6365C23.3294 24.6936 23.4764 24.723 23.6249 24.723C23.7735 24.723 23.9205 24.6936 24.0576 24.6365C24.1947 24.5794 24.3191 24.4957 24.4237 24.3903C24.6265 24.1805 24.7398 23.9001 24.7398 23.6084C24.7398 23.3166 24.6265 23.0363 24.4237 22.8265ZM12.3749 20.2503C10.8174 20.2503 9.29487 19.7884 7.99983 18.9231C6.70479 18.0578 5.69543 16.8279 5.09939 15.3889C4.50335 13.9499 4.3474 12.3665 4.65126 10.8389C4.95512 9.31133 5.70514 7.90814 6.80648 6.8068C7.90782 5.70546 9.31101 4.95544 10.8386 4.65158C12.3662 4.34772 13.9496 4.50367 15.3886 5.09971C16.8275 5.69575 18.0575 6.70511 18.9228 8.00015C19.7881 9.29519 20.2499 10.8177 20.2499 12.3753C20.2499 14.4638 19.4203 16.4669 17.9434 17.9437C16.4666 19.4206 14.4635 20.2503 12.3749 20.2503Z" fill="var(--fill-0, white)"/>
</g>
</svg>
