<svg width="25" height="25" viewBox="0 0 25 25" fill="none" xmlns="http://www.w3.org/2000/svg">
    <g clip-path="url(#clip0_1451_3899)">
        <path
            d="M14.9996 3.56051C15.0465 3.43247 15.1316 3.32193 15.2434 3.24384C15.3551 3.16574 15.4882 3.12386 15.6246 3.12386C15.7609 3.12386 15.894 3.16574 16.0058 3.24384C16.1176 3.32193 16.2027 3.43247 16.2496 3.56051L16.8855 5.29801C17.3846 6.66039 18.1746 7.89762 19.2006 8.92357C20.2265 9.94952 21.4638 10.7395 22.8261 11.2386L24.5636 11.8746C24.6917 11.9215 24.8022 12.0066 24.8803 12.1184C24.9584 12.2301 25.0003 12.3632 25.0003 12.4996C25.0003 12.6359 24.9584 12.769 24.8803 12.8808C24.8022 12.9926 24.6917 13.0777 24.5636 13.1246L22.8261 13.7605C21.4638 14.2596 20.2265 15.0496 19.2006 16.0756C18.1746 17.1015 17.3846 18.3388 16.8855 19.7011L16.2496 21.4386C16.2027 21.5667 16.1176 21.6772 16.0058 21.7553C15.894 21.8334 15.7609 21.8753 15.6246 21.8753C15.4882 21.8753 15.3551 21.8334 15.2434 21.7553C15.1316 21.6772 15.0465 21.5667 14.9996 21.4386L14.3636 19.7011C13.8645 18.3388 13.0745 17.1015 12.0486 16.0756C11.0226 15.0496 9.78539 14.2596 8.42301 13.7605L6.68551 13.1246C6.55747 13.0777 6.44693 12.9926 6.36884 12.8808C6.29074 12.769 6.24887 12.6359 6.24887 12.4996C6.24887 12.3632 6.29074 12.2301 6.36884 12.1184C6.44693 12.0066 6.55747 11.9215 6.68551 11.8746L8.42301 11.2386C9.78539 10.7395 11.0226 9.94952 12.0486 8.92357C13.0745 7.89762 13.8645 6.66039 14.3636 5.29801L14.9996 3.56051ZM8.33239 17.3683C8.35207 17.315 8.38763 17.2689 8.43429 17.2364C8.48095 17.2039 8.53645 17.1865 8.59332 17.1865C8.65019 17.1865 8.7057 17.2039 8.75235 17.2364C8.79901 17.2689 8.83458 17.315 8.85426 17.3683L9.11832 18.0933C9.32605 18.661 9.65512 19.1766 10.0826 19.6041C10.51 20.0315 11.0256 20.3606 11.5933 20.5683L12.3183 20.8324C12.3717 20.8521 12.4177 20.8876 12.4502 20.9343C12.4828 20.9809 12.5002 21.0365 12.5002 21.0933C12.5002 21.1502 12.4828 21.2057 12.4502 21.2524C12.4177 21.299 12.3717 21.3346 12.3183 21.3543L11.5933 21.6183C11.0256 21.826 10.51 22.1551 10.0826 22.5826C9.65512 23.01 9.32605 23.5256 9.11832 24.0933L8.85426 24.8183C8.83458 24.8717 8.79901 24.9177 8.75235 24.9502C8.7057 24.9828 8.65019 25.0002 8.59332 25.0002C8.53645 25.0002 8.48095 24.9828 8.43429 24.9502C8.38763 24.9177 8.35207 24.8717 8.33239 24.8183L8.06832 24.0933C7.8606 23.5256 7.53153 23.01 7.10406 22.5826C6.6766 22.1551 6.16104 21.826 5.59332 21.6183L4.86832 21.3543C4.81497 21.3346 4.76893 21.299 4.73641 21.2524C4.70389 21.2057 4.68645 21.1502 4.68645 21.0933C4.68645 21.0365 4.70389 20.9809 4.73641 20.9343C4.76893 20.8876 4.81497 20.8521 4.86832 20.8324L5.59332 20.5683C6.16104 20.3606 6.6766 20.0315 7.10406 19.6041C7.53153 19.1766 7.8606 18.661 8.06832 18.0933L8.33239 17.3683ZM4.37457 0.218323C4.39803 0.154304 4.44058 0.0990338 4.49647 0.0599867C4.55236 0.0209396 4.61889 0 4.68707 0C4.75525 0 4.82179 0.0209396 4.87768 0.0599867C4.93357 0.0990338 4.97612 0.154304 4.99957 0.218323L5.31676 1.08707C5.56677 1.768 5.96194 2.38637 6.47486 2.89929C6.98777 3.4122 7.60615 3.80738 8.28707 4.05738L9.15582 4.37457C9.21984 4.39803 9.27511 4.44058 9.31416 4.49647C9.35321 4.55236 9.37415 4.61889 9.37415 4.68707C9.37415 4.75525 9.35321 4.82179 9.31416 4.87768C9.27511 4.93357 9.21984 4.97612 9.15582 4.99957L8.28707 5.31676C7.60615 5.56677 6.98777 5.96194 6.47486 6.47486C5.96194 6.98777 5.56677 7.60615 5.31676 8.28707L4.99957 9.15582C4.97612 9.21984 4.93357 9.27511 4.87768 9.31416C4.82179 9.35321 4.75525 9.37415 4.68707 9.37415C4.61889 9.37415 4.55236 9.35321 4.49647 9.31416C4.44058 9.27511 4.39803 9.21984 4.37457 9.15582L4.05738 8.28707C3.80738 7.60615 3.4122 6.98777 2.89929 6.47486C2.38637 5.96194 1.768 5.56677 1.08707 5.31676L0.218323 4.99957C0.154304 4.97612 0.0990338 4.93357 0.0599867 4.87768C0.0209396 4.82179 0 4.75525 0 4.68707C0 4.61889 0.0209396 4.55236 0.0599867 4.49647C0.0990338 4.44058 0.154304 4.39803 0.218323 4.37457L1.08707 4.05738C1.768 3.80738 2.38637 3.4122 2.89929 2.89929C3.4122 2.38637 3.80738 1.768 4.05738 1.08707L4.37457 0.218323Z"
            fill="url(#paint0_linear_1451_3899)" stroke="url(#paint1_linear_1451_3899)" stroke-opacity="0.05" />
    </g>
    <defs>
        <linearGradient id="paint0_linear_1451_3899" x1="0" y1="12.5001" x2="25.0003" y2="12.5001"
            gradientUnits="userSpaceOnUse">
            <stop stop-color="#8F03A0" />
            <stop offset="1" stop-color="#4D28DF" />
        </linearGradient>
        <linearGradient id="paint1_linear_1451_3899" x1="9.31333e-08" y1="12.5001" x2="25.0003" y2="12.5001"
            gradientUnits="userSpaceOnUse">
            <stop stop-color="#8F03A0" />
            <stop offset="1" stop-color="#4D28DF" />
        </linearGradient>
        <clipPath id="clip0_1451_3899">
            <rect width="25" height="25" fill="white" />
        </clipPath>
    </defs>
</svg>