<svg width="20" height="20" viewBox="0 0 20 20" fill="none" xmlns="http://www.w3.org/2000/svg">
  <path d="M14.1667 2.5H5.83333C4.00888 2.5 2.5 4.00888 2.5 5.83333V14.1667C2.5 15.9911 4.00888 17.5 5.83333 17.5H14.1667C15.9911 17.5 17.5 15.9911 17.5 14.1667V5.83333C17.5 4.00888 15.9911 2.5 14.1667 2.5Z" stroke="white" stroke-width="1.5" stroke-linecap="round" stroke-linejoin="round"/>
  <path d="M13.3334 9.47501C13.4362 10.1685 13.3178 10.8769 12.9947 11.4992C12.6715 12.1215 12.1609 12.6321 11.5386 12.9553C10.9163 13.2784 10.2079 13.3968 9.51444 13.294C8.82099 13.1912 8.17815 12.8726 7.67898 12.3734C7.17982 11.8743 6.86119 11.2314 6.75837 10.538C6.65555 9.84452 6.77397 9.13612 7.09713 8.51385C7.42029 7.89157 7.93089 7.38097 8.55317 7.05781C9.17544 6.73465 9.88384 6.61623 10.5773 6.71905C11.2866 6.82415 11.9465 7.14543 12.4559 7.65484C12.9653 8.16425 13.2866 8.82415 13.3917 9.53342L13.3334 9.47501Z" stroke="white" stroke-width="1.5" stroke-linecap="round" stroke-linejoin="round"/>
  <path d="M14.5834 5.41667H14.5917" stroke="white" stroke-width="2" stroke-linecap="round" stroke-linejoin="round"/>
</svg>