<svg width="20" height="20" viewBox="0 0 20 20" fill="none" xmlns="http://www.w3.org/2000/svg">
  <path d="M13.3333 6.66667C14.6594 6.66667 15.9312 7.19346 16.8689 8.13114C17.8066 9.06883 18.3333 10.3406 18.3333 11.6667V17.5H15V11.6667C15 11.2246 14.8244 10.8007 14.5118 10.4882C14.1993 10.1756 13.7754 10 13.3333 10C12.8913 10 12.4674 10.1756 12.1548 10.4882C11.8423 10.8007 11.6667 11.2246 11.6667 11.6667V17.5H8.33333V11.6667C8.33333 10.3406 8.86012 9.06883 9.7978 8.13114C10.7355 7.19346 12.0072 6.66667 13.3333 6.66667V6.66667Z" stroke="white" stroke-width="1.5" stroke-linecap="round" stroke-linejoin="round"/>
  <path d="M4.99996 7.5H1.66663V17.5H4.99996V7.5Z" stroke="white" stroke-width="1.5" stroke-linecap="round" stroke-linejoin="round"/>
  <path d="M3.33329 5C4.25376 5 4.99996 4.25381 4.99996 3.33334C4.99996 2.41286 4.25376 1.66667 3.33329 1.66667C2.41282 1.66667 1.66663 2.41286 1.66663 3.33334C1.66663 4.25381 2.41282 5 3.33329 5Z" stroke="white" stroke-width="1.5" stroke-linecap="round" stroke-linejoin="round"/>
</svg>