<svg width="20" height="20" viewBox="0 0 20 20" fill="none" xmlns="http://www.w3.org/2000/svg">
  <path d="M19.1668 2.50001C18.3688 3.06001 17.4851 3.49335 16.5502 3.77501C16.0483 3.19836 15.3813 2.78732 14.6394 2.60001C13.8974 2.4127 13.1164 2.46146 12.4077 2.73931C11.699 3.01715 11.1001 3.51083 10.6992 4.14837C10.2983 4.78591 10.1173 5.53525 10.1835 6.27918V7.11251C8.62489 7.15755 7.08335 6.81503 5.69668 6.11737C4.31002 5.4197 3.12258 4.38739 2.2502 3.11251C2.2502 3.11251 -1.08313 10.9458 6.75019 14.4458C4.9585 15.6938 2.81806 16.3195 0.666855 16.2292C8.50019 20.5625 18.0835 16.2292 18.0835 6.25001C18.0827 6.01788 18.0595 5.78641 18.0168 5.55835C18.8708 4.71959 19.4835 3.67151 19.1668 2.50001V2.50001Z" stroke="white" stroke-width="1.5" stroke-linecap="round" stroke-linejoin="round"/>
</svg>