<svg width="32" height="32" viewBox="0 0 32 32" fill="none" xmlns="http://www.w3.org/2000/svg">
<path d="M6.66658 24H3.99992C3.29267 24 2.6144 23.719 2.1143 23.219C1.6142 22.7189 1.33325 22.0406 1.33325 21.3333V10.6667C1.33325 9.95942 1.6142 9.28115 2.1143 8.78105C2.6144 8.28095 3.29267 8 3.99992 8H8.25325M19.9999 8H22.6666C23.3738 8 24.0521 8.28095 24.5522 8.78105C25.0523 9.28115 25.3333 9.95942 25.3333 10.6667V21.3333C25.3333 22.0406 25.0523 22.7189 24.5522 23.219C24.0521 23.719 23.3738 24 22.6666 24H18.4133M30.6666 17.3333V14.6667M14.6666 8L9.33325 16H17.3333L11.9999 24" stroke="#005EA2" stroke-width="1.5" stroke-linecap="round" stroke-linejoin="round"/>
</svg>
