<svg width="51" height="54" viewBox="0 0 51 54" fill="none" xmlns="http://www.w3.org/2000/svg">
    <path
        d="M21.9432 43.8746C34.0621 43.8746 43.8864 34.053 43.8864 21.9373C43.8864 9.82168 34.0621 0 21.9432 0C9.82431 0 0 9.82168 0 21.9373C0 34.053 9.82431 43.8746 21.9432 43.8746Z"
        fill="url(#paint0_linear_248_108)" />
    <path
        d="M28.8714 53.9438C40.9903 53.9438 50.8146 44.1222 50.8146 32.0065C50.8146 19.8909 40.9903 10.0692 28.8714 10.0692C16.7525 10.0692 6.92822 19.8909 6.92822 32.0065C6.92822 44.1222 16.7525 53.9438 28.8714 53.9438Z"
        fill="url(#paint1_linear_248_108)" />
    <defs>
        <linearGradient id="paint0_linear_248_108" x1="43.7705" y1="19.642" x2="0.13041" y2="24.2839"
            gradientUnits="userSpaceOnUse">
            <stop stop-color="white" stop-opacity="0" />
            <stop offset="0.94" stop-color="#8F03A0" />
        </linearGradient>
        <linearGradient id="paint1_linear_248_108" x1="50.6975" y1="29.7099" x2="7.05739" y2="34.3518"
            gradientUnits="userSpaceOnUse">
            <stop stop-color="#6EF1BB" />
            <stop offset="1" stop-color="white" stop-opacity="0" />
        </linearGradient>
    </defs>
</svg>