<svg width="241" height="54" viewBox="0 0 241 54" fill="none" xmlns="http://www.w3.org/2000/svg">
<path d="M88.1348 35.0934L78.3449 14.9129H71.8203V39.1307H75.8958V18.9873L85.8404 39.1307H90.3983L100.343 18.9564V39.1307H104.412V14.9129H97.8876L88.1348 35.0934Z" fill="#111A53"/>
<path d="M128.636 25.6338C127.82 23.9768 126.664 22.6908 125.167 21.7757C123.67 20.8607 121.902 20.4032 119.855 20.4032C117.808 20.4032 115.996 20.805 114.412 21.615C112.829 22.4249 111.592 23.544 110.695 24.9722C109.799 26.4066 109.353 28.0698 109.353 29.9617C109.353 31.8536 109.83 33.5601 110.776 35.0007C111.722 36.4412 113.027 37.5665 114.684 38.3764C116.342 39.1864 118.234 39.5883 120.368 39.5883C122.025 39.5883 123.658 39.3409 125.26 38.8463C126.862 38.3517 128.222 37.6716 129.348 36.8122V33.7765C128.228 34.574 126.936 35.1923 125.47 35.6313C124.004 36.0703 122.576 36.2929 121.172 36.2929C119.62 36.2929 118.284 36.027 117.152 35.5015C116.02 34.9759 115.148 34.2154 114.536 33.2262C114.208 32.7007 113.973 32.1133 113.825 31.4827H129.867C129.867 29.2445 129.459 27.2969 128.636 25.64V25.6338ZM116.54 24.4405C117.455 23.9459 118.525 23.6986 119.756 23.6986C120.918 23.6986 121.926 23.9273 122.774 24.391C123.621 24.8547 124.301 25.5163 124.808 26.3757C125.136 26.9383 125.365 27.5752 125.507 28.28H113.763C113.887 27.637 114.091 27.0496 114.394 26.5179C114.913 25.6276 115.624 24.9289 116.54 24.4343V24.4405Z" fill="#111A53"/>
<path d="M150.702 21.4357C149.496 20.7494 148.031 20.4032 146.311 20.4032C144.759 20.4032 143.361 20.7618 142.112 21.4851C140.863 22.2085 139.843 23.2349 139.045 24.5703C138.909 24.7929 138.797 25.034 138.686 25.2752L137.95 20.8545H133.751L134.852 26.8271V39.1307H139.051V30.2152C139.051 28.9477 139.292 27.8348 139.775 26.8889C140.257 25.9429 140.95 25.2072 141.84 24.6754C142.737 24.1499 143.77 23.8841 144.957 23.8841C146.676 23.8841 147.987 24.3725 148.884 25.3556C149.775 26.3386 150.226 27.7854 150.226 29.6959V39.1246H154.425V29.0157C154.425 27.2104 154.11 25.6647 153.473 24.3849C152.836 23.105 151.915 22.122 150.709 21.4295L150.702 21.4357Z" fill="#111A53"/>
<path d="M196.467 25.6338C195.651 23.9768 194.494 22.6908 192.998 21.7757C191.501 20.8607 189.732 20.4032 187.685 20.4032C185.638 20.4032 183.826 20.805 182.243 21.615C180.66 22.4249 179.423 23.544 178.526 24.9722C177.63 26.4066 177.184 28.0698 177.184 29.9617C177.184 31.8536 177.66 33.5601 178.607 35.0007C179.553 36.4412 180.858 37.5665 182.515 38.3764C184.173 39.1864 186.065 39.5883 188.199 39.5883C189.856 39.5883 191.489 39.3409 193.091 38.8463C194.692 38.3517 196.053 37.6716 197.178 36.8122V33.7765C196.059 34.574 194.767 35.1923 193.301 35.6313C191.835 36.0703 190.407 36.2929 189.003 36.2929C187.45 36.2929 186.115 36.027 184.983 35.5015C183.851 34.9759 182.979 34.2154 182.367 33.2262C182.039 32.7007 181.804 32.1133 181.656 31.4827H197.698C197.698 29.2445 197.29 27.2969 196.467 25.64V25.6338ZM184.371 24.4405C185.286 23.9459 186.356 23.6986 187.586 23.6986C188.749 23.6986 189.757 23.9273 190.604 24.391C191.452 24.8547 192.132 25.5163 192.639 26.3757C192.967 26.9383 193.196 27.5752 193.338 28.28H181.594C181.717 27.637 181.922 27.0496 182.225 26.5179C182.744 25.6276 183.455 24.9289 184.371 24.4343V24.4405Z" fill="#111A53"/>
<path d="M213.623 20.4032C212.398 20.4032 211.316 20.6381 210.395 21.1142C209.467 21.5903 208.688 22.2456 208.051 23.0865C207.438 23.8964 206.962 24.8486 206.61 25.9244L205.775 20.8545H201.576L202.676 26.6972V39.1307H206.876V30.8644C206.876 29.3805 207.135 28.1254 207.667 27.1053C208.193 26.0851 208.923 25.3123 209.85 24.7991C210.778 24.2859 211.829 24.0263 213.017 24.0263C213.512 24.0263 214.037 24.0572 214.6 24.1252C215.157 24.187 215.676 24.2859 216.152 24.4158V20.737C215.806 20.6319 215.41 20.5516 214.959 20.4959C214.507 20.4403 214.062 20.4155 213.635 20.4155L213.623 20.4032Z" fill="#111A53"/>
<path d="M240.785 20.8545H236.456L235.986 25.3679C235.899 25.2257 235.825 25.0773 235.732 24.9351C234.774 23.5007 233.599 22.3878 232.213 21.5902C230.822 20.7927 229.282 20.397 227.581 20.397C225.794 20.397 224.211 20.7989 222.831 21.6088C221.452 22.4187 220.376 23.5378 219.603 24.966C218.83 26.4004 218.441 28.0698 218.441 29.9864C218.441 31.9031 218.83 33.5477 219.603 34.9945C220.376 36.4351 221.452 37.5603 222.831 38.3703C224.211 39.1802 225.794 39.5821 227.581 39.5821C229.368 39.5821 230.828 39.1802 232.213 38.3888C233.605 37.5912 234.774 36.4721 235.72 35.0316C235.813 34.8894 235.893 34.7286 235.986 34.5802L236.462 39.1369H240.791L239.82 29.9988L240.791 20.8607L240.785 20.8545ZM234.44 33.2386C233.673 34.1722 232.795 34.9079 231.805 35.4334C230.816 35.959 229.739 36.2248 228.577 36.2248C227.414 36.2248 226.425 35.959 225.54 35.4334C224.656 34.9079 223.963 34.1722 223.456 33.2386C222.949 32.2988 222.695 31.223 222.695 29.9926C222.695 28.7622 222.949 27.6864 223.456 26.7467C223.963 25.8069 224.656 25.0773 225.54 24.5518C226.425 24.0263 227.433 23.7604 228.577 23.7604C229.721 23.7604 230.816 24.0263 231.805 24.5518C232.795 25.0773 233.673 25.8131 234.44 26.7467C235.2 27.6803 235.813 28.7622 236.264 29.9926C235.813 31.223 235.2 32.2988 234.44 33.2386Z" fill="#111A53"/>
<path d="M174.185 20.8545H165.687V24.0819H174.185V20.8545Z" fill="#111A53"/>
<path d="M164.017 19.1913V14.4121H161.562L159.818 19.5128L155.91 20.5144V22.4187H159.818H164.017V19.1913Z" fill="#BD05DD"/>
<path d="M172.404 35.823C171.674 36.027 170.833 36.1321 169.887 36.1321C168.402 36.1321 167.326 35.823 166.671 35.2109C166.015 34.5988 165.687 33.5292 165.687 31.9958V24.0819H161.488V32.6388C161.488 33.9929 161.742 35.1923 162.249 36.2372C162.756 37.2821 163.56 38.0982 164.655 38.6918C165.749 39.2853 167.196 39.5821 168.984 39.5821C170.06 39.5821 171.111 39.4523 172.132 39.1926C173.152 38.9329 173.944 38.667 174.506 38.3826V34.9265C173.839 35.316 173.14 35.6128 172.404 35.8168V35.823Z" fill="#111A53"/>
<path d="M88.1348 35.0934L78.3449 14.9129H71.8203V39.1307H75.8958V18.9873L85.8404 39.1307H90.3983L100.343 18.9564V39.1307H104.412V14.9129H97.8876L88.1348 35.0934Z" fill="#111A53"/>
<path d="M128.636 25.6338C127.82 23.9768 126.664 22.6908 125.167 21.7757C123.67 20.8607 121.902 20.4032 119.855 20.4032C117.808 20.4032 115.996 20.805 114.412 21.615C112.829 22.4249 111.592 23.544 110.695 24.9722C109.799 26.4066 109.353 28.0698 109.353 29.9617C109.353 31.8536 109.83 33.5601 110.776 35.0007C111.722 36.4412 113.027 37.5665 114.684 38.3764C116.342 39.1864 118.234 39.5883 120.368 39.5883C122.025 39.5883 123.658 39.341 125.26 38.8463C126.862 38.3517 128.222 37.6716 129.348 36.8122V33.7765C128.228 34.574 126.936 35.1923 125.47 35.6313C124.004 36.0703 122.576 36.2929 121.172 36.2929C119.62 36.2929 118.284 36.027 117.152 35.5015C116.02 34.9759 115.148 34.2154 114.536 33.2262C114.208 32.7007 113.973 32.1133 113.825 31.4827H129.867C129.867 29.2445 129.459 27.2969 128.636 25.64V25.6338ZM116.54 24.4405C117.455 23.9459 118.525 23.6986 119.756 23.6986C120.918 23.6986 121.926 23.9273 122.774 24.391C123.621 24.8548 124.301 25.5163 124.808 26.3757C125.136 26.9383 125.365 27.5752 125.507 28.28H113.763C113.887 27.637 114.091 27.0496 114.394 26.5179C114.913 25.6276 115.624 24.9289 116.54 24.4343V24.4405Z" fill="#111A53"/>
<path d="M150.702 21.4357C149.496 20.7494 148.031 20.4032 146.311 20.4032C144.759 20.4032 143.361 20.7618 142.112 21.4851C140.863 22.2085 139.843 23.2349 139.045 24.5703C138.909 24.7929 138.797 25.034 138.686 25.2752L137.95 20.8545H133.751L134.852 26.8271V39.1307H139.051V30.2152C139.051 28.9477 139.292 27.8348 139.775 26.8889C140.257 25.9429 140.95 25.2072 141.84 24.6754C142.737 24.1499 143.77 23.8841 144.957 23.8841C146.676 23.8841 147.987 24.3725 148.884 25.3556C149.775 26.3386 150.226 27.7854 150.226 29.6959V39.1246H154.425V29.0157C154.425 27.2104 154.11 25.6647 153.473 24.3849C152.836 23.105 151.915 22.122 150.709 21.4295L150.702 21.4357Z" fill="#111A53"/>
<path d="M196.467 25.6338C195.651 23.9768 194.494 22.6908 192.998 21.7757C191.501 20.8607 189.732 20.4032 187.685 20.4032C185.638 20.4032 183.826 20.805 182.243 21.615C180.66 22.4249 179.423 23.544 178.526 24.9722C177.63 26.4066 177.184 28.0698 177.184 29.9617C177.184 31.8536 177.66 33.5601 178.607 35.0007C179.553 36.4412 180.858 37.5665 182.515 38.3764C184.173 39.1864 186.065 39.5883 188.199 39.5883C189.856 39.5883 191.489 39.341 193.091 38.8463C194.692 38.3517 196.053 37.6716 197.178 36.8122V33.7765C196.059 34.574 194.767 35.1923 193.301 35.6313C191.835 36.0703 190.407 36.2929 189.003 36.2929C187.45 36.2929 186.115 36.027 184.983 35.5015C183.851 34.9759 182.979 34.2154 182.367 33.2262C182.039 32.7007 181.804 32.1133 181.656 31.4827H197.698C197.698 29.2445 197.29 27.2969 196.467 25.64V25.6338ZM184.371 24.4405C185.286 23.9459 186.356 23.6986 187.586 23.6986C188.749 23.6986 189.757 23.9273 190.604 24.391C191.452 24.8548 192.132 25.5163 192.639 26.3757C192.967 26.9383 193.196 27.5752 193.338 28.28H181.594C181.717 27.637 181.922 27.0496 182.225 26.5179C182.744 25.6276 183.455 24.9289 184.371 24.4343V24.4405Z" fill="#111A53"/>
<path d="M213.623 20.4032C212.398 20.4032 211.316 20.6381 210.395 21.1142C209.467 21.5903 208.688 22.2456 208.051 23.0865C207.438 23.8964 206.962 24.8486 206.61 25.9244L205.775 20.8545H201.576L202.676 26.6972V39.1307H206.876V30.8644C206.876 29.3805 207.135 28.1254 207.667 27.1053C208.193 26.0851 208.923 25.3123 209.85 24.7991C210.778 24.2859 211.829 24.0263 213.017 24.0263C213.512 24.0263 214.037 24.0572 214.6 24.1252C215.157 24.187 215.676 24.2859 216.152 24.4158V20.737C215.806 20.6319 215.41 20.5516 214.959 20.4959C214.507 20.4403 214.062 20.4155 213.635 20.4155L213.623 20.4032Z" fill="#111A53"/>
<path d="M240.785 20.8545H236.456L235.986 25.3679C235.899 25.2257 235.825 25.0773 235.732 24.9351C234.774 23.5007 233.599 22.3878 232.213 21.5902C230.822 20.7927 229.282 20.397 227.581 20.397C225.794 20.397 224.211 20.7989 222.831 21.6088C221.452 22.4187 220.376 23.5378 219.603 24.966C218.83 26.4004 218.441 28.0698 218.441 29.9864C218.441 31.9031 218.83 33.5477 219.603 34.9945C220.376 36.4351 221.452 37.5603 222.831 38.3703C224.211 39.1802 225.794 39.5821 227.581 39.5821C229.368 39.5821 230.828 39.1802 232.213 38.3888C233.605 37.5912 234.774 36.4721 235.72 35.0316C235.813 34.8894 235.893 34.7286 235.986 34.5802L236.462 39.1369H240.791L239.82 29.9988L240.791 20.8607L240.785 20.8545ZM234.44 33.2386C233.673 34.1722 232.795 34.9079 231.805 35.4334C230.816 35.959 229.739 36.2248 228.577 36.2248C227.414 36.2248 226.425 35.959 225.54 35.4334C224.656 34.9079 223.963 34.1722 223.456 33.2386C222.949 32.2988 222.695 31.223 222.695 29.9926C222.695 28.7622 222.949 27.6864 223.456 26.7467C223.963 25.8069 224.656 25.0773 225.54 24.5518C226.425 24.0263 227.433 23.7604 228.577 23.7604C229.721 23.7604 230.816 24.0263 231.805 24.5518C232.795 25.0773 233.673 25.8131 234.44 26.7467C235.2 27.6803 235.813 28.7622 236.264 29.9926C235.813 31.223 235.2 32.2988 234.44 33.2386Z" fill="#111A53"/>
<path d="M174.185 20.8545H165.687V24.0819H174.185V20.8545Z" fill="#111A53"/>
<path d="M164.017 19.1913V14.4121H161.562L159.818 19.5128L155.91 20.5144V22.4187H159.818H164.017V19.1913Z" fill="#BD05DD"/>
<path d="M172.404 35.823C171.674 36.027 170.833 36.1321 169.887 36.1321C168.402 36.1321 167.326 35.823 166.671 35.2109C166.015 34.5988 165.687 33.5292 165.687 31.9958V24.0819H161.488V32.6388C161.488 33.9929 161.742 35.1923 162.249 36.2372C162.756 37.2821 163.56 38.0982 164.655 38.6918C165.749 39.2853 167.196 39.5821 168.984 39.5821C170.06 39.5821 171.111 39.4523 172.132 39.1926C173.152 38.9329 173.944 38.667 174.506 38.3826V34.9265C173.839 35.316 173.14 35.6128 172.404 35.8168V35.823Z" fill="#111A53"/>
<path d="M21.9661 43.9203C34.0976 43.9203 43.9321 34.0884 43.9321 21.9602C43.9321 9.8319 34.0976 0 21.9661 0C9.83454 0 0 9.8319 0 21.9602C0 34.0884 9.83454 43.9203 21.9661 43.9203Z" fill="url(#paint0_linear_57_44)"/>
<path d="M28.9015 54C41.033 54 50.8675 44.1681 50.8675 32.0398C50.8675 19.9116 41.033 10.0797 28.9015 10.0797C16.77 10.0797 6.93543 19.9116 6.93543 32.0398C6.93543 44.1681 16.77 54 28.9015 54Z" fill="url(#paint1_linear_57_44)"/>
<defs>
<linearGradient id="paint0_linear_57_44" x1="43.8161" y1="19.6624" x2="0.130546" y2="24.3092" gradientUnits="userSpaceOnUse">
<stop stop-color="white" stop-opacity="0"/>
<stop offset="0.94" stop-color="#8F03A0"/>
</linearGradient>
<linearGradient id="paint1_linear_57_44" x1="50.7503" y1="29.7408" x2="7.06474" y2="34.3875" gradientUnits="userSpaceOnUse">
<stop stop-color="#6EF1BB"/>
<stop offset="1" stop-color="white" stop-opacity="0"/>
</linearGradient>
</defs>
</svg>
