<svg width="180" height="40" viewBox="0 0 180 40" fill="none" xmlns="http://www.w3.org/2000/svg">
  <path d="M38.1934 11.7012H33.916V28.2988H38.1934V11.7012Z" fill="white"/>
  <path d="M51.7244 11.7012H47.4471V28.2988H51.7244V11.7012Z" fill="white"/>
  <path d="M65.2555 11.7012H60.9781V28.2988H65.2555V11.7012Z" fill="white"/>
  <path d="M92.3174 11.7012L84.9736 28.2988H89.251L96.5947 11.7012H92.3174Z" fill="white"/>
  <path d="M108.071 11.7012H103.794V28.2988H108.071V11.7012Z" fill="white"/>
  <path d="M121.602 11.7012H117.325V28.2988H121.602V11.7012Z" fill="white"/>
  <path d="M135.133 11.7012H130.856V28.2988H135.133V11.7012Z" fill="white"/>
  <path d="M162.195 11.7012L154.851 28.2988H159.129L166.472 11.7012H162.195Z" fill="white"/>
  <path d="M175.726 11.7012L168.382 28.2988H172.66L180.003 11.7012H175.726Z" fill="white"/>
</svg>