<svg width="18" height="18" viewBox="0 0 18 18" fill="none" xmlns="http://www.w3.org/2000/svg">
<path d="M9.77094 1.5C10.6147 1.50225 11.0429 1.50675 11.4127 1.51725L11.5582 1.5225C11.7262 1.5285 11.8919 1.536 12.0922 1.545C12.8902 1.5825 13.4347 1.7085 13.9124 1.89375C14.4074 2.08425 14.8244 2.34225 15.2414 2.7585C15.623 3.1333 15.9181 3.58685 16.1062 4.0875C16.2914 4.56525 16.4174 5.10975 16.4549 5.9085C16.4639 6.108 16.4714 6.27375 16.4774 6.4425L16.4819 6.588C16.4932 6.957 16.4977 7.38525 16.4992 8.229L16.4999 8.7885V9.771C16.5018 10.3181 16.496 10.8651 16.4827 11.412L16.4782 11.5575C16.4722 11.7262 16.4647 11.892 16.4557 12.0915C16.4182 12.8903 16.2907 13.434 16.1062 13.9125C15.9181 14.4131 15.623 14.8667 15.2414 15.2415C14.8666 15.623 14.4131 15.9181 13.9124 16.1063C13.4347 16.2915 12.8902 16.4175 12.0922 16.455L11.5582 16.4775L11.4127 16.482C11.0429 16.4925 10.6147 16.4978 9.77094 16.4993L9.21144 16.5H8.22969C7.68238 16.5019 7.13508 16.4962 6.58794 16.4827L6.44244 16.4783C6.2644 16.4715 6.08639 16.4638 5.90844 16.455C5.11044 16.4175 4.56594 16.2915 4.08744 16.1063C3.58706 15.918 3.13377 15.6229 2.75919 15.2415C2.3774 14.8668 2.08202 14.4132 1.89369 13.9125C1.70844 13.4347 1.58244 12.8903 1.54494 12.0915L1.52244 11.5575L1.51869 11.412C1.50486 10.8651 1.49861 10.3181 1.49994 9.771V8.229C1.49786 7.68195 1.50336 7.1349 1.51644 6.588L1.52169 6.4425C1.52769 6.27375 1.53519 6.108 1.54419 5.9085C1.58169 5.10975 1.70769 4.566 1.89294 4.0875C2.08171 3.58665 2.37761 3.13308 2.75994 2.7585C3.1343 2.37716 3.58733 2.08206 4.08744 1.89375C4.56594 1.7085 5.10969 1.5825 5.90844 1.545C6.10794 1.536 6.27444 1.5285 6.44244 1.5225L6.58794 1.518C7.13483 1.50467 7.68188 1.49892 8.22894 1.50075L9.77094 1.5ZM8.99994 5.25C8.00538 5.25 7.05155 5.64509 6.34829 6.34835C5.64503 7.05161 5.24994 8.00544 5.24994 9C5.24994 9.99456 5.64503 10.9484 6.34829 11.6517C7.05155 12.3549 8.00538 12.75 8.99994 12.75C9.9945 12.75 10.9483 12.3549 11.6516 11.6517C12.3548 10.9484 12.7499 9.99456 12.7499 9C12.7499 8.00544 12.3548 7.05161 11.6516 6.34835C10.9483 5.64509 9.9945 5.25 8.99994 5.25ZM8.99994 6.75C9.29541 6.74995 9.588 6.8081 9.861 6.92113C10.134 7.03416 10.3821 7.19985 10.591 7.40874C10.8 7.61764 10.9658 7.86565 11.0789 8.13862C11.192 8.41158 11.2503 8.70415 11.2503 8.99963C11.2504 9.2951 11.1922 9.58769 11.0792 9.86069C10.9662 10.1337 10.8005 10.3818 10.5916 10.5907C10.3827 10.7997 10.1347 10.9655 9.8617 11.0786C9.58873 11.1917 9.29616 11.25 9.00069 11.25C8.40395 11.25 7.83166 11.0129 7.4097 10.591C6.98774 10.169 6.75069 9.59674 6.75069 9C6.75069 8.40326 6.98774 7.83097 7.4097 7.40901C7.83166 6.98705 8.40395 6.75 9.00069 6.75M12.9382 4.125C12.6895 4.125 12.4511 4.22377 12.2753 4.39959C12.0995 4.5754 12.0007 4.81386 12.0007 5.0625C12.0007 5.31114 12.0995 5.5496 12.2753 5.72541C12.4511 5.90123 12.6895 6 12.9382 6C13.1868 6 13.4253 5.90123 13.6011 5.72541C13.7769 5.5496 13.8757 5.31114 13.8757 5.0625C13.8757 4.81386 13.7769 4.5754 13.6011 4.39959C13.4253 4.22377 13.1868 4.125 12.9382 4.125Z" fill="white"/>
</svg>
