<svg width="267" height="60" viewBox="0 0 267 60" fill="none" xmlns="http://www.w3.org/2000/svg">
<path d="M97.7279 38.9134L86.8724 16.5363H79.6377V43.3901H84.1568V21.0542L95.1837 43.3901H100.238L111.265 21.0199V43.3901H115.777V16.5363H108.542L97.7279 38.9134Z" fill="white"/>
<path d="M142.638 28.4238C141.733 26.5865 140.45 25.1605 138.791 24.1459C137.131 23.1312 135.17 22.6239 132.9 22.6239C130.63 22.6239 128.621 23.0695 126.866 23.9676C125.11 24.8657 123.739 26.1066 122.744 27.6903C121.75 29.2808 121.256 31.125 121.256 33.2228C121.256 35.3207 121.784 37.2129 122.833 38.8102C123.883 40.4076 125.329 41.6554 127.167 42.5535C129.005 43.4516 131.104 43.8972 133.469 43.8972C135.307 43.8972 137.118 43.623 138.894 43.0745C140.67 42.526 142.179 41.7719 143.427 40.819V37.4528C142.185 38.3372 140.752 39.0228 139.127 39.5095C137.502 39.9963 135.918 40.2431 134.361 40.2431C132.64 40.2431 131.158 39.9483 129.903 39.3656C128.649 38.7828 127.682 37.9396 127.003 36.8427C126.639 36.2599 126.379 35.6086 126.214 34.9093H144.003C144.003 32.4276 143.55 30.268 142.638 28.4307V28.4238ZM129.225 27.1007C130.24 26.5522 131.426 26.278 132.791 26.278C134.08 26.278 135.198 26.5317 136.137 27.0458C137.076 27.56 137.831 28.2936 138.393 29.2465C138.757 29.8704 139.01 30.5765 139.168 31.3581H126.146C126.283 30.6451 126.509 29.9938 126.845 29.4042C127.421 28.417 128.21 27.6423 129.225 27.0938V27.1007Z" fill="white"/>
<path d="M167.106 23.7688C165.769 23.0078 164.144 22.6239 162.237 22.6239C160.516 22.6239 158.966 23.0215 157.581 23.8236C156.196 24.6258 155.064 25.7638 154.179 27.2446C154.029 27.4915 153.905 27.7588 153.782 28.0262L152.966 23.1244H148.309L149.53 29.747V43.3899H154.186V33.5039C154.186 32.0985 154.454 30.8645 154.989 29.8155C155.524 28.7666 156.292 27.9508 157.279 27.3612C158.273 26.7785 159.419 26.4837 160.735 26.4837C162.642 26.4837 164.096 27.0253 165.09 28.1153C166.077 29.2054 166.578 30.8096 166.578 32.928V43.383H171.234V32.1739C171.234 30.172 170.885 28.4581 170.178 27.039C169.472 25.6198 168.45 24.5298 167.113 23.7619L167.106 23.7688Z" fill="white"/>
<path d="M217.852 28.4238C216.946 26.5865 215.664 25.1605 214.005 24.1459C212.345 23.1312 210.384 22.6239 208.114 22.6239C205.844 22.6239 203.835 23.0695 202.079 23.9676C200.324 24.8657 198.952 26.1066 197.958 27.6903C196.963 29.2808 196.47 31.125 196.47 33.2228C196.47 35.3207 196.998 37.2129 198.047 38.8102C199.096 40.4076 200.543 41.6554 202.381 42.5535C204.219 43.4516 206.317 43.8972 208.683 43.8972C210.521 43.8972 212.331 43.623 214.107 43.0745C215.883 42.526 217.392 41.7719 218.64 40.819V37.4528C217.399 38.3372 215.966 39.0228 214.341 39.5095C212.715 39.9963 211.131 40.2431 209.575 40.2431C207.853 40.2431 206.372 39.9483 205.117 39.3656C203.862 38.7828 202.895 37.9396 202.216 36.8427C201.853 36.2599 201.592 35.6086 201.428 34.9093H219.216C219.216 32.4276 218.764 30.268 217.852 28.4307V28.4238ZM204.438 27.1007C205.453 26.5522 206.64 26.278 208.004 26.278C209.293 26.278 210.411 26.5317 211.351 27.0458C212.29 27.56 213.044 28.2936 213.607 29.2465C213.97 29.8704 214.224 30.5765 214.382 31.3581H201.359C201.496 30.6451 201.723 29.9938 202.059 29.4042C202.635 28.417 203.423 27.6423 204.438 27.0938V27.1007Z" fill="white"/>
<path d="M236.875 22.6239C235.517 22.6239 234.317 22.8844 233.295 23.4123C232.267 23.9402 231.403 24.6669 230.696 25.5993C230.017 26.4974 229.489 27.5532 229.098 28.7461L228.173 23.1244H223.516L224.737 29.603V43.3899H229.393V34.2238C229.393 32.5784 229.681 31.1867 230.271 30.0555C230.854 28.9243 231.663 28.0673 232.692 27.4983C233.72 26.9293 234.886 26.6413 236.203 26.6413C236.752 26.6413 237.334 26.6756 237.958 26.751C238.576 26.8196 239.152 26.9293 239.68 27.0733V22.9941C239.296 22.8776 238.857 22.7884 238.356 22.7267C237.856 22.665 237.362 22.6376 236.889 22.6376L236.875 22.6239Z" fill="white"/>
<path d="M266.993 23.1246H262.193L261.672 28.1293C261.576 27.9716 261.493 27.8071 261.391 27.6494C260.328 26.0589 259.025 24.8248 257.489 23.9404C255.946 23.056 254.238 22.6173 252.352 22.6173C250.371 22.6173 248.615 23.0629 247.086 23.961C245.556 24.8591 244.363 26.1 243.506 27.6837C242.649 29.2742 242.217 31.1252 242.217 33.2505C242.217 35.3758 242.649 37.1994 243.506 38.8036C244.363 40.401 245.556 41.6488 247.086 42.5469C248.615 43.445 250.371 43.8906 252.352 43.8906C254.334 43.8906 255.953 43.445 257.489 42.5674C259.032 41.683 260.328 40.4421 261.377 38.8448C261.48 38.6871 261.569 38.5088 261.672 38.3443L262.2 43.397H267L265.923 33.2642L267 23.1315L266.993 23.1246ZM259.957 36.8566C259.107 37.8918 258.133 38.7077 257.036 39.2904C255.939 39.8731 254.746 40.1679 253.456 40.1679C252.167 40.1679 251.07 39.8731 250.089 39.2904C249.109 38.7077 248.341 37.8918 247.778 36.8566C247.216 35.8145 246.935 34.6216 246.935 33.2574C246.935 31.8931 247.216 30.7002 247.778 29.6581C248.341 28.616 249.109 27.8071 250.089 27.2243C251.07 26.6416 252.188 26.3468 253.456 26.3468C254.725 26.3468 255.939 26.6416 257.036 27.2243C258.133 27.8071 259.107 28.6229 259.957 29.6581C260.801 30.6933 261.48 31.8931 261.98 33.2574C261.48 34.6216 260.801 35.8145 259.957 36.8566Z" fill="white"/>
<path d="M193.144 23.1245H183.721V26.7031H193.144V23.1245Z" fill="white"/>
<path d="M181.87 21.2803V15.9809H179.148L177.214 21.6368L172.88 22.7475V24.859H177.214H181.87V21.2803Z" fill="#BD05DD"/>
<path d="M191.169 39.7221C190.359 39.9484 189.427 40.0649 188.378 40.0649C186.732 40.0649 185.539 39.7221 184.812 39.0434C184.085 38.3647 183.721 37.1786 183.721 35.4784V26.7031H179.065V36.1914C179.065 37.6928 179.346 39.0228 179.909 40.1815C180.471 41.3401 181.362 42.245 182.576 42.9032C183.79 43.5613 185.395 43.8904 187.376 43.8904C188.57 43.8904 189.735 43.7464 190.867 43.4585C191.998 43.1705 192.876 42.8757 193.5 42.5604V38.728C192.76 39.16 191.985 39.489 191.169 39.7153V39.7221Z" fill="white"/>
<path d="M97.7279 38.9134L86.8724 16.5363H79.6377V43.3901H84.1568V21.0542L95.1837 43.3901H100.238L111.265 21.0199V43.3901H115.777V16.5363H108.542L97.7279 38.9134Z" fill="white"/>
<path d="M142.638 28.4238C141.733 26.5865 140.45 25.1605 138.791 24.1459C137.131 23.1312 135.17 22.6239 132.9 22.6239C130.63 22.6239 128.621 23.0695 126.866 23.9676C125.11 24.8657 123.739 26.1066 122.744 27.6903C121.75 29.2808 121.256 31.125 121.256 33.2228C121.256 35.3207 121.784 37.2129 122.833 38.8102C123.883 40.4076 125.329 41.6554 127.167 42.5535C129.005 43.4516 131.104 43.8972 133.469 43.8972C135.307 43.8972 137.118 43.623 138.894 43.0745C140.67 42.526 142.179 41.7719 143.427 40.819V37.4528C142.185 38.3372 140.752 39.0228 139.127 39.5095C137.502 39.9963 135.918 40.2431 134.361 40.2431C132.64 40.2431 131.158 39.9483 129.903 39.3656C128.649 38.7828 127.682 37.9396 127.003 36.8427C126.639 36.2599 126.379 35.6086 126.214 34.9093H144.003C144.003 32.4276 143.55 30.268 142.638 28.4307V28.4238ZM129.225 27.1007C130.24 26.5522 131.426 26.278 132.791 26.278C134.08 26.278 135.198 26.5317 136.137 27.0458C137.076 27.56 137.831 28.2936 138.393 29.2465C138.757 29.8704 139.01 30.5765 139.168 31.3581H126.146C126.283 30.6451 126.509 29.9938 126.845 29.4042C127.421 28.417 128.21 27.6423 129.225 27.0938V27.1007Z" fill="white"/>
<path d="M167.106 23.7688C165.769 23.0078 164.144 22.6239 162.237 22.6239C160.516 22.6239 158.966 23.0215 157.581 23.8236C156.196 24.6258 155.064 25.7638 154.179 27.2446C154.029 27.4915 153.905 27.7588 153.782 28.0262L152.966 23.1244H148.309L149.53 29.747V43.3899H154.186V33.5039C154.186 32.0985 154.454 30.8645 154.989 29.8155C155.524 28.7666 156.292 27.9508 157.279 27.3612C158.273 26.7785 159.419 26.4837 160.735 26.4837C162.642 26.4837 164.096 27.0253 165.09 28.1153C166.077 29.2054 166.578 30.8096 166.578 32.928V43.383H171.234V32.1739C171.234 30.172 170.885 28.4581 170.178 27.039C169.472 25.6198 168.45 24.5298 167.113 23.7619L167.106 23.7688Z" fill="white"/>
<path d="M217.852 28.4238C216.946 26.5865 215.664 25.1605 214.005 24.1459C212.345 23.1312 210.384 22.6239 208.114 22.6239C205.844 22.6239 203.835 23.0695 202.079 23.9676C200.324 24.8657 198.952 26.1066 197.958 27.6903C196.963 29.2808 196.47 31.125 196.47 33.2228C196.47 35.3207 196.998 37.2129 198.047 38.8102C199.096 40.4076 200.543 41.6554 202.381 42.5535C204.219 43.4516 206.317 43.8972 208.683 43.8972C210.521 43.8972 212.331 43.623 214.107 43.0745C215.883 42.526 217.392 41.7719 218.64 40.819V37.4528C217.399 38.3372 215.966 39.0228 214.341 39.5095C212.715 39.9963 211.131 40.2431 209.575 40.2431C207.853 40.2431 206.372 39.9483 205.117 39.3656C203.862 38.7828 202.895 37.9396 202.216 36.8427C201.853 36.2599 201.592 35.6086 201.428 34.9093H219.216C219.216 32.4276 218.764 30.268 217.852 28.4307V28.4238ZM204.438 27.1007C205.453 26.5522 206.64 26.278 208.004 26.278C209.293 26.278 210.411 26.5317 211.351 27.0458C212.29 27.56 213.044 28.2936 213.607 29.2465C213.97 29.8704 214.224 30.5765 214.382 31.3581H201.359C201.496 30.6451 201.723 29.9938 202.059 29.4042C202.635 28.417 203.423 27.6423 204.438 27.0938V27.1007Z" fill="white"/>
<path d="M236.875 22.6239C235.517 22.6239 234.317 22.8844 233.295 23.4123C232.267 23.9402 231.403 24.6669 230.696 25.5993C230.017 26.4974 229.489 27.5532 229.098 28.7461L228.173 23.1244H223.516L224.737 29.603V43.3899H229.393V34.2238C229.393 32.5784 229.681 31.1867 230.271 30.0555C230.854 28.9243 231.663 28.0673 232.692 27.4983C233.72 26.9293 234.886 26.6413 236.203 26.6413C236.752 26.6413 237.334 26.6756 237.958 26.751C238.576 26.8196 239.152 26.9293 239.68 27.0733V22.9941C239.296 22.8776 238.857 22.7884 238.356 22.7267C237.856 22.665 237.362 22.6376 236.889 22.6376L236.875 22.6239Z" fill="white"/>
<path d="M266.993 23.1246H262.193L261.672 28.1293C261.576 27.9716 261.493 27.8071 261.391 27.6494C260.328 26.0589 259.025 24.8248 257.489 23.9404C255.946 23.056 254.238 22.6173 252.352 22.6173C250.371 22.6173 248.615 23.0629 247.086 23.961C245.556 24.8591 244.363 26.1 243.506 27.6837C242.649 29.2742 242.217 31.1252 242.217 33.2505C242.217 35.3758 242.649 37.1994 243.506 38.8036C244.363 40.401 245.556 41.6488 247.086 42.5469C248.615 43.445 250.371 43.8906 252.352 43.8906C254.334 43.8906 255.953 43.445 257.489 42.5674C259.032 41.683 260.328 40.4421 261.377 38.8448C261.48 38.6871 261.569 38.5088 261.672 38.3443L262.2 43.397H267L265.923 33.2642L267 23.1315L266.993 23.1246ZM259.957 36.8566C259.107 37.8918 258.133 38.7077 257.036 39.2904C255.939 39.8731 254.746 40.1679 253.456 40.1679C252.167 40.1679 251.07 39.8731 250.089 39.2904C249.109 38.7077 248.341 37.8918 247.778 36.8566C247.216 35.8145 246.935 34.6216 246.935 33.2574C246.935 31.8931 247.216 30.7002 247.778 29.6581C248.341 28.616 249.109 27.8071 250.089 27.2243C251.07 26.6416 252.188 26.3468 253.456 26.3468C254.725 26.3468 255.939 26.6416 257.036 27.2243C258.133 27.8071 259.107 28.6229 259.957 29.6581C260.801 30.6933 261.48 31.8931 261.98 33.2574C261.48 34.6216 260.801 35.8145 259.957 36.8566Z" fill="white"/>
<path d="M193.144 23.1245H183.721V26.7031H193.144V23.1245Z" fill="white"/>
<path d="M181.87 21.2803V15.9809H179.148L177.214 21.6368L172.88 22.7475V24.859H177.214H181.87V21.2803Z" fill="#BD05DD"/>
<path d="M191.169 39.7221C190.359 39.9484 189.427 40.0649 188.378 40.0649C186.732 40.0649 185.539 39.7221 184.812 39.0434C184.085 38.3647 183.721 37.1786 183.721 35.4784V26.7031H179.065V36.1914C179.065 37.6928 179.346 39.0228 179.909 40.1815C180.471 41.3401 181.362 42.245 182.576 42.9032C183.79 43.5613 185.395 43.8904 187.376 43.8904C188.57 43.8904 189.735 43.7464 190.867 43.4585C191.998 43.1705 192.876 42.8757 193.5 42.5604V38.728C192.76 39.1599 191.985 39.489 191.169 39.7153V39.7221Z" fill="white"/>
<path d="M24.3569 48.7008C37.8089 48.7008 48.7139 37.7988 48.7139 24.3504C48.7139 10.902 37.8089 0 24.3569 0C10.905 0 0 10.902 0 24.3504C0 37.7988 10.905 48.7008 24.3569 48.7008Z" fill="url(#paint0_linear_57_173)"/>
<path d="M32.0469 59.8776C45.4988 59.8776 56.4038 48.9755 56.4038 35.5272C56.4038 22.0788 45.4988 11.1768 32.0469 11.1768C18.5949 11.1768 7.68995 22.0788 7.68995 35.5272C7.68995 48.9755 18.5949 59.8776 32.0469 59.8776Z" fill="url(#paint1_linear_57_173)"/>
<defs>
<linearGradient id="paint0_linear_57_173" x1="48.5852" y1="21.8026" x2="0.144754" y2="26.9551" gradientUnits="userSpaceOnUse">
<stop stop-color="white" stop-opacity="0"/>
<stop offset="0.94" stop-color="#8F03A0"/>
</linearGradient>
<linearGradient id="paint1_linear_57_173" x1="56.2738" y1="32.9779" x2="7.83333" y2="38.1304" gradientUnits="userSpaceOnUse">
<stop stop-color="#6EF1BB"/>
<stop offset="1" stop-color="white" stop-opacity="0"/>
</linearGradient>
</defs>
</svg>
