<svg width="836" height="405" viewBox="0 0 836 405" fill="none" xmlns="http://www.w3.org/2000/svg">
<mask id="mask0_57_142" style="mask-type:alpha" maskUnits="userSpaceOnUse" x="0" y="10" width="557" height="395">
<g clip-path="url(#paint0_diamond_57_142_clip_path)" data-figma-skip-parse="true"><g transform="matrix(-0.3815 0.423 -0.596484 -0.537963 381.5 -18)"><rect x="0" y="0" width="1002.48" height="516.704" fill="url(#paint0_diamond_57_142)" opacity="1" shape-rendering="crispEdges"/><rect x="0" y="0" width="1002.48" height="516.704" transform="scale(1 -1)" fill="url(#paint0_diamond_57_142)" opacity="1" shape-rendering="crispEdges"/><rect x="0" y="0" width="1002.48" height="516.704" transform="scale(-1 1)" fill="url(#paint0_diamond_57_142)" opacity="1" shape-rendering="crispEdges"/><rect x="0" y="0" width="1002.48" height="516.704" transform="scale(-1)" fill="url(#paint0_diamond_57_142)" opacity="1" shape-rendering="crispEdges"/></g></g><rect y="10" width="557" height="395" data-figma-gradient-fill="{&#34;type&#34;:&#34;GRADIENT_DIAMOND&#34;,&#34;stops&#34;:[{&#34;color&#34;:{&#34;r&#34;:0.008399999700486660,&#34;g&#34;:0.033391736447811127,&#34;b&#34;:0.051600001752376556,&#34;a&#34;:1.0},&#34;position&#34;:0.58999699354171753},{&#34;color&#34;:{&#34;r&#34;:0.008399999700486660,&#34;g&#34;:0.033391736447811127,&#34;b&#34;:0.051600001752376556,&#34;a&#34;:0.0},&#34;position&#34;:0.89999997615814209}],&#34;stopsVar&#34;:[{&#34;color&#34;:{&#34;r&#34;:0.008399999700486660,&#34;g&#34;:0.033391736447811127,&#34;b&#34;:0.051600001752376556,&#34;a&#34;:1.0},&#34;position&#34;:0.58999699354171753},{&#34;color&#34;:{&#34;r&#34;:0.008399999700486660,&#34;g&#34;:0.033391736447811127,&#34;b&#34;:0.051600001752376556,&#34;a&#34;:0.0},&#34;position&#34;:0.89999997615814209}],&#34;transform&#34;:{&#34;m00&#34;:-763.00006103515625,&#34;m01&#34;:-1192.9670410156250,&#34;m02&#34;:1359.4835205078125,&#34;m10&#34;:845.99993896484375,&#34;m11&#34;:-1075.9268798828125,&#34;m12&#34;:96.963417053222656},&#34;opacity&#34;:1.0,&#34;blendMode&#34;:&#34;NORMAL&#34;,&#34;visible&#34;:true}"/>
</mask>
<g mask="url(#mask0_57_142)">
<g filter="url(#filter0_dddd_57_142)">
<g clip-path="url(#clip0_57_142)">
<mask id="path-2-inside-1_57_142" fill="white">
<path d="M-51 36C-51 33.7909 -49.2091 32 -47 32H524C526.209 32 528 33.7909 528 36V521.5C528 523.709 526.209 525.5 524 525.5H-47C-49.2091 525.5 -51 523.709 -51 521.5V36Z"/>
</mask>
<path d="M-51 36C-51 33.7909 -49.2091 32 -47 32H524C526.209 32 528 33.7909 528 36V521.5C528 523.709 526.209 525.5 524 525.5H-47C-49.2091 525.5 -51 523.709 -51 521.5V36Z" fill="white"/>
<path d="M-51 36C-51 33.7909 -49.2091 32 -47 32H524C526.209 32 528 33.7909 528 36V521.5C528 523.709 526.209 525.5 524 525.5H-47C-49.2091 525.5 -51 523.709 -51 521.5V36Z" fill="url(#paint1_linear_57_142)" fill-opacity="0.32" style="mix-blend-mode:luminosity"/>
<path opacity="0.5" d="M-100 96C-100 87.1634 -92.8366 80 -84 80H23C31.8366 80 39 87.1634 39 96C39 104.837 31.8365 112 23 112H-84C-92.8366 112 -100 104.837 -100 96Z" fill="#1B2228" fill-opacity="0.2"/>
<path opacity="0.5" d="M63 96C63 87.1634 70.1634 80 79 80H152C160.837 80 168 87.1634 168 96C168 104.837 160.837 112 152 112H79C70.1634 112 63 104.837 63 96Z" fill="#1B2228" fill-opacity="0.2"/>
<path d="M192 74C192 72.8954 192.895 72 194 72H486C487.105 72 488 72.8954 488 74V118C488 119.105 487.105 120 486 120H194C192.895 120 192 119.105 192 118V74Z" fill="#111A53"/>
<path d="M214.56 104L208.62 90H212.16L215.02 97.08C215.14 97.4 215.267 97.72 215.4 98.04C215.533 98.3467 215.667 98.6667 215.8 99C215.933 99.3333 216.053 99.6733 216.16 100.02C216.28 100.367 216.393 100.733 216.5 101.12H215.82C215.953 100.64 216.1 100.187 216.26 99.76C216.42 99.32 216.58 98.8867 216.74 98.46C216.913 98.0333 217.093 97.58 217.28 97.1L220.02 90H223.52L217.6 104H214.56ZM226.413 104V93.38H229.633V104H226.413ZM228.013 91.2C227.413 91.2 226.946 91.06 226.613 90.78C226.279 90.4867 226.113 90.0733 226.113 89.54C226.113 89.06 226.279 88.6667 226.613 88.36C226.959 88.0533 227.426 87.9 228.013 87.9C228.613 87.9 229.079 88.0467 229.413 88.34C229.746 88.62 229.913 89.02 229.913 89.54C229.913 90.0333 229.739 90.4333 229.393 90.74C229.059 91.0467 228.599 91.2 228.013 91.2ZM234.408 104V93.38H237.448L237.588 97.04L236.828 96.66C237.001 96.0067 237.301 95.42 237.728 94.9C238.168 94.3667 238.668 93.9467 239.228 93.64C239.801 93.32 240.408 93.16 241.048 93.16C241.394 93.16 241.721 93.1933 242.028 93.26C242.348 93.3267 242.621 93.4133 242.848 93.52L241.968 97.02C241.768 96.8733 241.494 96.76 241.148 96.68C240.814 96.6 240.474 96.56 240.128 96.56C239.741 96.56 239.388 96.6267 239.068 96.76C238.761 96.88 238.501 97.0533 238.288 97.28C238.074 97.4933 237.908 97.74 237.788 98.02C237.681 98.3 237.628 98.6 237.628 98.92V104H234.408ZM247.469 104V90.46H250.669V104H247.469ZM245.109 96.18V93.38H253.369V96.18H245.109ZM260.868 104.22C260.015 104.22 259.275 104.033 258.648 103.66C258.035 103.287 257.562 102.747 257.228 102.04C256.895 101.32 256.728 100.46 256.728 99.46V93.38H259.928V98.94C259.928 99.4867 260.002 99.9467 260.148 100.32C260.308 100.693 260.555 100.98 260.888 101.18C261.222 101.367 261.628 101.46 262.108 101.46C262.455 101.46 262.775 101.407 263.068 101.3C263.362 101.18 263.622 101.02 263.848 100.82C264.075 100.607 264.248 100.367 264.368 100.1C264.502 99.82 264.568 99.5067 264.568 99.16V93.38H267.768V104H264.768L264.628 101.82L265.208 101.58C265.062 102.047 264.782 102.48 264.368 102.88C263.955 103.28 263.448 103.607 262.848 103.86C262.262 104.1 261.602 104.22 260.868 104.22ZM276.428 104.18C275.375 104.18 274.455 103.947 273.668 103.48C272.881 103.013 272.261 102.367 271.808 101.54C271.368 100.7 271.148 99.7467 271.148 98.68C271.148 97.6 271.375 96.6467 271.828 95.82C272.281 94.9933 272.908 94.3467 273.708 93.88C274.521 93.4 275.455 93.16 276.508 93.16C277.108 93.16 277.661 93.24 278.168 93.4C278.675 93.5467 279.115 93.7533 279.488 94.02C279.875 94.2867 280.188 94.58 280.428 94.9C280.681 95.22 280.848 95.5533 280.928 95.9H280.228V93.38H283.388V104H280.168V101.28L280.848 101.38C280.768 101.727 280.601 102.067 280.348 102.4C280.095 102.733 279.768 103.033 279.368 103.3C278.968 103.567 278.515 103.78 278.008 103.94C277.515 104.1 276.988 104.18 276.428 104.18ZM277.288 101.48C277.888 101.48 278.408 101.367 278.848 101.14C279.301 100.913 279.648 100.593 279.888 100.18C280.141 99.7533 280.268 99.2533 280.268 98.68C280.268 98.12 280.141 97.6333 279.888 97.22C279.648 96.7933 279.301 96.46 278.848 96.22C278.408 95.98 277.888 95.86 277.288 95.86C276.688 95.86 276.168 95.98 275.728 96.22C275.288 96.46 274.941 96.7933 274.688 97.22C274.448 97.6333 274.328 98.12 274.328 98.68C274.328 99.2533 274.448 99.7533 274.688 100.18C274.941 100.593 275.288 100.913 275.728 101.14C276.168 101.367 276.688 101.48 277.288 101.48ZM287.925 104V89.2H291.125V104H287.925ZM310.233 104.2C309.127 104.2 308.093 104.027 307.133 103.68C306.187 103.32 305.353 102.82 304.633 102.18C303.927 101.54 303.38 100.78 302.993 99.9C302.607 99.0067 302.413 98.02 302.413 96.94C302.413 95.8867 302.613 94.92 303.013 94.04C303.427 93.16 303.987 92.4 304.693 91.76C305.4 91.12 306.233 90.62 307.193 90.26C308.153 89.9 309.187 89.72 310.293 89.72C311.053 89.72 311.787 89.8133 312.493 90C313.213 90.1867 313.88 90.4467 314.493 90.78C315.107 91.1133 315.627 91.4933 316.053 91.92L314.033 94.44C313.713 94.1333 313.367 93.8667 312.993 93.64C312.62 93.4 312.2 93.2133 311.733 93.08C311.267 92.9333 310.753 92.86 310.193 92.86C309.647 92.86 309.113 92.9533 308.593 93.14C308.073 93.3267 307.613 93.6 307.213 93.96C306.813 94.3067 306.493 94.74 306.253 95.26C306.027 95.7667 305.913 96.34 305.913 96.98C305.913 97.62 306.033 98.1933 306.273 98.7C306.513 99.2067 306.84 99.64 307.253 100C307.68 100.347 308.173 100.613 308.733 100.8C309.293 100.987 309.9 101.08 310.553 101.08C311.127 101.08 311.647 101 312.113 100.84C312.58 100.68 313 100.487 313.373 100.26C313.747 100.02 314.08 99.7667 314.373 99.5L315.993 102.12C315.633 102.467 315.153 102.8 314.553 103.12C313.953 103.44 313.28 103.7 312.533 103.9C311.787 104.1 311.02 104.2 310.233 104.2ZM324.662 104.2C323.422 104.2 322.322 103.96 321.362 103.48C320.402 103 319.649 102.347 319.102 101.52C318.555 100.693 318.282 99.7467 318.282 98.68C318.282 97.6133 318.555 96.6667 319.102 95.84C319.649 95.0133 320.402 94.36 321.362 93.88C322.322 93.4 323.422 93.16 324.662 93.16C325.889 93.16 326.975 93.4 327.922 93.88C328.882 94.36 329.635 95.0133 330.182 95.84C330.729 96.6667 331.002 97.6133 331.002 98.68C331.002 99.7467 330.729 100.693 330.182 101.52C329.635 102.347 328.882 103 327.922 103.48C326.975 103.96 325.889 104.2 324.662 104.2ZM324.662 101.44C325.235 101.44 325.755 101.32 326.222 101.08C326.702 100.84 327.075 100.513 327.342 100.1C327.622 99.6867 327.755 99.2133 327.742 98.68C327.755 98.1467 327.622 97.6667 327.342 97.24C327.075 96.8133 326.702 96.4867 326.222 96.26C325.755 96.02 325.235 95.9 324.662 95.9C324.075 95.9 323.535 96.02 323.042 96.26C322.562 96.5 322.189 96.8267 321.922 97.24C321.655 97.6533 321.522 98.1333 321.522 98.68C321.522 99.2133 321.655 99.6867 321.922 100.1C322.189 100.513 322.562 100.84 323.042 101.08C323.535 101.32 324.075 101.44 324.662 101.44ZM334.567 104V93.38H337.607L337.707 95.86L336.947 96.08C337.12 95.56 337.414 95.08 337.827 94.64C338.254 94.2 338.767 93.8467 339.367 93.58C339.98 93.3 340.64 93.16 341.347 93.16C342.254 93.16 343.02 93.34 343.647 93.7C344.274 94.06 344.747 94.5733 345.067 95.24C345.387 95.8933 345.547 96.6733 345.547 97.58V104H342.327V98.04C342.327 97.5733 342.24 97.18 342.067 96.86C341.907 96.54 341.66 96.2933 341.327 96.12C341.007 95.9467 340.634 95.86 340.207 95.86C339.834 95.86 339.494 95.9267 339.187 96.06C338.894 96.18 338.64 96.3467 338.427 96.56C338.214 96.76 338.047 96.9867 337.927 97.24C337.82 97.4933 337.767 97.7533 337.767 98.02V104H336.187C335.747 104 335.394 104 335.127 104C334.86 104 334.674 104 334.567 104ZM354.086 104.2C352.912 104.2 351.859 104.033 350.926 103.7C350.006 103.367 349.266 102.893 348.706 102.28L350.646 100.56C351.099 100.987 351.639 101.313 352.266 101.54C352.892 101.767 353.552 101.88 354.246 101.88C354.459 101.88 354.666 101.86 354.866 101.82C355.079 101.78 355.259 101.727 355.406 101.66C355.566 101.58 355.692 101.487 355.786 101.38C355.879 101.273 355.926 101.14 355.926 100.98C355.926 100.727 355.766 100.527 355.446 100.38C355.219 100.3 354.932 100.22 354.586 100.14C354.239 100.06 353.846 99.9733 353.406 99.88C352.672 99.7467 352.026 99.5867 351.466 99.4C350.919 99.2 350.459 98.9533 350.086 98.66C349.766 98.38 349.519 98.06 349.346 97.7C349.172 97.34 349.086 96.92 349.086 96.44C349.086 95.9467 349.212 95.5 349.466 95.1C349.719 94.6867 350.072 94.34 350.526 94.06C350.979 93.7667 351.499 93.5467 352.086 93.4C352.672 93.24 353.286 93.16 353.926 93.16C354.566 93.16 355.192 93.2267 355.806 93.36C356.419 93.48 356.999 93.66 357.546 93.9C358.092 94.1267 358.572 94.42 358.986 94.78L357.346 96.7C357.052 96.4733 356.712 96.2667 356.326 96.08C355.939 95.8933 355.526 95.7467 355.086 95.64C354.659 95.52 354.239 95.46 353.826 95.46C353.599 95.46 353.379 95.4733 353.166 95.5C352.966 95.5267 352.792 95.58 352.646 95.66C352.499 95.7267 352.379 95.8133 352.286 95.92C352.206 96.0133 352.166 96.1333 352.166 96.28C352.166 96.4 352.199 96.5133 352.266 96.62C352.332 96.7267 352.432 96.8133 352.566 96.88C352.752 97 353.026 97.1067 353.386 97.2C353.759 97.2933 354.226 97.3933 354.786 97.5C355.599 97.6733 356.292 97.8733 356.866 98.1C357.439 98.3133 357.899 98.5733 358.246 98.88C358.526 99.0933 358.732 99.36 358.866 99.68C358.999 99.9867 359.066 100.327 359.066 100.7C359.066 101.38 358.846 101.987 358.406 102.52C357.979 103.04 357.392 103.453 356.646 103.76C355.912 104.053 355.059 104.2 354.086 104.2ZM366.282 104.22C365.428 104.22 364.688 104.033 364.062 103.66C363.448 103.287 362.975 102.747 362.642 102.04C362.308 101.32 362.142 100.46 362.142 99.46V93.38H365.342V98.94C365.342 99.4867 365.415 99.9467 365.562 100.32C365.722 100.693 365.968 100.98 366.302 101.18C366.635 101.367 367.042 101.46 367.522 101.46C367.868 101.46 368.188 101.407 368.482 101.3C368.775 101.18 369.035 101.02 369.262 100.82C369.488 100.607 369.662 100.367 369.782 100.1C369.915 99.82 369.982 99.5067 369.982 99.16V93.38H373.182V104H370.182L370.042 101.82L370.622 101.58C370.475 102.047 370.195 102.48 369.782 102.88C369.368 103.28 368.862 103.607 368.262 103.86C367.675 104.1 367.015 104.22 366.282 104.22ZM377.761 104V89.2H380.961V104H377.761ZM386.605 104V90.46H389.805V104H386.605ZM384.245 96.18V93.38H392.505V96.18H384.245ZM400.026 104.18C398.972 104.18 398.052 103.947 397.266 103.48C396.479 103.013 395.859 102.367 395.406 101.54C394.966 100.7 394.746 99.7467 394.746 98.68C394.746 97.6 394.972 96.6467 395.426 95.82C395.879 94.9933 396.506 94.3467 397.306 93.88C398.119 93.4 399.052 93.16 400.106 93.16C400.706 93.16 401.259 93.24 401.766 93.4C402.272 93.5467 402.712 93.7533 403.086 94.02C403.472 94.2867 403.786 94.58 404.026 94.9C404.279 95.22 404.446 95.5533 404.526 95.9H403.826V93.38H406.986V104H403.766V101.28L404.446 101.38C404.366 101.727 404.199 102.067 403.946 102.4C403.692 102.733 403.366 103.033 402.966 103.3C402.566 103.567 402.112 103.78 401.606 103.94C401.112 104.1 400.586 104.18 400.026 104.18ZM400.886 101.48C401.486 101.48 402.006 101.367 402.446 101.14C402.899 100.913 403.246 100.593 403.486 100.18C403.739 99.7533 403.866 99.2533 403.866 98.68C403.866 98.12 403.739 97.6333 403.486 97.22C403.246 96.7933 402.899 96.46 402.446 96.22C402.006 95.98 401.486 95.86 400.886 95.86C400.286 95.86 399.766 95.98 399.326 96.22C398.886 96.46 398.539 96.7933 398.286 97.22C398.046 97.6333 397.926 98.12 397.926 98.68C397.926 99.2533 398.046 99.7533 398.286 100.18C398.539 100.593 398.886 100.913 399.326 101.14C399.766 101.367 400.286 101.48 400.886 101.48ZM412.562 104V90.46H415.762V104H412.562ZM410.202 96.18V93.38H418.462V96.18H410.202ZM422.161 104V93.38H425.381V104H422.161ZM423.761 91.2C423.161 91.2 422.695 91.06 422.361 90.78C422.028 90.4867 421.861 90.0733 421.861 89.54C421.861 89.06 422.028 88.6667 422.361 88.36C422.708 88.0533 423.175 87.9 423.761 87.9C424.361 87.9 424.828 88.0467 425.161 88.34C425.495 88.62 425.661 89.02 425.661 89.54C425.661 90.0333 425.488 90.4333 425.141 90.74C424.808 91.0467 424.348 91.2 423.761 91.2ZM435.476 104.2C434.236 104.2 433.136 103.96 432.176 103.48C431.216 103 430.463 102.347 429.916 101.52C429.369 100.693 429.096 99.7467 429.096 98.68C429.096 97.6133 429.369 96.6667 429.916 95.84C430.463 95.0133 431.216 94.36 432.176 93.88C433.136 93.4 434.236 93.16 435.476 93.16C436.703 93.16 437.789 93.4 438.736 93.88C439.696 94.36 440.449 95.0133 440.996 95.84C441.543 96.6667 441.816 97.6133 441.816 98.68C441.816 99.7467 441.543 100.693 440.996 101.52C440.449 102.347 439.696 103 438.736 103.48C437.789 103.96 436.703 104.2 435.476 104.2ZM435.476 101.44C436.049 101.44 436.569 101.32 437.036 101.08C437.516 100.84 437.889 100.513 438.156 100.1C438.436 99.6867 438.569 99.2133 438.556 98.68C438.569 98.1467 438.436 97.6667 438.156 97.24C437.889 96.8133 437.516 96.4867 437.036 96.26C436.569 96.02 436.049 95.9 435.476 95.9C434.889 95.9 434.349 96.02 433.856 96.26C433.376 96.5 433.003 96.8267 432.736 97.24C432.469 97.6533 432.336 98.1333 432.336 98.68C432.336 99.2133 432.469 99.6867 432.736 100.1C433.003 100.513 433.376 100.84 433.856 101.08C434.349 101.32 434.889 101.44 435.476 101.44ZM445.381 104V93.38H448.421L448.521 95.86L447.761 96.08C447.934 95.56 448.228 95.08 448.641 94.64C449.068 94.2 449.581 93.8467 450.181 93.58C450.794 93.3 451.454 93.16 452.161 93.16C453.068 93.16 453.834 93.34 454.461 93.7C455.088 94.06 455.561 94.5733 455.881 95.24C456.201 95.8933 456.361 96.6733 456.361 97.58V104H453.141V98.04C453.141 97.5733 453.054 97.18 452.881 96.86C452.721 96.54 452.474 96.2933 452.141 96.12C451.821 95.9467 451.448 95.86 451.021 95.86C450.648 95.86 450.308 95.9267 450.001 96.06C449.708 96.18 449.454 96.3467 449.241 96.56C449.028 96.76 448.861 96.9867 448.741 97.24C448.634 97.4933 448.581 97.7533 448.581 98.02V104H447.001C446.561 104 446.208 104 445.941 104C445.674 104 445.488 104 445.381 104ZM464.9 104.2C463.727 104.2 462.673 104.033 461.74 103.7C460.82 103.367 460.08 102.893 459.52 102.28L461.46 100.56C461.913 100.987 462.453 101.313 463.08 101.54C463.707 101.767 464.367 101.88 465.06 101.88C465.273 101.88 465.48 101.86 465.68 101.82C465.893 101.78 466.073 101.727 466.22 101.66C466.38 101.58 466.507 101.487 466.6 101.38C466.693 101.273 466.74 101.14 466.74 100.98C466.74 100.727 466.58 100.527 466.26 100.38C466.033 100.3 465.747 100.22 465.4 100.14C465.053 100.06 464.66 99.9733 464.22 99.88C463.487 99.7467 462.84 99.5867 462.28 99.4C461.733 99.2 461.273 98.9533 460.9 98.66C460.58 98.38 460.333 98.06 460.16 97.7C459.987 97.34 459.9 96.92 459.9 96.44C459.9 95.9467 460.027 95.5 460.28 95.1C460.533 94.6867 460.887 94.34 461.34 94.06C461.793 93.7667 462.313 93.5467 462.9 93.4C463.487 93.24 464.1 93.16 464.74 93.16C465.38 93.16 466.007 93.2267 466.62 93.36C467.233 93.48 467.813 93.66 468.36 93.9C468.907 94.1267 469.387 94.42 469.8 94.78L468.16 96.7C467.867 96.4733 467.527 96.2667 467.14 96.08C466.753 95.8933 466.34 95.7467 465.9 95.64C465.473 95.52 465.053 95.46 464.64 95.46C464.413 95.46 464.193 95.4733 463.98 95.5C463.78 95.5267 463.607 95.58 463.46 95.66C463.313 95.7267 463.193 95.8133 463.1 95.92C463.02 96.0133 462.98 96.1333 462.98 96.28C462.98 96.4 463.013 96.5133 463.08 96.62C463.147 96.7267 463.247 96.8133 463.38 96.88C463.567 97 463.84 97.1067 464.2 97.2C464.573 97.2933 465.04 97.3933 465.6 97.5C466.413 97.6733 467.107 97.8733 467.68 98.1C468.253 98.3133 468.713 98.5733 469.06 98.88C469.34 99.0933 469.547 99.36 469.68 99.68C469.813 99.9867 469.88 100.327 469.88 100.7C469.88 101.38 469.66 101.987 469.22 102.52C468.793 103.04 468.207 103.453 467.46 103.76C466.727 104.053 465.873 104.2 464.9 104.2Z" fill="white"/>
<path opacity="0.5" d="M-51 200C-51 191.163 -43.8366 184 -35 184H472C480.837 184 488 191.163 488 200V464C488 472.837 480.837 480 472 480H-35C-43.8366 480 -51 472.837 -51 464V200Z" fill="#1B2228" fill-opacity="0.2"/>
</g>
<path d="M-47 34.25H524V29.75H-47V34.25ZM525.75 36V521.5H530.25V36H525.75ZM524 523.25H-47V527.75H524V523.25ZM-48.75 521.5V36H-53.25V521.5H-48.75ZM-47 523.25C-47.9665 523.25 -48.75 522.466 -48.75 521.5H-53.25C-53.25 524.952 -50.4518 527.75 -47 527.75V523.25ZM525.75 521.5C525.75 522.466 524.966 523.25 524 523.25V527.75C527.452 527.75 530.25 524.952 530.25 521.5H525.75ZM524 34.25C524.966 34.25 525.75 35.0335 525.75 36H530.25C530.25 32.5482 527.452 29.75 524 29.75V34.25ZM-47 29.75C-50.4518 29.75 -53.25 32.5482 -53.25 36H-48.75C-48.75 35.0335 -47.9665 34.25 -47 34.25V29.75Z" fill="#495F6E" fill-opacity="0.2" mask="url(#path-2-inside-1_57_142)"/>
</g>
</g>
<defs>
<clipPath id="paint0_diamond_57_142_clip_path"><rect y="10" width="557" height="395"/></clipPath><filter id="filter0_dddd_57_142" x="-81.3425" y="24.0846" width="666.07" height="653.128" filterUnits="userSpaceOnUse" color-interpolation-filters="sRGB">
<feFlood flood-opacity="0" result="BackgroundImageFix"/>
<feColorMatrix in="SourceAlpha" type="matrix" values="0 0 0 0 0 0 0 0 0 0 0 0 0 0 0 0 0 0 127 0" result="hardAlpha"/>
<feOffset dx="1.31924" dy="6.59619"/>
<feGaussianBlur stdDeviation="7.25581"/>
<feColorMatrix type="matrix" values="0 0 0 0 0 0 0 0 0 0 0 0 0 0 0 0 0 0 0.08 0"/>
<feBlend mode="normal" in2="BackgroundImageFix" result="effect1_dropShadow_57_142"/>
<feColorMatrix in="SourceAlpha" type="matrix" values="0 0 0 0 0 0 0 0 0 0 0 0 0 0 0 0 0 0 127 0" result="hardAlpha"/>
<feOffset dx="2.63848" dy="26.3848"/>
<feGaussianBlur stdDeviation="13.852"/>
<feColorMatrix type="matrix" values="0 0 0 0 0 0 0 0 0 0 0 0 0 0 0 0 0 0 0.06 0"/>
<feBlend mode="normal" in2="effect1_dropShadow_57_142" result="effect2_dropShadow_57_142"/>
<feColorMatrix in="SourceAlpha" type="matrix" values="0 0 0 0 0 0 0 0 0 0 0 0 0 0 0 0 0 0 127 0" result="hardAlpha"/>
<feOffset dx="6.59619" dy="60.685"/>
<feGaussianBlur stdDeviation="18.4693"/>
<feColorMatrix type="matrix" values="0 0 0 0 0 0 0 0 0 0 0 0 0 0 0 0 0 0 0.04 0"/>
<feBlend mode="normal" in2="effect2_dropShadow_57_142" result="effect3_dropShadow_57_142"/>
<feColorMatrix in="SourceAlpha" type="matrix" values="0 0 0 0 0 0 0 0 0 0 0 0 0 0 0 0 0 0 127 0" result="hardAlpha"/>
<feOffset dx="13.1924" dy="108.178"/>
<feGaussianBlur stdDeviation="21.7674"/>
<feColorMatrix type="matrix" values="0 0 0 0 0 0 0 0 0 0 0 0 0 0 0 0 0 0 0.01 0"/>
<feBlend mode="normal" in2="effect3_dropShadow_57_142" result="effect4_dropShadow_57_142"/>
<feBlend mode="normal" in="SourceGraphic" in2="effect4_dropShadow_57_142" result="shape"/>
</filter>
<linearGradient id="paint0_diamond_57_142" x1="0" y1="0" x2="500" y2="500" gradientUnits="userSpaceOnUse">
<stop offset="0.589997" stop-color="#02090D"/>
<stop offset="0.9" stop-color="#02090D" stop-opacity="0"/>
</linearGradient>
<linearGradient id="paint1_linear_57_142" x1="-1.0862" y1="-9.125" x2="362.592" y2="584.496" gradientUnits="userSpaceOnUse">
<stop stop-color="#FAFCFF" stop-opacity="0"/>
<stop offset="1" stop-color="#0054AD" stop-opacity="0.16"/>
</linearGradient>
<clipPath id="clip0_57_142">
<path d="M-51 36C-51 33.7909 -49.2091 32 -47 32H524C526.209 32 528 33.7909 528 36V521.5C528 523.709 526.209 525.5 524 525.5H-47C-49.2091 525.5 -51 523.709 -51 521.5V36Z" fill="white"/>
</clipPath>
</defs>
</svg>
