<svg preserveAspectRatio="none" width="100%" height="100%" overflow="visible" style="display: block;" viewBox="0 0 115 36" fill="none" xmlns="http://www.w3.org/2000/svg">
<g id="Group">
<path id="Vector" d="M17.9439 0.000419223L18.505 1.72765H20.3212L18.8519 2.79514L19.4131 4.52236L17.9439 3.45487L16.4745 4.52236L17.0358 2.79514L15.5665 1.72765H17.3827L17.9439 0.000419223Z" fill="var(--fill-0, white)"/>
<path id="Vector_2" d="M25.5562 2.04547L26.1175 3.77271H27.9336L26.4644 4.84018L27.0256 6.56741L25.5562 5.49993L24.087 6.56741L24.6482 4.84018L23.179 3.77271H24.9951L25.5562 2.04547Z" fill="var(--fill-0, white)"/>
<path id="Vector_3" d="M31.2379 7.49945L31.7991 9.22672H33.6152L32.1459 10.2941L32.7072 12.0213L31.2379 10.9539L29.7686 12.0213L30.3298 10.2941L28.8605 9.22672H30.6767L31.2379 7.49945Z" fill="var(--fill-0, white)"/>
<path id="Vector_4" d="M33.3951 15.4529L33.9563 17.1801H35.7725L34.3032 18.2476L34.8644 19.9748L33.3951 18.9073L31.9259 19.9748L32.4871 18.2476L31.0178 17.1801H32.8339L33.3951 15.4529Z" fill="var(--fill-0, white)"/>
<path id="Vector_5" d="M30.7833 22.8385L31.3446 24.5657H33.1607L31.6914 25.6332L32.2526 27.3604L30.7833 26.293L29.3141 27.3604L29.8753 25.6332L28.406 24.5657H30.2221L30.7833 22.8385Z" fill="var(--fill-0, white)"/>
<path id="Vector_6" d="M25.6695 28.1783L26.2308 29.9056H28.0468L26.5776 30.973L27.1388 32.7003L25.6695 31.6328L24.2003 32.7003L24.7615 30.973L23.2922 29.9056H25.1083L25.6695 28.1783Z" fill="var(--fill-0, white)"/>
<path id="Vector_7" d="M17.8302 30.9057L18.3914 32.6329H20.2076L18.7382 33.7004L19.2995 35.4276L17.8302 34.3602L16.3609 35.4276L16.9222 33.7004L15.4529 32.6329H17.269L17.8302 30.9057Z" fill="var(--fill-0, white)"/>
<path id="Vector_8" d="M9.9891 28.1783L10.5502 29.9056H12.3664L10.8971 30.973L11.4584 32.7003L9.9891 31.6328L8.51981 32.7003L9.08099 30.973L7.61175 29.9056H9.42787L9.9891 28.1783Z" fill="var(--fill-0, white)"/>
<path id="Vector_9" d="M4.99119 22.8385L5.5524 24.5657H7.36852L5.89924 25.6332L6.46046 27.3604L4.99119 26.293L3.52192 27.3604L4.08313 25.6332L2.61386 24.5657H4.42998L4.99119 22.8385Z" fill="var(--fill-0, white)"/>
<path id="Vector_10" d="M2.37721 15.4529L2.93842 17.1801H4.75454L3.28527 18.2476L3.84648 19.9748L2.37721 18.9073L0.907935 19.9748L1.46915 18.2476L-0.000121531 17.1801H1.81599L2.37721 15.4529Z" fill="var(--fill-0, white)"/>
<path id="Vector_11" d="M4.65002 7.49945L5.21124 9.22672H7.02736L5.55808 10.2941L6.1193 12.0213L4.65002 10.9539L3.18076 12.0213L3.74197 10.2941L2.2727 9.22672H4.08882L4.65002 7.49945Z" fill="var(--fill-0, white)"/>
<path id="Vector_12" d="M10.3298 2.04547L10.8911 3.77271H12.7072L11.238 4.84018L11.7991 6.56741L10.3298 5.49993L8.86059 6.56741L9.42182 4.84018L7.95253 3.77271H9.76861L10.3298 2.04547Z" fill="var(--fill-0, white)"/>
<path id="Vector_13" d="M54.4599 8.70987V12.9451C54.2867 13.1424 54.0222 13.354 53.6663 13.58C53.315 13.8061 52.8654 14.001 52.317 14.1645C51.7687 14.3232 51.1144 14.4026 50.3545 14.4026C49.6666 14.4026 49.0413 14.292 48.4786 14.0707C47.9158 13.8446 47.4324 13.5151 47.0282 13.0822C46.6243 12.6445 46.3116 12.1106 46.0903 11.4805C45.8738 10.8503 45.7657 10.1289 45.7657 9.31597V8.69544C45.7657 7.88253 45.8738 7.16102 46.0903 6.5309C46.3068 5.90077 46.6122 5.36926 47.0066 4.93635C47.4011 4.49864 47.87 4.16674 48.4135 3.94067C48.9571 3.71459 49.5584 3.60155 50.2174 3.60155C51.1554 3.60155 51.9225 3.75307 52.519 4.05611C53.1155 4.35434 53.5676 4.768 53.8754 5.29711C54.1882 5.82622 54.3805 6.4347 54.4527 7.12254H52.1871C52.139 6.7714 52.0428 6.46837 51.8985 6.21344C51.759 5.95849 51.5594 5.76369 51.2996 5.629C51.0399 5.48951 50.7032 5.41977 50.2895 5.41977C49.9576 5.41977 49.657 5.48951 49.3876 5.629C49.1231 5.76369 48.8994 5.96812 48.7167 6.2423C48.5339 6.51647 48.3943 6.85798 48.2981 7.26684C48.202 7.67089 48.1538 8.14228 48.1538 8.68101V9.31597C48.1538 9.85467 48.202 10.3284 48.2981 10.7373C48.3991 11.1461 48.5459 11.4877 48.7383 11.7619C48.9306 12.0313 49.1736 12.2356 49.467 12.3752C49.7652 12.5146 50.1116 12.5844 50.506 12.5844C50.8138 12.5844 51.0736 12.5604 51.2852 12.5122C51.4969 12.4593 51.67 12.3944 51.8047 12.3175C51.9394 12.2356 52.0404 12.1611 52.1077 12.0938V10.3477H50.239V8.70987H54.4599ZM59.6906 14.2583H57.3818L57.3962 12.4401H59.6906C60.2149 12.4401 60.6574 12.3199 61.0182 12.0793C61.3789 11.834 61.6531 11.4733 61.8407 10.9971C62.0283 10.516 62.1221 9.9316 62.1221 9.24375V8.76037C62.1221 8.24089 62.0692 7.78393 61.9633 7.38949C61.8575 6.99026 61.7012 6.65596 61.4944 6.3866C61.2875 6.11723 61.0302 5.91521 60.7224 5.78053C60.4193 5.64584 60.0705 5.5785 59.6761 5.5785H57.3384V3.75307H59.6761C60.3881 3.75307 61.0374 3.87332 61.6242 4.11383C62.2158 4.35434 62.7257 4.69825 63.1539 5.1456C63.5867 5.59293 63.921 6.12204 64.1567 6.73293C64.3924 7.3438 64.5103 8.02443 64.5103 8.7748V9.24375C64.5103 9.98932 64.3924 10.67 64.1567 11.2857C63.921 11.8965 63.5867 12.4256 63.1539 12.873C62.7257 13.3155 62.2183 13.6571 61.6314 13.8975C61.0446 14.138 60.3977 14.2583 59.6906 14.2583ZM58.7165 3.75307V14.2583H56.3644V3.75307H58.7165ZM70.3831 10.6074H67.7424V8.78202H70.3831C70.7728 8.78202 71.0854 8.71708 71.3211 8.58721C71.5616 8.45733 71.7371 8.27937 71.8478 8.05329C71.9632 7.8224 72.0209 7.56266 72.0209 7.27405C72.0209 6.97583 71.9632 6.69925 71.8478 6.44432C71.7371 6.18458 71.5616 5.97533 71.3211 5.8166C71.0854 5.65786 70.7728 5.5785 70.3831 5.5785H68.5938V14.2583H66.2416V3.75307H70.3831C71.2201 3.75307 71.9368 3.90459 72.5332 4.20763C73.1345 4.51067 73.5938 4.92674 73.9113 5.45584C74.2337 5.98014 74.3947 6.5814 74.3947 7.25963C74.3947 7.93784 74.2337 8.52708 73.9113 9.02733C73.5938 9.52756 73.1345 9.9172 72.5332 10.1962C71.9368 10.4704 71.2201 10.6074 70.3831 10.6074ZM76.1189 3.75307H80.1521C80.9554 3.75307 81.6505 3.87332 82.2373 4.11383C82.8289 4.35434 83.2835 4.71028 83.601 5.18167C83.9184 5.65306 84.0772 6.23507 84.0772 6.92773C84.0772 7.50494 83.9834 7.99557 83.7958 8.39961C83.6082 8.80366 83.3436 9.13801 83.0021 9.40251C82.6655 9.6671 82.271 9.88109 81.8189 10.0446L81.0541 10.4631H77.6196L77.6052 8.63772H80.1593C80.5105 8.63772 80.8015 8.57519 81.0324 8.45012C81.2633 8.32506 81.4364 8.14949 81.5519 7.92342C81.6721 7.69254 81.7322 7.42317 81.7322 7.11532C81.7322 6.79786 81.6721 6.52368 81.5519 6.2928C81.4316 6.06191 81.2537 5.88635 81.018 5.76609C80.7871 5.64103 80.4985 5.5785 80.1521 5.5785H78.471V14.2583H76.1189V3.75307ZM81.9343 14.2583L79.5749 9.59008L82.0569 9.58288L84.4523 14.15V14.2583H81.9343Z" fill="var(--fill-0, white)"/>
<path id="Vector_14" d="M52.6924 28.4649H54.0777C54.0054 29.1287 53.8155 29.7228 53.5077 30.2471C53.1997 30.7714 52.7645 31.1875 52.2017 31.4953C51.6389 31.7983 50.9366 31.9499 50.0949 31.9499C49.4792 31.9499 48.9188 31.8344 48.4137 31.6036C47.9135 31.3727 47.483 31.0455 47.1222 30.6223C46.7615 30.1941 46.4825 29.6819 46.2853 29.0854C46.0928 28.4842 45.9967 27.8156 45.9967 27.0796V26.0334C45.9967 25.2975 46.0928 24.6313 46.2853 24.0349C46.4825 23.4336 46.7639 22.9189 47.1294 22.4908C47.4998 22.0627 47.9447 21.7333 48.4642 21.5024C48.9837 21.2715 49.5681 21.156 50.2175 21.156C51.0112 21.156 51.6822 21.3051 52.2306 21.6033C52.7789 21.9016 53.2046 22.3153 53.5077 22.8444C53.8155 23.3687 54.0054 23.9772 54.0777 24.6698H52.6924C52.6249 24.1791 52.4999 23.7583 52.3171 23.4072C52.1344 23.0512 51.8746 22.777 51.5379 22.5846C51.2012 22.3922 50.7611 22.296 50.2175 22.296C49.751 22.296 49.3397 22.385 48.9837 22.563C48.6326 22.7409 48.3368 22.9935 48.0963 23.3205C47.8606 23.6477 47.6826 24.0397 47.5624 24.4967C47.4421 24.9536 47.382 25.461 47.382 26.019V27.0796C47.382 27.5943 47.4349 28.0778 47.5407 28.5298C47.6513 28.982 47.8173 29.3788 48.0386 29.7204C48.2598 30.0619 48.5412 30.3313 48.8828 30.5285C49.2243 30.7208 49.6283 30.8171 50.0949 30.8171C50.6865 30.8171 51.1579 30.7232 51.509 30.5357C51.8602 30.3481 52.1247 30.0787 52.3027 29.7276C52.4855 29.3764 52.6153 28.9556 52.6924 28.4649ZM55.7152 27.9887V27.8228C55.7152 27.26 55.7969 26.7381 55.9605 26.2571C56.124 25.7713 56.3597 25.3504 56.6675 24.9944C56.9754 24.6337 57.3482 24.3547 57.7859 24.1575C58.2236 23.9555 58.7143 23.8544 59.2578 23.8544C59.8062 23.8544 60.2992 23.9555 60.7369 24.1575C61.1795 24.3547 61.5546 24.6337 61.8624 24.9944C62.1752 25.3504 62.4132 25.7713 62.5768 26.2571C62.7404 26.7381 62.8221 27.26 62.8221 27.8228V27.9887C62.8221 28.5515 62.7404 29.0734 62.5768 29.5544C62.4132 30.0355 62.1752 30.4563 61.8624 30.8171C61.5546 31.173 61.1819 31.452 60.7441 31.6541C60.3112 31.8512 59.8206 31.9499 59.2722 31.9499C58.7239 31.9499 58.2308 31.8512 57.7931 31.6541C57.3554 31.452 56.9802 31.173 56.6675 30.8171C56.3597 30.4563 56.124 30.0355 55.9605 29.5544C55.7969 29.0734 55.7152 28.5515 55.7152 27.9887ZM57.05 27.8228V27.9887C57.05 28.3784 57.0957 28.7463 57.187 29.0926C57.2785 29.4342 57.4155 29.7372 57.5983 30.0018C57.7859 30.2664 58.0192 30.4755 58.2982 30.6295C58.5771 30.7786 58.9019 30.8532 59.2722 30.8532C59.6378 30.8532 59.9576 30.7786 60.2318 30.6295C60.5108 30.4755 60.7417 30.2664 60.9245 30.0018C61.1073 29.7372 61.2444 29.4342 61.3358 29.0926C61.432 28.7463 61.4801 28.3784 61.4801 27.9887V27.8228C61.4801 27.438 61.432 27.0748 61.3358 26.7333C61.2444 26.387 61.1049 26.0815 60.9173 25.8169C60.7345 25.5476 60.5036 25.336 60.2246 25.182C59.9504 25.0282 59.6282 24.9511 59.2578 24.9511C58.8923 24.9511 58.5699 25.0282 58.2909 25.182C58.0168 25.336 57.7859 25.5476 57.5983 25.8169C57.4155 26.0815 57.2785 26.387 57.187 26.7333C57.0957 27.0748 57.05 27.438 57.05 27.8228ZM66.1191 25.55V31.8055H64.7771V23.9988H66.047L66.1191 25.55ZM65.8449 27.6063L65.2244 27.5847C65.2293 27.0508 65.299 26.5577 65.4337 26.1056C65.5683 25.6487 65.768 25.2518 66.0325 24.9151C66.2971 24.5784 66.6266 24.3187 67.0211 24.1358C67.4154 23.9483 67.8724 23.8544 68.3919 23.8544C68.7575 23.8544 69.0942 23.9074 69.402 24.0132C69.7098 24.1142 69.9768 24.2754 70.2029 24.4967C70.429 24.7178 70.6046 25.0016 70.7296 25.348C70.8547 25.6943 70.9172 26.1128 70.9172 26.6034V31.8055H69.5824V26.6684C69.5824 26.2595 69.5127 25.9324 69.3731 25.6871C69.2385 25.4418 69.0461 25.2638 68.7959 25.1532C68.5458 25.0378 68.2524 24.98 67.9157 24.98C67.5212 24.98 67.1918 25.0498 66.9272 25.1893C66.6626 25.3288 66.451 25.5211 66.2923 25.7665C66.1335 26.0118 66.0181 26.2932 65.946 26.6106C65.8786 26.9233 65.8449 27.2552 65.8449 27.6063ZM70.9028 26.8704L70.0081 27.1445C70.0129 26.7165 70.0827 26.3052 70.2173 25.9108C70.3568 25.5163 70.5564 25.1652 70.8161 24.8574C71.0807 24.5496 71.4055 24.3066 71.7902 24.1286C72.175 23.9459 72.6152 23.8544 73.1106 23.8544C73.529 23.8544 73.8995 23.9098 74.2217 24.0204C74.5488 24.131 74.823 24.3018 75.0443 24.5327C75.2704 24.7588 75.441 25.0498 75.5565 25.4057C75.6719 25.7617 75.7297 26.185 75.7297 26.6756V31.8055H74.3877V26.6612C74.3877 26.2235 74.3179 25.8844 74.1785 25.6438C74.0437 25.3985 73.8514 25.2277 73.6013 25.1316C73.3559 25.0306 73.0625 24.98 72.7209 24.98C72.4275 24.98 72.1678 25.0306 71.9418 25.1316C71.7157 25.2325 71.5257 25.3721 71.3717 25.55C71.2178 25.7232 71.1 25.9228 71.0182 26.1489C70.9413 26.3749 70.9028 26.6154 70.9028 26.8704ZM79.3803 25.4995V34.807H78.0382V23.9988H79.2649L79.3803 25.4995ZM84.6401 27.8372V27.9887C84.6401 28.5563 84.5728 29.083 84.4381 29.5688C84.3034 30.0499 84.1061 30.4683 83.8464 30.8243C83.5915 31.1802 83.2764 31.4568 82.9013 31.6541C82.5261 31.8512 82.0956 31.9499 81.6097 31.9499C81.1143 31.9499 80.6766 31.8681 80.2966 31.7045C79.9166 31.541 79.5943 31.3029 79.3298 30.9902C79.0652 30.6776 78.8535 30.3024 78.6949 29.8647C78.5409 29.427 78.4351 28.9339 78.3773 28.3856V27.5775C78.4351 27.0003 78.5433 26.4832 78.7021 26.0262C78.8608 25.5693 79.07 25.1796 79.3298 24.8574C79.5943 24.5303 79.9142 24.2826 80.2893 24.1142C80.6646 23.9411 81.0974 23.8544 81.5881 23.8544C82.0787 23.8544 82.5141 23.9507 82.894 24.143C83.274 24.3307 83.5939 24.6 83.8536 24.9511C84.1134 25.3024 84.3082 25.7232 84.4381 26.2138C84.5728 26.6997 84.6401 27.2408 84.6401 27.8372ZM83.2981 27.9887V27.8372C83.2981 27.4476 83.2572 27.082 83.1754 26.7405C83.0937 26.3942 82.9662 26.0911 82.7931 25.8314C82.6247 25.5669 82.4082 25.3601 82.1436 25.2109C81.8791 25.057 81.564 24.98 81.1985 24.98C80.8618 24.98 80.5683 25.0378 80.3183 25.1532C80.073 25.2686 79.8637 25.425 79.6905 25.6222C79.5174 25.8145 79.3755 26.0358 79.2649 26.286C79.159 26.5313 79.0796 26.7862 79.0267 27.0508V28.9195C79.1229 29.2562 79.2576 29.5737 79.4307 29.8719C79.6039 30.1653 79.8348 30.4034 80.1234 30.5862C80.412 30.7641 80.7752 30.8532 81.2129 30.8532C81.5737 30.8532 81.8839 30.7786 82.1436 30.6295C82.4082 30.4755 82.6247 30.2664 82.7931 30.0018C82.9662 29.7372 83.0937 29.4342 83.1754 29.0926C83.2572 28.7463 83.2981 28.3784 83.2981 27.9887ZM88.0886 20.7231V31.8055H86.7466V20.7231H88.0886ZM91.9777 23.9988V31.8055H90.6353V23.9988H91.9777ZM90.5343 21.928C90.5343 21.7115 90.5993 21.5288 90.7291 21.3797C90.8638 21.2306 91.061 21.156 91.3207 21.156C91.5757 21.156 91.7705 21.2306 91.9048 21.3797C92.0442 21.5288 92.1144 21.7115 92.1144 21.928C92.1144 22.1349 92.0442 22.3129 91.9048 22.4619C91.7705 22.6063 91.5757 22.6784 91.3207 22.6784C91.061 22.6784 90.8638 22.6063 90.7291 22.4619C90.5993 22.3129 90.5343 22.1349 90.5343 21.928ZM99.0188 30.4707V26.4519C99.0188 26.1441 98.9569 25.8772 98.8313 25.6511C98.7113 25.4202 98.5284 25.2422 98.2827 25.1171C98.038 24.992 97.7351 24.9295 97.374 24.9295C97.0369 24.9295 96.7414 24.9872 96.4865 25.1027C96.2362 25.2181 96.0395 25.3697 95.8945 25.5572C95.755 25.7448 95.6857 25.9469 95.6857 26.1633H94.3512C94.3512 25.8844 94.4233 25.6078 94.5673 25.3336C94.7114 25.0594 94.9183 24.8117 95.188 24.5904C95.4623 24.3643 95.7892 24.1864 96.1688 24.0565C96.5539 23.9219 96.9824 23.8544 97.4534 23.8544C98.0214 23.8544 98.521 23.9507 98.9541 24.143C99.3919 24.3355 99.7336 24.6265 99.9784 25.0161C100.229 25.4009 100.354 25.8844 100.354 26.4664V30.1028C100.354 30.3625 100.375 30.6391 100.419 30.9325C100.467 31.2259 100.536 31.4785 100.628 31.6901V31.8055H99.2358C99.1684 31.6517 99.1148 31.4472 99.077 31.1923C99.0382 30.9325 99.0188 30.692 99.0188 30.4707ZM99.2497 27.0724L99.2645 28.0103H97.9152C97.5347 28.0103 97.1957 28.0417 96.8974 28.1042C96.5991 28.1619 96.3498 28.2509 96.1475 28.3712C95.9453 28.4914 95.791 28.6429 95.6857 28.8257C95.5795 29.0037 95.5269 29.2129 95.5269 29.4534C95.5269 29.6988 95.5823 29.9224 95.6931 30.1244C95.803 30.3265 95.9693 30.4875 96.1909 30.6078C96.4172 30.7232 96.6933 30.781 97.0203 30.781C97.4294 30.781 97.7905 30.6944 98.1026 30.5213C98.4157 30.3481 98.6632 30.1364 98.8461 29.8863C99.0336 29.6362 99.1342 29.3933 99.149 29.1576L99.7188 29.7997C99.6856 30.0018 99.5942 30.2254 99.4446 30.4707C99.2959 30.716 99.0964 30.9517 98.8461 31.1778C98.6004 31.3991 98.3067 31.5842 97.966 31.7334C97.6289 31.8777 97.2493 31.9499 96.8254 31.9499C96.2962 31.9499 95.8326 31.8464 95.4327 31.6396C95.0383 31.4328 94.7308 31.1562 94.5092 30.8099C94.2931 30.4587 94.185 30.0667 94.185 29.6338C94.185 29.2153 94.2663 28.8473 94.4297 28.5298C94.5941 28.2076 94.8296 27.9406 95.1372 27.729C95.4447 27.5126 95.815 27.349 96.2482 27.2384C96.6813 27.1277 97.1643 27.0724 97.6991 27.0724H99.2497ZM104.083 25.6655V31.8055H102.749V23.9988H104.011L104.083 25.6655ZM103.767 27.6063L103.211 27.5847C103.215 27.0508 103.295 26.5577 103.449 26.1056C103.602 25.6487 103.819 25.2518 104.098 24.9151C104.377 24.5784 104.709 24.3187 105.094 24.1358C105.484 23.9483 105.914 23.8544 106.386 23.8544C106.77 23.8544 107.116 23.9074 107.425 24.0132C107.732 24.1142 107.995 24.2778 108.211 24.5039C108.432 24.7299 108.601 25.0234 108.716 25.3841C108.831 25.74 108.889 26.1754 108.889 26.6901V31.8055H107.547V26.6756C107.547 26.2667 107.487 25.9397 107.367 25.6943C107.247 25.4442 107.071 25.2638 106.84 25.1532C106.609 25.0378 106.325 24.98 105.989 24.98C105.656 24.98 105.353 25.0498 105.079 25.1893C104.81 25.3288 104.577 25.5211 104.38 25.7665C104.187 26.0118 104.035 26.2932 103.925 26.6106C103.819 26.9233 103.767 27.2552 103.767 27.6063ZM114.481 23.9988V25.0234H110.259V23.9988H114.481ZM111.688 22.1012H113.023V29.8719C113.023 30.1364 113.064 30.3361 113.145 30.4707C113.227 30.6054 113.334 30.6944 113.463 30.7377C113.593 30.781 113.733 30.8027 113.881 30.8027C113.992 30.8027 114.108 30.7931 114.228 30.7738C114.353 30.7497 114.447 30.7305 114.509 30.716L114.517 31.8055C114.41 31.8392 114.271 31.8705 114.098 31.8994C113.929 31.933 113.725 31.9499 113.485 31.9499C113.158 31.9499 112.857 31.885 112.583 31.755C112.309 31.6252 112.09 31.4087 111.926 31.1057C111.767 30.7979 111.688 30.3842 111.688 29.8647V22.1012Z" fill="var(--fill-0, white)"/>
</g>
</svg>
