<svg preserveAspectRatio="none" width="100%" height="100%" overflow="visible" style="display: block;" viewBox="0 0 110 37" fill="none" xmlns="http://www.w3.org/2000/svg">
<g id="Group">
<path id="Vector" d="M19.0958 6.14455C18.6622 6.14576 18.3147 6.11607 18.0534 6.05547C17.1961 5.85683 17.2287 4.36587 17.1389 3.73685C16.9773 2.60163 16.3997 1.63493 15.1669 1.46098C14.4946 1.36648 13.8266 1.42727 13.155 1.63132C12.8054 1.73766 12.5302 1.8432 12.3297 1.94794C11.1713 2.55468 9.99848 3.13213 8.81129 3.68028C8.80596 3.68279 8.80148 3.68666 8.79834 3.69144C8.79513 3.69621 8.79335 3.70172 8.79318 3.70737C8.79132 3.75552 8.85284 3.70737 8.86672 3.70194C10.0996 3.19693 11.104 2.65099 12.217 2.10623C13.208 1.62048 14.8455 1.28702 15.8571 1.84621C16.9809 2.4668 16.9574 3.73746 17.09 4.83717C17.1564 5.38252 17.4385 6.13312 18.0558 6.221C18.3529 6.26353 18.7045 6.28982 19.1109 6.29985M20.77 6.32874C21.7707 6.25471 22.3188 6.39676 22.7167 5.29343C22.7891 5.09319 22.828 4.92626 22.8336 4.79263C22.903 3.19693 23.2219 1.65239 25.1559 1.58498C26.0567 1.55367 26.885 1.72543 27.641 2.10022C28.7557 2.65339 29.8795 3.25532 31.0208 3.70797C31.0328 3.71278 31.0449 3.71478 31.057 3.71398C31.1116 3.71157 31.114 3.69914 31.0642 3.67667C30.0152 3.20396 28.9813 2.70054 27.9624 2.16643C27.0375 1.68189 26.1157 1.36708 25.0703 1.44232C24.2968 1.49769 23.6035 1.77397 23.2098 2.43248C22.7541 3.19512 22.7782 4.02337 22.6407 4.89797C22.5849 5.25311 22.4464 5.56631 22.2253 5.83757C21.9552 6.16864 21.1389 6.17645 20.7838 6.14455" stroke="var(--stroke-0, white)" stroke-width="1.60423"/>
<path id="Vector_2" d="M19.0958 6.14455C19.2453 6.18147 19.2504 6.23324 19.1109 6.29985C18.7045 6.28982 18.3529 6.26353 18.0558 6.221C17.4385 6.13312 17.1564 5.38252 17.09 4.83717C16.9574 3.73746 16.9809 2.4668 15.8571 1.84621C14.8455 1.28702 13.208 1.62048 12.217 2.10623C11.104 2.65099 10.0996 3.19693 8.86672 3.70194C8.85284 3.70737 8.79132 3.75552 8.79318 3.70737C8.79335 3.70172 8.79513 3.69621 8.79834 3.69144C8.80148 3.68666 8.80596 3.68279 8.81129 3.68028C9.99848 3.13213 11.1713 2.55468 12.3297 1.94794C12.5302 1.8432 12.8054 1.73766 13.155 1.63132C13.8266 1.42727 14.4946 1.36648 15.1669 1.46098C16.3997 1.63493 16.9773 2.60163 17.1389 3.73685C17.2287 4.36587 17.1961 5.85683 18.0534 6.05547C18.3147 6.11607 18.6622 6.14576 19.0958 6.14455ZM20.77 6.32874C20.6723 6.25411 20.677 6.19271 20.7838 6.14455C21.1389 6.17645 21.9552 6.16864 22.2253 5.83757C22.4464 5.56631 22.5849 5.25311 22.6407 4.89797C22.7782 4.02337 22.7541 3.19512 23.2098 2.43248C23.6035 1.77397 24.2968 1.49769 25.0703 1.44232C26.1157 1.36708 27.0375 1.68189 27.9624 2.16643C28.9813 2.70054 30.0152 3.20396 31.0642 3.67667C31.114 3.69914 31.1116 3.71157 31.057 3.71398C31.0449 3.71478 31.0328 3.71278 31.0208 3.70797C29.8795 3.25532 28.7557 2.65339 27.641 2.10022C26.885 1.72543 26.0567 1.55367 25.1559 1.58498C23.2219 1.65239 22.903 3.19693 22.8336 4.79263C22.828 4.92626 22.7891 5.09319 22.7167 5.29343C22.3188 6.39676 21.7707 6.25471 20.77 6.32874Z" fill="var(--fill-0, white)"/>
<path id="Vector_3" d="M18.7767 22.1808C17.9346 21.6608 16.5269 20.9854 16.337 19.8989C16.1591 18.881 17.2919 18.0907 18.1185 17.7253C18.1328 17.7187 18.1491 17.7181 18.1637 17.7236L20.3184 18.5193C20.3302 18.5237 20.3403 18.5316 20.3474 18.542C20.3544 18.5524 20.3579 18.5646 20.3576 18.5771L20.2967 21.1136C20.2965 21.1229 20.2941 21.132 20.2896 21.1402C20.2853 21.1485 20.279 21.1557 20.2714 21.1611L18.8437 22.1783C18.834 22.1854 18.8226 22.1892 18.8107 22.1897C18.7987 22.1902 18.787 22.187 18.7767 22.1808ZM17.9768 20.2955C18.4342 20.6435 18.8994 20.9809 19.3724 21.308C19.4371 21.3526 19.4687 21.3357 19.4671 21.2575L19.4212 18.4242C19.4211 18.4144 19.4185 18.4049 19.4138 18.3964C19.4091 18.3879 19.4024 18.3805 19.3944 18.3751C19.3863 18.3697 19.377 18.3663 19.3673 18.3652C19.3576 18.3641 19.3478 18.3653 19.3387 18.3688C18.8268 18.568 16.973 19.5335 17.9768 20.2955ZM20.5481 27.3946C20.2213 27.1009 19.8119 26.6807 19.5642 26.4135C19.5538 26.4027 19.5479 26.3884 19.5478 26.3738L19.5021 23.4033C19.5019 23.3932 19.5042 23.3831 19.5089 23.3742C19.5135 23.3653 19.5202 23.3577 19.5286 23.3521L20.8894 22.4451C20.8997 22.4381 20.912 22.4346 20.9246 22.4348C20.9371 22.4352 20.9492 22.4394 20.9593 22.4468C21.8231 23.0951 22.9994 24.2508 22.3512 25.4372C21.9397 26.1908 21.3642 26.8443 20.6246 27.3976C20.6134 27.4061 20.5996 27.4105 20.5857 27.4099C20.5717 27.4094 20.5584 27.404 20.5481 27.3946ZM20.6892 23.5002C20.5786 23.4034 20.4635 23.3121 20.3437 23.2264C20.2819 23.1818 20.2499 23.1976 20.2478 23.2739L20.1755 26.5869C20.1735 26.6687 20.201 26.6804 20.2581 26.6218C20.4751 26.3986 20.6863 26.1703 20.8917 25.9367C21.1233 25.6732 21.2908 25.4336 21.3946 25.2181C21.7328 24.5145 21.1805 23.9282 20.6892 23.5002Z" fill="var(--fill-0, white)"/>
<path id="Vector_4" d="M19.444 32.1277C18.7953 31.4975 18.0381 30.8565 17.9 29.9265C17.7741 29.0789 18.5831 28.2802 19.1311 27.7307C19.1423 27.7196 19.1573 27.7132 19.173 27.713C19.1886 27.7128 19.2036 27.7187 19.215 27.7295L20.1072 28.5704C20.1132 28.5761 20.1181 28.583 20.1212 28.5909C20.1245 28.5986 20.126 28.607 20.1259 28.6155L20.0662 31.3717C20.0662 31.3838 20.0622 31.3958 20.0548 31.406L19.5351 32.1199C19.53 32.127 19.5234 32.1328 19.5159 32.137C19.5084 32.1414 19.5 32.1439 19.4913 32.1447C19.4827 32.1454 19.474 32.1442 19.4658 32.1414C19.4577 32.1384 19.4502 32.1338 19.444 32.1277ZM19.4826 28.4903C19.2567 28.7127 19.0574 28.9439 18.8845 29.1843C18.8122 29.2851 18.7473 29.4642 18.6899 29.7218C18.5843 30.1949 18.8526 30.6422 19.1431 31.0057C19.2855 31.1843 19.4187 31.3536 19.5429 31.5138C19.602 31.5896 19.631 31.5795 19.6297 31.4837L19.585 28.5324C19.5839 28.4386 19.5497 28.4245 19.4826 28.4903ZM20.03 33.033C20.0043 34.011 19.9797 34.9947 19.9564 35.9843C19.9553 36.0529 19.943 36.1231 19.9196 36.195C19.9032 36.2463 19.888 36.2981 19.8738 36.3503C19.8453 36.4525 19.8144 36.4534 19.781 36.3527C19.7572 36.2796 19.7382 36.2052 19.7237 36.1293C19.71 36.0575 19.7024 35.9622 19.7008 35.8435C19.6904 35.0436 19.6785 34.2439 19.6653 33.4441C19.6641 33.3494 19.6841 33.2636 19.7256 33.1865C19.8477 32.959 19.9964 32.7513 20.1716 32.5635C20.1781 32.5568 20.1859 32.5515 20.1946 32.5483C20.2033 32.5451 20.2127 32.5439 20.2219 32.5449C20.2312 32.5459 20.2401 32.549 20.248 32.554C20.256 32.5591 20.2627 32.5657 20.2675 32.5738C20.3749 32.7495 20.4587 32.9339 20.5189 33.1269C20.6515 33.5507 20.628 34.3212 20.2494 34.6318C20.246 34.6344 20.242 34.6362 20.2379 34.6368C20.2337 34.6375 20.2293 34.6372 20.2253 34.6356C20.2212 34.6342 20.2177 34.6318 20.2148 34.6285C20.212 34.6253 20.21 34.6214 20.209 34.6173C20.2082 34.6117 20.2079 34.6057 20.2079 34.5992C20.2079 34.5916 20.2098 34.5838 20.2139 34.5757C20.4836 34.0385 20.4594 33.5141 20.1416 33.0029C20.0708 32.8889 20.0336 32.899 20.03 33.033Z" fill="var(--fill-0, white)"/>
<path id="Vector_5" d="M14.2919 1.00042H14.955C16.6016 1.11298 17.3148 2.25422 17.4251 3.78853C17.469 4.4001 17.5209 5.58528 18.3632 5.67677C18.5766 5.70005 18.7954 5.7177 19.0197 5.72975C19.0344 5.73047 19.0483 5.73665 19.0588 5.74709C19.0692 5.75753 19.0754 5.77151 19.0764 5.78632L19.0963 6.14447C18.6626 6.14568 18.3151 6.11597 18.0539 6.05539C17.1965 5.85675 17.2291 4.36578 17.1393 3.73677C16.9777 2.60154 16.4001 1.63484 15.1673 1.46089C14.4951 1.36639 13.8271 1.42719 13.1555 1.63124C12.8058 1.73758 12.5307 1.84312 12.3301 1.94784C11.1718 2.55459 9.99896 3.13203 8.81169 3.68019C8.80644 3.68272 8.80196 3.68657 8.79874 3.69135C8.79553 3.69612 8.79375 3.70164 8.79358 3.70727C8.79181 3.75542 8.85333 3.70727 8.86721 3.70186C10.1001 3.19684 11.1045 2.6509 12.2174 2.10616C13.2085 1.6204 14.846 1.28694 15.8576 1.84612C16.9813 2.4667 16.9579 3.73737 17.0905 4.83709C17.1568 5.38244 17.4389 6.13303 18.0562 6.22091C18.3533 6.26346 18.705 6.28973 19.1113 6.29977C19.092 6.67897 19.0897 7.10575 19.1047 7.58006C19.1187 8.03472 19.1359 8.99559 19.1559 10.4627C19.1559 10.4738 19.153 10.4845 19.1475 10.4939C18.7755 11.1224 18.1624 11.7196 17.4347 11.8808C17.1743 11.9386 16.9313 11.861 16.8933 11.5768C16.8796 11.4765 16.9118 11.3351 16.9897 11.1525C17.0055 11.1151 17.3099 10.5108 17.2141 10.5451C17.2016 10.5497 17.1917 10.5589 17.1863 10.5704C16.8711 11.244 16.0993 11.997 15.2848 11.8465C14.823 11.761 14.7036 11.2753 14.9406 10.9195C15.1692 10.576 15.3632 10.2127 15.5223 9.82948C15.544 9.77727 15.5355 9.77168 15.4965 9.81255C15.4868 9.82271 15.4771 9.83574 15.4675 9.85173C15.2626 10.1912 14.8936 10.7576 14.521 10.9864C13.9398 11.3432 11.409 12.3286 12.6369 10.3013C12.7277 10.1513 12.8831 9.9653 13.103 9.74342C13.4044 9.44004 13.6948 9.12617 13.9742 8.80198C13.9964 8.77667 13.9899 8.72429 13.9494 8.76466C13.4992 9.2179 12.9535 9.77286 12.3723 10.048C11.7392 10.3477 10.5125 10.8931 9.81795 10.7083C9.2156 10.5475 9.64371 9.9191 9.85341 9.66751C9.92542 9.58128 10.0511 9.47609 10.2303 9.35211C11.0232 8.80316 11.8018 8.23416 12.5659 7.64507C12.6099 7.61136 12.5537 7.62099 12.5466 7.62521C11.6723 8.19543 10.7873 8.74858 9.8914 9.28467C9.75 9.3698 9.60487 9.43175 9.45619 9.47067C8.60208 9.69425 7.74721 9.79436 6.89152 9.77109C6.73638 9.76669 6.5724 9.73978 6.39957 9.69044C5.50611 9.43522 6.95904 8.61716 7.22251 8.49559C8.37763 7.96428 9.51364 7.39608 10.6306 6.79094C12.2415 5.91734 12.223 5.88163 10.5751 6.6838C10.5011 6.71951 10.4275 6.75563 10.3539 6.79214C9.8221 7.05257 8.6592 7.56661 6.865 8.33428C6.73438 8.39005 6.60134 8.42416 6.46589 8.4366C5.47114 8.52809 4.27683 8.56902 3.29896 8.33126C2.68945 8.18319 3.7041 7.54514 3.86869 7.46148C6.62505 6.0622 9.38366 4.66714 12.1444 3.27629C12.1681 3.26466 12.1665 3.25703 12.1395 3.25343C12.1339 3.25303 12.1283 3.25403 12.1227 3.25643C9.35184 4.50683 6.58667 5.76947 3.82709 7.04435C3.72741 7.09049 3.62391 7.11597 3.5166 7.1208C2.81485 7.15089 1.96298 7.1547 0.960995 7.13223C0.591225 7.1238 0.270894 7.07044 0 6.97211V6.92576C0.0920401 6.86317 0.192922 6.81963 0.302645 6.79515C1.44491 6.53873 2.56024 6.19323 3.64863 5.75863C5.57946 4.98817 7.47049 4.13123 9.3218 3.18781C10.9616 2.35234 12.394 1.19003 14.2919 1.00042ZM20.7705 6.32866C21.7712 6.25463 22.3192 6.39668 22.7171 5.29335C22.7895 5.09311 22.8285 4.92617 22.8341 4.79255C22.9034 3.19684 23.2224 1.6523 25.1564 1.58489C26.0571 1.55359 26.8854 1.72534 27.6415 2.10014C28.7562 2.65331 29.8799 3.25524 31.0212 3.70787C31.0333 3.71269 31.0454 3.7147 31.0574 3.71389C31.112 3.7115 31.1145 3.69905 31.0646 3.67658C30.0156 3.20386 28.9817 2.70046 27.9629 2.16635C27.038 1.6818 26.1161 1.36699 25.0708 1.44223C24.2972 1.49761 23.6039 1.77389 23.2103 2.4324C22.7545 3.19504 22.7786 4.02328 22.6411 4.89789C22.5854 5.25302 22.4468 5.56622 22.2258 5.83749C21.9557 6.16854 21.1394 6.17637 20.7843 6.14447L20.7861 5.79776C20.7861 5.78206 20.7923 5.76699 20.8034 5.75583C20.8145 5.74468 20.8295 5.73833 20.8452 5.73817C21.1029 5.73416 21.359 5.7155 21.6139 5.6822C22.5398 5.5594 22.4423 3.75965 22.5887 3.11257C22.9354 1.58188 23.8909 0.958887 25.4271 1.02028C26.865 1.07747 27.9284 1.70828 29.1312 2.40651C31.0188 3.50142 33.0396 4.42175 35.1588 5.32344C36.4084 5.85514 37.6187 6.28673 38.7899 6.61818C38.8774 6.64287 39.9023 6.83126 39.9059 6.97092C39.9061 6.98431 39.902 6.99747 39.8939 7.00826C39.8858 7.01906 39.8742 7.02689 39.8612 7.0305C39.6772 7.07906 39.4915 7.10916 39.3041 7.1208C38.3343 7.18139 37.3643 7.18761 36.3941 7.13946C36.2859 7.13423 36.1819 7.10856 36.0817 7.06241C33.3684 5.80799 30.6484 4.56802 27.9218 3.34251C27.8844 3.32565 27.8694 3.32906 27.8766 3.35274C27.8789 3.35933 27.8835 3.3647 27.8892 3.36779C30.6207 4.73616 33.3467 6.11518 36.0673 7.50482C36.3538 7.65089 36.5957 7.85013 36.7926 8.10253C36.8629 8.19242 36.8462 8.25663 36.7425 8.29515C36.5665 8.36096 36.3852 8.40429 36.1988 8.42516C35.2868 8.52709 34.3746 8.53712 33.4623 8.45526C33.3228 8.44242 33.1859 8.40791 33.0517 8.35173C31.2728 7.60655 29.5168 6.811 27.7838 5.9651C27.758 5.95225 27.7588 5.95386 27.7862 5.96991C29.4231 6.91574 31.0975 7.79013 32.8094 8.59311C33.126 8.74155 33.4071 8.93957 33.6528 9.18718C34.0386 9.57603 33.5358 9.74342 33.2422 9.76567C32.3198 9.83489 31.3311 9.7193 30.4407 9.48151C30.2888 9.44106 30.139 9.3764 29.9915 9.28772C29.1121 8.75966 28.2305 8.20807 27.3466 7.63302C27.1686 7.51706 27.1607 7.52749 27.3231 7.66433C27.3472 7.6848 27.3762 7.70787 27.4099 7.73356C28.1793 8.31581 28.9619 8.87983 29.7576 9.42557C30.1205 9.67479 30.9061 10.6499 29.927 10.7547C29.148 10.8389 27.5342 10.1841 26.9168 9.65913C26.8002 9.56004 26.6845 9.46009 26.5695 9.35931C25.9313 8.79876 25.9034 8.82745 26.4858 9.44545C26.6011 9.56782 26.7201 9.6868 26.8427 9.8024C27.1791 10.1184 27.3598 10.4452 27.5203 10.8552C27.7897 11.5449 27.22 11.6286 26.713 11.5233C26.1632 11.409 25.4253 11.1554 25.0545 10.7113C24.9876 10.6312 24.3871 9.83362 24.3871 9.83362L24.3826 9.83549C24.3813 9.83659 24.3802 9.83794 24.3795 9.83955C24.3795 9.83955 24.3782 9.84276 24.3782 9.84454C24.3782 9.8464 24.3786 9.84818 24.3793 9.84987C24.5349 10.2226 24.7252 10.576 24.9502 10.91C25.0157 11.0078 25.0529 11.1004 25.0617 11.1874C25.1166 11.7339 24.7917 11.9078 24.2991 11.8808C23.7559 11.8507 23.2025 11.3559 22.9185 10.9249C22.9028 10.9012 22.8873 10.8775 22.8721 10.8539C22.6615 10.5329 22.6334 10.5481 22.7876 10.8996C22.8294 10.9956 22.8733 11.0905 22.9191 11.1843C22.9778 11.3051 23.0057 11.4125 23.0029 11.5065C22.986 12.0909 22.4229 11.9278 22.0829 11.7629C21.503 11.4824 21.0583 11.054 20.7487 10.4778C20.7089 10.4027 20.69 10.3196 20.6921 10.2286C20.7254 8.93001 20.7515 7.63002 20.7705 6.32866Z" fill="var(--fill-0, white)"/>
<path id="Vector_6" d="M19.9414 4.04533C20.6013 4.04533 21.1363 3.5112 21.1363 2.85231C21.1363 2.19342 20.6013 1.6593 19.9414 1.6593C19.2814 1.6593 18.7464 2.19342 18.7464 2.85231C18.7464 3.5112 19.2814 4.04533 19.9414 4.04533Z" fill="var(--fill-0, white)"/>
<path id="Vector_7" d="M20.4963 16.5646C21.0996 16.3013 21.6707 15.982 22.2097 15.6064C22.5401 15.3759 23.3358 14.9761 23.2086 14.4711C23.1491 14.234 22.997 14.1188 22.7523 14.1256C22.2085 14.14 21.4814 13.6452 21.1167 13.2793C21.0254 13.1874 21.0155 13.1065 21.0871 13.0367C21.0928 13.0311 21.0974 13.0246 21.1004 13.0173C21.1035 13.01 21.1051 13.0021 21.1052 12.9941C21.1053 12.9862 21.1038 12.9783 21.1008 12.971C21.0978 12.9636 21.0933 12.9568 21.0877 12.9512C21.0383 12.9011 21.0323 12.8357 21.0696 12.7551C21.2349 12.3967 21.5152 12.2013 21.9107 12.1687C22.6148 12.1116 23.7229 12.3319 23.9218 13.1301C23.925 13.1426 23.9322 13.1539 23.9424 13.1625C24.4861 13.6007 24.9425 14.376 24.7809 15.0899C24.4826 16.4075 22.8024 17.1046 21.6755 17.4946C21.6681 17.4973 21.6603 17.4984 21.6523 17.498C21.6445 17.4976 21.6368 17.4956 21.6297 17.4922L19.425 16.4399C19.415 16.4351 19.4066 16.4275 19.4006 16.4181C19.3946 16.4086 19.3914 16.3977 19.3912 16.3865L19.1971 4.24503C19.197 4.23634 19.195 4.22781 19.1912 4.21999C19.1873 4.21217 19.1818 4.20526 19.1751 4.19976C19.1684 4.19425 19.1605 4.19028 19.152 4.18813C19.1434 4.18596 19.1345 4.18565 19.1259 4.18724C18.9044 4.22697 18.7934 4.12303 18.7926 3.87544C18.7926 3.82528 18.8126 3.77834 18.8529 3.73459C18.8583 3.72856 18.8649 3.72372 18.8724 3.72037C18.8799 3.71702 18.8879 3.71523 18.8961 3.71512C18.9043 3.715 18.9125 3.71657 18.9201 3.71972C18.9276 3.72285 18.9346 3.7275 18.9402 3.73339C19.1188 3.91558 19.2873 4.03255 19.446 4.08431C20.0265 4.27291 20.5232 4.15634 20.9364 3.73459C20.9473 3.72335 20.9622 3.71686 20.978 3.71653C20.9935 3.7162 21.0088 3.72203 21.0202 3.73278C21.0765 3.78495 21.0972 3.85799 21.0822 3.95189C21.0493 4.15935 20.9418 4.236 20.7597 4.18182C20.7508 4.17915 20.7415 4.17856 20.7324 4.18011C20.7232 4.18167 20.7145 4.18532 20.7071 4.1908C20.6995 4.19627 20.6933 4.20341 20.689 4.21166C20.6847 4.21993 20.6822 4.22908 20.6819 4.2384C20.6204 6.90975 20.558 9.55597 20.4945 12.1772C20.46 13.621 20.4324 15.0648 20.4119 16.5087C20.4117 16.5187 20.4141 16.5286 20.4189 16.5376C20.4235 16.5464 20.4304 16.554 20.4388 16.5595C20.4472 16.5651 20.4568 16.5685 20.4668 16.5694C20.477 16.5703 20.487 16.5687 20.4963 16.5646ZM22.2736 12.659C22.2737 12.6441 22.268 12.6293 22.2569 12.6155C22.2458 12.6016 22.2295 12.5889 22.2088 12.5782C22.1882 12.5675 22.1636 12.5589 22.1366 12.5531C22.1095 12.5471 22.0806 12.544 22.0513 12.5438C21.9922 12.5434 21.9354 12.555 21.8933 12.576C21.8514 12.597 21.8277 12.6258 21.8274 12.656C21.8273 12.671 21.833 12.6858 21.8441 12.6997C21.8552 12.7135 21.8715 12.7261 21.8922 12.7369C21.9128 12.7476 21.9374 12.7561 21.9644 12.762C21.9915 12.7679 22.0204 12.7711 22.0497 12.7713C22.109 12.7717 22.1657 12.7601 22.2077 12.7391C22.2496 12.718 22.2733 12.6893 22.2736 12.659Z" fill="var(--fill-0, white)"/>
<path id="Vector_8" d="M20.2691 28.4877C19.4734 27.6534 18.3 26.8619 17.6122 25.7796C17.1535 25.0579 17.0491 24.4307 17.546 23.7228C17.8831 23.2429 18.2734 22.8415 18.7167 22.5184C20.2681 21.3871 21.2685 20.665 21.7179 20.3521C22.8916 19.5334 20.8365 18.5234 20.2667 18.3127C19.4712 18.0182 18.6773 17.7202 17.8847 17.4189C17.2831 17.1897 16.9107 17.0392 16.7676 16.9675C15.9537 16.5569 14.7456 15.6185 14.9601 14.5507C15.0643 14.0338 15.3149 13.5983 15.712 13.2439C15.8819 13.0922 15.8518 12.9665 15.9694 12.8105C16.4837 12.1267 18.3827 11.7199 18.7155 12.8527C18.7189 12.8637 18.7189 12.8756 18.7156 12.8867C18.7122 12.8978 18.7058 12.9077 18.6968 12.9153L18.6612 12.9453C18.6542 12.9513 18.6487 12.9588 18.645 12.9672C18.6413 12.9757 18.6396 12.9847 18.64 12.994C18.6404 13.0031 18.6429 13.0121 18.6473 13.0201C18.6517 13.0282 18.6579 13.0352 18.6655 13.0404L18.692 13.0591C18.7032 13.0671 18.7114 13.0787 18.7151 13.092C18.7189 13.1052 18.7179 13.1193 18.7125 13.132C18.5323 13.5558 17.3753 14.2299 16.9297 14.1083C16.9168 14.1047 16.9031 14.1057 16.8906 14.1107C16.6096 14.2279 16.4937 14.4109 16.5427 14.6597C16.606 14.9786 16.9105 15.1743 17.18 15.3573C17.8443 15.8093 18.3851 16.1536 19.1267 16.5021C20.3457 17.0746 21.7118 17.6302 22.7771 18.4205C23.0038 18.5886 23.1783 18.7964 23.3004 19.0441C23.7725 19.9987 23.0514 20.833 22.3063 21.3284C21.2512 22.0297 20.1274 22.6725 19.1393 23.4339C18.4979 23.9281 17.9269 24.6498 18.5081 25.4672C19.1791 26.4111 20.1003 27.2116 20.9179 28.0285C21.2739 28.3847 21.5452 28.7509 21.7317 29.1269C22.1085 29.886 21.6395 30.8207 21.0752 31.3571C20.2076 32.1811 19.2582 33.0798 19.2003 34.3667C19.1858 34.6947 19.3142 35.0372 19.4057 35.3592C19.4167 35.3978 19.4046 35.407 19.3696 35.3869C19.3607 35.3821 19.3526 35.3735 19.345 35.3611C18.4364 33.8743 19.5928 32.2166 20.5187 31.1175C21.0843 30.4464 21.3181 29.8408 20.775 29.0534C20.7175 28.97 20.5489 28.7814 20.2691 28.4877ZM17.9197 12.6621C17.9199 12.6473 17.9144 12.6325 17.9036 12.6187C17.8927 12.6049 17.8765 12.5922 17.8561 12.5814C17.8357 12.5706 17.8113 12.5619 17.7846 12.5557C17.7578 12.5496 17.729 12.5462 17.6998 12.5457C17.6707 12.5451 17.6418 12.5477 17.6148 12.5528C17.5878 12.558 17.5631 12.5658 17.5424 12.5759C17.5216 12.586 17.505 12.5982 17.4937 12.6116C17.4823 12.6251 17.4762 12.6396 17.4761 12.6544C17.4756 12.6842 17.4983 12.7133 17.5396 12.7351C17.5808 12.7569 17.637 12.7698 17.6959 12.7708C17.725 12.7713 17.7539 12.7689 17.781 12.7637C17.8079 12.7585 17.8325 12.7507 17.8533 12.7406C17.8741 12.7305 17.8906 12.7183 17.902 12.7049C17.9134 12.6914 17.9194 12.6769 17.9197 12.6621Z" fill="var(--fill-0, white)"/>
<path id="Vector_9" d="M53.0817 9.06234V10.7284H48.0968V9.06234H53.0817ZM48.7777 5.18817V14.8141H46.6225V5.18817H48.7777ZM54.5692 5.18817V14.8141H52.4205V5.18817H54.5692ZM58.734 5.18817V14.8141H56.5854V5.18817H58.734ZM64.5384 11.4689H62.1187V9.7962H64.5384C64.8954 9.7962 65.1819 9.73671 65.3978 9.61773C65.6182 9.49866 65.779 9.33559 65.8804 9.12843C65.9862 8.91687 66.0391 8.67891 66.0391 8.41445C66.0391 8.14119 65.9862 7.88775 65.8804 7.65416C65.779 7.41615 65.6182 7.22443 65.3978 7.07898C65.1819 6.93354 64.8954 6.86081 64.5384 6.86081H62.8988V14.8141H60.7435V5.18817H64.5384C65.3052 5.18817 65.962 5.327 66.5085 5.60467C67.0595 5.88235 67.4804 6.26359 67.7713 6.74842C68.0666 7.22883 68.2142 7.77977 68.2142 8.40123C68.2142 9.02265 68.0666 9.56264 67.7713 10.021C67.4804 10.4794 67.0595 10.8364 66.5085 11.092C65.962 11.3432 65.3052 11.4689 64.5384 11.4689ZM72.6567 7.01948L70.1708 14.8141H67.8702L71.4336 5.18817H72.8881L72.6567 7.01948ZM74.7194 14.8141L72.2269 7.01948L71.9691 5.18817H73.4434L77.0201 14.8141H74.7194ZM74.6136 11.2308V12.8969H69.5957V11.2308H74.6136ZM82.0907 7.01948L79.6049 14.8141H77.3041L80.8675 5.18817H82.322L82.0907 7.01948ZM84.1534 14.8141L81.6609 7.01948L81.4031 5.18817H82.8773L86.4542 14.8141H84.1534ZM84.0476 11.2308V12.8969H79.0297V11.2308H84.0476Z" fill="var(--fill-0, white)"/>
<path id="Vector_10" d="M52.7578 27.8314H54.0271C53.9609 28.4395 53.7869 28.9839 53.5048 29.4643C53.2227 29.9448 52.8238 30.326 52.3081 30.608C51.7925 30.8858 51.149 31.0245 50.3776 31.0245C49.8135 31.0245 49.3 30.9188 48.8372 30.7072C48.3789 30.4956 47.9844 30.196 47.6538 29.8081C47.3233 29.4158 47.0677 28.9464 46.8869 28.3999C46.7106 27.849 46.6225 27.2364 46.6225 26.562V25.6034C46.6225 24.929 46.7106 24.3186 46.8869 23.772C47.0677 23.2211 47.3255 22.7495 47.6604 22.3572C47.9999 21.965 48.4075 21.663 48.8835 21.4515C49.3595 21.2399 49.895 21.1341 50.4901 21.1341C51.2173 21.1341 51.8321 21.2708 52.3346 21.5441C52.837 21.8173 53.2271 22.1963 53.5048 22.6812C53.7869 23.1616 53.9609 23.7191 54.0271 24.3538H52.7578C52.696 23.9043 52.5814 23.5186 52.4139 23.1968C52.2465 22.8707 52.0084 22.6195 51.7 22.4432C51.3914 22.2669 50.9881 22.1787 50.4901 22.1787C50.0626 22.1787 49.6857 22.2603 49.3595 22.4234C49.0378 22.5865 48.7667 22.8178 48.5464 23.1176C48.3304 23.4173 48.1673 23.7764 48.0572 24.1952C47.947 24.6139 47.8919 25.0789 47.8919 25.5902V26.562C47.8919 27.0336 47.9403 27.4765 48.0373 27.8908C48.1387 28.3052 48.2907 28.6688 48.4935 28.9817C48.6962 29.2947 48.9541 29.5414 49.267 29.7222C49.5799 29.8985 49.9501 29.9866 50.3776 29.9866C50.9198 29.9866 51.3517 29.9007 51.6735 29.7288C51.9952 29.5569 52.2377 29.3101 52.4007 28.9883C52.5682 28.6666 52.6872 28.2809 52.7578 27.8314ZM55.5276 27.395V27.243C55.5276 26.7273 55.6025 26.2491 55.7523 25.8083C55.9022 25.3631 56.1182 24.9775 56.4002 24.6514C56.6823 24.3208 57.0239 24.0652 57.425 23.8844C57.826 23.6993 58.2756 23.6068 58.7736 23.6068C59.2761 23.6068 59.7279 23.6993 60.129 23.8844C60.5344 24.0652 60.8782 24.3208 61.1603 24.6514C61.4468 24.9775 61.665 25.3631 61.8149 25.8083C61.9646 26.2491 62.0396 26.7273 62.0396 27.243V27.395C62.0396 27.9106 61.9646 28.3889 61.8149 28.8297C61.665 29.2704 61.4468 29.656 61.1603 29.9866C60.8782 30.3128 60.5366 30.5684 60.1356 30.7535C59.7389 30.9343 59.2893 31.0245 58.7869 31.0245C58.2844 31.0245 57.8326 30.9343 57.4316 30.7535C57.0305 30.5684 56.6867 30.3128 56.4002 29.9866C56.1182 29.656 55.9022 29.2704 55.7523 28.8297C55.6025 28.3889 55.5276 27.9106 55.5276 27.395ZM56.7506 27.243V27.395C56.7506 27.752 56.7925 28.0892 56.8762 28.4065C56.96 28.7195 57.0856 28.9971 57.253 29.2396C57.425 29.4819 57.6388 29.6737 57.8943 29.8147C58.15 29.9513 58.4475 30.0196 58.7869 30.0196C59.1219 30.0196 59.4149 29.9513 59.6662 29.8147C59.9218 29.6737 60.1334 29.4819 60.3009 29.2396C60.4683 28.9971 60.594 28.7195 60.6777 28.4065C60.7659 28.0892 60.8099 27.752 60.8099 27.395V27.243C60.8099 26.8903 60.7659 26.5576 60.6777 26.2447C60.594 25.9273 60.4661 25.6475 60.2943 25.405C60.1268 25.1582 59.9152 24.9643 59.6596 24.8232C59.4083 24.6822 59.1131 24.6117 58.7736 24.6117C58.4387 24.6117 58.1434 24.6822 57.8877 24.8232C57.6366 24.9643 57.425 25.1582 57.253 25.405C57.0856 25.6475 56.96 25.9273 56.8762 26.2447C56.7925 26.5576 56.7506 26.8903 56.7506 27.243ZM65.0607 25.1604V30.8924H63.831V23.739H64.9946L65.0607 25.1604ZM64.8094 27.0446L64.2408 27.0248C64.2452 26.5355 64.3092 26.0838 64.4326 25.6695C64.556 25.2508 64.7389 24.8871 64.9813 24.5786C65.2237 24.2701 65.5257 24.0321 65.887 23.8646C66.2485 23.6927 66.6672 23.6068 67.1432 23.6068C67.4782 23.6068 67.7867 23.6553 68.0688 23.7522C68.3508 23.8448 68.5955 23.9924 68.8027 24.1952C69.0098 24.3979 69.1707 24.658 69.2853 24.9753C69.3998 25.2926 69.4571 25.6761 69.4571 26.1257V30.8924H68.2341V26.1852C68.2341 25.8105 68.1702 25.5108 68.0423 25.286C67.9189 25.0613 67.7427 24.8982 67.5134 24.7968C67.2843 24.691 67.0154 24.6382 66.7069 24.6382C66.3454 24.6382 66.0435 24.7021 65.8011 24.8298C65.5587 24.9577 65.3648 25.134 65.2194 25.3587C65.0739 25.5835 64.9681 25.8413 64.902 26.1323C64.8403 26.4187 64.8094 26.7229 64.8094 27.0446ZM69.4439 26.3702L68.6241 26.6215C68.6285 26.2293 68.6925 25.8524 68.8159 25.491C68.9436 25.1296 69.1266 24.8078 69.3646 24.5257C69.607 24.2436 69.9045 24.0211 70.2571 23.858C70.6097 23.6905 71.0129 23.6068 71.4669 23.6068C71.8504 23.6068 72.1898 23.6575 72.4851 23.7588C72.7848 23.8602 73.036 24.0167 73.2387 24.2282C73.4459 24.4354 73.6023 24.702 73.7081 25.0282C73.8139 25.3543 73.8668 25.7422 73.8668 26.1918V30.8924H72.6371V26.1786C72.6371 25.7774 72.5732 25.4667 72.4454 25.2463C72.322 25.0216 72.1457 24.8651 71.9165 24.7769C71.6917 24.6844 71.4229 24.6382 71.1099 24.6382C70.8411 24.6382 70.6031 24.6844 70.3959 24.7769C70.1888 24.8695 70.0147 24.9973 69.8737 25.1604C69.7326 25.319 69.6246 25.502 69.5497 25.7092C69.4791 25.9163 69.4439 26.1367 69.4439 26.3702ZM77.2118 25.1142V33.6426H75.9821V23.739H77.106L77.2118 25.1142ZM82.0314 27.2562V27.395C82.0314 27.9151 81.9697 28.3977 81.8463 28.8429C81.7229 29.2836 81.5422 29.6671 81.3042 29.9932C81.0705 30.3194 80.7819 30.5728 80.4381 30.7535C80.0943 30.9343 79.6999 31.0245 79.2547 31.0245C78.8008 31.0245 78.3997 30.9497 78.0514 30.7998C77.7033 30.6499 77.4079 30.4318 77.1656 30.1453C76.9231 29.8588 76.7292 29.515 76.5838 29.1139C76.4427 28.7129 76.3457 28.2611 76.2929 27.7587V27.0182C76.3457 26.4893 76.4449 26.0155 76.5904 25.5968C76.7358 25.1781 76.9275 24.821 77.1656 24.5257C77.4079 24.226 77.7011 23.9991 78.0448 23.8448C78.3887 23.6861 78.7853 23.6068 79.2349 23.6068C79.6844 23.6068 80.0833 23.6949 80.4315 23.8712C80.7797 24.0431 81.0727 24.2899 81.3108 24.6117C81.5488 24.9334 81.7273 25.319 81.8463 25.7686C81.9697 26.2138 82.0314 26.7097 82.0314 27.2562ZM80.8017 27.395V27.2562C80.8017 26.8991 80.7643 26.5642 80.6893 26.2513C80.6144 25.9339 80.4976 25.6563 80.339 25.4182C80.1847 25.1759 79.9863 24.9863 79.7439 24.8497C79.5015 24.7086 79.2128 24.6382 78.8779 24.6382C78.5693 24.6382 78.3005 24.691 78.0713 24.7968C77.8465 24.9026 77.6548 25.0458 77.4961 25.2265C77.3375 25.4028 77.2074 25.6056 77.106 25.8347C77.0091 26.0595 76.9363 26.2931 76.8878 26.5355V28.2479C76.976 28.5564 77.0994 28.8473 77.2581 29.1205C77.4167 29.3894 77.6283 29.6076 77.8928 29.7751C78.1572 29.9381 78.49 30.0196 78.8911 30.0196C79.2216 30.0196 79.5059 29.9513 79.7439 29.8147C79.9863 29.6737 80.1847 29.4819 80.339 29.2396C80.4976 28.9971 80.6144 28.7195 80.6893 28.4065C80.7643 28.0892 80.8017 27.752 80.8017 27.395ZM85.1916 20.7375V30.8924H83.9616V20.7375H85.1916ZM88.7543 23.739V30.8924H87.5247V23.739H88.7543ZM87.4325 21.8416C87.4325 21.6432 87.4917 21.4758 87.611 21.3391C87.7346 21.2025 87.9148 21.1341 88.1526 21.1341C88.3862 21.1341 88.5647 21.2025 88.6883 21.3391C88.8161 21.4758 88.8804 21.6432 88.8804 21.8416C88.8804 22.0311 88.8161 22.1941 88.6883 22.3308C88.5647 22.463 88.3862 22.5292 88.1526 22.5292C87.9148 22.5292 87.7346 22.463 87.611 22.3308C87.4917 22.1941 87.4325 22.0311 87.4325 21.8416ZM95.2068 29.6693V25.9868C95.2068 25.7048 95.1493 25.4601 95.0351 25.253C94.925 25.0414 94.7575 24.8783 94.5324 24.7637C94.3073 24.6492 94.0297 24.5919 93.6997 24.5919C93.3908 24.5919 93.12 24.6448 92.8865 24.7505C92.6571 24.8563 92.476 24.9951 92.344 25.1671C92.2162 25.3389 92.1528 25.524 92.1528 25.7224H90.9291C90.9291 25.4667 90.9951 25.2133 91.128 24.9621C91.26 24.7109 91.4496 24.4839 91.6958 24.2811C91.9471 24.074 92.2475 23.9109 92.5954 23.7919C92.9482 23.6685 93.34 23.6068 93.7725 23.6068C94.2921 23.6068 94.7507 23.6949 95.1476 23.8712C95.5487 24.0475 95.861 24.3141 96.0861 24.6712C96.3154 25.0238 96.4296 25.4667 96.4296 26V29.3321C96.4296 29.5701 96.45 29.8236 96.4897 30.0924C96.5337 30.3613 96.5972 30.5926 96.681 30.7866V30.8924H95.4049C95.3431 30.7513 95.2948 30.564 95.2593 30.3304C95.2246 30.0924 95.2068 29.8721 95.2068 29.6693ZM95.4184 26.5554L95.4319 27.4148H94.1956C93.8469 27.4148 93.5364 27.4435 93.263 27.5008C92.9897 27.5537 92.7604 27.6352 92.5759 27.7454C92.3906 27.8556 92.2492 27.9944 92.1528 28.1619C92.0555 28.325 92.0072 28.5167 92.0072 28.7371C92.0072 28.9618 92.058 29.1668 92.1587 29.352C92.2602 29.537 92.4126 29.6847 92.6148 29.7949C92.8221 29.9007 93.076 29.9536 93.3756 29.9536C93.7505 29.9536 94.0805 29.8743 94.3674 29.7156C94.6534 29.5569 94.881 29.363 95.0477 29.1338C95.2204 28.9046 95.3126 28.682 95.3262 28.466L95.8483 29.0544C95.817 29.2396 95.7332 29.4445 95.597 29.6693C95.4599 29.8941 95.2771 30.11 95.0477 30.3172C94.8235 30.5199 94.5544 30.6896 94.2413 30.8263C93.9333 30.9585 93.5846 31.0245 93.197 31.0245C92.7121 31.0245 92.2865 30.9299 91.9209 30.7403C91.5596 30.5507 91.2778 30.2974 91.0747 29.98C90.8766 29.6583 90.7776 29.2991 90.7776 28.9024C90.7776 28.5189 90.8521 28.1818 91.0019 27.8908C91.1517 27.5956 91.3675 27.3509 91.6501 27.157C91.9319 26.9586 92.2712 26.8088 92.6681 26.7075C93.065 26.6061 93.5076 26.5554 93.9967 26.5554H95.4184ZM99.8476 25.2662V30.8924H98.6248V23.739H99.7816L99.8476 25.2662ZM99.5565 27.0446L99.0479 27.0248C99.0521 26.5355 99.1249 26.0838 99.2662 25.6695C99.4067 25.2508 99.6056 24.8871 99.8611 24.5786C100.117 24.2701 100.421 24.0321 100.773 23.8646C101.13 23.6927 101.525 23.6068 101.956 23.6068C102.309 23.6068 102.627 23.6553 102.908 23.7522C103.191 23.8448 103.431 23.9946 103.629 24.2018C103.832 24.4089 103.987 24.6778 104.092 25.0084C104.198 25.3345 104.251 25.7334 104.251 26.205V30.8924H103.021V26.1918C103.021 25.8171 102.966 25.5174 102.856 25.2926C102.745 25.0635 102.584 24.8982 102.373 24.7968C102.161 24.691 101.901 24.6382 101.593 24.6382C101.289 24.6382 101.011 24.7021 100.76 24.8298C100.513 24.9577 100.299 25.134 100.118 25.3587C99.9424 25.5835 99.8036 25.8413 99.702 26.1323C99.6056 26.4187 99.5565 26.7229 99.5565 27.0446ZM109.374 23.739V24.6778H105.506V23.739H109.374ZM106.816 22.0003H108.038V29.1205C108.038 29.363 108.076 29.5458 108.151 29.6693C108.226 29.7927 108.323 29.8743 108.442 29.9139C108.561 29.9535 108.689 29.9734 108.825 29.9734C108.927 29.9734 109.033 29.9646 109.143 29.9469C109.257 29.9249 109.343 29.9073 109.401 29.8941L109.408 30.8924C109.31 30.9232 109.182 30.9519 109.023 30.9783C108.869 31.0091 108.682 31.0245 108.461 31.0245C108.162 31.0245 107.887 30.9651 107.636 30.8461C107.384 30.7271 107.184 30.5287 107.034 30.2511C106.888 29.969 106.816 29.5899 106.816 29.1139V22.0003Z" fill="var(--fill-0, white)"/>
</g>
</svg>
