<svg preserveAspectRatio="none" width="100%" height="100%" overflow="visible" style="display: block;" viewBox="0 0 51 54" fill="none" xmlns="http://www.w3.org/2000/svg">
<g id="Group">
<path id="Vector" d="M21.9432 43.8746C34.0621 43.8746 43.8864 34.053 43.8864 21.9373C43.8864 9.82168 34.0621 0 21.9432 0C9.82431 0 0 9.82168 0 21.9373C0 34.053 9.82431 43.8746 21.9432 43.8746Z" fill="url(#paint0_linear_0_769)"/>
<path id="Vector_2" d="M28.8714 53.9439C40.9903 53.9439 50.8146 44.1223 50.8146 32.0066C50.8146 19.891 40.9903 10.0693 28.8714 10.0693C16.7525 10.0693 6.92816 19.891 6.92816 32.0066C6.92816 44.1223 16.7525 53.9439 28.8714 53.9439Z" fill="url(#paint1_linear_0_769)"/>
</g>
<defs>
<linearGradient id="paint0_linear_0_769" x1="43.7705" y1="19.642" x2="0.13041" y2="24.2839" gradientUnits="userSpaceOnUse">
<stop stop-color="white" stop-opacity="0"/>
<stop offset="0.94" stop-color="#8F03A0"/>
</linearGradient>
<linearGradient id="paint1_linear_0_769" x1="50.6974" y1="29.71" x2="7.05733" y2="34.3519" gradientUnits="userSpaceOnUse">
<stop stop-color="#6EF1BB"/>
<stop offset="1" stop-color="white" stop-opacity="0"/>
</linearGradient>
</defs>
</svg>
