<svg preserveAspectRatio="none" width="100%" height="100%" overflow="visible" style="display: block;" viewBox="0 0 169 26" fill="none" xmlns="http://www.w3.org/2000/svg">
<g id="Group">
<path id="Vector" d="M16.298 20.6594L6.51822 0.499813H0.000437229V24.6925H4.07173V4.57002L14.0059 24.6925H18.5591L28.4933 4.53913V24.6925H32.5584V0.499813H26.0407L16.298 20.6594Z" fill="var(--fill-0, #111A53)"/>
<path id="Vector_2" d="M56.7575 11.2099C55.942 9.55461 54.7867 8.26993 53.2916 7.35584C51.7966 6.44174 50.0297 5.98469 47.9847 5.98469C45.9398 5.98469 44.1297 6.38616 42.5481 7.19525C40.9665 8.00435 39.731 9.12227 38.8351 10.549C37.9393 11.9819 37.4945 13.6433 37.4945 15.5333C37.4945 17.4233 37.9702 19.1279 38.9155 20.567C39.8607 22.0061 41.1642 23.1302 42.8199 23.9393C44.4756 24.7484 46.3661 25.1498 48.4975 25.1498C50.1532 25.1498 51.7842 24.9028 53.3843 24.4087C54.9844 23.9146 56.3436 23.2352 57.468 22.3767V19.3441C56.3497 20.1408 55.0585 20.7585 53.5944 21.197C52.1302 21.6355 50.7031 21.8579 49.3007 21.8579C47.75 21.8579 46.4155 21.5923 45.285 21.0673C44.1544 20.5423 43.2833 19.7826 42.6717 18.7944C42.3442 18.2694 42.1095 17.6827 41.9612 17.0527H57.9869C57.9869 14.8168 57.5791 12.8713 56.7575 11.216V11.2099ZM44.6733 10.0178C45.5877 9.52373 46.6565 9.27668 47.8859 9.27668C49.0474 9.27668 50.0544 9.5052 50.9007 9.96843C51.7471 10.4316 52.4267 11.0925 52.9333 11.951C53.2607 12.5131 53.4893 13.1492 53.6314 13.8533H41.8994C42.023 13.211 42.2269 12.6242 42.5296 12.0931C43.0485 11.2037 43.759 10.5058 44.6733 10.0117V10.0178Z" fill="var(--fill-0, #111A53)"/>
<path id="Vector_3" d="M78.8006 7.01614C77.5959 6.33057 76.1317 5.98469 74.4142 5.98469C72.8635 5.98469 71.4673 6.34292 70.2194 7.06555C68.9714 7.78818 67.952 8.81345 67.1551 10.1475C67.0192 10.3699 66.9079 10.6108 66.7967 10.8516L66.0616 6.43556H61.8667L62.9664 12.4019V24.6928H67.1613V15.7865C67.1613 14.5204 67.4022 13.4086 67.8841 12.4637C68.366 11.5187 69.0579 10.7837 69.9475 10.2525C70.8433 9.72755 71.8751 9.46197 73.0612 9.46197C74.7787 9.46197 76.0885 9.9499 76.9843 10.9319C77.8739 11.914 78.3249 13.3592 78.3249 15.2677V24.6866H82.5197V14.5883C82.5197 12.7848 82.2047 11.2408 81.5683 9.96225C80.932 8.68375 80.0115 7.70171 78.8068 7.00996L78.8006 7.01614Z" fill="var(--fill-0, #111A53)"/>
<path id="Vector_4" d="M124.518 11.2099C123.702 9.55461 122.547 8.26993 121.052 7.35584C119.557 6.44174 117.79 5.98469 115.745 5.98469C113.7 5.98469 111.89 6.38616 110.309 7.19525C108.727 8.00435 107.491 9.12227 106.596 10.549C105.7 11.9819 105.255 13.6433 105.255 15.5333C105.255 17.4233 105.731 19.1279 106.676 20.567C107.621 22.0061 108.925 23.1302 110.58 23.9393C112.236 24.7484 114.127 25.1498 116.258 25.1498C117.914 25.1498 119.545 24.9028 121.145 24.4087C122.745 23.9146 124.104 23.2352 125.228 22.3767V19.3441C124.11 20.1408 122.819 20.7585 121.355 21.197C119.891 21.6355 118.463 21.8579 117.061 21.8579C115.51 21.8579 114.176 21.5923 113.045 21.0673C111.915 20.5423 111.044 19.7826 110.432 18.7944C110.105 18.2694 109.87 17.6827 109.722 17.0527H125.747C125.747 14.8168 125.34 12.8713 124.518 11.216V11.2099ZM112.434 10.0178C113.348 9.52373 114.417 9.27668 115.646 9.27668C116.808 9.27668 117.815 9.5052 118.661 9.96843C119.508 10.4316 120.187 11.0925 120.694 11.951C121.021 12.5131 121.25 13.1492 121.392 13.8533H109.66C109.783 13.211 109.987 12.6242 110.29 12.0931C110.809 11.2037 111.519 10.5058 112.434 10.0117V10.0178Z" fill="var(--fill-0, #111A53)"/>
<path id="Vector_5" d="M141.655 5.98469C140.432 5.98469 139.351 6.21939 138.43 6.69497C137.504 7.17055 136.725 7.82524 136.089 8.66522C135.477 9.47432 135.002 10.4255 134.649 11.5002L133.815 6.43556H129.621L130.72 12.2722V24.6928H134.915V16.435C134.915 14.9527 135.175 13.6989 135.706 12.6798C136.231 11.6607 136.96 10.8887 137.887 10.3761C138.813 9.86343 139.864 9.60402 141.05 9.60402C141.544 9.60402 142.069 9.6349 142.631 9.70284C143.187 9.76461 143.706 9.86343 144.182 9.99313V6.31821C143.836 6.21322 143.441 6.13293 142.99 6.07734C142.539 6.02175 142.094 5.99705 141.668 5.99705L141.655 5.98469Z" fill="var(--fill-0, #111A53)"/>
<path id="Vector_6" d="M168.789 6.43524H164.465L163.995 10.944C163.909 10.8019 163.835 10.6537 163.742 10.5116C162.784 9.07871 161.61 7.96698 160.227 7.17023C158.837 6.37348 157.298 5.9782 155.599 5.9782C153.814 5.9782 152.232 6.37966 150.855 7.18876C149.477 7.99786 148.402 9.11577 147.63 10.5425C146.857 11.9754 146.468 13.643 146.468 15.5577C146.468 17.4723 146.857 19.1152 147.63 20.5605C148.402 21.9996 149.477 23.1237 150.855 23.9328C152.232 24.7419 153.814 25.1433 155.599 25.1433C157.385 25.1433 158.843 24.7419 160.227 23.9513C161.617 23.1546 162.784 22.0367 163.73 20.5976C163.822 20.4555 163.903 20.2949 163.995 20.1467L164.471 24.6986H168.795L167.826 15.57L168.795 6.44142L168.789 6.43524ZM162.451 18.8064C161.685 19.7391 160.807 20.474 159.819 20.999C158.83 21.524 157.755 21.7896 156.594 21.7896C155.432 21.7896 154.444 21.524 153.561 20.999C152.677 20.474 151.985 19.7391 151.479 18.8064C150.972 17.8676 150.719 16.7929 150.719 15.5639C150.719 14.3348 150.972 13.2601 151.479 12.3213C151.985 11.3825 152.677 10.6537 153.561 10.1287C154.444 9.6037 155.451 9.33812 156.594 9.33812C157.737 9.33812 158.83 9.6037 159.819 10.1287C160.807 10.6537 161.685 11.3887 162.451 12.3213C163.211 13.2539 163.822 14.3348 164.273 15.5639C163.822 16.7929 163.211 17.8676 162.451 18.8064Z" fill="var(--fill-0, #111A53)"/>
<g id="Group_2">
<path id="Vector_7" d="M102.258 6.43498H93.7698V9.65902H102.258V6.43498Z" fill="var(--fill-0, #111A53)"/>
<path id="Vector_8" d="M92.1019 4.77358V-0.000724865H89.6492L87.907 5.09475L84.0025 6.09531V7.99762H87.907H92.1019V4.77358Z" fill="var(--fill-0, #BD05DD)"/>
<path id="Vector_9" d="M100.479 21.3878C99.7503 21.5916 98.9101 21.6966 97.9648 21.6966C96.4821 21.6966 95.4071 21.3878 94.7523 20.7763C94.0974 20.1649 93.77 19.0963 93.77 17.5646V9.65892H89.5751V18.207C89.5751 19.5596 89.8284 20.7578 90.335 21.8016C90.8416 22.8454 91.6447 23.6607 92.7383 24.2536C93.8318 24.8465 95.2774 25.143 97.0628 25.143C98.1378 25.143 99.1881 25.0133 100.207 24.7539C101.227 24.4945 102.018 24.2289 102.58 23.9448V20.4922C101.913 20.8813 101.214 21.1778 100.479 21.3816V21.3878Z" fill="var(--fill-0, #111A53)"/>
</g>
</g>
</svg>
