<svg preserveAspectRatio="none" width="100%" height="100%" overflow="visible" style="display: block;" viewBox="0 0 4131 616" fill="none" xmlns="http://www.w3.org/2000/svg">
<g id="Group">
<path id="Vector" d="M398.799 505.544L159.489 12.2419H4.71065e-05V604.234H99.6241V111.839L342.713 604.234H454.129L697.217 111.084V604.234H796.69V12.2419H637.201L398.799 505.544Z" fill="var(--fill-0, #111A53)"/>
<path id="Vector_2" d="M1388.84 274.308C1368.89 233.804 1340.62 202.369 1304.03 180.001C1267.45 157.633 1224.21 146.449 1174.17 146.449C1124.13 146.449 1079.84 156.273 1041.14 176.071C1002.44 195.87 972.204 223.225 950.284 258.137C928.363 293.2 917.479 333.855 917.479 380.102C917.479 426.349 929.119 468.062 952.249 503.277C975.379 538.491 1007.28 565.997 1047.79 585.796C1088.31 605.594 1134.57 615.418 1186.72 615.418C1227.24 615.418 1267.15 609.373 1306.3 597.282C1345.45 585.191 1378.71 568.566 1406.23 547.559V473.352C1378.86 492.848 1347.27 507.962 1311.44 518.692C1275.61 529.423 1240.69 534.864 1206.37 534.864C1168.43 534.864 1135.78 528.365 1108.11 515.518C1080.45 502.672 1059.13 484.083 1044.16 459.901C1036.15 447.055 1030.41 432.697 1026.78 417.281H1418.93C1418.93 362.571 1408.95 314.963 1388.84 274.46V274.308ZM1093.14 245.14C1115.52 233.049 1141.67 227.003 1171.75 227.003C1200.18 227.003 1224.82 232.595 1245.53 243.93C1266.24 255.265 1282.87 271.437 1295.26 292.444C1303.28 306.198 1308.87 321.765 1312.35 338.994H1025.27C1028.29 323.276 1033.28 308.918 1040.69 295.921C1053.38 274.157 1070.77 257.079 1093.14 244.988V245.14Z" fill="var(--fill-0, #111A53)"/>
<path id="Vector_3" d="M1928.23 171.688C1898.75 154.912 1862.93 146.449 1820.9 146.449C1782.95 146.449 1748.79 155.215 1718.25 172.897C1687.71 190.58 1662.77 215.668 1643.27 248.313C1639.94 253.754 1637.22 259.648 1634.5 265.543L1616.51 157.482H1513.86L1540.77 303.477V604.234H1643.42V386.299C1643.42 355.316 1649.32 328.112 1661.11 304.989C1672.9 281.865 1689.83 263.88 1711.6 250.883C1733.52 238.036 1758.77 231.537 1787.79 231.537C1829.82 231.537 1861.87 243.477 1883.79 267.507C1905.56 291.538 1916.59 326.903 1916.59 373.604V604.083H2019.24V356.979C2019.24 312.848 2011.53 275.064 1995.96 243.779C1980.39 212.495 1957.86 188.464 1928.38 171.537L1928.23 171.688Z" fill="var(--fill-0, #111A53)"/>
<path id="Vector_4" d="M3046.92 274.308C3026.97 233.804 2998.7 202.369 2962.12 180.001C2925.53 157.633 2882.3 146.449 2832.26 146.449C2782.22 146.449 2737.92 156.273 2699.22 176.071C2660.52 195.87 2630.29 223.225 2608.37 258.137C2586.45 293.2 2575.56 333.855 2575.56 380.102C2575.56 426.349 2587.2 468.062 2610.33 503.277C2633.46 538.491 2665.36 565.997 2705.87 585.796C2746.39 605.594 2792.65 615.418 2844.8 615.418C2885.32 615.418 2925.23 609.373 2964.38 597.282C3003.54 585.191 3036.8 568.566 3064.31 547.559V473.352C3036.95 492.848 3005.35 507.962 2969.52 518.692C2933.7 529.423 2898.77 534.864 2864.46 534.864C2826.51 534.864 2793.86 528.365 2766.19 515.518C2738.53 502.672 2717.21 484.083 2702.25 459.901C2694.23 447.055 2688.49 432.697 2684.86 417.281H3077.01C3077.01 362.571 3067.03 314.963 3046.92 274.46V274.308ZM2751.23 245.14C2773.6 233.049 2799.75 227.003 2829.84 227.003C2858.26 227.003 2882.9 232.595 2903.61 243.93C2924.32 255.265 2940.95 271.437 2953.35 292.444C2961.36 306.198 2966.95 321.765 2970.43 338.994H2683.35C2686.37 323.276 2691.36 308.918 2698.77 295.921C2711.47 274.157 2728.85 257.079 2751.23 244.988V245.14Z" fill="var(--fill-0, #111A53)"/>
<path id="Vector_5" d="M3466.28 146.449C3436.35 146.449 3409.9 152.192 3387.37 163.829C3364.69 175.467 3345.65 191.487 3330.08 212.041C3315.11 231.84 3303.47 255.114 3294.85 281.412L3274.44 157.482H3171.8L3198.7 300.303V604.234H3301.35V402.168C3301.35 365.896 3307.7 335.215 3320.7 310.278C3333.55 285.341 3351.39 266.449 3374.07 253.905C3396.74 241.361 3422.44 235.014 3451.47 235.014C3463.56 235.014 3476.41 235.769 3490.17 237.432C3503.77 238.943 3516.47 241.361 3528.11 244.535V154.61C3519.65 152.041 3509.97 150.076 3498.94 148.716C3487.9 147.356 3477.02 146.751 3466.59 146.751L3466.28 146.449Z" fill="var(--fill-0, #111A53)"/>
<path id="Vector_6" d="M4130.24 157.482H4024.42L4012.93 267.81C4010.81 264.334 4009 260.706 4006.73 257.23C3983.3 222.167 3954.58 194.963 3920.71 175.467C3886.7 155.97 3849.06 146.298 3807.48 146.298C3763.8 146.298 3725.09 156.122 3691.38 175.92C3657.67 195.719 3631.37 223.074 3612.47 257.986C3593.57 293.049 3584.05 333.855 3584.05 380.707C3584.05 427.558 3593.57 467.76 3612.47 503.125C3631.37 538.34 3657.67 565.846 3691.38 585.645C3725.09 605.443 3763.8 615.267 3807.48 615.267C3851.17 615.267 3886.85 605.443 3920.71 586.098C3954.73 566.602 3983.3 539.246 4006.43 504.032C4008.7 500.556 4010.66 496.627 4012.93 492.999L4024.57 604.385H4130.39L4106.66 381.009L4130.39 157.633L4130.24 157.482ZM3975.14 460.203C3956.39 483.025 3934.92 501.01 3910.74 513.856C3886.55 526.702 3860.24 533.201 3831.82 533.201C3803.4 533.201 3779.21 526.702 3757.6 513.856C3735.98 501.01 3719.05 483.025 3706.65 460.203C3694.25 437.231 3688.06 410.934 3688.06 380.858C3688.06 350.782 3694.25 324.485 3706.65 301.513C3719.05 278.54 3735.98 260.706 3757.6 247.86C3779.21 235.014 3803.86 228.515 3831.82 228.515C3859.79 228.515 3886.55 235.014 3910.74 247.86C3934.92 260.706 3956.39 278.691 3975.14 301.513C3993.73 324.334 4008.7 350.782 4019.73 380.858C4008.7 410.934 3993.73 437.231 3975.14 460.203Z" fill="var(--fill-0, #111A53)"/>
<g id="Group_2">
<path id="Vector_7" d="M2502.24 157.482H2294.53V236.374H2502.24V157.482Z" fill="var(--fill-0, #111A53)"/>
<path id="Vector_8" d="M2253.71 116.827V7.38243e-06H2193.7L2151.06 124.686L2055.52 149.169V195.719H2151.06H2253.71V116.827Z" fill="var(--fill-0, #BD05DD)"/>
<path id="Vector_9" d="M2458.7 523.377C2440.87 528.365 2420.31 530.934 2397.18 530.934C2360.89 530.934 2334.59 523.377 2318.57 508.415C2302.54 493.453 2294.53 467.307 2294.53 429.825V236.374H2191.88V445.543C2191.88 478.642 2198.08 507.962 2210.48 533.503C2222.87 559.045 2242.52 578.995 2269.28 593.504C2296.04 608.012 2331.42 615.267 2375.11 615.267C2401.41 615.267 2427.11 612.093 2452.05 605.745C2477 599.398 2496.35 592.899 2510.1 585.947V501.463C2493.78 510.984 2476.69 518.239 2458.7 523.226V523.377Z" fill="var(--fill-0, #111A53)"/>
</g>
</g>
</svg>
