<svg preserveAspectRatio="none" width="100%" height="100%" overflow="visible" style="display: block;" viewBox="0 0 1244 1320" fill="none" xmlns="http://www.w3.org/2000/svg">
<g id="Group">
<path id="Vector" d="M536.948 1073.61C833.496 1073.61 1073.9 833.273 1073.9 536.804C1073.9 240.335 833.496 0 536.948 0C240.4 0 0 240.335 0 536.804C0 833.273 240.4 1073.61 536.948 1073.61Z" fill="url(#paint0_linear_0_257)"/>
<path id="Vector_2" d="M706.479 1320C1003.03 1320 1243.43 1079.66 1243.43 783.196C1243.43 486.727 1003.03 246.392 706.479 246.392C409.931 246.392 169.531 486.727 169.531 783.196C169.531 1079.66 409.931 1320 706.479 1320Z" fill="url(#paint1_linear_0_257)"/>
</g>
<defs>
<linearGradient id="paint0_linear_0_257" x1="1071.06" y1="480.637" x2="3.19111" y2="594.224" gradientUnits="userSpaceOnUse">
<stop stop-color="white" stop-opacity="0"/>
<stop offset="0.94" stop-color="#8F03A0"/>
</linearGradient>
<linearGradient id="paint1_linear_0_257" x1="1240.56" y1="726.997" x2="172.692" y2="840.584" gradientUnits="userSpaceOnUse">
<stop stop-color="#6EF1BB"/>
<stop offset="1" stop-color="white" stop-opacity="0"/>
</linearGradient>
</defs>
</svg>
