<svg width="249" height="56" viewBox="0 0 249 56" fill="none" xmlns="http://www.w3.org/2000/svg">
    <path
        d="M90.9318 36.2067L80.8312 15.3857H74.0996V40.3721H78.3045V19.5895L88.5646 40.3721H93.2671L103.527 19.5576V40.3721H107.726V15.3857H100.994L90.9318 36.2067Z"
        fill="white" />
    <path
        d="M132.719 26.4474C131.877 24.7378 130.684 23.411 129.14 22.4669C127.595 21.5228 125.771 21.0508 123.659 21.0508C121.547 21.0508 119.677 21.4654 118.044 22.3011C116.41 23.1367 115.134 24.2913 114.209 25.7648C113.284 27.2448 112.824 28.9607 112.824 30.9127C112.824 32.8646 113.316 34.6252 114.292 36.1115C115.268 37.5978 116.614 38.7588 118.324 39.5944C120.034 40.4301 121.987 40.8447 124.188 40.8447C125.898 40.8447 127.583 40.5895 129.235 40.0792C130.888 39.5689 132.292 38.8672 133.453 37.9805V34.8485C132.298 35.6714 130.964 36.3093 129.452 36.7622C127.94 37.2151 126.466 37.4447 125.018 37.4447C123.416 37.4447 122.038 37.1704 120.87 36.6282C119.703 36.086 118.803 35.3014 118.171 34.2807C117.833 33.7385 117.591 33.1325 117.437 32.4819H133.989C133.989 30.1727 133.568 28.1633 132.719 26.4538V26.4474ZM120.239 25.2162C121.183 24.7059 122.287 24.4508 123.557 24.4508C124.756 24.4508 125.796 24.6868 126.67 25.1652C127.544 25.6436 128.246 26.3262 128.77 27.2129C129.108 27.7933 129.344 28.4504 129.491 29.1776H117.374C117.501 28.5142 117.712 27.9082 118.024 27.3596C118.56 26.441 119.294 25.7202 120.239 25.2099V25.2162Z"
        fill="white" />
    <path
        d="M155.486 22.1161C154.241 21.408 152.729 21.0508 150.955 21.0508C149.354 21.0508 147.912 21.4208 146.623 22.1671C145.334 22.9134 144.281 23.9723 143.458 25.3502C143.318 25.5798 143.203 25.8286 143.088 26.0774L142.329 21.5164H137.996L139.132 27.6785V40.3727H143.464V31.1742C143.464 29.8665 143.713 28.7183 144.211 27.7423C144.709 26.7663 145.423 26.0072 146.342 25.4586C147.267 24.9164 148.333 24.6421 149.558 24.6421C151.332 24.6421 152.684 25.1461 153.61 26.1603C154.528 27.1746 154.994 28.6673 154.994 30.6384V40.3663H159.327V29.9367C159.327 28.074 159.001 26.4793 158.344 25.1588C157.687 23.8384 156.736 22.8241 155.492 22.1097L155.486 22.1161Z"
        fill="white" />
    <path
        d="M202.702 26.4474C201.859 24.7378 200.666 23.411 199.122 22.4669C197.578 21.5228 195.753 21.0508 193.641 21.0508C191.529 21.0508 189.659 21.4654 188.026 22.3011C186.393 23.1367 185.116 24.2913 184.191 25.7648C183.266 27.2448 182.807 28.9607 182.807 30.9127C182.807 32.8646 183.298 34.6252 184.274 36.1115C185.25 37.5978 186.597 38.7588 188.307 39.5944C190.017 40.4301 191.969 40.8447 194.171 40.8447C195.881 40.8447 197.565 40.5895 199.218 40.0792C200.87 39.5689 202.274 38.8672 203.435 37.9805V34.8485C202.28 35.6714 200.947 36.3093 199.435 36.7622C197.922 37.2151 196.449 37.4447 195 37.4447C193.399 37.4447 192.02 37.1704 190.853 36.6282C189.685 36.086 188.785 35.3014 188.154 34.2807C187.815 33.7385 187.573 33.1325 187.42 32.4819H203.971C203.971 30.1727 203.55 28.1633 202.702 26.4538V26.4474ZM190.221 25.2162C191.165 24.7059 192.269 24.4508 193.539 24.4508C194.738 24.4508 195.779 24.6868 196.653 25.1652C197.527 25.6436 198.229 26.3262 198.752 27.2129C199.09 27.7933 199.326 28.4504 199.473 29.1776H187.356C187.484 28.5142 187.694 27.9082 188.007 27.3596C188.543 26.441 189.277 25.7202 190.221 25.2099V25.2162Z"
        fill="white" />
    <path
        d="M220.402 21.0508C219.139 21.0508 218.022 21.2932 217.071 21.7844C216.114 22.2755 215.31 22.9517 214.653 23.8192C214.022 24.6549 213.53 25.6373 213.167 26.7472L212.305 21.5164H207.973L209.108 27.5446V40.3727H213.441V31.844C213.441 30.313 213.709 29.0181 214.258 27.9656C214.8 26.913 215.553 26.1157 216.51 25.5862C217.467 25.0568 218.552 24.7889 219.777 24.7889C220.287 24.7889 220.83 24.8207 221.41 24.8909C221.985 24.9547 222.521 25.0568 223.012 25.1907V21.3952C222.655 21.2868 222.246 21.2039 221.78 21.1465C221.315 21.0891 220.855 21.0635 220.415 21.0635L220.402 21.0508Z"
        fill="white" />
    <path
        d="M248.426 21.516H243.96L243.475 26.1726C243.386 26.0259 243.309 25.8728 243.213 25.7261C242.224 24.2462 241.012 23.098 239.583 22.2751C238.147 21.4522 236.558 21.0439 234.804 21.0439C232.96 21.0439 231.326 21.4586 229.903 22.2942C228.48 23.1299 227.37 24.2845 226.573 25.758C225.775 27.2379 225.373 28.9602 225.373 30.9377C225.373 32.9152 225.775 34.612 226.573 36.1047C227.37 37.591 228.48 38.7519 229.903 39.5876C231.326 40.4232 232.96 40.8379 234.804 40.8379C236.648 40.8379 238.154 40.4232 239.583 39.6067C241.018 38.7838 242.224 37.6292 243.201 36.1429C243.296 35.9962 243.379 35.8304 243.475 35.6773L243.966 40.3786H248.433L247.431 30.9505L248.433 21.5224L248.426 21.516ZM241.88 34.293C241.089 35.2563 240.183 36.0154 239.162 36.5576C238.141 37.0998 237.031 37.3741 235.831 37.3741C234.631 37.3741 233.61 37.0998 232.698 36.5576C231.786 36.0154 231.071 35.2563 230.548 34.293C230.025 33.3234 229.763 32.2135 229.763 30.9441C229.763 29.6747 230.025 28.5647 230.548 27.5951C231.071 26.6255 231.786 25.8728 232.698 25.3306C233.61 24.7884 234.651 24.5141 235.831 24.5141C237.011 24.5141 238.141 24.7884 239.162 25.3306C240.183 25.8728 241.089 26.6319 241.88 27.5951C242.665 28.5584 243.296 29.6747 243.762 30.9441C243.296 32.2135 242.665 33.3234 241.88 34.293Z"
        fill="white" />
    <path d="M179.712 21.5156H170.945V24.8454H179.712V21.5156Z" fill="white" />
    <path d="M169.222 19.8001V14.8691H166.689L164.89 20.1318L160.857 21.1652V23.1299H164.89H169.222V19.8001Z"
        fill="#BD05DD" />
    <path
        d="M177.875 36.9593C177.122 37.1699 176.254 37.2783 175.278 37.2783C173.747 37.2783 172.637 36.9593 171.96 36.3278C171.284 35.6963 170.946 34.5928 170.946 33.0108V24.8457H166.613V33.6742C166.613 35.0712 166.875 36.3087 167.398 37.3867C167.921 38.4648 168.751 39.3068 169.88 39.9192C171.01 40.5316 172.503 40.8378 174.347 40.8378C175.457 40.8378 176.542 40.7038 177.594 40.4359C178.647 40.168 179.464 39.8937 180.045 39.6002V36.0344C179.355 36.4363 178.634 36.7425 177.875 36.953V36.9593Z"
        fill="white" />
    <path
        d="M90.9318 36.2067L80.8312 15.3857H74.0996V40.3721H78.3045V19.5895L88.5646 40.3721H93.2671L103.527 19.5576V40.3721H107.726V15.3857H100.994L90.9318 36.2067Z"
        fill="white" />
    <path
        d="M132.719 26.4474C131.877 24.7378 130.684 23.411 129.14 22.4669C127.595 21.5228 125.771 21.0508 123.659 21.0508C121.547 21.0508 119.677 21.4654 118.044 22.3011C116.41 23.1367 115.134 24.2913 114.209 25.7648C113.284 27.2448 112.824 28.9607 112.824 30.9127C112.824 32.8646 113.316 34.6252 114.292 36.1115C115.268 37.5978 116.614 38.7588 118.324 39.5944C120.034 40.4301 121.987 40.8447 124.188 40.8447C125.898 40.8447 127.583 40.5895 129.235 40.0792C130.888 39.5689 132.292 38.8672 133.453 37.9805V34.8485C132.298 35.6714 130.964 36.3093 129.452 36.7622C127.94 37.2151 126.466 37.4447 125.018 37.4447C123.416 37.4447 122.038 37.1704 120.87 36.6282C119.703 36.086 118.803 35.3014 118.171 34.2807C117.833 33.7385 117.591 33.1325 117.437 32.4819H133.989C133.989 30.1727 133.568 28.1633 132.719 26.4538V26.4474ZM120.239 25.2162C121.183 24.7059 122.287 24.4508 123.557 24.4508C124.756 24.4508 125.796 24.6868 126.67 25.1652C127.544 25.6436 128.246 26.3262 128.77 27.2129C129.108 27.7933 129.344 28.4504 129.491 29.1776H117.374C117.501 28.5142 117.712 27.9082 118.024 27.3596C118.56 26.441 119.294 25.7202 120.239 25.2099V25.2162Z"
        fill="white" />
    <path
        d="M155.486 22.1161C154.241 21.408 152.729 21.0508 150.955 21.0508C149.354 21.0508 147.912 21.4208 146.623 22.1671C145.334 22.9134 144.281 23.9723 143.458 25.3502C143.318 25.5798 143.203 25.8286 143.088 26.0774L142.329 21.5164H137.996L139.132 27.6785V40.3727H143.464V31.1742C143.464 29.8665 143.713 28.7183 144.211 27.7423C144.709 26.7663 145.423 26.0072 146.342 25.4586C147.267 24.9164 148.333 24.6421 149.558 24.6421C151.332 24.6421 152.684 25.1461 153.61 26.1603C154.528 27.1746 154.994 28.6673 154.994 30.6384V40.3663H159.327V29.9367C159.327 28.074 159.001 26.4793 158.344 25.1588C157.687 23.8384 156.736 22.8241 155.492 22.1097L155.486 22.1161Z"
        fill="white" />
    <path
        d="M202.702 26.4474C201.859 24.7378 200.666 23.411 199.122 22.4669C197.578 21.5228 195.753 21.0508 193.641 21.0508C191.529 21.0508 189.659 21.4654 188.026 22.3011C186.393 23.1367 185.116 24.2913 184.191 25.7648C183.266 27.2448 182.807 28.9607 182.807 30.9127C182.807 32.8646 183.298 34.6252 184.274 36.1115C185.25 37.5978 186.597 38.7588 188.307 39.5944C190.017 40.4301 191.969 40.8447 194.171 40.8447C195.881 40.8447 197.565 40.5895 199.218 40.0792C200.87 39.5689 202.274 38.8672 203.435 37.9805V34.8485C202.28 35.6714 200.947 36.3093 199.435 36.7622C197.922 37.2151 196.449 37.4447 195 37.4447C193.399 37.4447 192.02 37.1704 190.853 36.6282C189.685 36.086 188.785 35.3014 188.154 34.2807C187.815 33.7385 187.573 33.1325 187.42 32.4819H203.971C203.971 30.1727 203.55 28.1633 202.702 26.4538V26.4474ZM190.221 25.2162C191.165 24.7059 192.269 24.4508 193.539 24.4508C194.738 24.4508 195.779 24.6868 196.653 25.1652C197.527 25.6436 198.229 26.3262 198.752 27.2129C199.09 27.7933 199.326 28.4504 199.473 29.1776H187.356C187.484 28.5142 187.694 27.9082 188.007 27.3596C188.543 26.441 189.277 25.7202 190.221 25.2099V25.2162Z"
        fill="white" />
    <path
        d="M220.402 21.0508C219.139 21.0508 218.022 21.2932 217.071 21.7844C216.114 22.2755 215.31 22.9517 214.653 23.8192C214.022 24.6549 213.53 25.6373 213.167 26.7472L212.305 21.5164H207.973L209.108 27.5446V40.3727H213.441V31.844C213.441 30.313 213.709 29.0181 214.258 27.9656C214.8 26.913 215.553 26.1157 216.51 25.5862C217.467 25.0568 218.552 24.7889 219.777 24.7889C220.287 24.7889 220.83 24.8207 221.41 24.8909C221.985 24.9547 222.521 25.0568 223.012 25.1907V21.3952C222.655 21.2868 222.246 21.2039 221.78 21.1465C221.315 21.0891 220.855 21.0635 220.415 21.0635L220.402 21.0508Z"
        fill="white" />
    <path
        d="M248.426 21.516H243.96L243.475 26.1726C243.386 26.0259 243.309 25.8728 243.213 25.7261C242.224 24.2462 241.012 23.098 239.583 22.2751C238.147 21.4522 236.558 21.0439 234.804 21.0439C232.96 21.0439 231.326 21.4586 229.903 22.2942C228.48 23.1299 227.37 24.2845 226.573 25.758C225.775 27.2379 225.373 28.9602 225.373 30.9377C225.373 32.9152 225.775 34.612 226.573 36.1047C227.37 37.591 228.48 38.7519 229.903 39.5876C231.326 40.4232 232.96 40.8379 234.804 40.8379C236.648 40.8379 238.154 40.4232 239.583 39.6067C241.018 38.7838 242.224 37.6292 243.201 36.1429C243.296 35.9962 243.379 35.8304 243.475 35.6773L243.966 40.3786H248.433L247.431 30.9505L248.433 21.5224L248.426 21.516ZM241.88 34.293C241.089 35.2563 240.183 36.0154 239.162 36.5576C238.141 37.0998 237.031 37.3741 235.831 37.3741C234.631 37.3741 233.61 37.0998 232.698 36.5576C231.786 36.0154 231.071 35.2563 230.548 34.293C230.025 33.3234 229.763 32.2135 229.763 30.9441C229.763 29.6747 230.025 28.5647 230.548 27.5951C231.071 26.6255 231.786 25.8728 232.698 25.3306C233.61 24.7884 234.651 24.5141 235.831 24.5141C237.011 24.5141 238.141 24.7884 239.162 25.3306C240.183 25.8728 241.089 26.6319 241.88 27.5951C242.665 28.5584 243.296 29.6747 243.762 30.9441C243.296 32.2135 242.665 33.3234 241.88 34.293Z"
        fill="white" />
    <path d="M179.712 21.5156H170.945V24.8454H179.712V21.5156Z" fill="white" />
    <path d="M169.222 19.8001V14.8691H166.689L164.89 20.1318L160.857 21.1652V23.1299H164.89H169.222V19.8001Z"
        fill="#BD05DD" />
    <path
        d="M177.875 36.9593C177.122 37.1699 176.254 37.2783 175.278 37.2783C173.747 37.2783 172.637 36.9593 171.96 36.3278C171.284 35.6963 170.946 34.5928 170.946 33.0108V24.8457H166.613V33.6742C166.613 35.0712 166.875 36.3087 167.398 37.3867C167.921 38.4648 168.751 39.3068 169.88 39.9192C171.01 40.5316 172.503 40.8378 174.347 40.8378C175.457 40.8378 176.542 40.7038 177.594 40.4359C178.647 40.168 179.464 39.8937 180.045 39.6002V36.0344C179.355 36.4363 178.634 36.7425 177.875 36.953V36.9593Z"
        fill="white" />
    <path
        d="M22.6631 45.3141C35.1796 45.3141 45.3262 35.1702 45.3262 22.657C45.3262 10.1439 35.1796 0 22.6631 0C10.1466 0 0 10.1439 0 22.657C0 35.1702 10.1466 45.3141 22.6631 45.3141Z"
        fill="url(#paint0_linear_1451_3033)" />
    <path
        d="M29.8194 55.7135C42.3358 55.7135 52.4825 45.5696 52.4825 33.0564C52.4825 20.5433 42.3358 10.3994 29.8194 10.3994C17.3029 10.3994 7.15625 20.5433 7.15625 33.0564C7.15625 45.5696 17.3029 55.7135 29.8194 55.7135Z"
        fill="url(#paint1_linear_1451_3033)" />
    <defs>
        <linearGradient id="paint0_linear_1451_3033" x1="45.2065" y1="20.2864" x2="0.134688" y2="25.0806"
            gradientUnits="userSpaceOnUse">
            <stop stop-color="white" stop-opacity="0" />
            <stop offset="0.94" stop-color="#8F03A0" />
        </linearGradient>
        <linearGradient id="paint1_linear_1451_3033" x1="52.3615" y1="30.6844" x2="7.28966" y2="35.4787"
            gradientUnits="userSpaceOnUse">
            <stop stop-color="#6EF1BB" />
            <stop offset="1" stop-color="white" stop-opacity="0" />
        </linearGradient>
    </defs>
</svg>