<svg width="33" height="33" viewBox="0 0 33 33" fill="none" xmlns="http://www.w3.org/2000/svg">
<path d="M0 10.1319C0 4.53622 4.53623 0 10.1319 0H22.2903C27.886 0 32.4222 4.53623 32.4222 10.1319V22.2903C32.4222 27.886 27.886 32.4222 22.2903 32.4222H10.1319C4.53622 32.4222 0 27.886 0 22.2903V10.1319Z" fill="#EFF6FF"/>
<path d="M9.8776 22.398C9.59983 22.5091 9.33594 22.4846 9.08594 22.3246C8.83594 22.1646 8.71094 21.9321 8.71094 21.6271V17.8771L15.3776 16.2105L8.71094 14.5438V10.7938C8.71094 10.4883 8.83594 10.2558 9.08594 10.0963C9.33594 9.93687 9.59983 9.91243 9.8776 10.023L22.7109 15.4396C23.0582 15.5924 23.2318 15.8494 23.2318 16.2105C23.2318 16.5716 23.0582 16.8285 22.7109 16.9813L9.8776 22.398Z" fill="#1E3A8A"/>
</svg>
