<svg preserveAspectRatio="none" width="100%" height="100%" overflow="visible" style="display: block;" viewBox="0 0 169 26" fill="none" xmlns="http://www.w3.org/2000/svg">
<g id="Group">
<path id="Vector" d="M16.2975 20.6598L6.51778 0.500283H-9.6718e-07V24.693H4.07129V4.57048L14.0055 24.693H18.5587L28.4929 4.5396V24.693H32.558V0.500283H26.0402L16.2975 20.6598Z" fill="var(--fill-0, #111A53)"/>
<path id="Vector_2" d="M56.7572 11.21C55.9417 9.55478 54.7864 8.2701 53.2913 7.35601C51.7962 6.44191 50.0293 5.98486 47.9844 5.98486C45.9395 5.98486 44.1294 6.38633 42.5478 7.19542C40.9662 8.00452 39.7306 9.12244 38.8348 10.5492C37.939 11.9821 37.4942 13.6435 37.4942 15.5335C37.4942 17.4234 37.9699 19.1281 38.9151 20.5672C39.8604 22.0063 41.1639 23.1304 42.8196 23.9395C44.4753 24.7486 46.3658 25.15 48.4972 25.15C50.1529 25.15 51.7839 24.903 53.384 24.4088C54.9841 23.9147 56.3432 23.2353 57.4676 22.3768V19.3443C56.3494 20.141 55.0582 20.7586 53.594 21.1972C52.1299 21.6357 50.7027 21.858 49.3003 21.858C47.7497 21.858 46.4152 21.5924 45.2846 21.0675C44.1541 20.5425 43.283 19.7828 42.6714 18.7946C42.3439 18.2696 42.1092 17.6828 41.9609 17.0528H57.9866C57.9866 14.817 57.5788 12.8715 56.7572 11.2162V11.21ZM44.673 10.018C45.5874 9.5239 46.6562 9.27685 47.8856 9.27685C49.047 9.27685 50.054 9.50537 50.9004 9.96859C51.7468 10.4318 52.4264 11.0927 52.933 11.9512C53.2604 12.5132 53.489 13.1494 53.6311 13.8535H41.8991C42.0227 13.2112 42.2265 12.6244 42.5293 12.0933C43.0482 11.2039 43.7587 10.5059 44.673 10.0118V10.018Z" fill="var(--fill-0, #111A53)"/>
<path id="Vector_3" d="M78.8002 7.01631C77.5955 6.33074 76.1313 5.98486 74.4139 5.98486C72.8632 5.98486 71.467 6.34309 70.219 7.06572C68.971 7.78835 67.9517 8.81362 67.1547 10.1477C67.0188 10.3701 66.9076 10.6109 66.7964 10.8518L66.0612 6.43573H61.8664L62.966 12.4021V24.693H67.1609V15.7867C67.1609 14.5206 67.4018 13.4088 67.8837 12.4638C68.3656 11.5189 69.0575 10.7839 69.9472 10.2527C70.843 9.72772 71.8747 9.46214 73.0609 9.46214C74.7784 9.46214 76.0881 9.95007 76.9839 10.9321C77.8735 11.9141 78.3245 13.3594 78.3245 15.2679V24.6868H82.5194V14.5885C82.5194 12.785 82.2043 11.2409 81.568 9.96242C80.9316 8.68392 80.0111 7.70188 78.8064 7.01013L78.8002 7.01631Z" fill="var(--fill-0, #111A53)"/>
<path id="Vector_4" d="M124.517 11.21C123.702 9.55478 122.547 8.2701 121.051 7.35601C119.556 6.44191 117.79 5.98486 115.745 5.98486C113.7 5.98486 111.89 6.38633 110.308 7.19542C108.726 8.00452 107.491 9.12244 106.595 10.5492C105.699 11.9821 105.254 13.6435 105.254 15.5335C105.254 17.4234 105.73 19.1281 106.675 20.5672C107.621 22.0063 108.924 23.1304 110.58 23.9395C112.235 24.7486 114.126 25.15 116.257 25.15C117.913 25.15 119.544 24.903 121.144 24.4088C122.744 23.9147 124.103 23.2353 125.228 22.3768V19.3443C124.11 20.141 122.818 20.7586 121.354 21.1972C119.89 21.6357 118.463 21.858 117.061 21.858C115.51 21.858 114.175 21.5924 113.045 21.0675C111.914 20.5425 111.043 19.7828 110.432 18.7946C110.104 18.2696 109.869 17.6828 109.721 17.0528H125.747C125.747 14.817 125.339 12.8715 124.517 11.2162V11.21ZM112.433 10.018C113.348 9.5239 114.416 9.27685 115.646 9.27685C116.807 9.27685 117.814 9.50537 118.661 9.96859C119.507 10.4318 120.187 11.0927 120.693 11.9512C121.021 12.5132 121.249 13.1494 121.391 13.8535H109.659C109.783 13.2112 109.987 12.6244 110.289 12.0933C110.808 11.2039 111.519 10.5059 112.433 10.0118V10.018Z" fill="var(--fill-0, #111A53)"/>
<path id="Vector_5" d="M141.655 5.98486C140.432 5.98486 139.351 6.21956 138.43 6.69514C137.503 7.17072 136.725 7.82541 136.089 8.66539C135.477 9.47449 135.001 10.4256 134.649 11.5003L133.815 6.43573H129.62L130.72 12.2724V24.693H134.915V16.4352C134.915 14.9529 135.174 13.6991 135.706 12.68C136.231 11.6609 136.96 10.8889 137.886 10.3762C138.813 9.8636 139.863 9.60419 141.05 9.60419C141.544 9.60419 142.069 9.63507 142.631 9.70301C143.187 9.76478 143.706 9.8636 144.182 9.9933V6.31838C143.836 6.21339 143.441 6.1331 142.99 6.07751C142.539 6.02192 142.094 5.99722 141.667 5.99722L141.655 5.98486Z" fill="var(--fill-0, #111A53)"/>
<path id="Vector_6" d="M168.789 6.43573H164.464L163.995 10.9445C163.908 10.8024 163.834 10.6542 163.741 10.5121C162.784 9.0792 161.61 7.96746 160.226 7.17072C158.836 6.37397 157.298 5.97869 155.599 5.97869C153.813 5.97869 152.232 6.38015 150.854 7.18925C149.476 7.99835 148.401 9.11626 147.629 10.543C146.857 11.9759 146.468 13.6435 146.468 15.5582C146.468 17.4728 146.857 19.1157 147.629 20.561C148.401 22.0001 149.476 23.1242 150.854 23.9333C152.232 24.7424 153.813 25.1438 155.599 25.1438C157.384 25.1438 158.842 24.7424 160.226 23.9518C161.616 23.1551 162.784 22.0371 163.729 20.5981C163.822 20.456 163.902 20.2954 163.995 20.1472L164.47 24.6991H168.795L167.825 15.5705L168.795 6.44191L168.789 6.43573ZM162.45 18.8069C161.684 19.7395 160.807 20.4745 159.818 20.9995C158.83 21.5245 157.755 21.7901 156.593 21.7901C155.432 21.7901 154.443 21.5245 153.56 20.9995C152.677 20.4745 151.985 19.7395 151.478 18.8069C150.971 17.8681 150.718 16.7934 150.718 15.5643C150.718 14.3353 150.971 13.2606 151.478 12.3218C151.985 11.383 152.677 10.6542 153.56 10.1292C154.443 9.60419 155.45 9.33861 156.593 9.33861C157.736 9.33861 158.83 9.60419 159.818 10.1292C160.807 10.6542 161.684 11.3892 162.45 12.3218C163.21 13.2544 163.822 14.3353 164.273 15.5643C163.822 16.7934 163.21 17.8681 162.45 18.8069Z" fill="var(--fill-0, #111A53)"/>
<g id="Group_2">
<path id="Vector_7" d="M102.258 6.43573H93.7695V9.65978H102.258V6.43573Z" fill="var(--fill-0, #111A53)"/>
<path id="Vector_8" d="M92.1014 4.7743V2.04752e-07H89.6488L87.9066 5.09547L84.0021 6.09604V7.99835H87.9066H92.1014V4.7743Z" fill="var(--fill-0, #BD05DD)"/>
<path id="Vector_9" d="M100.479 21.3886C99.7498 21.5924 98.9096 21.6974 97.9643 21.6974C96.4816 21.6974 95.4067 21.3886 94.7518 20.7772C94.0969 20.1657 93.7695 19.0972 93.7695 17.5655V9.65978H89.5746V18.2078C89.5746 19.5604 89.8279 20.7586 90.3345 21.8024C90.8411 22.8462 91.6443 23.6615 92.7378 24.2544C93.8313 24.8474 95.2769 25.1438 97.0624 25.1438C98.1373 25.1438 99.1876 25.0141 100.207 24.7547C101.226 24.4953 102.017 24.2297 102.579 23.9456V20.4931C101.912 20.8822 101.214 21.1786 100.479 21.3824V21.3886Z" fill="var(--fill-0, #111A53)"/>
</g>
</g>
</svg>
